<svg width="19" height="20" viewBox="0 0 19 20" fill="none" xmlns="http://www.w3.org/2000/svg">
<path fill-rule="evenodd" clip-rule="evenodd" d="M0.851562 9.96289C0.851562 6.36775 0.851562 4.57018 1.70825 3.27544C2.09081 2.69728 2.58595 2.20214 3.16412 1.81958C4.45885 0.962891 6.25642 0.962891 9.85156 0.962891C13.4467 0.962891 15.2443 0.962891 16.539 1.81958C17.1172 2.20214 17.6123 2.69728 17.9949 3.27544C18.8516 4.57018 18.8516 6.36775 18.8516 9.96289C18.8516 13.558 18.8516 15.3556 17.9949 16.6503C17.6123 17.2285 17.1172 17.7236 16.539 18.1062C15.2443 18.9629 13.4467 18.9629 9.85156 18.9629C6.25642 18.9629 4.45885 18.9629 3.16412 18.1062C2.58595 17.7236 2.09081 17.2285 1.70825 16.6503C0.851562 15.3556 0.851562 13.558 0.851562 9.96289ZM14.5102 9.96214C14.5102 12.5355 12.4241 14.6216 9.85082 14.6216C7.2775 14.6216 5.19141 12.5355 5.19141 9.96214C5.19141 7.38882 7.2775 5.30273 9.85082 5.30273C12.4241 5.30273 14.5102 7.38882 14.5102 9.96214ZM9.85082 13.0451C11.5535 13.0451 12.9338 11.6648 12.9338 9.96214C12.9338 8.25945 11.5535 6.87914 9.85082 6.87914C8.14812 6.87914 6.76781 8.25945 6.76781 9.96214C6.76781 11.6648 8.14812 13.0451 9.85082 13.0451ZM14.6925 6.16426C15.2971 6.16426 15.7873 5.67409 15.7873 5.06943C15.7873 4.46478 15.2971 3.97461 14.6925 3.97461C14.0878 3.97461 13.5977 4.46478 13.5977 5.06943C13.5977 5.67409 14.0878 6.16426 14.6925 6.16426Z" fill="#fff" fill-opacity="0.6"/>
</svg>
