<svg viewBox="0 0 19 19" fill="none" xmlns="http://www.w3.org/2000/svg">
<path d="M0.851562 2.88392C0.851562 2.30671 1.05427 1.83052 1.45967 1.45535C1.86507 1.08016 2.39211 0.892578 3.04075 0.892578C3.67782 0.892578 4.19326 1.07727 4.58708 1.44669C4.99248 1.82764 5.19519 2.32402 5.19519 2.93587C5.19519 3.48998 4.99829 3.95173 4.60446 4.32115C4.19906 4.7021 3.66623 4.89258 3.006 4.89258H2.98863C2.35156 4.89258 1.83612 4.7021 1.4423 4.32115C1.04847 3.9402 0.851562 3.46111 0.851562 2.88392ZM1.07743 18.0354V6.46833H4.93457V18.0354H1.07743ZM7.07164 18.0354H10.9288V11.5766C10.9288 11.1725 10.9751 10.8608 11.0678 10.6415C11.2299 10.249 11.4761 9.91709 11.8062 9.64582C12.1363 9.37453 12.5504 9.2389 13.0485 9.2389C14.3458 9.2389 14.9944 10.1105 14.9944 11.8536V18.0354H18.8516V11.4034C18.8516 9.69488 18.4462 8.39907 17.6353 7.51595C16.8245 6.63284 15.7531 6.19128 14.4211 6.19128C12.9269 6.19128 11.7628 6.83197 10.9288 8.11335V8.14799H10.9114L10.9288 8.11335V6.46833H7.07164C7.0948 6.83774 7.10639 7.98636 7.10639 9.91422C7.10639 11.8421 7.0948 14.5491 7.07164 18.0354Z" fill="#fff" fill-opacity="0.6"/>
</svg>
