<svg width="19" height="16" viewBox="0 0 19 16" fill="none" xmlns="http://www.w3.org/2000/svg">
<path d="M12.8747 0.665351V0.662109H13.7187L14.0271 0.723701C14.2327 0.763687 14.4193 0.816089 14.5871 0.880923C14.7548 0.945757 14.9171 1.0214 15.074 1.10784C15.2309 1.19428 15.3732 1.28236 15.5009 1.37204C15.6275 1.46065 15.7411 1.55466 15.8417 1.65406C15.9412 1.75456 16.0965 1.78049 16.3075 1.73186C16.5185 1.68324 16.7458 1.6157 16.9892 1.52926C17.2327 1.44282 17.4735 1.34557 17.7115 1.23751C17.9496 1.12945 18.0946 1.06084 18.1465 1.03166C18.1974 1.00142 18.2244 0.985208 18.2277 0.983036L18.2309 0.978173L18.2471 0.970069L18.2633 0.961965L18.2796 0.953861L18.2958 0.945757L18.2991 0.940894L18.3039 0.937652L18.3088 0.934411L18.312 0.929548L18.3283 0.924686L18.3445 0.921444L18.3413 0.945757L18.3364 0.970069L18.3283 0.994382L18.3202 1.01869L18.312 1.0349L18.3039 1.05111L18.2958 1.07542C18.2904 1.09163 18.285 1.11324 18.2796 1.14026C18.2742 1.16728 18.2228 1.27532 18.1254 1.46443C18.028 1.65353 17.9063 1.84532 17.7602 2.03982C17.6141 2.23432 17.4832 2.38127 17.3674 2.48069C17.2506 2.58118 17.1732 2.65142 17.1353 2.6914C17.0974 2.73246 17.0515 2.77027 16.9973 2.80486L16.9162 2.85835L16.9 2.86645L16.8837 2.87456L16.8805 2.87942L16.8756 2.88266L16.8707 2.8859L16.8675 2.89077L16.8513 2.89887L16.835 2.90697L16.8318 2.91184L16.8269 2.91508L16.822 2.91832L16.8188 2.92318L16.8156 2.92805L16.8107 2.93129L16.8058 2.93453L16.8026 2.93939H16.8837L17.3382 2.84214C17.6412 2.77731 17.9306 2.69897 18.2065 2.60712L18.6448 2.46124L18.6935 2.44503L18.7178 2.43693L18.734 2.42883L18.7503 2.42072L18.7665 2.41262L18.7827 2.40451L18.8152 2.39965L18.8477 2.39641V2.42883L18.8395 2.43207L18.8314 2.43693L18.8282 2.44179L18.8233 2.44503L18.8184 2.44828L18.8152 2.45314L18.812 2.458L18.8071 2.46124L18.8022 2.46448L18.799 2.46935L18.7957 2.47421L18.7908 2.47745L18.7827 2.49366L18.7746 2.50987L18.7697 2.51311C18.7676 2.51635 18.6989 2.60819 18.5636 2.78865C18.4284 2.97019 18.3553 3.06202 18.3445 3.0642C18.3337 3.06744 18.3185 3.08365 18.2991 3.11282C18.2807 3.14307 18.166 3.26356 17.955 3.47427C17.744 3.68498 17.5373 3.87244 17.335 4.0367C17.1315 4.20203 17.0287 4.40517 17.0266 4.64614C17.0233 4.88602 17.0109 5.15725 16.9892 5.4598C16.9676 5.76236 16.927 6.08922 16.8675 6.44041C16.808 6.79159 16.716 7.1887 16.5916 7.63172C16.4671 8.07475 16.3156 8.50698 16.1371 8.9284C15.9586 9.34982 15.7719 9.72801 15.5771 10.063C15.3824 10.398 15.2038 10.6816 15.0415 10.9139C14.8792 11.1462 14.7142 11.3651 14.5465 11.5704C14.3788 11.7757 14.1667 12.0069 13.9103 12.2641C13.6527 12.5202 13.5121 12.6607 13.4882 12.6855C13.4634 12.7093 13.3573 12.7979 13.1701 12.9513C12.984 13.1058 12.7838 13.2604 12.5696 13.4149C12.3564 13.5683 12.1606 13.6964 11.982 13.799C11.8035 13.9017 11.5882 14.0189 11.336 14.1507C11.085 14.2837 10.8134 14.4068 10.5212 14.5203C10.2291 14.6338 9.9207 14.7391 9.59608 14.8364C9.27146 14.9336 8.95767 15.0093 8.65469 15.0633C8.35172 15.1173 8.00817 15.1632 7.62403 15.2011L7.04784 15.2578V15.2659H5.99283V15.2578L5.85487 15.2497C5.76291 15.2443 5.68716 15.2389 5.62764 15.2335C5.56814 15.2281 5.3436 15.1983 4.95406 15.1443C4.56452 15.0903 4.25884 15.0363 4.03702 14.9822C3.81521 14.9282 3.48517 14.8256 3.04693 14.6743C2.6087 14.523 2.23377 14.3701 1.92214 14.2156C1.61159 14.0621 1.41682 13.9649 1.33783 13.9238C1.25992 13.8838 1.17227 13.8341 1.07489 13.7747L0.92881 13.6856L0.925581 13.6807L0.920695 13.6775L0.915826 13.6742L0.91258 13.6694L0.896349 13.6613L0.880118 13.6531L0.876888 13.6483L0.872003 13.645L0.867133 13.6418L0.863887 13.6369L0.860657 13.6321L0.855772 13.6288H0.847656V13.5964L0.863887 13.5997L0.880118 13.6045L0.953157 13.6126C1.00185 13.618 1.13441 13.6261 1.35081 13.6369C1.56723 13.6478 1.79716 13.6478 2.04062 13.6369C2.28409 13.6261 2.53297 13.6018 2.78724 13.564C3.04153 13.5262 3.3418 13.4614 3.68805 13.3695C4.03432 13.2776 4.35245 13.1685 4.64244 13.0421C4.93135 12.9146 5.13693 12.8195 5.25921 12.7568C5.38039 12.6952 5.56543 12.5807 5.81429 12.4132L6.1876 12.162L6.19085 12.1571L6.19572 12.1539L6.2006 12.1506L6.20383 12.1458L6.20708 12.1409L6.21195 12.1377L6.21683 12.1344L6.22006 12.1296L6.23629 12.1247L6.25253 12.1215L6.25577 12.1052L6.26064 12.089L6.26553 12.0858L6.26876 12.0809L6.13891 12.0728C6.05235 12.0674 5.96849 12.062 5.88733 12.0566C5.80618 12.0512 5.67904 12.0269 5.50591 11.9837C5.33279 11.9405 5.14613 11.8756 4.94594 11.7892C4.74577 11.7027 4.551 11.6001 4.36163 11.4812C4.17228 11.3624 4.03539 11.2635 3.95099 11.1846C3.86768 11.1068 3.75947 10.9966 3.62638 10.854C3.49437 10.7103 3.37967 10.5627 3.28228 10.4115C3.1849 10.2602 3.09185 10.0857 3.00313 9.88794L2.8684 9.59294L2.86028 9.56863L2.85216 9.54432L2.8473 9.52811L2.84405 9.5119L2.8684 9.51514L2.89274 9.52L3.07128 9.54432C3.19032 9.56053 3.37697 9.56592 3.63125 9.56053C3.88553 9.55513 4.06136 9.54432 4.15875 9.52811C4.25613 9.5119 4.31565 9.50109 4.33729 9.49569L4.36975 9.48759L4.41033 9.47948L4.4509 9.47138L4.45415 9.46652L4.45902 9.46327L4.4639 9.46003L4.46713 9.45517L4.43467 9.44707L4.40221 9.43896L4.36975 9.43086L4.33729 9.42275L4.30482 9.41465C4.28319 9.40925 4.24532 9.39844 4.19121 9.38223C4.13711 9.36602 3.99103 9.30659 3.75298 9.20394C3.51493 9.10129 3.32557 9.00134 3.1849 8.90409C3.04388 8.80655 2.90941 8.69989 2.78237 8.58478C2.65577 8.46808 2.51674 8.31788 2.36524 8.13419C2.21376 7.9505 2.07851 7.73708 1.95947 7.49395C1.84045 7.25083 1.75118 7.01851 1.69166 6.79699C1.63238 6.57677 1.59327 6.35163 1.57481 6.12434L1.54558 5.78397L1.56181 5.78721L1.57804 5.79207L1.59427 5.80017L1.61051 5.80828L1.62674 5.81638L1.64297 5.82449L1.89455 5.93795C2.06227 6.01359 2.27057 6.07842 2.51943 6.13245C2.76832 6.18647 2.91709 6.2162 2.96578 6.22159L3.03882 6.2297H3.1849L3.18167 6.22484L3.17678 6.22159L3.17191 6.21835L3.16867 6.21349L3.16544 6.20863L3.16055 6.20539L3.15568 6.20214L3.15244 6.19728L3.1362 6.18918L3.11997 6.18107L3.11674 6.17621L3.11186 6.17297L3.10699 6.16973L3.10374 6.16486L3.08751 6.15676L3.07128 6.14866L3.06805 6.14379C3.06481 6.14162 3.01827 6.10705 2.92845 6.04006C2.83972 5.97198 2.74666 5.88392 2.64928 5.77586C2.55189 5.6678 2.45451 5.55434 2.35712 5.43549C2.25956 5.31636 2.17266 5.1889 2.09743 5.05459C2.0217 4.91952 1.94161 4.7477 1.85721 4.53916C1.7739 4.33169 1.7106 4.1226 1.66731 3.9119C1.62404 3.70119 1.5997 3.49318 1.59427 3.28787C1.58887 3.08256 1.59427 2.90697 1.61051 2.7611C1.62674 2.61522 1.6592 2.45043 1.70789 2.26674C1.75658 2.08305 1.82693 1.88855 1.91889 1.68324L2.05685 1.37528L2.06497 1.35097L2.07308 1.32665L2.07797 1.32341L2.0812 1.31855L2.08445 1.31369L2.08932 1.31045L2.0942 1.31369L2.09743 1.31855L2.10068 1.32341L2.10555 1.32665L2.11043 1.3299L2.11366 1.33476L2.11691 1.33962L2.12178 1.34286L2.12989 1.35907L2.13801 1.37528L2.14289 1.37852L2.14612 1.38338L2.36524 1.62651C2.51132 1.78859 2.68445 1.96959 2.88463 2.16949C3.08482 2.36939 3.19572 2.47312 3.21736 2.48069C3.23901 2.48933 3.26605 2.51418 3.29851 2.55525C3.33097 2.59524 3.43919 2.69087 3.62313 2.84214C3.80709 2.99341 4.04784 3.16902 4.3454 3.36891C4.64298 3.56881 4.973 3.76602 5.33548 3.96052C5.69798 4.15502 6.08752 4.33061 6.5041 4.48729C6.9207 4.64398 7.21286 4.74663 7.38057 4.79525C7.5483 4.84388 7.83503 4.90601 8.2408 4.98165C8.64657 5.05729 8.95227 5.10592 9.15785 5.12753C9.36344 5.14913 9.50411 5.16156 9.57985 5.1648L9.69346 5.16805L9.69023 5.14373L9.68535 5.11942L9.65289 4.91682C9.63125 4.78175 9.62042 4.59265 9.62042 4.34952C9.62042 4.1064 9.63937 3.88219 9.67723 3.67687C9.71512 3.47156 9.77192 3.26356 9.84766 3.05285C9.92341 2.84214 9.99753 2.67302 10.07 2.54553C10.1436 2.4191 10.2399 2.27485 10.3589 2.11276C10.478 1.95068 10.6322 1.7832 10.8215 1.6103C11.0109 1.43741 11.2273 1.28343 11.4707 1.14836C11.7142 1.0133 11.9387 0.910633 12.1443 0.840402C12.3499 0.770171 12.5231 0.724236 12.6637 0.70263C12.8044 0.681025 12.8747 0.668593 12.8747 0.665351Z" fill="#fff" fill-opacity="0.6"/>
</svg>
