<svg width="21" height="16" viewBox="0 0 21 16" fill="none" xmlns="http://www.w3.org/2000/svg">
<path d="M11.2879 14.9431L7.22568 14.8671C5.91044 14.8407 4.59191 14.8935 3.30246 14.6194C1.34089 14.2099 1.20193 12.202 1.05652 10.5178C0.856153 8.14991 0.933719 5.73909 1.31183 3.39102C1.52528 2.0735 2.36532 1.28733 3.6644 1.20178C8.04975 0.891307 12.4643 0.928102 16.8399 1.07295C17.302 1.08623 17.7673 1.1588 18.223 1.24142C20.4723 1.64433 20.5271 3.91973 20.673 5.83519C20.8184 7.77041 20.757 9.71557 20.479 11.6376C20.2561 13.229 19.8295 14.5636 18.0291 14.6924C15.7733 14.8609 13.5693 14.9965 11.3072 14.9533C11.3073 14.9431 11.2943 14.9431 11.2879 14.9431ZM8.8997 10.9141C10.5996 9.91667 12.2671 8.93588 13.9573 7.94516C12.2542 6.94775 10.5899 5.96696 8.8997 4.97624V10.9141Z" fill="#fff" fill-opacity="0.6"/>
</svg>
