<svg width="20" height="15" viewBox="0 0 20 15" fill="none" xmlns="http://www.w3.org/2000/svg">
<path d="M18.3346 3.51794V11.8513C18.3346 12.4038 18.1151 12.9337 17.7244 13.3244C17.3337 13.7151 16.8038 13.9346 16.2513 13.9346H3.7513C3.19877 13.9346 2.66886 13.7151 2.27816 13.3244C1.88746 12.9337 1.66797 12.4038 1.66797 11.8513V3.51794" stroke="#fff" stroke-width="1.4" stroke-linecap="round" stroke-linejoin="round"/>
<path d="M18.3346 3.51796C18.3346 2.96543 18.1151 2.43553 17.7244 2.04483C17.3337 1.65412 16.8038 1.43463 16.2513 1.43463H3.7513C3.19877 1.43463 2.66886 1.65412 2.27816 2.04483C1.88746 2.43553 1.66797 2.96543 1.66797 3.51796L8.89714 8.03185C9.22824 8.2388 9.61084 8.34852 10.0013 8.34852C10.3918 8.34852 10.7744 8.2388 11.1055 8.03185L18.3346 3.51796Z" stroke="#fff" stroke-width="1.4" stroke-linecap="round" stroke-linejoin="round"/>
</svg>
