<svg width="16" height="19" viewBox="0 0 16 19" fill="none" xmlns="http://www.w3.org/2000/svg">
<path d="M14.8621 8.22431C14.8621 13.6031 9.35296 16.9169 8.20807 17.5481C8.14464 17.5831 8.07339 17.6014 8.00096 17.6014C7.92852 17.6014 7.85727 17.5831 7.79385 17.5481C6.6481 16.9169 1.14062 13.6031 1.14062 8.22431C1.14062 3.93634 3.71341 0.934753 8.00139 0.934753C12.2894 0.934753 14.8621 3.93634 14.8621 8.22431Z" stroke="#17436d" stroke-width="1.4" stroke-linecap="round" stroke-linejoin="round"/>
<path d="M4.57031 7.79549C4.57031 8.70529 4.93173 9.57782 5.57505 10.2211C6.21837 10.8645 7.0909 11.2259 8.00069 11.2259C8.91049 11.2259 9.78302 10.8645 10.4263 10.2211C11.0697 9.57782 11.4311 8.70529 11.4311 7.79549C11.4311 6.8857 11.0697 6.01317 10.4263 5.36985C9.78302 4.72653 8.91049 4.36511 8.00069 4.36511C7.0909 4.36511 6.21837 4.72653 5.57505 5.36985C4.93173 6.01317 4.57031 6.8857 4.57031 7.79549V7.79549Z" stroke="#17436d" stroke-width="1.4" stroke-linecap="round" stroke-linejoin="round"/>
</svg>
