<svg width="20" height="19" viewBox="0 0 20 19" fill="none" xmlns="http://www.w3.org/2000/svg">
<path d="M12.2529 16.9535L12.262 16.9599C13.049 17.461 13.9835 17.6787 14.911 17.5768C15.8384 17.4749 16.7034 17.0597 17.3629 16.3997L17.9359 15.8268C18.0628 15.6999 18.1635 15.5492 18.2323 15.3834C18.301 15.2176 18.3364 15.0398 18.3364 14.8603C18.3364 14.6808 18.301 14.5031 18.2323 14.3373C18.1635 14.1714 18.0628 14.0208 17.9359 13.8939L15.5193 11.4791C15.3924 11.3522 15.2417 11.2515 15.0759 11.1827C14.9101 11.114 14.7324 11.0786 14.5529 11.0786C14.3734 11.0786 14.1956 11.114 14.0298 11.1827C13.864 11.2515 13.7133 11.3522 13.5864 11.4791C13.3302 11.7353 12.9827 11.8792 12.6204 11.8792C12.2581 11.8792 11.9107 11.7353 11.6544 11.4791L7.79048 7.61428C7.53433 7.35806 7.39044 7.01059 7.39044 6.64829C7.39044 6.28599 7.53433 5.93852 7.79048 5.6823C7.91745 5.55542 8.01817 5.40475 8.08689 5.23893C8.1556 5.0731 8.19097 4.89536 8.19097 4.71586C8.19097 4.53636 8.1556 4.35861 8.08689 4.19279C8.01817 4.02696 7.91745 3.8763 7.79048 3.74941L5.37482 1.33467C5.1186 1.07853 4.77114 0.934631 4.40884 0.934631C4.04654 0.934631 3.69907 1.07853 3.44285 1.33467L2.86899 1.90761C2.20914 2.56725 1.79408 3.43227 1.69239 4.35973C1.5907 5.2872 1.80847 6.2216 2.30971 7.00854L2.31518 7.01765C4.96236 10.9342 8.3358 14.3071 12.2529 16.9535V16.9535Z" stroke="#fff" stroke-width="1.4" stroke-linecap="round" stroke-linejoin="round"/>
</svg>
