<svg width="76" height="100" viewBox="0 0 76 100" fill="none" xmlns="http://www.w3.org/2000/svg">
<path d="M29.8867 69.929L34.6337 94.5962H40.9064L46.8401 68.9966" stroke="#171714" stroke-width="3.38048" stroke-miterlimit="10"/>
<path d="M47.0117 89.5103L53.8779 66.7927L21.8359 67.8099V71.2006L31.0755 96.2917" stroke="#171714" stroke-width="3.38048" stroke-miterlimit="10"/>
<path d="M45.9916 99.2582H29.8858C29.2925 99.2582 28.8686 98.9191 28.6991 98.4105L26.5799 89.7642C26.4104 89.0861 27.0037 88.408 27.7666 88.408H48.1955C48.9584 88.408 49.5518 89.0861 49.3822 89.7642L47.2631 98.4105C47.0088 98.9191 46.5002 99.2582 45.9916 99.2582Z" fill="#17436D"/>
<path d="M37.8554 0.250183C0.557907 0.250183 -2.57847 25.8498 2.25325 42.9728C5.38963 53.9925 13.1034 66.2837 21.6649 74.0823H52.7744C61.1663 66.3685 70.1516 54.0772 73.5423 42.9728C78.6283 25.8498 76.0853 0.250183 37.8554 0.250183Z" fill="#4592BA"/>
<path d="M37.9365 0.25C16.5752 0.25 14.7951 25.8496 17.5924 42.9726C19.3726 53.9923 24.7129 66.2835 29.6294 74.0821H46.4132C51.2449 66.3683 56.4157 54.0771 58.2806 42.9726C61.2475 25.8496 59.8064 0.25 37.9365 0.25Z" fill="#FBB45C"/>
<path d="M38.0255 0.25C29.7183 0.25 29.0402 25.8496 30.0574 42.9726C30.7355 53.9923 32.8547 66.2835 34.8043 74.0821H41.3314C43.1963 66.3683 45.2307 54.0771 45.9936 42.9726C47.0956 25.8496 46.5022 0.25 38.0255 0.25Z" fill="#98B08B"/>
<path d="M59.6403 60.9436C59.3013 60.6893 58.7079 60.6893 58.4536 61.0284C57.2669 62.5542 56.0801 64.1647 54.9781 65.6906C54.7238 66.0296 54.7238 66.623 55.0629 66.8773C55.402 67.1316 55.9953 67.1316 56.2496 66.7925C57.4364 65.2667 58.6231 63.6561 59.7251 62.1303C60.0642 61.7913 60.0642 61.2827 59.6403 60.9436Z" fill="#1B2226"/>
<path d="M69.3038 28.6473C69.3886 36.785 67.778 44.8378 64.4721 52.2973C64.0482 53.3145 65.574 53.9927 65.9979 52.9755C69.4733 45.2617 71.1687 36.8697 70.9991 28.4778C70.9144 27.3758 69.219 27.5453 69.3038 28.6473Z" fill="#1B2226"/>
<path d="M55.5703 27.8843C55.5703 27.4604 55.0617 27.0366 54.6379 27.1214C54.2141 27.2062 53.875 27.5452 53.875 28.0538L54.1293 31.5293C54.1293 31.9531 54.6379 32.3769 55.0617 32.2922C55.4856 32.2074 55.8246 31.8683 55.8246 31.3597C55.8246 30.173 55.6551 29.071 55.5703 27.8843Z" fill="#1B2226"/>
<path d="M35.9883 28.7317C35.9883 28.3079 35.4797 27.884 35.0559 27.9688C34.632 28.0536 34.293 28.3926 34.293 28.9012C34.3777 30.088 34.4625 31.2747 34.5473 32.3767C34.5473 32.8005 35.0559 33.2244 35.4797 33.1396C35.9035 33.0548 36.2426 32.7157 36.2426 32.2071C36.1578 31.1052 36.0731 29.9184 35.9883 28.7317Z" fill="#1B2226"/>
<path d="M22.8547 26.1043C21.9223 29.9188 21.7528 33.9029 22.3461 37.7174C22.5157 38.8193 24.211 38.6498 24.0415 37.5478C23.4481 33.8181 23.6176 30.0036 24.5501 26.3586C24.8044 25.2566 23.109 25.0023 22.8547 26.1043Z" fill="#1B2226"/>
<path d="M15.986 55.1792L12.1715 47.8892C12.002 47.4654 11.5781 47.2111 11.0695 47.3806C10.6457 47.5502 10.3914 48.0587 10.5609 48.4826L14.3754 55.7725C14.545 56.1964 14.9688 56.4507 15.4774 56.2812C15.9012 56.1116 16.2403 55.603 15.986 55.1792Z" fill="#1B2226"/>
<path d="M44.8894 93.0704C44.8894 94.0876 43.7027 94.681 42.855 94.0876C42.2617 93.6638 41.9226 92.8161 41.3292 92.3923C39.7187 91.036 38.0233 92.3075 36.8366 93.4095C36.2432 93.9181 35.3955 94.681 34.7174 93.9181C34.2936 93.4095 34.0393 92.7314 33.4459 92.2228C31.7506 90.8665 29.9705 92.4771 29.038 93.9181C28.4446 94.8505 29.8009 95.9525 30.3095 95.0201C30.6486 94.4267 31.581 92.9009 32.4287 93.6638C33.0221 94.1724 33.1916 94.9353 33.785 95.4439C34.4631 96.0373 35.4803 96.122 36.328 95.783C37.2604 95.3591 37.9386 94.5962 38.7015 94.0029C39.0405 93.7486 39.5491 93.3247 40.0577 93.579C40.3968 93.7486 40.6511 94.1724 40.9054 94.4267C41.4988 95.1048 42.0074 95.783 42.9398 96.0373C44.9742 96.5459 46.5848 94.9353 46.5848 92.9856C46.5848 91.7989 44.9742 91.9684 44.8894 93.0704Z" fill="#FBB45C"/>
<path d="M35.481 89.3403C34.379 89.3403 34.5485 91.0357 35.6505 91.0357C36.7525 91.0357 36.5829 89.3403 35.481 89.3403Z" fill="#FBB45C"/>
<path d="M43.1138 90.0186C42.0118 90.0186 42.1813 91.7139 43.2833 91.7139C44.3853 91.7139 44.2157 90.0186 43.1138 90.0186Z" fill="#FBB45C"/>
<path d="M31.5005 95.8673C30.3985 95.8673 30.5681 97.5626 31.67 97.5626C32.772 97.5626 32.6025 95.8673 31.5005 95.8673Z" fill="#FBB45C"/>
<path d="M39.1255 95.8673C38.0235 95.8673 38.1931 97.5626 39.295 97.5626C40.397 97.5626 40.2275 95.8673 39.1255 95.8673Z" fill="#FBB45C"/>
<path d="M28.7856 89.9336C27.6837 89.9336 27.8532 91.6289 28.9552 91.6289C30.0571 91.6289 29.8029 89.9336 28.7856 89.9336Z" fill="#FBB45C"/>
</svg>
