<svg width="331" height="256" viewBox="0 0 331 256" fill="none" xmlns="http://www.w3.org/2000/svg">
<path d="M300.289 139.116C300.764 137.962 301.198 136.252 300.818 134.881C299.812 128.801 292.321 129.63 288.507 131.029L262.03 139.964C260.36 140.087 258.99 140.467 257.32 140.59C253.982 140.835 250.697 137.999 251.008 134.619C266.369 122.863 280.835 110.333 294.405 97.0295C298.055 93.405 299.017 87.4602 295.352 83.2536C291.985 79.3047 285.484 78.3831 281.576 82.3062C280.803 83.2021 279.988 83.5416 279.215 84.4375C274.967 87.5463 271.059 91.4695 266.812 94.5783C259.688 100.416 252.563 106.253 244.842 111.575C243.512 112.512 241.028 112.974 239.834 111.942C242.113 108.698 244.094 105.196 246.374 101.952L270.769 64.6374C274.813 58.7463 270.984 52.3139 266.07 50.1568C263.98 48.3522 260.641 48.5971 257.683 50.2127C255.539 51.4889 253.734 53.5794 252.486 55.629C249.175 60.0677 246.421 64.4657 243.707 69.42L233.938 84.962C230.668 89.9572 227.141 95.251 223.871 100.246C222.839 101.441 222.025 101.78 221.469 101.821C219.759 101.387 220.586 97.4102 220.762 95.9987C220.721 95.4423 220.938 94.5871 220.897 94.0307C226.296 79.9282 231.356 65.0114 235.601 50.4341C239.195 38.4221 220.777 31.3818 216.924 43.6924C210.17 66.0064 202.302 88.4019 192.982 110.065C191.476 112.413 189.97 114.761 188.166 116.852C186.877 118.345 185.031 119.879 183.104 120.3C180.362 121.061 177.797 120.41 175.449 118.904C175.069 117.533 174.39 115.904 174.01 114.534C169.691 101.424 163.961 88.1378 152.179 80.0511C148.039 76.9982 141.402 78.0446 138.39 82.7411C135.636 87.139 136.343 92.9614 140.483 96.0143C140.781 96.2721 140.524 96.5707 140.822 96.8285C145.669 105.704 147.476 115.082 148.767 125.057C150.753 144.492 146.303 156.287 160.502 170.63C171.376 181.581 189.919 201.759 205.487 204.253C234.098 209.147 240.904 172.284 261.572 160.418C272.035 154.335 284.453 152.026 294.02 145.17C296.68 143.296 299.082 141.722 300.289 139.116Z" fill="#98B08B"/>
<path d="M157.333 68.7912C156.337 68.04 154.792 67.1877 153.37 67.2089C147.233 66.644 146.141 74.1018 146.53 78.1451L148.478 106.022C148.174 107.668 148.196 109.09 147.892 110.736C147.285 114.028 143.71 116.489 140.519 115.333C133.03 97.4978 124.566 80.3336 115.127 63.8406C112.544 59.3924 107.036 56.9577 102.039 59.4399C97.3668 61.6984 94.8309 67.7552 97.6381 72.5283C98.3092 73.5032 98.4317 74.3769 99.1029 75.3517C101.036 80.2474 103.844 85.0205 105.777 89.9162C109.623 98.2852 113.469 106.654 116.665 115.471C117.234 116.994 117.053 119.514 115.753 120.409C113.191 117.383 110.304 114.581 107.742 111.555L77.8105 78.5151C73.1335 73.1133 65.9419 75.1905 62.6123 79.3988C60.3376 80.9648 59.7301 84.2569 60.5451 87.5278C61.2375 89.925 62.8035 92.1997 64.4708 93.9258C67.9279 98.2515 71.4862 102.029 75.5933 105.907L88.1592 119.289C92.165 123.716 96.3945 128.468 100.4 132.895C101.295 134.195 101.418 135.068 101.316 135.617C100.464 137.162 96.8257 135.356 95.5046 134.828C94.956 134.727 94.1835 134.301 93.6348 134.2C81.3563 125.41 68.2041 116.742 55.1744 108.948C44.462 102.432 32.9922 118.472 43.9284 125.312C63.8085 137.491 83.4861 150.766 102.088 165.262C103.979 167.313 105.87 169.364 107.436 171.639C108.554 173.264 109.572 175.437 109.492 177.408C109.534 180.253 108.256 182.57 106.205 184.461C104.782 184.482 103.035 184.727 101.613 184.749C87.8369 185.611 73.5335 187.794 62.7298 197.148C58.7291 200.382 58.063 207.067 61.845 211.169C65.4034 214.946 71.2152 215.735 75.2159 212.501C75.5409 212.278 75.7646 212.603 76.0895 212.379C85.9021 209.934 95.4322 210.558 105.41 211.831C124.715 214.826 135.001 222.114 152.469 212.004C165.814 204.254 190.026 191.416 196.376 176.986C208.347 150.543 174.404 134.634 168.151 111.637C164.913 99.9762 165.819 87.3777 161.605 76.3878C160.465 73.3407 159.549 70.6185 157.333 68.7912Z" fill="#89C6E5"/>
</svg>
