<svg width="69" height="73" viewBox="0 0 69 73" fill="none" xmlns="http://www.w3.org/2000/svg">
<path d="M0.578363 20.2034C0.238483 17.6543 -0.101408 15.1052 0.408412 12.5561C2.27775 3.3793 13.8337 -1.88884 22.5006 1.50996C31.1676 5.0787 36.0958 15.2751 34.9062 24.6218C35.9259 15.9549 42.2136 10.5168 50.3708 8.98737C52.58 8.47755 54.7892 8.13764 56.9984 8.47752C65.1556 9.49716 69.9139 19.1838 68.5544 27.3409C67.0249 35.498 61.2469 41.9557 55.299 47.7337C45.6125 57.0804 34.7363 66.4271 22.8405 72.8848C12.4742 57.4202 4.31704 41.106 0.918238 22.4126C0.918238 21.393 0.748303 20.7132 0.578363 20.2034Z" fill="#F67E7D"/>
<path d="M60.5654 29.2095C59.5458 28.8696 58.6961 29.2095 58.0163 30.2292C58.0163 30.3991 57.8464 30.3991 57.8464 30.569C57.6765 30.739 57.5065 31.0788 57.3366 31.2488C56.9967 31.7586 56.6568 32.2684 56.3169 32.7783C55.6372 33.628 54.7875 34.6476 54.1077 35.4973C53.7678 35.8371 53.258 36.347 52.9181 36.6869C52.9181 36.6869 52.9181 36.6869 52.7482 36.8568C52.5783 37.0268 52.5783 37.0267 52.4083 37.1967C52.2384 37.3666 51.8985 37.5366 51.7285 37.7065C50.8788 38.5562 49.8592 39.236 48.8396 39.9157C47.9899 40.4255 47.8199 41.7851 48.3297 42.4648C49.0095 43.3145 50.0291 43.4845 50.8788 42.9747C55.1273 40.0857 58.6961 36.347 61.4151 31.9286C62.0949 30.739 61.5851 29.5494 60.5654 29.2095Z" fill="#FBB45C"/>
<path d="M51.223 27.5111C50.3733 26.8314 49.1838 27.0013 48.504 27.851C46.8046 30.0602 44.9353 32.0995 43.2359 34.3087C42.5561 35.1584 42.726 36.348 43.5757 37.0278C44.4254 37.7075 45.615 37.5376 46.2948 36.6879L51.5629 30.2302C52.0727 29.3805 52.0727 28.0209 51.223 27.5111Z" fill="#FBB45C"/>
<path d="M15.1907 34.1378C12.8116 27.5101 11.1122 20.7125 10.0925 13.745C9.75264 11.3658 6.01397 11.7057 6.35385 14.0849C7.37349 21.3923 9.0729 28.5298 11.622 35.4973C12.4717 37.7065 16.0404 36.347 15.1907 34.1378Z" fill="#FBB45C"/>
<path d="M24.8815 55.7208C24.0318 54.7011 23.1821 53.5115 22.3324 52.322C22.1625 51.9821 21.9925 51.8121 21.8226 51.4723C21.6527 51.3023 21.6527 51.1324 21.6527 50.9624C21.6527 50.9624 21.6526 50.7925 21.4827 50.7925C21.1428 50.1127 20.8029 49.6029 20.633 48.9232C20.2931 48.0735 19.1036 47.3937 18.2539 47.9035C17.4042 48.2434 16.7244 49.433 17.2342 50.2827C18.4238 53.0017 20.1232 55.5508 21.9925 57.93C22.3324 58.2698 22.6723 58.6097 23.1821 58.7797C23.6919 58.7797 24.2017 58.7796 24.5416 58.4398C25.2214 57.76 25.5613 56.5705 24.8815 55.7208Z" fill="#FBB45C"/>
<path d="M35.4166 50.2835C35.4166 50.1136 35.2466 49.7737 35.0767 49.6038C34.9067 49.4339 34.7368 49.2639 34.3969 49.0939C33.8871 48.924 33.3773 48.924 33.0374 49.0939C32.5276 49.2639 32.1877 49.6038 32.0178 50.1136C31.5079 50.9633 31.1681 51.813 30.6582 52.6627C30.4883 52.8326 30.4883 53.1725 30.4883 53.3424C30.4883 53.5124 30.4883 53.8523 30.6582 54.0222C30.6582 54.1922 30.8282 54.5321 30.9981 54.702C31.168 54.8719 31.338 55.0419 31.6779 55.2118C32.1877 55.3817 32.6975 55.3817 33.0374 55.2118C33.5472 55.0419 33.8871 54.702 34.057 54.1921C34.5669 53.3424 34.9067 52.4927 35.4166 51.643C35.5865 51.4731 35.5865 51.1332 35.5865 50.9633C35.5865 50.7934 35.5865 50.6234 35.4166 50.2835Z" fill="#FBB45C"/>
<path d="M27.4307 18.5042C26.411 18.3342 25.3914 19.014 25.2215 20.0337L23.862 27.1711C23.692 28.1908 24.3718 29.2104 25.3914 29.3804C26.4111 29.5503 27.4307 28.8705 27.6006 27.8509C28.1105 25.4717 28.4503 23.0926 28.9602 20.7134C29.3 19.6938 28.4503 18.6741 27.4307 18.5042Z" fill="#FBB45C"/>
</svg>
