<svg width="162" height="120" viewBox="0 0 162 120" fill="none" xmlns="http://www.w3.org/2000/svg">
<path d="M161.211 74.9622C160.943 63.9616 159.87 53.0951 158.126 42.3628C156.784 34.4477 153.43 27.3376 147.93 21.3006C141.088 13.788 132.234 9.62929 123.38 6.27544C116.27 3.59237 109.16 1.17757 101.781 0.372643C94.9394 -0.43228 87.9634 0.238514 81.1215 0.775129C69.7184 1.71421 58.1812 2.78741 47.4489 7.7511C36.3141 12.9831 27.5941 21.9714 21.0206 32.1671C13.7763 43.5702 7.06861 56.7173 3.58061 69.7302C1.43415 77.377 -0.443992 85.292 0.0926232 93.2071C0.495085 101.122 3.58062 109.306 9.75169 114.269C10.4225 114.806 11.2274 115.477 12.1665 115.611C14.3129 116.013 18.2034 113.062 19.9474 111.855C22.7646 109.842 23.7037 107.562 22.6304 103.805C11.3615 60.8761 49.8637 26.9351 89.3049 25.057C107.684 24.2521 128.88 29.0816 137.734 47.1924C142.027 55.9124 143.369 65.8397 144.308 75.3647C144.845 80.1942 145.784 85.5603 145.515 90.524C144.979 97.3659 142.832 106.488 144.71 113.196C145.515 116.416 148.333 119.233 151.552 119.233C154.235 119.233 156.65 117.221 157.857 114.94C159.065 112.525 159.467 109.842 159.736 107.159C161.077 96.6951 161.48 85.8287 161.211 74.9622Z" fill="#F67E7D"/>
<path d="M150.077 105.685C146.321 78.3176 152.761 42.7668 132.235 23.9853C123.918 16.4727 113.588 13.1188 103.392 12.0456C93.1963 11.1065 82.8665 12.3139 72.5366 13.1188C55.2308 14.4604 36.3151 24.1194 25.7169 42.2302C19.8142 52.4259 16.3262 64.4997 13.7772 76.5736C12.5699 82.6105 11.4966 88.7816 12.4357 94.8185C13.6431 102.197 19.9483 109.307 25.9852 110.38C31.0831 111.319 37.7908 107.697 37.5225 100.319C36.7175 83.8179 36.0468 66.1096 49.8646 54.7065C60.9994 45.584 77.5003 39.6813 91.184 36.4616C136.26 25.8635 127.137 79.525 131.028 107.295C132.638 119.637 151.822 118.161 150.077 105.685Z" fill="#FBB45C"/>
<path d="M92.5268 23.5832C87.9656 23.7174 83.4044 24.254 78.5749 24.7906C67.9767 26.1321 58.5859 26.8029 49.3293 33.1081C27.0598 47.865 23.0352 78.9887 23.0352 102.466C23.0352 116.149 45.7072 114.405 45.8413 100.722C45.8413 90.6601 45.3047 75.2324 51.6099 66.5124C58.4518 57.1216 77.3675 51.7555 88.3681 47.865C94.405 45.7186 99.7712 47.3284 105.406 51.4872C109.564 54.5727 113.187 56.0484 114.528 60.6097C118.419 73.8909 118.821 88.782 118.016 102.466C117.748 106.759 120.163 110.649 123.785 112.795C125.663 113.869 127.675 113.869 129.553 114.674C131.7 115.747 132.371 117.491 134.919 116.418C136.395 115.881 138.407 112.93 139.212 111.454C142.03 105.819 141.225 97.9044 140.956 91.8675C140.554 81.2693 140.688 70.2687 139.078 59.6706C136.798 44.6453 127.809 32.3032 113.321 26.6687C106.345 23.9856 99.5028 23.3149 92.5268 23.5832Z" fill="#98B08B"/>
<path d="M92.5213 36.9958C91.3139 36.8617 89.9724 36.8617 88.765 36.7275C82.7281 36.325 76.557 35.9226 70.6542 37.2641C56.4339 40.3496 46.7748 53.2284 39.933 65.3023C32.957 77.7786 28.7982 91.9989 28.6641 106.219C28.6641 110.512 34.1644 110.78 37.2499 111.719C39.5305 112.39 41.1404 113.463 43.6893 113.061C48.9213 112.39 52.8117 108.231 52.8117 102.999C52.8117 93.877 52.4093 79.6567 57.7755 71.7416C63.5441 63.1558 79.5084 58.1921 88.6308 54.7041C93.7287 52.8259 98.1557 54.1675 102.851 57.9238C106.339 60.7411 109.425 62.0826 110.498 66.2414C113.718 78.4494 114.12 91.8647 113.449 104.341C113.181 109.573 120.425 119.5 126.06 114.134C127.67 112.659 128.206 110.378 128.743 108.231C132.231 93.7429 134.109 78.5835 131.158 64.0949C130.084 59.2653 128.475 54.3017 125.523 50.277C121.499 44.7767 115.193 41.2887 108.62 39.4106C103.656 37.9349 98.0216 37.3983 92.5213 36.9958Z" fill="#89C6E5"/>
<path d="M87.2954 49.7418C82.6001 49.4735 77.9047 49.7418 73.4776 51.2175C63.0136 54.5713 57.245 63.023 52.013 72.1455C45.9761 82.7436 42.3539 93.6101 41.549 105.952C41.4148 107.025 41.4148 108.233 41.8173 109.306C42.4881 111.587 44.7687 113.062 47.0493 113.465C48.7933 113.733 52.4154 114.002 54.0253 113.197C56.4401 112.123 56.1718 110.379 56.9767 107.428C59.3914 97.0981 62.6111 86.6341 67.9773 77.3775C72.0019 70.4015 78.173 63.023 86.893 62.7547C91.4542 62.6205 96.1496 64.4987 99.3693 67.8525C102.857 71.6088 104.333 76.8408 104.87 81.9387C105.54 87.7073 105.004 93.6101 104.065 99.3787C103.528 103.001 102.723 106.757 101.784 110.245C104.87 113.733 117.212 117.892 119.895 112.526C121.102 110.111 120.834 107.428 120.7 104.745C120.431 96.2931 122.31 87.9756 122.444 79.5239C122.444 71.0722 120.297 61.9498 113.59 56.7178C109.163 53.2298 103.394 52.0224 97.8936 51.0833C94.2714 50.4126 90.7834 49.876 87.2954 49.7418Z" fill="#4592BA"/>
<path d="M108.488 67.4505C108.22 66.7797 107.415 66.3773 106.744 66.6456C106.074 66.9139 105.671 67.7188 105.94 68.3896C107.147 71.3409 108.086 74.2923 108.623 77.3779C108.757 78.0486 109.293 78.5852 110.098 78.5852C110.769 78.4511 111.44 77.7803 111.306 77.1096C110.769 73.7557 109.83 70.536 108.488 67.4505Z" fill="#1B2226"/>
<path d="M116.273 74.0241C115.602 73.8899 114.797 74.4265 114.797 75.0973L114.395 82.0733C114.395 82.744 114.797 83.5489 115.468 83.5489C116.139 83.6831 116.943 83.1465 116.943 82.4757L117.346 75.4997C117.48 74.8289 117.078 74.0241 116.273 74.0241Z" fill="#17436D"/>
<path d="M44.2312 47.8632C43.9629 47.5949 43.5604 47.4608 43.2921 47.5949C43.0238 47.5949 42.6213 47.7291 42.353 48.1315C41.4139 49.4731 40.4749 50.9488 39.5358 52.2903C39.2675 52.5586 39.1333 52.9611 39.2675 53.2294C39.2675 53.4977 39.5358 53.9001 39.8041 54.1685C40.0724 54.4368 40.4748 54.5709 40.7432 54.4368C41.0115 54.4368 41.4139 54.3026 41.6822 53.9002C42.6213 52.5586 43.5604 51.0829 44.4995 49.7414C44.7678 49.4731 44.9019 49.0706 44.7678 48.8023C44.6336 48.3998 44.4995 47.9974 44.2312 47.8632Z" fill="#1B2226"/>
<path d="M50.6687 59.9368C50.4004 59.6685 49.9979 59.5343 49.7296 59.6685C49.4613 59.6685 49.0588 59.8026 48.7905 60.2051C47.8514 61.5466 46.9124 63.0223 45.9733 64.3639C45.705 64.6322 45.5708 65.0346 45.705 65.3029C45.705 65.5713 45.9733 65.9737 46.2416 66.242C46.5099 66.5103 46.9123 66.6444 47.1807 66.5103C47.449 66.5103 47.8514 66.3762 48.1197 65.9737C49.0588 64.6322 49.9979 63.1565 50.937 61.8149C51.2053 61.5466 51.3394 61.1442 51.2053 60.8758C51.2053 60.4734 50.937 60.0709 50.6687 59.9368Z" fill="#1B2226"/>
<path d="M156.38 52.1549C154.502 44.7765 151.417 37.8005 147.258 31.4952C146.319 30.0196 144.172 31.6294 145.111 33.1051C149.136 39.2762 151.953 45.9839 153.831 53.094C153.966 53.7648 154.905 54.0331 155.575 53.8989C156.246 53.4965 156.515 52.8257 156.38 52.1549Z" fill="#1B2226"/>
<path d="M12.0309 60.8761C10.4211 64.6324 9.21368 68.3887 8.2746 72.2792C8.14045 72.9499 8.67707 73.7548 9.34784 73.7548C10.1528 73.889 10.6894 73.3524 10.8235 72.6816C11.7626 69.0595 12.97 65.4373 14.4457 61.9493C15.1165 60.3395 12.7017 59.2662 12.0309 60.8761Z" fill="#1B2226"/>
</svg>
