<svg width="140" height="30" viewBox="0 0 140 30" fill="none" xmlns="http://www.w3.org/2000/svg">
<path d="M64.474 7.3652C61.8538 7.96653 59.3584 8.56786 56.7383 9.01886C56.3639 9.01886 56.1144 9.16921 55.7401 9.16921C55.3658 9.16921 54.9914 9.46987 54.7419 9.16921C54.4924 8.86854 54.3676 8.56786 54.2429 8.2672C54.1181 7.96653 53.8685 7.51553 53.7438 7.21487C53.1199 5.86187 52.3713 4.35853 51.7475 3.00553C51.6227 2.70486 51.2484 2.70486 51.1236 3.00553C50.1255 5.26053 49.5016 7.66587 49.1273 10.0712C46.3823 11.4242 43.6374 12.7772 40.8925 13.9799C40.6429 14.1302 40.5182 14.7315 40.8925 14.7315C43.3879 15.3329 45.8833 15.6335 48.3787 15.6335C47.131 19.0912 46.008 22.6992 45.0099 26.4575C44.8851 26.7582 45.1346 27.0589 45.3842 26.9085C47.3805 26.1569 48.753 24.0522 50.0007 22.0979C50.375 21.6469 50.7493 21.0455 50.9988 20.5945C51.2483 20.2939 51.4979 19.9932 51.8722 19.8429C52.1217 19.8429 52.496 19.9932 52.8703 20.1435C53.9933 20.5945 54.8667 21.4965 55.8649 22.0979C56.9878 22.8495 58.1107 23.3005 59.3584 23.1502C59.6079 23.1502 59.7327 22.8495 59.7327 22.5489C58.9841 19.9932 57.9859 17.4375 56.863 15.0322C59.8575 13.3785 62.4776 10.8229 64.5987 7.66587C64.973 7.66587 64.8483 7.21487 64.474 7.3652Z" fill="#98B08B"/>
<path d="M95.4113 14.4791C95.798 14.2466 96.1495 14.1669 96.3781 13.898C97.1163 13.5858 97.7315 13.0845 98.4697 12.7723C99.8232 11.9588 101.335 11.1817 102.688 10.3682C103.075 10.1358 102.829 9.75748 102.513 9.68455C99.8769 9.55914 97.2761 9.28103 94.4821 9.11915C93.8143 9.12597 93.1465 9.1328 92.7777 8.56535C92.4089 7.9979 92.3916 7.35071 92.1809 6.81973C91.7948 5.60508 91.2857 4.20128 90.8996 2.98663C90.8119 2.6448 90.3022 2.6881 90.2318 2.99346C88.9303 5.74856 87.4707 8.4672 86.1692 11.2223L86.134 11.375C83.3399 11.2131 80.5984 11.5457 77.7864 12.1837C77.4349 12.2635 77.4874 12.758 77.8037 12.8309C79.1214 13.6172 80.2809 14.3669 81.5986 15.1532C82.1607 15.6044 82.9163 15.9394 83.4784 16.3907C83.7595 16.6163 84.2339 16.7257 84.3216 17.0675C84.4446 17.2567 84.1456 17.8309 84.1104 17.9836C83.1956 20.5063 81.8416 22.7669 82.2271 25.4286C82.3149 25.7704 82.6663 25.6907 82.8597 25.5745C85.4263 23.1111 87.8701 20.4586 90.1908 17.6169C93.0368 19.7204 96.0058 22.013 98.8518 24.1164C99.1329 24.3421 99.5548 23.957 99.467 23.6151C98.6417 22.1384 97.9393 20.8508 97.1139 19.3741C96.7803 18.654 96.4115 18.0865 95.9198 17.3299C95.5862 16.6098 95.0592 16.0059 94.8838 15.3222C94.6379 14.9439 95.0246 14.7115 95.4113 14.4791Z" fill="#F67E7D"/>
<path d="M139.135 17.758C137.818 16.9646 136.5 16.0389 135.182 15.2455C134.524 14.8488 133.865 14.4521 133.074 13.9231C132.81 13.6587 132.415 13.5264 132.152 13.2619C132.02 13.1297 131.888 13.1297 131.756 12.9975C131.625 12.8652 131.361 12.8652 131.229 12.6008C131.097 12.3363 131.361 11.6751 131.493 11.2784L131.888 10.2205L132.679 7.84023L134.128 3.21192C134.26 2.94744 133.865 2.68296 133.601 2.8152C130.834 4.66653 128.199 6.91457 125.958 9.55932C123.85 8.23694 120.819 5.98889 118.447 5.3277C118.184 5.19547 118.052 5.45995 118.052 5.72442C118.447 7.97246 119.765 11.4106 120.556 13.5264C118.579 15.1133 116.866 16.8324 115.285 18.8159C115.021 19.0804 115.285 19.4771 115.548 19.3449C116.866 18.9482 118.184 18.6837 119.633 18.287C120.292 18.1547 120.951 17.8903 121.61 17.758C121.873 17.6258 122.269 17.4936 122.532 17.4936C122.928 17.4936 122.928 17.8903 123.059 18.287C123.718 21.064 124.377 23.9732 125.036 26.7502C125.168 27.0146 125.563 27.0146 125.695 26.7502L127.803 18.287C127.935 17.8903 127.935 17.6258 128.067 17.2291C128.198 16.9646 128.199 16.5679 128.33 16.3034C128.594 16.0389 128.989 16.1712 129.384 16.1712C129.78 16.1712 130.043 16.3034 130.439 16.3034C131.756 16.5679 133.206 16.8324 134.524 17.0968C136.105 17.3613 137.554 17.6258 139.135 17.8903C139.267 18.4192 139.531 18.0225 139.135 17.758Z" fill="#89C6E5"/>
<path d="M24.4241 18.2737C22.6442 16.4113 20.8643 14.5488 19.0844 12.5312C21.0127 10.3583 22.6443 8.03028 24.1275 5.54703C24.2758 5.23663 24.1275 4.77103 23.8308 4.92623C21.161 5.23664 18.4912 6.01265 15.9697 7.25428C15.3764 7.56468 14.6347 8.03032 13.8931 7.71992C13.2998 7.56471 12.7065 6.78866 12.2615 6.32305C11.2233 5.23663 10.185 3.99503 8.99839 2.90861C8.70174 2.5982 8.25677 2.90858 8.25677 3.21899C8.25677 5.39183 8.25673 7.40948 8.40505 9.58232C7.07013 9.58232 5.58691 9.42711 4.25198 9.42711C3.95534 9.42711 3.65867 9.89272 3.95532 10.2031C4.84526 11.2896 5.88357 12.376 6.77352 13.4624C4.8453 14.704 2.7687 15.6353 0.692159 16.7217C0.247185 16.8769 0.247239 17.6529 0.840538 17.6529C3.95535 17.3425 6.92186 17.0321 10.0367 16.7217C10.0367 19.9809 10.0367 23.3954 10.7783 26.6547C10.9266 27.1203 11.3716 26.9651 11.5199 26.6547C12.8548 23.085 13.8931 19.3601 14.6347 15.6352C17.7495 16.7217 20.8643 17.9633 23.9791 19.3602C24.4241 19.2049 24.7207 18.5841 24.4241 18.2737Z" fill="#FBB45C"/>
</svg>
