<svg width="262" height="174" viewBox="0 0 262 174" fill="none" xmlns="http://www.w3.org/2000/svg">
<path d="M23.6136 56.5898C33.8434 51.2313 46.7524 50.9878 55.7644 58.0512C54.0594 44.1679 64.5329 29.7974 78.4163 27.3617C92.2996 24.926 107.157 34.4251 110.324 48.0649C109.349 30.5281 120.066 12.9912 135.655 5.19707C151.243 -2.84066 171.215 -1.37928 185.83 8.36342C201.418 18.5933 209.943 36.1301 210.917 54.3977C222.852 55.372 233.569 58.2948 242.824 66.3325C259.143 80.703 268.399 106.034 254.759 126.737C242.824 144.761 219.929 148.658 201.905 141.838C194.598 158.157 178.035 168.387 160.986 171.554C145.154 174.72 122.989 173.989 109.349 164.734C99.1194 157.914 92.056 146.466 90.351 134.531C75.0063 139.403 58.6873 142.813 42.6118 140.864C25.075 138.672 4.37171 127.712 0.718196 108.713C-2.44818 91.9071 5.10238 70.7167 18.4986 59.9998C20.2036 58.5384 21.9086 57.5641 23.6136 56.5898Z" fill="#FBB45C"/>
<path d="M211.159 88.74C209.211 83.6251 205.801 78.9973 200.929 76.5616C196.058 74.126 189.969 74.126 185.341 77.0488C180.957 79.9716 178.521 86.3043 180.713 91.4193" stroke="#1B0512" stroke-width="1.01895" stroke-miterlimit="10" stroke-linecap="round"/>
<path d="M141.988 98.9686C134.681 105.058 122.989 105.058 115.926 98.725" stroke="#1B0512" stroke-width="1.01895" stroke-miterlimit="10" stroke-linecap="round"/>
<path d="M73.5453 99.2131C74.7632 95.316 73.3017 90.9318 70.866 88.009C68.1868 85.0862 64.5332 83.1376 60.6361 82.1633C57.2262 81.4326 53.0857 81.1891 50.4064 83.3812C46.0222 86.7911 46.5093 93.611 47.4836 98.9695" stroke="#1B0512" stroke-width="1.01895" stroke-miterlimit="10" stroke-linecap="round"/>
<path d="M189.969 136.48C186.316 145.005 179.009 151.824 169.997 154.747C168.779 155.234 168.048 156.696 168.535 157.914C169.023 159.131 170.484 159.619 171.702 159.375C181.688 156.209 190.213 148.414 194.353 138.672C195.571 135.505 191.187 133.557 189.969 136.48Z" fill="white"/>
<path d="M148.32 155.965C145.884 156.453 143.449 156.696 141.256 157.183C140.526 157.183 140.039 157.67 139.551 158.158C139.064 158.645 138.821 159.375 139.064 159.863C139.308 161.08 140.526 162.298 141.744 162.055C144.179 161.567 146.615 161.324 148.807 160.837C149.538 160.837 150.025 160.35 150.512 159.863C150.999 159.375 151.243 158.645 150.999 158.158C150.756 156.94 149.781 155.722 148.32 155.965Z" fill="white"/>
<path d="M129.807 20.2982C128.59 19.8111 127.128 20.2982 126.641 21.5161C123.475 27.8488 121.283 35.1559 121.039 42.2193C121.039 43.4371 121.77 44.8985 122.988 44.8985C124.205 45.1421 125.667 44.1679 125.667 42.95C126.154 36.1301 127.859 29.5538 131.025 23.4646C131.756 22.4904 131.025 21.0289 129.807 20.2982Z" fill="white"/>
<path d="M144.175 21.2722C143.931 20.7851 143.444 20.0544 142.957 19.8108C142.47 19.5673 141.739 19.5673 141.008 19.8108C140.521 20.0544 139.79 20.5416 139.547 21.0287C138.816 22.9772 138.085 24.9258 137.355 26.8743C137.111 27.605 137.111 28.0921 137.355 28.8228C137.598 29.31 138.085 30.0407 138.572 30.2842C139.06 30.5278 139.79 30.5278 140.521 30.2842C141.008 30.0407 141.739 29.5535 141.982 29.0664C142.713 27.1178 143.444 25.1693 144.175 23.2208C144.418 22.4901 144.418 22.0029 144.175 21.2722Z" fill="white"/>
<path d="M91.8104 41.0013C88.4005 36.1299 82.3112 33.4507 76.4656 34.6685C75.2477 34.9121 74.03 35.8864 74.2735 37.3478C74.5171 38.5656 75.7349 39.7834 76.9527 39.5399C77.4399 39.5399 78.1706 39.2963 78.6577 39.2963C78.9013 39.2963 78.9013 39.2963 79.1449 39.2963C79.3885 39.2963 79.6319 39.2963 80.1191 39.2963C80.6062 39.2963 81.3369 39.5399 81.8241 39.5399H82.0677H82.3112C82.5548 39.5399 82.7984 39.7834 83.2856 39.7834C83.7727 40.027 84.2598 40.2706 84.7469 40.5142C84.7469 40.5142 84.7469 40.5142 84.9904 40.5142C84.9904 40.5142 85.2341 40.5141 85.2341 40.7577C85.4776 41.0013 85.7212 41.0013 85.9647 41.2448C86.2083 41.4884 86.4519 41.732 86.6954 41.9755L86.9391 42.2191C86.9391 42.2191 86.939 42.2191 87.1826 42.4627C87.1826 42.4627 87.1825 42.4627 87.4261 42.7062L87.6697 42.9498C87.9133 43.1934 88.1569 43.4369 88.1569 43.6805C88.8876 44.6548 90.5925 45.1419 91.5668 44.1677C92.2975 43.437 92.5411 41.9756 91.8104 41.0013Z" fill="white"/>
<path d="M28.97 65.601C17.2787 69.7416 9.48464 81.6765 9.72821 94.0984C9.72821 95.3163 11.1896 96.2905 12.4074 96.2905C13.8688 96.0469 14.5996 94.8291 14.5996 93.6112C14.356 83.3814 21.4195 73.8823 30.9186 70.2288C33.8414 69.011 31.8928 64.3832 28.97 65.601Z" fill="white"/>
<path d="M246.228 105.547C244.767 105.303 243.792 106.277 243.549 107.495C242.575 110.905 241.844 114.315 240.87 117.481C240.626 118.699 241.6 120.161 242.818 120.161C244.28 120.404 245.254 119.43 245.497 118.212C246.472 114.802 247.202 111.392 248.177 108.226C248.42 107.008 247.446 105.79 246.228 105.547Z" fill="white"/>
<path d="M209.697 104.329C208.236 102.137 205.07 101.163 202.634 100.919C198.737 100.676 194.596 101.163 190.943 101.894C189.968 102.137 189.238 102.624 188.994 103.599C188.263 104.086 187.533 104.816 187.289 105.791C187.046 106.278 186.802 107.009 186.802 107.496C186.071 108.47 186.071 110.175 187.046 110.906L187.289 111.149C187.289 111.393 187.533 111.636 187.533 111.636C188.02 112.123 188.507 112.611 189.238 112.611C189.481 112.611 189.725 112.611 189.968 112.611C195.083 114.803 200.929 113.828 206.044 112.123C207.505 111.636 209.21 111.149 210.185 109.931C211.159 107.983 210.915 105.791 209.697 104.329Z" fill="#FBB45C"/>
<path d="M80.3633 115.289C78.6583 110.905 74.2742 109.444 69.8899 108.957C66.7236 108.713 63.5571 108.469 60.6343 109.2C58.6857 109.687 56.9808 110.174 55.0322 111.149C53.5708 111.879 54.058 114.071 54.7887 115.046C60.8779 121.622 70.8642 120.648 78.6583 118.212C80.1197 117.969 80.8504 116.507 80.3633 115.289Z" fill="#FBB45C"/>
</svg>
