<svg xmlns="http://www.w3.org/2000/svg" width="155" height="54" viewBox="0 0 155 54" fill="none">
  <path d="M143.766 0.226562H101.335V47.6627H143.766V0.226562Z" fill="#1471B9"/>
  <path fill-rule="evenodd" clip-rule="evenodd" d="M116.835 4.63672L115.824 8.60226L111.725 8.94556L115.712 10.1888L116.226 14.6053L117.332 10.302L120.424 9.73607L117.956 8.48906L116.835 4.63672Z" fill="#FFCB05"/>
  <path fill-rule="evenodd" clip-rule="evenodd" d="M112.621 10.4121L111.463 14.9139L106.639 16.0886L111.643 17.2354L112.887 21.9951L113.701 16.9088L117.517 15.8028L114.226 14.6541L112.621 10.4121Z" fill="#FFCB05"/>
  <path fill-rule="evenodd" clip-rule="evenodd" d="M117.999 17.4102L116.841 21.912L112.017 23.0866L117.021 24.2334L118.265 28.9932L119.079 23.905L122.894 22.8008L119.604 21.654L117.999 17.4102Z" fill="#FFCB05"/>
  <path fill-rule="evenodd" clip-rule="evenodd" d="M121.825 26.6562L121.396 30.9632L117.247 32.7261L121.767 33.1845L123.298 37.7995L123.632 32.9562L126.915 31.2156L123.721 30.7535L121.825 26.6562Z" fill="#FFCB05"/>
  <path fill-rule="evenodd" clip-rule="evenodd" d="M115.429 25.6777L114.665 29.3983L110.419 30.5266L114.696 31.4748L115.405 35.3049L116.27 30.9998L119.309 30.3874L116.502 29.2369L115.429 25.6777Z" fill="#FFCB05"/>
  <path fill-rule="evenodd" clip-rule="evenodd" d="M110.198 20.1973L109.43 23.9179L105.188 25.0442L109.463 25.651L110.22 29.5294L111.037 25.5193L114.08 24.9051L111.272 23.7564L110.198 20.1973Z" fill="#FFCB05"/>
  <path fill-rule="evenodd" clip-rule="evenodd" d="M107.872 17.5059L107.297 19.4673L105.089 19.6603L107.238 20.5621L107.46 22.7796L108.034 20.5287L109.862 20.1576L108.557 19.5953L107.872 17.5059Z" fill="#FFCB05"/>
  <path fill-rule="evenodd" clip-rule="evenodd" d="M109.519 9.28516L108.849 11.3431L106.639 11.5398L108.784 12.4416L109.203 14.6554L109.728 12.4082L111.56 12.0371L110.109 11.3783L109.519 9.28516Z" fill="#FFCB05"/>
  <path fill-rule="evenodd" clip-rule="evenodd" d="M123.276 7.76953L122.605 9.82746L120.396 10.0204L122.542 10.9223L122.961 13.1398L123.484 10.8889L125.316 10.5178L123.865 9.859L123.276 7.76953Z" fill="#FFCB05"/>
  <path fill-rule="evenodd" clip-rule="evenodd" d="M126.861 10.7051L126.193 12.763L123.979 12.956L126.128 13.8578L126.544 16.0754L127.071 13.8244L128.901 13.4533L127.45 12.7945L126.861 10.7051Z" fill="#FFCB05"/>
  <path fill-rule="evenodd" clip-rule="evenodd" d="M121.483 12.1719L120.715 14.9145L117.637 15.256L120.751 16.0613L120.732 19.305L121.79 16.1244L124.2 15.8034L122.074 14.998L121.483 12.1719Z" fill="#FFCB05"/>
  <path fill-rule="evenodd" clip-rule="evenodd" d="M125.411 16.5293L124.594 19.5169L121.126 20.1534L124.288 20.8567L124.85 24.3435L125.812 21.0181L128.224 20.699L126.142 19.5967L125.411 16.5293Z" fill="#FFCB05"/>
  <path fill-rule="evenodd" clip-rule="evenodd" d="M128.507 6.30078L128.082 8.35871L125.629 8.55541L128.017 9.21045L128.193 11.6711L128.861 9.32365L130.546 9.05272L129.099 8.39025L128.507 6.30078Z" fill="#FFCB05"/>
  <path fill-rule="evenodd" clip-rule="evenodd" d="M125.31 3.85742L124.885 5.91535L122.432 6.25679L124.822 6.76338L125.189 9.22769L125.664 6.87658L127.397 6.31246L125.902 5.94689L125.31 3.85742Z" fill="#FFCB05"/>
  <path fill-rule="evenodd" clip-rule="evenodd" d="M120.953 3.26758L120.524 5.1288L118.702 5.37375L120.313 5.78385L120.78 7.41497L121.113 5.89704L122.506 5.47767L121.393 5.16035L120.953 3.26758Z" fill="#FFCB05"/>
  <path fill-rule="evenodd" clip-rule="evenodd" d="M132.239 8.06445L131.762 9.82733L129.552 10.1688L131.649 10.7756L131.777 12.6498L132.545 10.8888L134.083 10.5659L132.682 9.95537L132.239 8.06445Z" fill="#FFCB05"/>
  <path fill-rule="evenodd" clip-rule="evenodd" d="M133.223 11.875L132.84 13.3039L131.048 13.5803L132.746 14.074L132.852 15.5919L133.473 14.1649L134.72 13.9032L133.585 13.4096L133.223 11.875Z" fill="#FFCB05"/>
  <path fill-rule="evenodd" clip-rule="evenodd" d="M129.977 12.9512L129.594 14.3819L127.804 14.6584L129.502 15.1501L129.604 16.6681L130.227 15.2411L131.474 14.9813L130.339 14.4877L129.977 12.9512Z" fill="#FFCB05"/>
  <path fill-rule="evenodd" clip-rule="evenodd" d="M130.775 15.9531L130.311 17.6678L128.45 18.0036L130.202 18.5956L130.326 20.416L130.928 18.41L132.132 18.0983L131.206 17.7976L130.775 15.9531Z" fill="#FFCB05"/>
  <path fill-rule="evenodd" clip-rule="evenodd" d="M133.776 18.6953L133.312 20.3134L131.647 20.6456L133.399 21.2357L133.524 23.058L134.125 21.052L135.331 20.7384L134.064 20.2448L133.776 18.6953Z" fill="#FFCB05"/>
  <path fill-rule="evenodd" clip-rule="evenodd" d="M130 20.6523L129.537 22.122L127.871 22.4542L129.524 22.8513L129.697 24.089L130.198 22.8643L131.263 22.6973L130.285 22.0552L130 20.6523Z" fill="#FFCB05"/>
  <path fill-rule="evenodd" clip-rule="evenodd" d="M125.783 23.3906L125.466 25.1053L123.705 25.2444L125.455 25.8345L125.531 27.3172L126.132 25.8475L127.483 25.4857L126.216 25.0384L125.783 23.3906Z" fill="#FFCB05"/>
  <path fill-rule="evenodd" clip-rule="evenodd" d="M130.157 24.9922L129.194 27.9798L125.726 28.6163L128.888 29.3196L129.454 32.8101L130.413 29.4847L133.115 29.2101L130.745 28.0614L130.157 24.9922Z" fill="#FFCB05"/>
  <path fill-rule="evenodd" clip-rule="evenodd" d="M134.615 22.1055L133.943 24.7034L130.569 25.0931L133.635 26.0432L134.199 29.2405L134.965 26.0098L137.233 25.8353L135.201 24.7832L134.615 22.1055Z" fill="#FFCB05"/>
  <path fill-rule="evenodd" clip-rule="evenodd" d="M136.862 18.334L136.615 19.5086L135.364 19.6868L136.5 20.1173L136.708 21.5628L136.994 20.0987L137.834 20.0226L137.079 19.5457L136.862 18.334Z" fill="#FFCB05"/>
  <path fill-rule="evenodd" clip-rule="evenodd" d="M133.859 15.2012L133.61 16.3758L132.363 16.5539L133.497 16.9826L133.705 18.43L133.991 16.9696L134.828 16.8898L134.076 16.4148L133.859 15.2012Z" fill="#FFCB05"/>
  <path fill-rule="evenodd" clip-rule="evenodd" d="M135.988 13.8809L135.743 15.0555L134.492 15.2336L135.628 15.6641L135.839 17.1097L136.123 15.6493L136.96 15.5695L136.209 15.0945L135.988 13.8809Z" fill="#FFCB05"/>
  <path fill-rule="evenodd" clip-rule="evenodd" d="M94.3242 39.6806L121.122 48.9849L130.268 47.8715C136.509 40.6344 144.317 35.9433 154.021 34.3066C148.953 32.9928 144.215 31.8943 138.188 30.1908C133.499 30.0999 128.6 34.624 123.566 43.6165C123.519 34.8782 111.689 41.2765 110.223 37.1217L103.085 37.7118L103.474 38.4652L100.294 38.6934L101.006 39.2854L99.7743 39.4821L101.459 40.9221L98.2823 39.8755L94.3242 39.6806Z" fill="white"/>
  <path d="M101.278 39.3965L99.5889 39.6229C106.826 44.108 115.869 40.9218 121.3 47.0102" stroke="#1471B9" stroke-width="0.129896" stroke-miterlimit="22.93"/>
  <path d="M103.193 38.6016H100.153C104.492 43.2407 119.868 39.4923 121.532 46.1003" stroke="#1471B9" stroke-width="0.129896" stroke-miterlimit="22.93"/>
  <path d="M123.443 43.1447C123.837 35.247 110.897 41.2333 110.281 37.123L102.974 37.6909C105.553 43.5882 120.602 36.88 122.102 45.0801" stroke="#1471B9" stroke-width="0.129896" stroke-miterlimit="22.93"/>
  <path d="M139.196 30.6454C134.466 28.0864 126.052 37.2608 122.567 45.6484" stroke="#1471B9" stroke-width="0.129896" stroke-miterlimit="22.93"/>
  <path d="M141.785 31.553C136.161 28.8734 129.22 36.8398 122.095 46.3278" stroke="#1471B9" stroke-width="0.129896" stroke-miterlimit="22.93"/>
  <path fill-rule="evenodd" clip-rule="evenodd" d="M94.0771 39.7379L120.856 48.942C123.967 48.5708 127.08 48.1923 130.194 47.8063C137.039 40.5526 144.725 35.2862 154.273 34.3973L143.92 31.7734C134.256 34.4549 127.6 41.3932 120.967 48.3667L98.4639 39.8511C97.0017 39.8115 95.5394 39.7738 94.0771 39.7379Z" fill="#1471B9" stroke="white" stroke-width="0.185566" stroke-miterlimit="22.93"/>
  <path fill-rule="evenodd" clip-rule="evenodd" d="M16.3146 14.0263C16.3424 12.7274 16.3573 11.2967 16.3573 9.71936C16.3573 8.14205 16.3573 6.66866 16.3146 5.39753C16.2997 4.74063 16.2793 4.25816 16.2552 3.93713C16.2311 3.6161 16.2125 3.30249 16.1847 2.99631C16.6467 3.03157 17.1607 3.04641 17.7434 3.04641C18.3261 3.04641 18.8438 3.03157 19.3059 2.99631C19.2762 3.29507 19.2484 3.60126 19.2335 3.92414C19.2187 4.24702 19.1983 4.72764 19.176 5.39197C19.1463 6.67794 19.1389 8.11421 19.1389 9.69895C19.1389 11.2837 19.1389 12.7441 19.176 14.0208C19.1983 14.6795 19.2113 15.175 19.2335 15.4905C19.2558 15.8059 19.2762 16.1251 19.3059 16.4183C18.8438 16.383 18.3317 16.3682 17.7434 16.3682C17.1552 16.3682 16.6467 16.383 16.1847 16.4183C16.2125 16.1102 16.2422 15.7966 16.2552 15.4756C16.2682 15.1546 16.2997 14.674 16.3146 14.0152V14.0263ZM24.1714 14.0263C24.1918 14.6851 24.2141 15.1731 24.2271 15.496C24.2401 15.8189 24.2716 16.1307 24.3069 16.4238C24.0294 16.3876 23.7498 16.3709 23.47 16.3737C23.1896 16.3704 22.9093 16.3871 22.6312 16.4238C22.6609 16.1251 22.6888 15.8096 22.7036 15.496C22.7184 15.1824 22.7389 14.6851 22.7611 14.0263C22.7834 12.7274 22.7964 11.2818 22.7964 9.67482C22.7964 8.06782 22.7834 6.66123 22.7611 5.39011C22.7389 4.72578 22.7184 4.23775 22.7036 3.91672C22.6888 3.59569 22.6609 3.28765 22.6312 2.98889C22.9396 3.01853 23.2493 3.03278 23.5591 3.03157C23.8689 3.03288 24.1785 3.01864 24.4869 2.98889C25.6856 4.52166 27.2636 6.36124 29.2207 8.50761L32.6833 12.2468V9.74163C32.6833 8.13463 32.6833 6.68907 32.6481 5.39753C32.6314 4.74805 32.611 4.25816 32.5887 3.93713C32.5664 3.6161 32.5442 3.30249 32.5182 2.99631C32.7956 3.03285 33.0753 3.0496 33.3551 3.04641C33.6355 3.04929 33.9158 3.03255 34.1938 2.99631C34.1641 3.29507 34.1363 3.60126 34.1196 3.92414C34.1029 4.24702 34.0788 4.72764 34.0639 5.39197C34.0342 6.69093 34.0194 8.13648 34.0194 9.74348C34.0194 12.4156 34.0547 14.6498 34.1196 16.4238C33.84 16.3895 33.5588 16.3703 33.2771 16.3663C32.9893 16.3702 32.7019 16.3894 32.4161 16.4238C30.892 14.5422 28.9021 12.2542 26.4465 9.55977L24.1325 7.06206V9.6841C24.1325 11.2892 24.1473 12.7348 24.1696 14.0263H24.1714ZM43.4072 5.58866C43.2617 5.11419 42.9741 4.69579 42.5833 4.38991C42.1711 4.12335 41.6854 3.99349 41.1952 4.01878C40.6807 4 40.1778 4.17405 39.7849 4.50682C39.6059 4.65794 39.4631 4.84721 39.3667 5.06073C39.2704 5.27426 39.2231 5.50664 39.2282 5.74083C39.2254 5.98418 39.2734 6.22545 39.3693 6.44914C39.4652 6.67284 39.6067 6.87402 39.7849 7.03979C40.1561 7.39793 40.8538 7.82102 41.8874 8.31834C42.921 8.81565 43.6874 9.38348 44.1717 10.033C44.6639 10.702 44.9174 11.5168 44.8917 12.347C44.9051 12.9271 44.7911 13.5031 44.5576 14.0344C44.3242 14.5657 43.9771 15.0393 43.5408 15.4218C42.6464 16.2401 41.5163 16.6484 40.1653 16.6484C39.591 16.6448 39.0189 16.5763 38.46 16.4443C37.8904 16.3088 37.3377 16.1102 36.8122 15.8523C36.9569 15.3995 37.0645 14.9987 37.1443 14.661C37.2241 14.3232 37.3095 13.9187 37.3911 13.4585H37.7957C38.0258 14.1599 38.3524 14.6684 38.7625 14.9913C39.2407 15.3373 39.8226 15.51 40.4121 15.4812C40.9974 15.5024 41.5693 15.3038 42.0154 14.9245C42.2114 14.7546 42.3695 14.5455 42.4797 14.3107C42.5899 14.0759 42.6496 13.8206 42.655 13.5613C42.6604 13.302 42.6114 13.0444 42.5112 12.8052C42.4109 12.566 42.2616 12.3505 42.073 12.1725C41.6833 11.8014 40.9317 11.356 39.8258 10.829C38.8274 10.3633 38.0981 9.80657 37.6287 9.17936C37.1536 8.53591 36.9073 7.75209 36.9291 6.95257C36.9138 6.39983 37.0146 5.85003 37.2249 5.33863C37.4352 4.82724 37.7504 4.36561 38.1501 3.98352C38.5517 3.59184 39.0278 3.28474 39.5502 3.08043C40.0726 2.87611 40.6308 2.77872 41.1915 2.79404C41.7336 2.79308 42.2734 2.86421 42.7967 3.00559C43.3591 3.16267 43.902 3.38305 44.4148 3.66249C44.2719 4.03362 44.1476 4.33424 44.0604 4.60331C43.9731 4.87238 43.8748 5.19527 43.7635 5.57568L43.4072 5.58866ZM47.3041 14.0263C47.3337 12.7274 47.3412 11.2967 47.3412 9.71936C47.3412 8.14205 47.3412 6.66866 47.3041 5.39753C47.2836 4.74063 47.2688 4.25816 47.2465 3.93713C47.2243 3.6161 47.2038 3.30249 47.1742 2.99631C47.6381 3.03157 48.1502 3.04641 48.7273 3.04641C49.3045 3.04641 49.8407 3.03157 50.2972 2.99631C50.2675 3.29507 50.2397 3.60126 50.2249 3.92414C50.21 4.24702 50.1803 4.72764 50.1673 5.39197C50.1376 6.67732 50.1234 8.11298 50.1247 9.69895C50.1247 11.2985 50.1376 12.7441 50.1673 14.0208C50.1803 14.6795 50.2026 15.175 50.2249 15.4905C50.2471 15.8059 50.2675 16.1251 50.2972 16.4183C49.8333 16.383 49.3212 16.3682 48.7348 16.3682C48.1484 16.3682 47.6381 16.383 47.1742 16.4183C47.2038 16.1102 47.2317 15.7966 47.2465 15.4756C47.2614 15.1546 47.2836 14.674 47.3041 14.0152V14.0263ZM60.3827 16.6484C58.104 16.6484 56.2762 16.0434 54.8807 14.8447C53.4852 13.6459 52.8005 12.0612 52.8005 10.0775C52.8005 7.8804 53.4939 6.11382 54.8807 4.77774C56.2687 3.44909 58.0984 2.77734 60.3734 2.77734C61.2208 2.78448 62.065 2.88215 62.8916 3.06868C63.6839 3.23533 64.4538 3.49507 65.1852 3.84249C65.0615 4.26558 64.9668 4.63053 64.9013 4.93733C64.8289 5.24537 64.7584 5.6165 64.686 6.05072L64.4763 6.06557C64.0591 5.42892 63.4961 4.90092 62.8341 4.52537C62.1727 4.17919 61.4353 4.00378 60.6889 4.01507C59.2279 4.01507 58.0687 4.56249 57.2114 5.65732C56.3522 6.74474 55.9125 8.22555 55.9125 10.0812C55.9125 11.7154 56.3343 13.0101 57.178 13.9651C58.0217 14.9201 59.1561 15.3995 60.5813 15.4032C61.2002 15.4044 61.8171 15.3309 62.4184 15.1843C62.5476 14.4223 62.6096 13.6505 62.604 12.8777C62.6117 12.0598 62.5389 11.2431 62.3868 10.4394C62.8569 10.4542 63.3846 10.4616 63.9697 10.4616C64.5032 10.4661 65.0366 10.4413 65.5674 10.3874C65.5046 10.6585 65.468 10.935 65.4579 11.2132C65.4357 11.5342 65.4301 12.0593 65.4301 12.7905V13.2785C65.4301 14.0969 65.4301 14.6814 65.4579 15.0173C65.4684 15.3017 65.5025 15.5847 65.56 15.8634C64.0755 16.3904 62.3367 16.6521 60.3642 16.6447L60.3827 16.6484ZM68.6571 14.0263C68.6794 12.7274 68.6942 11.2967 68.6942 9.71936C68.6942 8.14205 68.6794 6.66866 68.6571 5.39753C68.6348 4.73321 68.6144 4.24517 68.5996 3.92971C68.5847 3.61425 68.5569 3.29507 68.5179 3.00188C68.9818 3.03714 69.5033 3.05198 70.0804 3.05198C70.6575 3.05198 71.1938 3.03714 71.6503 3.00188C71.6132 3.30064 71.5909 3.60682 71.5705 3.92971C71.5501 4.25259 71.5334 4.73321 71.513 5.39753C71.4907 6.29567 71.4758 7.25319 71.4833 8.29607C72.3796 8.39071 73.3482 8.44267 74.4041 8.45009C75.3867 8.45159 76.3687 8.39769 77.3453 8.28865C77.3453 7.25814 77.3311 6.29443 77.3026 5.39753C77.2859 4.73321 77.2655 4.24517 77.2451 3.92971C77.2247 3.61425 77.208 3.29507 77.1709 3.00188C77.6329 3.03714 78.1544 3.05198 78.7315 3.05198C79.3086 3.05198 79.8449 3.03714 80.2939 3.00188C80.2661 3.30064 80.2364 3.60682 80.2216 3.92971C80.2067 4.25259 80.1844 4.73321 80.164 5.39753C80.1418 6.6835 80.1269 8.11978 80.1269 9.70451C80.1269 11.2892 80.1418 12.7496 80.164 14.0263C80.1844 14.6851 80.1993 15.1806 80.2216 15.496C80.2438 15.8115 80.2661 16.1307 80.2939 16.4238C79.8374 16.3886 79.3179 16.3737 78.7407 16.3737C78.1636 16.3737 77.6274 16.3886 77.1709 16.4238C77.208 16.1251 77.2302 15.8096 77.2451 15.496C77.2599 15.1824 77.2859 14.6851 77.3026 14.0263L77.3509 10.0775C75.4004 9.87215 73.4337 9.87215 71.4833 10.0775C71.4684 11.5379 71.4833 12.861 71.513 14.0263C71.5334 14.6851 71.5538 15.1806 71.5705 15.496C71.5872 15.8115 71.6132 16.1307 71.6503 16.4238C71.1864 16.3886 70.6668 16.3737 70.0878 16.3737C69.5089 16.3737 68.9744 16.3886 68.5179 16.4238C68.5569 16.1251 68.5773 15.8096 68.5996 15.496C68.6218 15.1824 68.6348 14.6851 68.6571 14.0263ZM85.8145 10.4208V4.26558C85.1576 4.26558 84.5007 4.28785 83.8419 4.32496C83.3309 4.34008 82.8214 4.38843 82.3166 4.4697C82.3568 4.20626 82.3766 3.94012 82.376 3.67363C82.3769 3.41021 82.357 3.14713 82.3166 2.88683C82.7156 2.93693 83.3725 2.97404 84.2836 3.01672C85.1947 3.0594 86.0539 3.0761 86.8704 3.0761H87.5514C88.366 3.0761 89.2345 3.05384 90.1382 3.01672C91.0419 2.97961 91.7062 2.93693 92.1108 2.88683C92.0682 3.14686 92.049 3.41017 92.0532 3.67363C92.0492 3.94015 92.0685 4.20652 92.1108 4.4697C91.6035 4.38846 91.0915 4.34011 90.578 4.32496C89.9285 4.28785 89.279 4.273 88.6054 4.26558V10.4208C88.6054 11.8664 88.6203 12.9835 88.6333 13.787C88.6462 14.5905 88.6926 15.4571 88.7576 16.4294C88.3011 16.3942 87.7964 16.3793 87.2174 16.3793C86.6384 16.3793 86.1263 16.3942 85.6642 16.4294C85.7292 15.4663 85.7644 14.5886 85.7867 13.787C85.809 12.9853 85.8145 11.8664 85.8145 10.4208ZM1.88683 37.3687C2.44353 36.0975 3.05775 34.6742 3.72393 33.0747C4.82991 30.4025 5.7064 28.1541 6.3534 26.3293C6.5996 26.3608 6.84747 26.3775 7.09566 26.3795C7.34386 26.3775 7.59172 26.3608 7.83793 26.3293C8.49607 28.1405 9.36204 30.3815 10.4358 33.0524C11.0791 34.6606 11.6668 36.0994 12.1987 37.3687C12.5179 38.1109 12.7406 38.6472 12.8872 38.9664C13.0338 39.2856 13.16 39.5491 13.275 39.768C12.7703 39.7328 12.1987 39.7179 11.5548 39.7179C10.9109 39.7179 10.3486 39.7328 9.85132 39.768C9.66575 39.0703 9.5173 38.5581 9.41709 38.2371C9.31689 37.9161 9.22225 37.6229 9.12019 37.3594L8.56349 35.8934C7.78968 35.8043 6.96577 35.7542 6.08433 35.7394C5.39968 35.7256 4.71549 35.7841 4.04311 35.9138C3.83342 36.4037 3.65342 36.8862 3.48641 37.3594C3.39573 37.5961 3.31829 37.8377 3.25445 38.0831C3.16167 38.4047 3.01013 38.9664 2.79982 39.768C2.45651 39.7318 2.11142 39.715 1.76622 39.7179C1.42842 39.7152 1.09075 39.7319 0.754883 39.768C0.862511 39.5658 0.99983 39.2948 1.14457 38.9738C1.28931 38.6528 1.54354 38.1202 1.88683 37.3687ZM6.32557 30.0666C5.95444 30.9574 5.57217 31.9223 5.16949 32.9726L4.6128 34.4256C5.16722 34.4878 5.72506 34.5144 6.28289 34.5054C6.89525 34.5054 7.48164 34.4701 8.03834 34.4182L8.0105 34.3458C7.41855 32.7833 6.86 31.36 6.34041 30.0666H6.32557ZM25.7784 37.441C25.6768 37.7208 25.5901 38.0057 25.5186 38.2946C25.4537 38.5359 25.3887 38.8346 25.3238 39.1779C24.7686 39.4394 24.1869 39.6403 23.5887 39.7773C22.9857 39.9127 22.3697 39.9811 21.7516 39.9814C19.5063 39.9814 17.6977 39.3802 16.3257 38.1777C14.9538 36.9753 14.2696 35.3862 14.2733 33.4105C14.2733 31.2153 14.9562 29.4543 16.3146 28.1163C17.6729 26.7784 19.4952 26.1178 21.7405 26.1178C22.4636 26.1139 23.1852 26.1817 23.8949 26.3201C24.5424 26.4457 25.1741 26.6423 25.7784 26.9065C25.6634 27.3295 25.5687 27.6933 25.4945 28.0087C25.4203 28.3242 25.3516 28.6879 25.2793 29.1221L25.0714 29.137C24.715 28.5886 24.2336 28.1326 23.6667 27.8065C23.1108 27.5042 22.4863 27.3508 21.8537 27.3611C20.4954 27.3611 19.4042 27.8733 18.6007 28.9031C17.7972 29.933 17.3946 31.3266 17.3946 33.0784C17.3946 34.8301 17.8139 36.1959 18.6601 37.2183C19.5063 38.2408 20.6327 38.7511 22.0634 38.7511C22.6992 38.7593 23.3301 38.64 23.9191 38.4004C24.5179 38.1358 25.0622 37.762 25.5242 37.2981L25.7766 37.4447L25.7784 37.441ZM27.5561 37.3687C28.1128 36.0975 28.7196 34.6742 29.3858 33.0747C30.4918 30.4025 31.3689 28.1541 32.0171 26.3293C32.2633 26.361 32.5112 26.3778 32.7594 26.3795C33.0076 26.3776 33.2555 26.3609 33.5017 26.3293C34.1586 28.1405 35.0245 30.3815 36.0996 33.0524C36.7441 34.6606 37.3317 36.0994 37.8625 37.3687C38.1816 38.1109 38.4192 38.6472 38.5583 38.9664C38.6975 39.2856 38.8311 39.5491 38.9406 39.768C38.4414 39.7328 37.8625 39.7179 37.2204 39.7179C36.5784 39.7179 36.0198 39.7328 35.5151 39.768C35.3295 39.0703 35.181 38.5581 35.0808 38.2371C34.9806 37.9161 34.8841 37.6229 34.7839 37.3594L34.2439 35.8934C33.4608 35.8043 32.6369 35.7542 31.7555 35.7394C31.0709 35.7259 30.3867 35.7844 29.7143 35.9138C29.5139 36.4037 29.3264 36.8862 29.1576 37.3594C29.0669 37.5961 28.9895 37.8377 28.9256 38.0831C28.8403 38.4041 28.6807 38.9664 28.471 39.768C28.1302 39.7317 27.7875 39.715 27.4448 39.7179C27.1039 39.715 26.7632 39.7317 26.4242 39.768C26.5337 39.5658 26.6729 39.2948 26.8232 38.9738C26.9735 38.6528 27.2129 38.1202 27.5654 37.3687H27.5561ZM31.9949 30.0666C31.6237 30.9574 31.2359 31.9223 30.8314 32.9726L30.2747 34.4256C30.8291 34.4876 31.3869 34.5142 31.9448 34.5054C32.5633 34.5054 33.1491 34.4763 33.7021 34.4182L33.6742 34.3458C33.0823 32.7833 32.5237 31.36 32.0042 30.0666H31.9949ZM40.9651 37.4614C40.9936 36.1625 41.0078 34.6928 41.0078 33.0524C41.0078 31.412 40.9936 29.9423 40.9651 28.6434C40.9484 27.979 40.928 27.491 40.9076 27.1681C40.8872 26.8452 40.8705 26.5409 40.8352 26.2403C41.3304 26.3185 41.8299 26.3668 42.3309 26.385C42.908 26.4073 43.4146 26.4073 43.834 26.385C44.5261 26.3349 45.1626 26.2978 45.749 26.27C46.3354 26.2421 46.7028 26.231 46.8624 26.231C48.9036 26.231 50.4828 26.7877 51.5739 27.9178C52.6651 29.0479 53.2217 30.6642 53.2217 32.7592C53.2217 35.0361 52.6075 36.7971 51.3661 38.0218C50.1247 39.2466 48.3525 39.8775 46.0552 39.8775C45.8733 39.8775 45.4756 39.8627 44.862 39.833C44.2534 39.8051 43.6057 39.768 42.9099 39.7235C42.5679 39.7031 42.2249 39.7081 41.8837 39.7383C41.5324 39.7607 41.1829 39.8047 40.8371 39.8701C40.8723 39.5713 40.8946 39.2559 40.9095 38.9423C40.9243 38.6286 40.9503 38.1332 40.967 37.4744L40.9651 37.4614ZM43.8488 38.4264C44.458 38.4875 45.07 38.5148 45.6822 38.508C47.1296 38.508 48.2263 38.0082 48.9723 37.0087C49.7257 36.0103 50.1005 34.5573 50.1005 32.6367C50.1005 30.9945 49.7164 29.7382 48.9574 28.8846C48.1985 28.031 47.0869 27.5856 45.6173 27.5856C44.9808 27.5856 44.387 27.6153 43.847 27.6673C43.8024 29.2001 43.7894 30.9963 43.7894 33.0487C43.7894 35.101 43.8024 36.8973 43.847 38.4301L43.8488 38.4264ZM55.5654 39.8719C55.5933 39.5732 55.6211 39.2651 55.636 38.9441C55.6508 38.6231 55.6712 38.1388 55.6935 37.4763C55.7157 36.1674 55.7281 34.6922 55.7306 33.0505C55.7306 31.4083 55.7157 29.9349 55.6935 28.6415C55.6712 27.9772 55.6582 27.4873 55.636 27.1663C55.6137 26.8452 55.5933 26.539 55.5654 26.2384C55.8957 26.283 56.3597 26.3201 56.9219 26.3498C57.4842 26.3795 58.0223 26.3924 58.5122 26.3924H59.1339C59.9652 26.3924 60.7613 26.3702 61.5258 26.3423C61.9981 26.3379 62.4695 26.2989 62.9361 26.2254C62.8594 26.8217 62.8594 27.4254 62.9361 28.0217C62.5015 27.9448 62.0617 27.9007 61.6204 27.89C60.9561 27.8528 60.2918 27.838 59.6126 27.838H59.2935H58.5122V32.1431H60.0172C60.5739 32.1431 61.1306 32.1283 61.7002 32.0912C62.0896 32.0781 62.478 32.044 62.8637 31.9891C62.787 32.5537 62.787 33.1261 62.8637 33.6907C62.4789 33.6273 62.0901 33.5907 61.7002 33.5813C61.1306 33.5516 60.5664 33.5367 60.0172 33.5367L58.5122 33.5219V38.2668L58.6143 38.2816H59.1339C59.8996 38.2816 60.6611 38.26 61.4182 38.2167C61.9264 38.1996 62.4332 38.1532 62.9361 38.0775C62.8964 38.3777 62.8771 38.6803 62.8786 38.9831C62.8769 39.2859 62.8961 39.5885 62.9361 39.8886C62.3794 39.8441 61.7299 39.8088 60.971 39.7773C60.212 39.7458 59.5978 39.7272 59.1339 39.7272H58.5122C58.0223 39.7272 57.4935 39.742 56.9219 39.7717C56.3504 39.8014 55.8957 39.8367 55.5654 39.8812V39.8719ZM66.3487 37.3687C66.3041 37.8047 66.2763 38.1926 66.254 38.5136C66.2318 38.8346 66.2318 39.2559 66.2243 39.768C65.6219 39.7012 65.0138 39.7012 64.4114 39.768C64.5041 39.3746 64.5839 39.0258 64.6433 38.6973C64.7027 38.3689 64.7788 37.9291 64.866 37.3687C65.0608 36.0697 65.278 34.6297 65.4951 33.0301C65.8662 30.3524 66.1464 28.1256 66.332 26.3293C66.5844 26.3611 66.8384 26.3778 67.0928 26.3795C67.3441 26.378 67.5951 26.3613 67.8443 26.3293C68.4307 27.825 69.2639 29.6473 70.3439 31.7961L72.2664 35.5353L73.5171 33.1545C74.9125 30.4699 76.0092 28.1949 76.8072 26.3293C77.2892 26.3962 77.7781 26.3962 78.2601 26.3293C78.4253 28.1256 78.6795 30.358 79.0172 33.0394C79.2214 34.6371 79.4088 36.0827 79.6036 37.3687C79.6983 38.0237 79.7892 38.521 79.8412 38.8346C79.8931 39.1482 79.9655 39.4711 80.0378 39.7625C79.5739 39.7272 79.0544 39.7123 78.468 39.7123C77.8816 39.7123 77.3546 39.7272 76.8851 39.7625C76.8851 39.1946 76.8647 38.7567 76.8498 38.4282C76.835 38.0998 76.8072 37.7565 76.77 37.3631C76.6531 36.0641 76.5177 34.6037 76.3507 33.0041L76.1057 30.7551H76.0964L74.9923 32.9448C73.6612 35.6392 72.6183 37.9148 71.8637 39.7717C71.7457 39.7383 71.6243 39.7183 71.5018 39.7123C71.3817 39.7177 71.2627 39.7377 71.1474 39.7717C70.3804 37.9161 69.3183 35.6379 67.9612 32.9373L66.9629 30.9889L66.7532 33.0171C66.588 34.6241 66.4452 36.0697 66.3431 37.3631L66.3487 37.3687ZM85.3636 34.1565C84.9386 33.3159 84.4599 32.4029 83.9255 31.425C83.391 30.4471 82.8993 29.5489 82.4409 28.738C81.8416 27.71 81.4519 27.0308 81.2644 26.7153C81.077 26.3999 81.0028 26.2718 81.0548 26.3442C81.5966 26.372 82.2182 26.3943 82.9197 26.3943C83.6211 26.3943 84.2335 26.372 84.7846 26.3442C85.2912 27.5856 85.6364 28.4244 85.8256 28.8772C86.0149 29.3299 86.1281 29.5935 86.1782 29.7029C86.6922 30.7959 87.1543 31.7683 87.5811 32.6163L88.47 30.7774L89.3978 28.7547C89.5168 28.5084 89.6203 28.2549 89.7077 27.9957C89.8314 27.6753 90.0287 27.1279 90.2996 26.3535C90.5965 26.3813 90.9361 26.4036 91.311 26.4036C91.6858 26.4036 92.0143 26.3813 92.3093 26.3535C92.185 26.539 92.0421 26.7914 91.8695 27.1124C91.697 27.4335 91.4 27.9809 90.9937 28.7547L89.7225 31.245L88.2974 34.0916C88.2194 34.8338 88.1749 35.7338 88.1675 36.7934V37.3761C88.1972 38.0645 88.2194 38.56 88.2399 38.881C88.2533 39.1836 88.2824 39.4852 88.3271 39.7847C87.8724 39.7495 87.3529 39.7346 86.7739 39.7346C86.1949 39.7346 85.6605 39.7495 85.204 39.7847C85.269 38.8068 85.3135 38.0775 85.3265 37.5969C85.3395 37.1163 85.3562 36.6468 85.3562 36.1792L85.3636 34.1565Z" fill="white"/>
  <path fill-rule="evenodd" clip-rule="evenodd" d="M2.11095 51.0264H2.47094C2.80317 51.0236 3.13357 51.0757 3.44888 51.1804C3.80849 51.3098 4.1604 51.4598 4.50289 51.6295C4.90557 51.828 5.24515 51.9765 5.51051 52.0822C5.79262 52.1775 6.08862 52.2252 6.38638 52.2233C6.55154 52.2319 6.71621 52.1987 6.86514 52.1268C6.98019 52.0628 7.08368 51.98 7.17132 51.8818C7.24555 51.7927 7.29194 51.7482 7.29194 51.7482C7.29194 51.7482 7.31978 51.7705 7.31978 51.815C7.30855 51.9928 7.25784 52.1659 7.17132 52.3216C7.06325 52.5422 6.89482 52.7277 6.6856 52.8564C6.47637 52.9852 6.23492 53.052 5.98927 53.049C5.75012 53.0504 5.51283 53.007 5.28969 52.921C5.04292 52.8248 4.80815 52.7002 4.59011 52.5499C4.34701 52.3643 4.03341 52.1268 3.66228 51.8076C3.46289 51.6299 3.23684 51.4846 2.99238 51.3771C2.75636 51.2825 2.5044 51.234 2.25012 51.2342C2.07835 51.2334 1.90747 51.259 1.74353 51.3103C1.57603 51.3713 1.41349 51.4451 1.25734 51.5311C1.1778 51.6006 1.08101 51.6474 0.97714 51.6666C0.950793 51.6695 0.924139 51.6655 0.899758 51.6551C0.875377 51.6447 0.854093 51.6282 0.837966 51.6072C0.817263 51.5856 0.80129 51.5599 0.791066 51.5318C0.780842 51.5037 0.776591 51.4737 0.778585 51.4439C0.778585 51.3325 0.880646 51.2583 1.0792 51.2119C1.27776 51.1655 1.42621 51.108 1.49858 51.0857C1.61775 51.0307 1.73362 50.9687 1.84559 50.9002L2.5062 50.5439C2.22895 50.4816 1.96503 50.3704 1.72683 50.2154C1.507 50.0776 1.31758 49.8964 1.17013 49.6829C1.02019 49.4643 0.907917 49.2222 0.837966 48.9666C0.76225 48.6853 0.724799 48.395 0.726626 48.1037C0.727978 47.6007 0.820396 47.1022 0.999408 46.6322C1.18186 46.1447 1.4426 45.6903 1.77136 45.2868C2.08712 44.8902 2.4797 44.5613 2.92558 44.32C3.35922 44.0914 3.84195 43.9717 4.33217 43.9712C4.6709 43.965 5.00774 44.0229 5.32495 44.1419C5.60035 44.244 5.84949 44.4063 6.05422 44.6169C6.26321 44.8324 6.42167 45.0916 6.51813 45.3759C6.62609 45.6964 6.68125 46.0323 6.68143 46.3705C6.67687 46.9021 6.5691 47.4277 6.36411 47.9181C6.16209 48.4166 5.88072 48.8791 5.53092 49.2876C5.22115 49.6673 4.83563 49.9782 4.39897 50.2006C3.95102 50.4133 3.46681 50.5393 2.97197 50.5717L2.11095 51.0097V51.0338V51.0264ZM4.41382 44.1938C3.99328 44.196 3.5888 44.3556 3.28001 44.641C2.91909 44.9686 2.61991 45.3583 2.39672 45.7916C2.16236 46.253 1.98001 46.7391 1.85301 47.2408C1.73633 47.6775 1.674 48.1268 1.66744 48.5788C1.66738 48.869 1.71182 49.1575 1.7992 49.4342C1.88125 49.6942 2.03419 49.9262 2.24084 50.1041C2.4488 50.2767 2.71307 50.3665 2.98311 50.3565C3.4133 50.353 3.82601 50.1858 4.13732 49.8888C4.4986 49.5473 4.7931 49.1414 5.00577 48.6919C5.23697 48.2182 5.41497 47.7203 5.53649 47.2074C5.64859 46.7598 5.71082 46.3011 5.72206 45.8398C5.73475 45.4257 5.61869 45.0179 5.38989 44.6726C5.28042 44.5153 5.1322 44.3889 4.95958 44.3057C4.78696 44.2225 4.59578 44.1852 4.40454 44.1975L4.41382 44.1938ZM8.79131 48.1037C8.9171 47.7445 8.99388 47.37 9.01956 46.9903C9.02126 46.8125 8.96741 46.6387 8.86554 46.493C8.8189 46.4252 8.75617 46.3701 8.68298 46.3325C8.60978 46.2949 8.52842 46.2761 8.44616 46.2777C8.2884 46.2829 8.13397 46.3244 7.99491 46.3991C7.85585 46.4738 7.73594 46.5796 7.64452 46.7082C7.3877 47.0361 7.17033 47.3929 6.99689 47.7715L7.19545 47.8606C7.35036 47.564 7.52519 47.2782 7.71874 47.0052C7.91544 46.7157 8.08988 46.5746 8.23462 46.5746C8.30699 46.5746 8.34967 46.6414 8.34967 46.7806C8.34967 46.8326 8.34967 46.8715 8.34967 46.9012C8.35303 46.9283 8.35303 46.9558 8.34967 46.9829C8.34087 47.1212 8.31659 47.2582 8.2773 47.3911C8.23904 47.5574 8.19197 47.7216 8.13627 47.8829C8.07874 48.0684 8.04163 48.2039 8.01194 48.2985L7.82637 48.8552C7.75957 49.1002 7.70947 49.2765 7.6872 49.3841C7.66249 49.5063 7.65006 49.6306 7.65008 49.7552C7.64549 49.8626 7.66343 49.9698 7.70274 50.0698C7.74205 50.1698 7.80186 50.2605 7.87833 50.3361C7.95454 50.4091 8.04442 50.4664 8.14282 50.5046C8.24122 50.5428 8.3462 50.5612 8.45173 50.5587C8.60975 50.5592 8.76609 50.5264 8.91059 50.4624C9.0551 50.3985 9.18453 50.3048 9.29049 50.1876C9.5616 49.8931 9.80106 49.5709 10.0049 49.2264L10.0272 49.2412C10.0272 49.308 10.0123 49.3823 10.0049 49.4862C9.99749 49.5901 9.98821 49.694 9.97708 49.8295C9.97708 50.3212 10.1886 50.5717 10.6154 50.5717C11.0942 50.5717 11.4987 50.0948 11.8439 49.1429L11.6379 49.0705C11.5445 49.3319 11.4199 49.5812 11.2668 49.8128C11.0812 50.1171 10.9216 50.273 10.7806 50.273C10.6785 50.273 10.6191 50.1765 10.6191 50.0002C10.6196 49.8199 10.6344 49.6399 10.6637 49.462C10.6907 49.2803 10.7272 49.1 10.7732 48.922C10.8177 48.7495 10.8845 48.4971 10.9736 48.1705C11.0626 47.8439 11.1276 47.6287 11.148 47.5377L11.508 46.3204H10.8158L10.0439 48.6604C9.93659 48.9043 9.81258 49.1406 9.67275 49.3674C9.53039 49.6005 9.36029 49.8155 9.16616 50.0076C9.01893 50.167 8.81661 50.2645 8.60018 50.2804C8.50799 50.2847 8.41764 50.2535 8.34781 50.1932C8.31743 50.1615 8.29398 50.1239 8.27896 50.0827C8.26395 50.0415 8.25769 49.9976 8.2606 49.9538C8.27964 49.7632 8.32394 49.576 8.39235 49.3971L8.79131 48.1037ZM14.9799 46.4837C14.6867 46.4837 14.3935 46.6841 14.0911 47.0849C13.7699 47.5115 13.5118 47.9821 13.3247 48.4823C13.1528 48.8628 13.0486 49.2703 13.0166 49.6866C13.0132 49.8483 13.0536 50.008 13.1336 50.1486C13.1678 50.2103 13.2182 50.2616 13.2793 50.2969C13.3404 50.3322 13.41 50.3502 13.4806 50.349C13.6976 50.3462 13.9053 50.2606 14.0614 50.1097C14.2414 49.9483 14.396 49.7606 14.5197 49.553C14.6525 49.332 14.7721 49.1033 14.8779 48.8682C14.9799 48.6456 15.0634 48.4303 15.1432 48.2225C15.223 48.0146 15.2824 47.8049 15.3418 47.5767C15.3957 47.3825 15.4256 47.1825 15.4309 46.981C15.4308 46.8958 15.4104 46.8119 15.3715 46.7361C15.336 46.6621 15.2824 46.5982 15.2156 46.5505C15.1464 46.5031 15.0637 46.4797 14.9799 46.4837ZM15.6276 46.8047L15.7686 46.4113H16.4385L16.0247 47.547C15.8929 47.9181 15.7537 48.3654 15.6146 48.8775C15.4968 49.2567 15.4246 49.6485 15.3993 50.0447C15.3993 50.195 15.4383 50.2674 15.5181 50.2674C15.6572 50.2674 15.7983 50.1412 15.9523 49.8833C16.1063 49.6253 16.2696 49.3099 16.4385 48.9554L16.637 49.0501C16.5628 49.2078 16.4904 49.3711 16.4014 49.5493C16.3245 49.7218 16.2333 49.8875 16.1286 50.0447C16.0363 50.1908 15.9158 50.3169 15.7742 50.4158C15.6414 50.5116 15.4813 50.5617 15.3177 50.5587C15.1671 50.5658 15.0196 50.5147 14.9057 50.4158C14.8528 50.364 14.8116 50.3014 14.785 50.2322C14.7584 50.1631 14.7471 50.089 14.7517 50.015C14.7552 49.9102 14.7676 49.806 14.7888 49.7033C14.8185 49.5771 14.8333 49.4954 14.8408 49.4565L14.8185 49.4435C14.4041 50.1858 13.9327 50.5569 13.4045 50.5569C13.2126 50.5615 13.0236 50.5099 12.8608 50.4084C12.6944 50.3111 12.5587 50.169 12.4692 49.9983C12.3802 49.8184 12.3351 49.62 12.3375 49.4194C12.3452 49.0727 12.415 48.7301 12.5435 48.408C12.6903 48.0333 12.8889 47.681 13.1336 47.3614C13.3634 47.0513 13.6445 46.7826 13.9649 46.5672C14.2434 46.3785 14.5711 46.2753 14.9076 46.2703C15.0701 46.2658 15.2294 46.3161 15.36 46.413C15.4906 46.5099 15.5848 46.6479 15.6276 46.8047ZM19.5523 44.0101L18.424 47.675C18.3442 47.9126 18.27 48.1724 18.1828 48.4618C18.0956 48.7513 18.0269 49.0427 17.9545 49.3321C17.8982 49.5541 17.8634 49.7809 17.8506 50.0095C17.8506 50.1857 17.91 50.2822 18.0362 50.2822C18.1253 50.2822 18.2348 50.2099 18.3684 50.0596C18.5122 49.8944 18.6402 49.7161 18.7506 49.527C18.8439 49.3814 18.927 49.2295 18.9993 49.0724L19.222 49.1763C19.0431 49.5369 18.8306 49.8798 18.5873 50.2006C18.5009 50.3158 18.3888 50.4094 18.26 50.4738C18.1312 50.5382 17.9891 50.5717 17.8451 50.5717C17.7511 50.5803 17.6566 50.5649 17.5702 50.5269C17.4839 50.4889 17.4086 50.4297 17.3515 50.3546C17.2307 50.1985 17.1701 50.0042 17.1807 49.8072C17.1807 49.54 17.2976 49.0241 17.5407 48.267L18.5075 45.0177C18.5462 44.8916 18.5778 44.7633 18.6022 44.6336C18.6078 44.5894 18.6002 44.5445 18.5804 44.5045C18.5606 44.4646 18.5294 44.4314 18.4908 44.4091C18.4065 44.3662 18.3143 44.341 18.2199 44.3349C18.1086 44.3349 18.0047 44.32 17.9174 44.32L17.9768 44.1048L19.5597 44.0083L19.5523 44.0101ZM20.1554 48.5806C20.0589 48.8126 19.9846 48.9814 19.9401 49.0872C19.8956 49.193 19.8455 49.3247 19.8009 49.4713C19.7591 49.6015 19.7372 49.7373 19.736 49.874C19.7327 50.0544 19.7924 50.2302 19.9048 50.3713C19.9581 50.438 20.0264 50.491 20.1041 50.5262C20.1819 50.5614 20.2668 50.5776 20.3521 50.5736C20.5022 50.5647 20.6485 50.522 20.7799 50.4488C20.9113 50.3755 21.0245 50.2736 21.111 50.1505C21.3437 49.8674 21.5389 49.5556 21.6918 49.2227L21.5063 49.1262C21.3758 49.3899 21.2171 49.6388 21.0331 49.8684C20.8271 50.1449 20.662 50.2767 20.4894 50.2767C20.4695 50.2754 20.45 50.2702 20.4321 50.2613C20.4143 50.2524 20.3984 50.2399 20.3855 50.2247C20.363 50.1918 20.3502 50.1532 20.3483 50.1134C20.3552 50.028 20.3727 49.9439 20.4003 49.8629C20.4448 49.7348 20.4894 49.6012 20.5413 49.4602C20.5933 49.3192 20.6286 49.2227 20.6378 49.2004L20.9384 48.4099C20.9756 48.3227 21.0201 48.2058 21.0776 48.0629C21.1351 47.92 21.189 47.7864 21.2316 47.6528C21.2757 47.5262 21.3129 47.3974 21.343 47.2668C21.3683 47.1579 21.3808 47.0464 21.3801 46.9346C21.384 46.7661 21.3266 46.602 21.2187 46.4726C21.1672 46.4121 21.1028 46.3639 21.0302 46.3318C20.9576 46.2997 20.8786 46.2843 20.7993 46.287C20.6127 46.2872 20.4321 46.3528 20.289 46.4726C20.1457 46.5902 20.0206 46.7284 19.9178 46.8827C19.8213 47.0293 19.697 47.239 19.5337 47.521L19.7193 47.6249C19.8501 47.3818 19.9976 47.148 20.1609 46.9254C20.3316 46.6953 20.4782 46.5765 20.6119 46.5765C20.6339 46.5763 20.6558 46.5808 20.676 46.5898C20.6961 46.5987 20.7141 46.6119 20.7288 46.6285C20.757 46.6694 20.7725 46.7179 20.7733 46.7676C20.6951 47.1635 20.5763 47.5503 20.4189 47.9218L20.1554 48.575V48.5806ZM21.369 44.9843C21.2554 44.984 21.1466 44.9386 21.0665 44.8582C21.0263 44.8196 20.9945 44.7732 20.9732 44.7218C20.9518 44.6703 20.9412 44.6151 20.9422 44.5594C20.9383 44.4415 20.981 44.3269 21.0609 44.2402C21.0974 44.194 21.1443 44.157 21.1979 44.1325C21.2515 44.108 21.3101 44.0966 21.369 44.0992C21.4473 44.0987 21.5242 44.1213 21.5898 44.1641C21.657 44.2019 21.7109 44.2596 21.7438 44.3293C21.7834 44.3995 21.8039 44.4788 21.8032 44.5594C21.8036 44.615 21.7928 44.6701 21.7714 44.7214C21.7501 44.7728 21.7186 44.8193 21.6789 44.8582C21.5959 44.9389 21.4847 44.9842 21.369 44.9843ZM23.6718 45.0586H24.3269L23.9223 46.4021H24.6646L24.5997 46.6173H23.8574L23.785 46.8623C23.6681 47.2557 23.5048 47.8421 23.3063 48.6159C23.1655 49.0733 23.0612 49.5411 22.9945 50.015C22.9918 50.0783 23.0019 50.1414 23.0242 50.2006C23.037 50.2236 23.0564 50.2423 23.0798 50.2542C23.1033 50.2661 23.1298 50.2707 23.156 50.2674C23.2666 50.2557 23.3691 50.2035 23.4436 50.1208C23.5494 50.0117 23.6433 49.8916 23.7238 49.7627C23.8104 49.6142 23.8865 49.4732 23.952 49.3396C24.0244 49.1985 24.0764 49.0946 24.1209 49.0055L24.3065 49.1095C24.1896 49.347 24.1005 49.5326 24.0355 49.6662C23.9612 49.8116 23.8749 49.9507 23.7776 50.0818C23.6749 50.2191 23.5494 50.3378 23.4065 50.4325C23.2668 50.523 23.1033 50.5695 22.937 50.5662C22.8536 50.5663 22.771 50.55 22.6939 50.5182C22.6169 50.4864 22.5469 50.4396 22.4879 50.3806C22.4272 50.3172 22.3795 50.2424 22.3477 50.1606C22.3158 50.0788 22.3004 49.9915 22.3024 49.9037C22.302 49.8065 22.3113 49.7095 22.3302 49.6142C22.345 49.4954 22.3673 49.399 22.3821 49.3099C22.397 49.2208 22.4415 49.0798 22.4935 48.8924C22.5454 48.7049 22.5881 48.5732 22.603 48.5082L23.1485 46.6192H22.4063L22.4786 46.4039H23.2209L23.67 45.0511L23.6718 45.0586ZM24.9225 47.7029C24.9244 47.5281 24.9443 47.354 24.9819 47.1833C25.0265 46.968 25.0988 46.8641 25.1953 46.8641C25.2918 46.8641 25.4087 47.0293 25.5405 47.3633C25.6495 47.6258 25.7382 47.8963 25.8058 48.1724C25.9107 48.5477 25.987 48.9304 26.0341 49.3173C26.0938 49.7185 26.1261 50.1234 26.1306 50.529C26.1277 51.1108 25.8972 51.6682 25.4885 52.0822C25.3588 52.2166 25.1973 52.3161 25.019 52.3717C24.8206 52.4165 24.6174 52.4365 24.4141 52.4311C24.043 52.4311 23.8574 52.5517 23.8574 52.7892C23.8578 52.8301 23.8689 52.8702 23.8898 52.9054C23.9107 52.9406 23.9404 52.9697 23.9762 52.9896C24.0549 53.0411 24.1475 53.0671 24.2415 53.0639C24.6516 53.0639 25.0803 52.8189 25.5275 52.3365C25.9651 51.8701 26.348 51.3552 26.6687 50.8018C26.882 50.4401 27.068 50.0629 27.2254 49.6736C27.3862 49.2794 27.5104 48.8713 27.5965 48.4544C27.6897 48.0579 27.7371 47.6519 27.7376 47.2445C27.7438 47.0164 27.7189 46.7885 27.6634 46.5672C27.6509 46.4844 27.6077 46.4094 27.5424 46.3571C27.477 46.3048 27.3943 46.2791 27.3108 46.2852C27.231 46.2855 27.1545 46.3168 27.0974 46.3724C27.0691 46.3994 27.0467 46.432 27.0317 46.4681C27.0167 46.5042 27.0094 46.543 27.0102 46.5821C27.0257 46.6955 27.074 46.802 27.1493 46.8882C27.232 47.0064 27.3058 47.1304 27.3702 47.2594C27.4346 47.4228 27.4643 47.5979 27.4574 47.7734C27.4574 48.4414 27.2217 49.2431 26.7522 50.1728H26.7374C26.7225 49.7274 26.6836 49.3043 26.6353 48.8942C26.5892 48.5071 26.5098 48.1246 26.3978 47.7511C26.3472 47.5503 26.2815 47.3537 26.2011 47.1629C26.1133 46.9425 25.9966 46.7347 25.8541 46.545C25.8086 46.4727 25.7472 46.4118 25.6745 46.3671C25.6017 46.3224 25.5197 46.295 25.4347 46.287C25.3504 46.2867 25.2675 46.3083 25.194 46.3496C25.1205 46.3909 25.0589 46.4505 25.0153 46.5227C24.904 46.6924 24.8247 46.8811 24.7815 47.0794C24.7358 47.2691 24.7103 47.4632 24.7054 47.6583C24.7054 47.7493 24.7221 47.8235 24.7221 47.8829C24.7221 47.9423 24.7221 48.0091 24.7221 48.0833H24.9281C24.9281 48.0239 24.9281 47.9571 24.9281 47.8977C24.9281 47.8383 24.9281 47.779 24.9281 47.6955L24.9225 47.7029ZM33.3491 49.206L33.5254 49.3321C33.3093 49.6668 33.0469 49.9692 32.746 50.2303C32.4951 50.4546 32.1695 50.577 31.833 50.5736C31.6904 50.5826 31.5475 50.5606 31.4142 50.509C31.2809 50.4574 31.1604 50.3775 31.0611 50.2748C30.8633 50.0552 30.76 49.7665 30.7734 49.4713C30.7802 49.1256 30.8481 48.7839 30.9738 48.4618C31.1046 48.089 31.2877 47.7366 31.5176 47.4153C31.7299 47.0937 32.0021 46.8159 32.3192 46.5969C32.5874 46.3969 32.9125 46.2877 33.247 46.2852C33.3668 46.2835 33.4853 46.3109 33.5922 46.365C33.693 46.4185 33.7771 46.4987 33.8353 46.5969C33.9025 46.7005 33.9362 46.8223 33.9318 46.9458C33.9293 47.1655 33.8712 47.381 33.7628 47.5722C33.6544 47.7633 33.4993 47.9239 33.312 48.0388C32.83 48.3633 32.3142 48.6346 31.7736 48.8478L31.627 48.9146C31.5772 49.0744 31.5357 49.2367 31.5027 49.4008C31.475 49.5351 31.4625 49.672 31.4656 49.8091C31.4602 49.9518 31.5012 50.0924 31.5825 50.2099C31.6239 50.2615 31.6769 50.3025 31.7372 50.3296C31.7976 50.3567 31.8635 50.3691 31.9295 50.3657C32.0784 50.3657 32.2247 50.3274 32.3545 50.2544C32.4898 50.182 32.6147 50.0915 32.7256 49.9853C32.8518 49.8544 32.9695 49.7155 33.0782 49.5697C33.2043 49.4064 33.3008 49.2802 33.3509 49.1985L33.3491 49.206ZM31.6938 48.6604C31.9663 48.5353 32.2271 48.3863 32.4732 48.215C32.7255 48.0388 32.9474 47.8225 33.1301 47.5748C33.2981 47.3546 33.3929 47.0872 33.401 46.8103C33.4052 46.7258 33.3759 46.6432 33.3194 46.5802C33.2929 46.5506 33.2597 46.5278 33.2225 46.5136C33.1854 46.4994 33.1455 46.4943 33.106 46.4986C32.9833 46.5086 32.8648 46.5474 32.76 46.6119C32.6552 46.6764 32.5671 46.7647 32.5029 46.8697C32.2996 47.1453 32.1313 47.4452 32.0019 47.7623C31.8806 48.0524 31.7777 48.3499 31.6938 48.653V48.6604ZM36.6095 46.4986C36.48 46.5096 36.3544 46.5484 36.2414 46.6125C36.1283 46.6766 36.0304 46.7643 35.9544 46.8697C35.7164 47.1445 35.5201 47.4527 35.3718 47.7845C35.1993 48.1344 35.0619 48.5005 34.9617 48.8775C34.8739 49.1499 34.8215 49.4324 34.8058 49.7181C34.8017 49.88 34.8456 50.0395 34.932 50.1765C34.9724 50.2376 35.0276 50.2876 35.0925 50.3216C35.1574 50.3557 35.2298 50.3728 35.3031 50.3713C35.433 50.3619 35.5591 50.3237 35.6724 50.2596C35.7857 50.1954 35.8833 50.1068 35.9581 50.0002C36.1929 49.7147 36.3836 49.3957 36.5241 49.0538C36.6792 48.697 36.8076 48.3292 36.9082 47.9534C36.9844 47.6798 37.0286 47.3984 37.04 47.1146C37.0415 46.9644 37.0065 46.816 36.9379 46.6823C36.9033 46.626 36.8542 46.5799 36.7958 46.5489C36.7374 46.5179 36.6718 46.5031 36.6058 46.506L36.6095 46.4986ZM37.1977 46.6841L37.6394 45.1012C37.6972 44.9247 37.7394 44.7434 37.7656 44.5594C37.7668 44.5239 37.7567 44.4889 37.7366 44.4595C37.7166 44.4301 37.6877 44.4079 37.6542 44.3961C37.563 44.3583 37.4654 44.3381 37.3666 44.3367C37.2571 44.3367 37.1606 44.3219 37.0734 44.3219L37.1476 44.1066L38.6321 44.0101L38.1812 45.6802L37.7804 47.1759C37.7581 47.2501 37.7136 47.4115 37.6468 47.6676C37.58 47.9237 37.5076 48.2243 37.4278 48.5732C37.348 48.922 37.2868 49.206 37.2423 49.4379C37.2105 49.6218 37.1931 49.808 37.1903 49.9946C37.1903 50.1802 37.2423 50.2674 37.3443 50.2674C37.4464 50.2674 37.5447 50.1857 37.6709 50.0225C37.7979 49.8398 37.9126 49.6489 38.0142 49.4509C38.1181 49.2357 38.1998 49.0631 38.2499 48.9313L38.4559 49.0185C38.3165 49.393 38.1294 49.7479 37.8992 50.0744C37.6709 50.401 37.413 50.5587 37.1272 50.5587C37.0487 50.5611 36.9707 50.5456 36.899 50.5135C36.8273 50.4813 36.7639 50.4334 36.7134 50.3732C36.6128 50.2349 36.5612 50.0671 36.5668 49.8963C36.5788 49.6912 36.6086 49.4875 36.6559 49.2876L36.6317 49.2653C36.478 49.5979 36.2753 49.9057 36.0305 50.1783C35.931 50.2961 35.8067 50.3904 35.6666 50.4546C35.5264 50.5187 35.3737 50.5511 35.2196 50.5495C35.0672 50.5552 34.9155 50.5259 34.7762 50.4639C34.6369 50.4018 34.5137 50.3085 34.4161 50.1913C34.2151 49.9444 34.1091 49.6337 34.1173 49.3154C34.125 48.9815 34.1922 48.6515 34.3159 48.3412C34.4549 47.9907 34.6417 47.661 34.8707 47.3614C35.0883 47.0592 35.3571 46.7973 35.6649 46.5876C35.9363 46.3947 36.2598 46.2886 36.5928 46.2833C36.7259 46.2807 36.8563 46.3218 36.9639 46.4002C37.069 46.4726 37.155 46.5694 37.2144 46.6823L37.1977 46.6841ZM40.6233 48.1037L40.2262 49.3748C40.1569 49.5535 40.1125 49.7408 40.0944 49.9315C40.091 49.9753 40.0971 50.0194 40.1121 50.0607C40.1271 50.1019 40.1508 50.1395 40.1816 50.1709C40.2509 50.231 40.3405 50.2622 40.4321 50.2581C40.6455 50.2407 40.8443 50.1433 40.9888 49.9853C41.1841 49.7933 41.3555 49.5783 41.4991 49.3451C41.6384 49.118 41.7624 48.8818 41.8703 48.6381L42.6441 46.3056H43.3437L42.9892 47.547C42.9688 47.6379 42.9094 47.8439 42.8129 48.1798C42.7164 48.5157 42.6589 48.7587 42.6144 48.9313C42.5674 49.1086 42.5333 49.2891 42.5123 49.4713C42.484 49.6493 42.4691 49.8292 42.4678 50.0095C42.4678 50.1857 42.5197 50.2822 42.6218 50.2822C42.761 50.2822 42.9224 50.1264 43.108 49.822C43.2611 49.5904 43.3857 49.3412 43.4791 49.0798L43.6851 49.1521C43.3399 50.1041 42.9428 50.581 42.4567 50.581C42.0299 50.581 41.8165 50.3379 41.8165 49.8387C41.8313 49.7033 41.8387 49.5919 41.8461 49.4954C41.8536 49.399 41.8591 49.3099 41.8666 49.2505L41.8461 49.2357C41.6437 49.5851 41.4041 49.9117 41.1317 50.2099C41.0242 50.3271 40.8934 50.4207 40.7477 50.4846C40.602 50.5485 40.4446 50.5813 40.2855 50.581C40.0719 50.5857 39.8651 50.5056 39.7103 50.3583C39.6341 50.2827 39.5745 50.1919 39.5355 50.0919C39.4965 49.9919 39.4789 49.8848 39.4839 49.7775C39.4839 49.6529 39.4963 49.5285 39.521 49.4064C39.5414 49.2987 39.5934 49.1225 39.6695 48.8775L39.8365 48.3208C39.8662 48.2262 39.9014 48.0833 39.9608 47.9051C40.0202 47.727 40.0721 47.5563 40.1018 47.4134C40.1403 47.2802 40.1645 47.1434 40.1742 47.0052C40.1776 46.978 40.1776 46.9506 40.1742 46.9235C40.1742 46.8938 40.1742 46.8548 40.1742 46.8029C40.1742 46.6637 40.1297 46.5969 40.0573 46.5969C39.9107 46.5969 39.74 46.7379 39.5414 47.0274C39.3482 47.2992 39.1757 47.5852 39.0255 47.8829L38.8288 47.7938C38.9992 47.4152 39.2141 47.0582 39.469 46.7305C39.5603 46.6016 39.6801 46.4957 39.8192 46.421C39.9583 46.3463 40.1129 46.3049 40.2707 46.3C40.353 46.2982 40.4344 46.317 40.5076 46.3546C40.5808 46.3921 40.6435 46.4474 40.6901 46.5153C40.7933 46.6604 40.8479 46.8345 40.8459 47.0126C40.8225 47.3848 40.7476 47.752 40.6233 48.1037ZM46.7247 49.115L46.9102 49.2245C46.7412 49.5865 46.5036 49.9123 46.2107 50.1839C45.9514 50.4266 45.6083 50.5596 45.2531 50.555C45.0987 50.5625 44.9447 50.5327 44.8042 50.4681C44.6637 50.4035 44.5408 50.306 44.4459 50.1839C44.2487 49.916 44.1497 49.5884 44.1657 49.2561C44.1797 48.8004 44.2931 48.3533 44.4979 47.946C44.7099 47.4867 45.0151 47.0766 45.3942 46.7416C45.7048 46.441 46.1163 46.267 46.5484 46.2536C46.7253 46.2527 46.8989 46.3015 47.0494 46.3946C47.1195 46.4366 47.177 46.4966 47.2158 46.5685C47.2547 46.6403 47.2735 46.7213 47.2702 46.8029C47.27 46.9054 47.2339 47.0045 47.1682 47.0831C47.1384 47.1235 47.0995 47.1563 47.0547 47.1789C47.0099 47.2014 46.9604 47.2131 46.9102 47.213C46.8669 47.2138 46.824 47.2047 46.7848 47.1863C46.7455 47.168 46.711 47.1409 46.6838 47.1072C46.6248 47.0424 46.5929 46.9574 46.5948 46.8697C46.5949 46.8086 46.6123 46.7488 46.6449 46.6971C46.6672 46.6614 46.6823 46.6217 46.6894 46.5802C46.6894 46.506 46.6226 46.4689 46.4834 46.4689C46.3574 46.4773 46.2351 46.5154 46.1265 46.5798C46.0178 46.6443 45.9259 46.7334 45.8581 46.84C45.6416 47.1162 45.4654 47.4217 45.3348 47.7474C45.194 48.1056 45.0769 48.4725 44.9841 48.846C44.9097 49.113 44.8649 49.3875 44.8505 49.6643C44.8445 49.8361 44.894 50.0052 44.9915 50.1468C45.0324 50.2145 45.091 50.2697 45.161 50.3067C45.2309 50.3436 45.3096 50.3608 45.3886 50.3565C45.8748 50.3565 46.3214 49.9451 46.7284 49.1225L46.7247 49.115ZM50.2281 46.4837C49.9331 46.4837 49.6306 46.6841 49.3282 47.0849C49.0117 47.5139 48.7551 47.984 48.5655 48.4823C48.3971 48.8638 48.2942 49.2709 48.2612 49.6866C48.2572 49.8489 48.299 50.009 48.3818 50.1486C48.4142 50.2114 48.464 50.2637 48.5251 50.2992C48.5863 50.3347 48.6563 50.352 48.7269 50.349C48.9422 50.3481 49.1483 50.2621 49.3003 50.1097C49.4847 49.951 49.6414 49.7629 49.7642 49.553C49.8951 49.3318 50.0128 49.1032 50.1168 48.8682C50.2207 48.6456 50.3024 48.4303 50.3822 48.2225C50.4649 48.012 50.5337 47.7962 50.5881 47.5767C50.6373 47.3818 50.6647 47.182 50.6698 46.981C50.6713 46.8965 50.6535 46.8127 50.6178 46.7361C50.5825 46.6625 50.5296 46.5988 50.4638 46.5505C50.3939 46.5047 50.3117 46.4813 50.2281 46.4837ZM50.8665 46.788L51.0149 46.3946H51.6848L51.2636 47.5452C51.1319 47.9163 51.0001 48.3635 50.8516 48.8757C50.7355 49.2551 50.6645 49.6468 50.6401 50.0429C50.6401 50.1932 50.6828 50.2655 50.7644 50.2655C50.8962 50.2655 51.0446 50.1394 51.1987 49.8814C51.3527 49.6235 51.5085 49.308 51.6848 48.9536L51.8834 49.0482C51.8092 49.206 51.7275 49.3693 51.6477 49.5474C51.5663 49.7164 51.4753 49.8806 51.3749 50.0392C51.2801 50.1826 51.1608 50.3082 51.0224 50.4103C50.8889 50.5045 50.7292 50.5544 50.5659 50.5532C50.4151 50.5619 50.267 50.5105 50.1539 50.4103C50.1014 50.3582 50.0605 50.2955 50.0339 50.2264C50.0074 50.1573 49.9958 50.0834 49.9999 50.0095C50.0025 49.9046 50.015 49.8002 50.037 49.6977C50.0574 49.5715 50.0723 49.4899 50.0797 49.4509L50.0648 49.4379C49.6455 50.1802 49.1834 50.5513 48.6527 50.5513C48.4565 50.5586 48.2625 50.5069 48.096 50.4029C47.9318 50.3052 47.7986 50.163 47.7119 49.9928C47.6162 49.815 47.5683 49.6156 47.5727 49.4138C47.5824 49.0666 47.6547 48.724 47.7861 48.4025C47.9295 48.0274 48.1251 47.6745 48.3669 47.354C48.5987 47.0456 48.8796 46.7773 49.1983 46.5598C49.4773 46.372 49.8047 46.2689 50.1409 46.2629C50.3018 46.2566 50.46 46.3043 50.5906 46.3985C50.7211 46.4927 50.8163 46.6279 50.8609 46.7825L50.8665 46.788ZM53.7984 45.0493H54.4535L54.0489 46.4021H54.7912L54.7263 46.6192H53.984L53.9023 46.8641C53.7947 47.2575 53.6314 47.8439 53.4254 48.6177C53.2853 49.0752 53.1817 49.543 53.1156 50.0169C53.1149 50.0806 53.1276 50.1438 53.1527 50.2025C53.1675 50.2488 53.2102 50.2693 53.277 50.2693C53.389 50.2602 53.4929 50.2076 53.5665 50.1227C53.6739 50.0154 53.7674 49.8951 53.8448 49.7645C53.932 49.6161 54.0137 49.475 54.0805 49.3414C54.1473 49.2078 54.2048 49.0965 54.2494 49.0074L54.4349 49.1113C54.3254 49.3488 54.2364 49.5344 54.164 49.668C54.089 49.8135 54.0021 49.9525 53.9042 50.0837C53.8053 50.2205 53.6835 50.3391 53.5442 50.4344C53.4041 50.5238 53.2409 50.5702 53.0747 50.568C52.9911 50.5698 52.908 50.5542 52.8307 50.5223C52.7534 50.4904 52.6836 50.4427 52.6257 50.3824C52.5639 50.3198 52.5155 50.2452 52.4836 50.1632C52.4517 50.0812 52.4369 49.9935 52.4401 49.9055C52.4413 49.8087 52.4487 49.712 52.4624 49.6161C52.4766 49.5136 52.4965 49.412 52.5217 49.3117C52.55 49.1705 52.5866 49.0311 52.6312 48.8942C52.6832 48.7086 52.7203 48.575 52.7426 48.5101L53.277 46.6192H52.5255L52.6071 46.4039H53.3586L53.8003 45.0511L53.7984 45.0493ZM55.5873 48.575L55.8601 47.9218C56.0108 47.5489 56.1258 47.1624 56.2034 46.7676C56.2041 46.7179 56.1891 46.6692 56.1607 46.6285C56.1461 46.6119 56.128 46.5987 56.1079 46.5898C56.0877 46.5808 56.0658 46.5763 56.0438 46.5765C55.9176 46.5765 55.7636 46.6953 55.5929 46.9254C55.4322 47.1498 55.2847 47.3834 55.1512 47.6249L54.9656 47.521C55.1271 47.239 55.2514 47.0293 55.3553 46.8827C55.4556 46.7265 55.581 46.5879 55.7265 46.4726C55.8687 46.3525 56.0488 46.2868 56.2349 46.287C56.3151 46.2842 56.3949 46.2994 56.4685 46.3315C56.542 46.3636 56.6074 46.4118 56.6599 46.4726C56.7661 46.6031 56.8238 46.7664 56.8232 46.9346C56.8209 47.0467 56.806 47.1581 56.7786 47.2668C56.7489 47.393 56.7118 47.521 56.6691 47.6528C56.6265 47.7845 56.5726 47.9218 56.5133 48.0629C56.4539 48.2039 56.4112 48.3227 56.3741 48.4099L56.0716 49.2004C56.0716 49.2227 56.0345 49.3117 55.9751 49.4602C55.9157 49.6086 55.8805 49.7348 55.8434 49.8629C55.8158 49.9442 55.7966 50.0282 55.7858 50.1134C55.7874 50.1542 55.8024 50.1933 55.8285 50.2247C55.8412 50.2403 55.857 50.2529 55.8749 50.2619C55.8928 50.2709 55.9124 50.2759 55.9324 50.2767C56.0865 50.2767 56.2627 50.1449 56.4706 49.8684C56.6536 49.6388 56.811 49.3899 56.9401 49.1262L57.1256 49.2227C56.9701 49.5559 56.7724 49.8677 56.5374 50.1505C56.4512 50.2735 56.3384 50.3755 56.2073 50.4487C56.0762 50.522 55.9302 50.5647 55.7803 50.5736C55.6948 50.5777 55.6095 50.5616 55.5314 50.5264C55.4534 50.4913 55.3848 50.4381 55.3312 50.3713C55.2188 50.2302 55.1591 50.0544 55.1623 49.874C55.1636 49.7367 55.188 49.6005 55.2347 49.4713C55.2718 49.3408 55.3164 49.2125 55.3683 49.0872C55.411 48.9814 55.4852 48.8126 55.5817 48.5806L55.5873 48.575ZM56.8009 44.9788C56.7458 44.9786 56.6912 44.9673 56.6406 44.9456C56.5899 44.9239 56.5441 44.8923 56.5058 44.8526C56.4633 44.8155 56.4294 44.7695 56.4066 44.7179C56.3839 44.6663 56.3727 44.6102 56.3741 44.5538C56.3731 44.4354 56.4176 44.3212 56.4984 44.2347C56.5343 44.1892 56.5804 44.1527 56.6329 44.1282C56.6854 44.1037 56.743 44.0919 56.8009 44.0936C56.8795 44.0913 56.9568 44.1141 57.0217 44.1586C57.0903 44.1946 57.1446 44.2528 57.1757 44.3237C57.2153 44.3939 57.2358 44.4733 57.2351 44.5538C57.2355 44.6094 57.2247 44.6645 57.2034 44.7159C57.182 44.7672 57.1505 44.8137 57.1108 44.8526C57.0276 44.933 56.9166 44.9782 56.8009 44.9788ZM58.9423 50.568C58.763 50.5767 58.584 50.5466 58.4174 50.4797C58.2509 50.4127 58.1007 50.3106 57.9774 50.1802C57.7329 49.8988 57.6066 49.5338 57.6248 49.1614C57.629 48.8425 57.6835 48.5263 57.7862 48.2243C57.8992 47.8973 58.0526 47.5856 58.2427 47.2965C58.4307 47.0143 58.6677 46.7679 58.9423 46.5691C59.1954 46.387 59.499 46.2885 59.8108 46.287C60.0682 46.2799 60.3211 46.3553 60.5326 46.5023C60.7305 46.6494 60.8856 46.8467 60.9817 47.0738C61.078 47.3196 61.1253 47.5818 61.1209 47.8458C61.1178 48.1553 61.0626 48.462 60.9576 48.7532C60.8438 49.075 60.6831 49.3783 60.4807 49.6532C60.2881 49.9205 60.0485 50.1507 59.7737 50.3323C59.5242 50.4884 59.2365 50.5725 58.9423 50.5754V50.568ZM58.9423 50.3602C59.2596 50.3602 59.5306 50.1653 59.7514 49.7868C59.9934 49.3719 60.1652 48.9198 60.2598 48.4489C60.3633 48.0426 60.4224 47.6264 60.4361 47.2074C60.44 47.027 60.386 46.8501 60.2821 46.7027C60.234 46.6351 60.1698 46.5806 60.0952 46.5443C60.0206 46.508 59.9382 46.491 59.8553 46.4948C59.5528 46.4948 59.2819 46.6804 59.0462 47.0664C58.7973 47.4833 58.6098 47.9339 58.4895 48.4043C58.3741 48.8037 58.3074 49.2155 58.291 49.6309C58.2839 49.822 58.3407 50.0101 58.4524 50.1653C58.5159 50.2326 58.5938 50.2848 58.6802 50.3179C58.7666 50.3509 58.8594 50.3641 58.9516 50.3565L58.9423 50.3602Z" fill="white"/>
  <path fill-rule="evenodd" clip-rule="evenodd" d="M62.7351 50.1442L62.6534 50.4356H61.939L62.1487 49.8288C62.633 48.3442 62.8705 47.3663 62.8705 46.8783C62.8705 46.6667 62.8112 46.5721 62.685 46.5721C62.6125 46.5807 62.543 46.6062 62.4821 46.6464C62.4212 46.6867 62.3705 46.7407 62.3343 46.8041C62.2084 46.9719 62.0978 47.1508 62.004 47.3385C61.9 47.5389 61.8184 47.7096 61.7442 47.8506L61.5586 47.7838C61.7126 47.435 61.8369 47.1826 61.9297 47.0119C62.0238 46.8224 62.1536 46.6529 62.312 46.5127C62.3896 46.4365 62.4815 46.3764 62.5825 46.3359C62.6835 46.2955 62.7915 46.2755 62.9002 46.277C62.9805 46.2737 63.0605 46.2886 63.1341 46.3208C63.2078 46.3529 63.2731 46.4014 63.3252 46.4626C63.4322 46.598 63.4875 46.7671 63.4811 46.9395C63.4691 47.181 63.4418 47.4215 63.3994 47.6595L63.3697 47.8321L63.392 47.8525C63.5913 47.4515 63.8407 47.0774 64.1342 46.7391C64.2484 46.5994 64.3918 46.4864 64.5543 46.4081C64.7169 46.3299 64.8947 46.2883 65.0751 46.2863C65.2097 46.2872 65.3419 46.3223 65.4592 46.3884C65.5696 46.4592 65.6603 46.5569 65.7227 46.6723C65.7857 46.7938 65.8181 46.9288 65.8173 47.0657C65.7898 47.5506 65.6787 48.0271 65.4889 48.4741L65.3219 48.9288C65.2681 49.068 65.2254 49.2108 65.1734 49.337C65.1215 49.4632 65.0918 49.5894 65.0547 49.7082C65.0239 49.8001 65.0046 49.8954 64.9971 49.9921C65.0017 50.0575 65.0214 50.1211 65.0547 50.1776C65.0687 50.2038 65.0889 50.2263 65.1134 50.2431C65.1379 50.2599 65.1662 50.2705 65.1957 50.2741C65.2692 50.2664 65.3403 50.2432 65.4042 50.2061C65.4682 50.169 65.5236 50.1189 65.5668 50.0589C65.6985 49.9014 65.8159 49.7325 65.9175 49.5541C66.0091 49.3963 66.0903 49.2326 66.1606 49.0642L66.361 49.1589C66.2052 49.5113 66.0071 49.8435 65.7709 50.1479C65.6861 50.2723 65.5732 50.3749 65.4414 50.4474C65.3095 50.52 65.1624 50.5604 65.012 50.5655C64.9259 50.5718 64.8395 50.5584 64.7594 50.5262C64.6794 50.4941 64.6077 50.444 64.5499 50.3799C64.4325 50.2407 64.3716 50.0626 64.3792 49.8807C64.3849 49.7424 64.4048 49.6049 64.4386 49.4706C64.4831 49.3092 64.5276 49.131 64.5944 48.9529C64.6613 48.7748 64.6965 48.6245 64.7336 48.528L64.9025 48.0603C65.012 47.7857 65.0881 47.5612 65.153 47.383C65.2144 47.2295 65.2465 47.0659 65.2476 46.9005C65.2497 46.8576 65.2423 46.8147 65.2259 46.775C65.2096 46.7352 65.1847 46.6995 65.153 46.6704C65.1233 46.6405 65.0876 46.6171 65.0483 46.6018C65.009 46.5864 64.9669 46.5795 64.9248 46.5814C64.7909 46.593 64.6612 46.6335 64.5446 46.7002C64.428 46.7668 64.3272 46.858 64.2493 46.9674C64.0184 47.2307 63.8157 47.5174 63.6444 47.8228C63.4601 48.1579 63.3001 48.5058 63.1656 48.8638C63.019 49.2498 62.8798 49.6822 62.7332 50.1628L62.7351 50.1442ZM71.2266 46.6185L70.4676 49.7731C70.3655 50.2036 70.282 50.5766 70.1893 50.8865C70.093 51.222 69.9727 51.55 69.8293 51.8681C69.682 52.1914 69.4713 52.4817 69.2095 52.7217C68.9689 52.9427 68.6528 53.063 68.3262 53.0576C68.1313 53.0613 67.9391 53.0126 67.7695 52.9166C67.691 52.877 67.6253 52.8162 67.5797 52.7411C67.5341 52.6659 67.5105 52.5795 67.5115 52.4916C67.5138 52.423 67.5401 52.3573 67.5858 52.3061C67.6092 52.2802 67.6379 52.2596 67.6699 52.2455C67.7018 52.2314 67.7364 52.2242 67.7713 52.2244C67.8065 52.2225 67.8416 52.2289 67.8739 52.2431C67.9061 52.2573 67.9345 52.2789 67.9569 52.3061C68.0036 52.3811 68.041 52.4614 68.0682 52.5455C68.094 52.6239 68.1309 52.6983 68.1777 52.7663C68.2066 52.7918 68.2406 52.8109 68.2773 52.8224C68.3141 52.8339 68.3529 52.8375 68.3911 52.8331C68.4872 52.8305 68.5807 52.8013 68.6612 52.749C68.7418 52.6966 68.8063 52.6229 68.8476 52.5362C68.9891 52.308 69.1073 52.0662 69.2002 51.8143L70.4992 46.6185H69.7198L69.7866 46.4014H70.5511C70.7126 45.8892 70.8517 45.4884 70.9705 45.1841C71.1012 44.8778 71.2903 44.5998 71.5272 44.3657C71.6484 44.2439 71.7933 44.1482 71.9528 44.0844C72.1123 44.0206 72.2832 43.99 72.455 43.9946C72.6509 43.9961 72.8429 44.0492 73.0117 44.1486C73.088 44.1913 73.1519 44.2531 73.1971 44.3279C73.2423 44.4027 73.2673 44.488 73.2696 44.5754C73.2724 44.6481 73.2486 44.7193 73.2028 44.7758C73.1819 44.8008 73.1558 44.8211 73.1263 44.8352C73.0969 44.8493 73.0648 44.8569 73.0321 44.8575C72.9907 44.8611 72.9491 44.8547 72.9106 44.8389C72.8722 44.8231 72.8382 44.7983 72.8113 44.7665C72.7562 44.6884 72.7171 44.6001 72.6962 44.5067C72.6825 44.4268 72.6515 44.3508 72.6053 44.2841C72.5819 44.2591 72.5528 44.24 72.5206 44.2284C72.4883 44.2168 72.4538 44.213 72.4198 44.2173C72.3307 44.2203 72.2436 44.244 72.1654 44.2865C72.0871 44.329 72.0198 44.3892 71.9688 44.4622C71.8307 44.6481 71.7218 44.8539 71.6459 45.0727C71.5649 45.2989 71.4961 45.5294 71.44 45.763C71.388 45.9857 71.3361 46.201 71.2841 46.4014H72.1099L72.0431 46.6185H71.2266ZM73.3457 50.5581C73.6399 50.5548 73.9275 50.4707 74.1771 50.315C74.4515 50.1328 74.691 49.9027 74.8841 49.6358C75.0892 49.3623 75.2507 49.0587 75.3628 48.7358C75.4655 48.4441 75.52 48.1376 75.5243 47.8284C75.5291 47.5642 75.4811 47.3018 75.3832 47.0564C75.2878 46.8289 75.1326 46.6315 74.9342 46.4849C74.7233 46.3382 74.471 46.2627 74.2142 46.2696C73.9026 46.2723 73.5994 46.3708 73.3457 46.5517C73.0717 46.7484 72.8375 46.9952 72.6554 47.2791C72.4595 47.5662 72.3028 47.8783 72.1897 48.2069C72.0896 48.5095 72.0352 48.8254 72.0282 49.144C72.0185 49.3293 72.0454 49.5147 72.1075 49.6895C72.1696 49.8643 72.2656 50.0252 72.3901 50.1628C72.511 50.2938 72.6594 50.3964 72.8246 50.4635C72.9898 50.5305 73.1677 50.5603 73.3457 50.5506V50.5581ZM73.3457 50.3502C73.663 50.3502 73.9358 50.1554 74.1548 49.7768C74.3964 49.3611 74.5699 48.9094 74.6688 48.4389C74.7682 48.032 74.8254 47.616 74.8395 47.1975C74.8434 47.0171 74.7895 46.8402 74.6855 46.6927C74.6375 46.6251 74.5732 46.5707 74.4986 46.5344C74.4241 46.498 74.3416 46.481 74.2587 46.4849C73.9562 46.4849 73.6835 46.6704 73.4496 47.0564C73.1991 47.4725 73.0116 47.9234 72.8929 48.3944C72.7857 48.7951 72.7235 49.2065 72.7074 49.6209C72.6967 49.8125 72.7539 50.0017 72.8688 50.1554C72.9284 50.2223 73.0026 50.2746 73.0856 50.3084C73.1686 50.3422 73.2582 50.3565 73.3476 50.3502H73.3457ZM75.9733 47.7634L75.7729 47.6873C75.9086 47.3501 76.0896 47.0329 76.3111 46.7447C76.5393 46.4255 76.7676 46.2696 76.981 46.2696C77.0788 46.2626 77.1765 46.2848 77.2618 46.3333C77.347 46.3819 77.4159 46.4546 77.4597 46.5424C77.564 46.7368 77.617 46.9546 77.6137 47.1752C77.6137 47.2197 77.5989 47.2791 77.5915 47.3478C77.5841 47.4164 77.5692 47.5018 77.5618 47.5909C77.5544 47.6799 77.5414 47.756 77.5339 47.808L77.5469 47.8228C77.6409 47.5868 77.7468 47.3558 77.8643 47.1306C77.9834 46.9069 78.1347 46.7019 78.3133 46.522C78.4622 46.3677 78.6651 46.2773 78.8793 46.2696C79.0118 46.2712 79.1409 46.3119 79.2504 46.3865C79.3027 46.4218 79.3451 46.4697 79.3736 46.5259C79.4022 46.5821 79.416 46.6446 79.4137 46.7076C79.4143 46.8044 79.377 46.8976 79.3098 46.9674C79.2382 47.0351 79.143 47.0723 79.0445 47.0713C78.9614 47.0704 78.881 47.0416 78.8162 46.9896C78.7868 46.9588 78.7639 46.9224 78.7489 46.8826C78.7339 46.8427 78.7271 46.8002 78.729 46.7577C78.729 46.6259 78.7067 46.5591 78.6622 46.5591C78.5731 46.5591 78.4766 46.6482 78.3393 46.8189C78.2351 46.9483 78.1437 47.0875 78.0665 47.2346C77.7239 47.9741 77.4337 48.7368 77.1981 49.517L76.8956 50.4319H76.196L76.6822 48.8323C76.8359 48.2643 76.9273 47.6813 76.955 47.0935C76.955 46.7372 76.903 46.5591 76.7991 46.5591C76.7045 46.5591 76.556 46.7076 76.3742 47.0137C76.2189 47.2495 76.0836 47.4978 75.9696 47.756L75.9733 47.7634ZM84.3238 46.4849C84.0287 46.4849 83.7263 46.6853 83.4257 47.0861C83.1076 47.5135 82.8521 47.984 82.6667 48.4834C82.4957 48.8642 82.3915 49.2716 82.3587 49.6877C82.3549 49.8498 82.396 50.0097 82.4774 50.1498C82.5099 50.2126 82.5596 50.2648 82.6208 50.3004C82.6819 50.3359 82.7519 50.3532 82.8226 50.3502C83.0398 50.3481 83.2478 50.2624 83.4034 50.1108C83.5829 49.9495 83.7368 49.7618 83.8599 49.5541C83.9915 49.3334 84.1092 49.1047 84.2125 48.8694C84.3164 48.6467 84.398 48.4315 84.4852 48.2236C84.5725 48.0158 84.6263 47.8061 84.6838 47.5779C84.7394 47.3861 84.7743 47.1889 84.7877 46.9896C84.7877 46.9044 84.7673 46.8204 84.7283 46.7447C84.6934 46.6703 84.6397 46.6063 84.5725 46.5591C84.5034 46.5129 84.4216 46.4896 84.3386 46.4923L84.3238 46.4849ZM84.9733 46.8041L85.1236 46.4107H85.7916L85.3722 47.5612C85.2405 47.9323 85.1069 48.3795 84.9677 48.8917C84.8466 49.2699 84.7749 49.6622 84.7543 50.0589C84.7543 50.2092 84.7896 50.2816 84.8731 50.2816C85.0048 50.2816 85.1514 50.1554 85.3054 49.8974C85.4595 49.6395 85.6153 49.324 85.7916 48.9696L85.9902 49.0642C85.916 49.222 85.8362 49.3853 85.7545 49.5634C85.6759 49.7335 85.5854 49.8978 85.4836 50.0552C85.3892 50.1995 85.269 50.3253 85.1292 50.4263C84.9958 50.5207 84.8361 50.5707 84.6727 50.5692C84.5219 50.5779 84.3737 50.5265 84.2607 50.4263C84.2078 50.3743 84.1666 50.3117 84.1397 50.2426C84.1128 50.1735 84.1009 50.0995 84.1048 50.0255C84.1084 49.9207 84.1208 49.8164 84.1419 49.7137C84.1642 49.5875 84.1865 49.5059 84.1865 49.4669L84.1735 49.4539C83.7615 50.1962 83.2883 50.5673 82.7595 50.5673C82.5635 50.5724 82.3702 50.5209 82.2028 50.4189C82.0414 50.3189 81.9099 50.1772 81.8224 50.0088C81.7252 49.8315 81.6766 49.6318 81.6813 49.4298C81.6919 49.0827 81.7642 48.7403 81.8947 48.4185C82.0415 48.0431 82.2401 47.6902 82.4848 47.37C82.7134 47.0594 82.994 46.7907 83.3143 46.5758C83.5886 46.3896 83.9107 46.2865 84.2421 46.2789C84.4056 46.2703 84.567 46.3177 84.6999 46.4131C84.8328 46.5086 84.9292 46.6465 84.9733 46.8041ZM88.9054 44.0094L87.7716 47.6744C87.6955 47.9119 87.6176 48.1717 87.5341 48.4612C87.4506 48.7506 87.3726 49.042 87.3077 49.3315C87.2514 49.5534 87.2166 49.7802 87.2038 50.0088C87.2038 50.1851 87.2632 50.2816 87.3801 50.2816C87.497 50.2816 87.5879 50.2092 87.7197 50.0589C87.8629 49.8933 87.9909 49.715 88.1019 49.5263C88.2281 49.3166 88.3079 49.1663 88.3524 49.0717L88.5658 49.1756C88.3925 49.5373 88.183 49.8805 87.9405 50.1999C87.8518 50.3168 87.7369 50.4112 87.6051 50.4757C87.4733 50.5401 87.3282 50.5728 87.1815 50.571C87.0878 50.5776 86.9939 50.5613 86.9079 50.5235C86.8219 50.4856 86.7464 50.4274 86.6879 50.3539C86.5718 50.1955 86.5124 50.0027 86.519 49.8065C86.519 49.5393 86.6452 49.0234 86.8809 48.2663L87.8514 45.0171C87.8907 44.8914 87.9204 44.763 87.9405 44.6329C87.9405 44.5197 87.9108 44.4474 87.8384 44.4084C87.753 44.3667 87.6604 44.3415 87.5656 44.3342C87.4543 44.3342 87.3522 44.3193 87.2632 44.3193L87.3133 44.1041L88.9054 44.0076V44.0094ZM91.3623 44.0094L90.2359 47.6744C90.1636 47.9119 90.0819 48.1717 90.0003 48.4612C89.9186 48.7506 89.8388 49.042 89.772 49.3315C89.7108 49.5525 89.6741 49.7797 89.6625 50.0088C89.6625 50.1851 89.7293 50.2816 89.8481 50.2816C89.9669 50.2816 90.0541 50.2092 90.1877 50.0589C90.328 49.891 90.4557 49.713 90.5699 49.5263C90.6624 49.3815 90.7431 49.2294 90.8112 49.0717L91.032 49.1756C90.8563 49.5372 90.6449 49.8803 90.4011 50.1999C90.3135 50.3167 90.1997 50.4111 90.0688 50.4756C89.9379 50.5401 89.7936 50.5728 89.6477 50.571C89.5541 50.5793 89.4599 50.5637 89.3739 50.5258C89.2879 50.4878 89.2129 50.4287 89.1559 50.3539C89.0399 50.1955 88.9804 50.0027 88.9871 49.8065C88.9871 49.5393 89.1058 49.0234 89.3471 48.2663L90.312 45.0171C90.3558 44.8922 90.3881 44.7636 90.4085 44.6329C90.4141 44.5887 90.4065 44.5438 90.3867 44.5039C90.3669 44.4639 90.3358 44.4307 90.2972 44.4084C90.2123 44.3653 90.1194 44.34 90.0244 44.3342C89.9149 44.3342 89.8184 44.3193 89.7312 44.3193L89.7813 44.1041L91.3623 44.0094Z" fill="white"/>
</svg>