<svg width="476" height="374" viewBox="0 0 476 374" fill="none" xmlns="http://www.w3.org/2000/svg">
<path d="M80.6172 124.922C113.676 134.662 138.878 151.781 160.107 178.812C177.33 200.742 201.437 229.101 232.792 224.89C262.218 220.938 290.242 197.331 310.619 177.38C329.927 158.476 348.661 135.001 351.899 107.282C355.071 80.1361 342.951 69.192 316.748 77.2884C291.32 85.145 282.914 113.633 283.569 137.78C284.208 161.343 302.909 184.478 321.826 196.783C331.654 203.177 342.648 208.081 354.218 210.26C374.52 214.082 395.145 207.686 415.436 212.056C458.62 221.357 466.986 259.454 474.741 297.802" stroke="white" stroke-width="2.25" stroke-linecap="round" stroke-dasharray="8.25 8.25"/>
<g filter="url(#filter0_d_763_445)">
<path d="M90.5474 147.051C95.2467 152.499 104.626 159.441 112.063 153.857C112.999 153.204 113.613 152.379 114.226 151.555C118.537 146.367 122.754 141.046 126.324 135.383C127.936 132.871 129.492 130 129.316 126.95C129.065 119.59 108.626 110.645 102.716 107.43C93.9933 102.806 85.3976 99.4816 76.172 96.398C67.498 93.5247 59.6952 87.6639 51.7913 83.0636C43.4305 78.3853 34.2669 74.2669 24.7052 73.7974C47.8753 97.4947 69.1167 122.141 90.5474 147.051Z" fill="#17436D"/>
<path d="M104.981 144.518C99.691 139.086 94.7078 133.241 89.1894 127.77C78.5703 117.132 34.1524 78.3114 34.7985 78.6539C40.4637 81.2463 69.3708 100.347 74.9577 103.391C84.8392 108.793 94.8154 114.328 104.697 119.73C109.866 122.47 114.807 125.171 119.842 128.005C121.647 129.126 125.707 132.838 127.707 132.831C129.802 132.956 130.037 131.602 131.832 130.747C142.121 126.346 152.202 117.728 160.732 110.589C162.243 109.336 163.66 107.952 164.658 106.264C165.657 104.576 165.82 102.281 164.818 100.6C164.061 99.5417 162.997 98.8956 161.933 98.2496C157.733 96.0232 153.054 94.5281 148.469 93.1653C105.415 80.3624 62.8243 66.2447 18.351 59.5877C15.6098 59.1202 11.041 58.3408 8.97207 60.7754C7.03689 63.1167 8.6784 66.5327 10.0588 68.7427C28.0989 97.6046 47.304 125.852 64.9426 154.994C69.5179 162.511 74.3445 169.258 79.7226 176.215C84.399 182.472 87.9495 189.117 94.0978 194.347C99.0777 188.692 102.158 181.784 105.144 174.744C107.36 169.431 112.519 162.064 112.908 156.439C113.257 151.04 108.962 148.681 104.981 144.518Z" fill="#89C6E5"/>
<path d="M113.647 150.178C107.433 142.614 100.685 135.423 93.4955 128.738C91.9976 127.205 89.6056 129.468 91.0089 130.869C98.1981 137.554 104.813 144.838 111.16 152.309C112.524 153.935 115.011 151.804 113.647 150.178Z" fill="#171714"/>
<path d="M92.4238 157.242C90.4756 154.239 88.5273 151.235 86.5791 148.231C86.1059 147.57 85.1366 147.056 84.4676 147.523C83.704 147.857 83.2798 148.946 83.753 149.608C85.7013 152.611 87.6495 155.615 89.5977 158.619C90.0709 159.28 91.0401 159.794 91.7091 159.327C92.4728 158.993 92.9916 158.036 92.4238 157.242Z" fill="#171714"/>
<path d="M130.624 116.386C128.016 114.072 125.153 112.174 121.783 111.107C120.997 110.826 120.494 109.769 120.917 109.077C121.284 108.162 122.184 107.943 122.971 108.223C126.481 109.374 129.849 111.385 132.513 113.921C133.13 114.479 133.353 115.368 132.845 116.199C132.422 116.892 131.156 117.082 130.624 116.386Z" fill="#171714"/>
<path d="M136.459 102.661C136.481 101.852 135.819 100.926 135 100.902L124.981 100.355C124.162 100.331 123.226 100.985 123.203 101.794C123.18 102.603 123.842 103.529 124.661 103.553C128.033 103.779 131.309 103.873 134.68 104.1C135.499 104.124 136.436 103.47 136.459 102.661Z" fill="#171714"/>
</g>
<defs>
<filter id="filter0_d_763_445" x="8.08594" y="59.0877" width="161.156" height="139.009" filterUnits="userSpaceOnUse" color-interpolation-filters="sRGB">
<feFlood flood-opacity="0" result="BackgroundImageFix"/>
<feColorMatrix in="SourceAlpha" type="matrix" values="0 0 0 0 0 0 0 0 0 0 0 0 0 0 0 0 0 0 127 0" result="hardAlpha"/>
<feOffset dx="3" dy="3"/>
<feGaussianBlur stdDeviation="0.375"/>
<feComposite in2="hardAlpha" operator="out"/>
<feColorMatrix type="matrix" values="0 0 0 0 0 0 0 0 0 0 0 0 0 0 0 0 0 0 0.25 0"/>
<feBlend mode="normal" in2="BackgroundImageFix" result="effect1_dropShadow_763_445"/>
<feBlend mode="normal" in="SourceGraphic" in2="effect1_dropShadow_763_445" result="shape"/>
</filter>
</defs>
</svg>
