<svg width="838" height="290" viewBox="0 0 838 290" fill="none" xmlns="http://www.w3.org/2000/svg">
<path opacity="0.7" d="M-12.9581 216.159C3.11636 204.851 18.3822 188.057 38.7471 184.564C56.5822 181.504 75.272 191.731 87.1424 204.544C103.368 222.057 125.967 236.646 146.873 247.781C150.157 249.53 164.399 254.932 168.188 248.32C172.976 239.966 167.306 230.072 157.266 228.45C150.822 227.409 143.567 227.516 142.081 235.56C140.727 242.891 137.448 252.808 144.293 258.706C151.856 265.223 163.308 266.016 172.728 265.084C202.692 262.12 205.779 232.028 211.936 207.933C218.172 183.53 240.9 178.275 263.251 181.05C272.487 182.196 282.715 182.639 291.48 179.036C297.906 176.394 317.326 159.657 300.325 158.223C284.133 155.913 263.823 151.398 261.649 129.415C260.219 114.966 284.718 106.736 296.025 111.606C313.634 119.191 316.393 139.009 330.487 150.566C337.423 156.254 351.645 156.262 359.865 155.449C384.556 153.007 405.51 144.801 427.463 133.342C444.868 124.257 474.528 104.039 493.577 120.649C510.114 135.069 524.207 143.399 547.085 141.136C561.381 139.722 572.527 138.102 580.095 124.475C587.747 110.697 588.922 93.6131 594.582 78.804C594.452 60.9355 617.482 20.8853 710.636 3.63207C803.79 -13.6211 814.951 -59.2747 808.887 -79.9448" stroke="#17436D" stroke-width="3" stroke-linecap="round" stroke-dasharray="10 10"/>
<g filter="url(#filter0_d_763_443)">
<path d="M356.814 146.797C352.968 147.864 347.285 150.901 348.402 155.874C348.517 156.488 348.794 156.982 349.07 157.477C350.707 160.81 352.432 164.127 354.48 167.203C355.383 168.582 356.479 170.016 358.066 170.634C361.856 172.211 371.104 164.162 374.097 161.98C378.452 158.731 382.12 155.244 385.811 151.39C389.267 147.761 394.038 145.253 398.193 142.404C402.493 139.347 406.694 135.763 409.137 131.139C391.779 137.13 374.385 141.947 356.814 146.797Z" fill="#63725C"/>
<path d="M354.768 154.527C358.742 153.164 362.854 152.048 366.9 150.582C374.743 147.784 404.667 134.772 404.345 135.012C401.724 137.217 385.374 147.111 382.543 149.173C377.525 152.815 372.419 156.474 367.401 160.116C364.82 162.042 362.311 163.863 359.714 165.701C358.729 166.335 355.911 167.486 355.453 168.478C354.907 169.486 355.539 169.915 355.559 171.002C355.417 177.112 357.462 184.094 359.116 189.967C359.402 191.005 359.777 192.026 360.403 192.91C361.029 193.795 362.155 194.406 363.238 194.299C363.949 194.169 364.522 193.791 365.095 193.414C367.192 191.85 369.029 189.879 370.777 187.924C387.196 169.572 404.174 151.754 417.804 131.278C418.673 130.03 420.122 127.948 419.364 126.361C418.623 124.862 416.513 124.885 415.074 125.057C396.281 127.315 377.531 130.292 358.688 132.286C353.822 132.813 349.288 133.643 344.521 134.697C340.27 135.565 336.082 135.786 332.013 137.621C333.732 141.393 336.524 144.515 339.405 147.62C341.588 149.945 344.133 154.202 346.896 155.695C349.553 157.116 351.739 155.535 354.768 154.527Z" fill="#98B08B"/>
<path d="M349.903 157.505C355.171 156.178 360.373 154.5 365.42 152.487C366.543 152.1 365.946 150.393 364.913 150.763C359.865 152.777 354.647 154.367 349.396 155.782C348.256 156.081 348.764 157.805 349.903 157.505Z" fill="#171714"/>
<path d="M351.211 145.369C353.183 145.099 355.155 144.829 357.128 144.559C357.572 144.478 358.056 144.117 357.974 143.678C357.98 143.223 357.526 142.761 357.081 142.842C355.109 143.112 353.137 143.382 351.165 143.652C350.72 143.734 350.236 144.095 350.319 144.534C350.312 144.989 350.678 145.467 351.211 145.369Z" fill="#171714"/>
<path d="M363.121 173.722C364.896 172.965 366.518 171.987 367.836 170.566C368.16 170.241 368.812 170.236 369.066 170.606C369.445 171 369.348 171.496 369.025 171.82C367.632 173.292 365.835 174.494 363.935 175.226C363.51 175.403 363.008 175.307 362.704 174.864C362.45 174.494 362.646 173.824 363.121 173.722Z" fill="#171714"/>
<path d="M368.732 179.784C369.137 179.982 369.759 179.868 369.96 179.468L372.548 174.636C372.749 174.236 372.633 173.621 372.228 173.423C371.823 173.224 371.201 173.338 371 173.738C370.108 175.355 369.305 176.955 368.413 178.571C368.212 178.971 368.327 179.586 368.732 179.784Z" fill="#171714"/>
</g>
<g filter="url(#filter1_d_763_443)">
<path d="M199.866 242.233L206.598 264.621L212.473 264.047L215.66 239.819" stroke="#171714" stroke-width="4.50731" stroke-miterlimit="10"/>
<path d="M217.719 258.782L222.045 237.135L192.125 241.009L192.44 244.146L203.419 266.515" stroke="#171714" stroke-width="4.50731" stroke-miterlimit="10"/>
<path d="M217.667 267.894L202.58 269.368C202.025 269.422 201.596 269.148 201.39 268.692L198.604 260.887C198.382 260.275 198.875 259.593 199.59 259.523L218.726 257.654C219.441 257.584 220.059 258.157 219.963 258.8L218.779 266.994C218.588 267.487 218.143 267.848 217.667 267.894Z" fill="#17436D"/>
<path d="M200.872 177.036C165.935 180.449 165.369 204.421 171.482 219.822C175.44 229.73 183.805 240.396 192.547 246.828L221.688 243.981C228.834 236.076 236.112 223.882 238.259 213.297C241.436 196.99 236.682 173.538 200.872 177.036Z" fill="#98B08B"/>
<path d="M200.951 177.028C180.942 178.983 181.647 202.831 185.853 218.417C188.542 228.45 194.683 239.333 200.011 246.098L215.732 244.563C219.544 236.983 223.248 225.138 223.966 214.694C225.159 198.58 221.437 175.027 200.951 177.028Z" fill="#FBB45C"/>
<path d="M201.031 177.02C193.25 177.781 194.987 201.528 197.526 217.277C199.182 227.41 202.306 238.588 204.855 245.625L210.969 245.028C212.001 237.72 212.768 226.162 212.454 215.818C211.899 199.875 208.972 176.245 201.031 177.02Z" fill="#F67E7D"/>
<path d="M226.899 231.197C226.558 230.992 226.002 231.047 225.796 231.384C224.825 232.904 223.863 234.503 222.972 236.015C222.765 236.352 222.82 236.901 223.161 237.105C223.503 237.31 224.058 237.255 224.265 236.918C225.236 235.398 226.198 233.799 227.089 232.287C227.375 231.942 227.328 231.471 226.899 231.197Z" fill="#1B2226"/>
<path d="M232.961 200.431C233.794 207.953 233.032 215.55 230.626 222.755C230.324 223.734 231.816 224.222 232.118 223.242C234.659 215.787 235.47 207.868 234.533 200.119C234.352 199.107 232.78 199.419 232.961 200.431Z" fill="#1B2226"/>
<path d="M220.025 200.982C219.986 200.59 219.47 200.245 219.081 200.362C218.692 200.479 218.406 200.824 218.453 201.294L219.013 204.487C219.052 204.879 219.568 205.224 219.957 205.107C220.346 204.99 220.632 204.645 220.585 204.175C220.475 203.077 220.214 202.073 220.025 200.982Z" fill="#1B2226"/>
<path d="M201.765 203.558C201.726 203.166 201.21 202.82 200.821 202.938C200.432 203.055 200.146 203.4 200.193 203.87C200.382 204.96 200.572 206.051 200.753 207.062C200.792 207.455 201.308 207.8 201.697 207.683C202.086 207.566 202.373 207.221 202.325 206.75C202.144 205.739 201.955 204.648 201.765 203.558Z" fill="#1B2226"/>
<path d="M189.214 202.329C188.694 205.944 188.904 209.645 189.814 213.12C190.075 214.124 191.647 213.812 191.386 212.808C190.485 209.412 190.29 205.867 190.826 202.409C190.962 201.367 189.35 201.287 189.214 202.329Z" fill="#1B2226"/>
<path d="M185.476 229.858L181.228 223.463C181.03 223.086 180.609 222.889 180.148 223.093C179.767 223.289 179.576 223.782 179.774 224.159L184.022 230.555C184.221 230.931 184.641 231.128 185.102 230.924C185.483 230.729 185.754 230.227 185.476 229.858Z" fill="#1B2226"/>
<path d="M216.061 262.27C216.156 263.211 215.099 263.869 214.25 263.398C213.655 263.06 213.259 262.307 212.664 261.969C211.029 260.861 209.559 262.193 208.55 263.321C208.041 263.846 207.318 264.629 206.612 263.985C206.168 263.554 205.867 262.95 205.264 262.533C203.55 261.434 202.032 263.087 201.292 264.505C200.822 265.422 202.195 266.318 202.585 265.408C202.848 264.828 203.58 263.331 204.444 263.96C205.047 264.376 205.277 265.066 205.88 265.482C206.57 265.969 207.531 265.955 208.293 265.563C209.127 265.086 209.692 264.318 210.351 263.699C210.646 263.433 211.083 262.994 211.583 263.183C211.916 263.309 212.193 263.678 212.455 263.89C213.074 264.463 213.613 265.044 214.51 265.194C216.463 265.478 217.822 263.841 217.642 262.037C217.532 260.939 216.039 261.243 216.061 262.27Z" fill="#FBB45C"/>
<path d="M206.904 259.68C205.872 259.781 206.188 261.334 207.22 261.233C208.253 261.132 207.937 259.579 206.904 259.68Z" fill="#FBB45C"/>
<path d="M214.113 259.609C213.081 259.71 213.397 261.263 214.429 261.162C215.462 261.062 215.146 259.509 214.113 259.609Z" fill="#FBB45C"/>
<path d="M203.776 266.084C202.743 266.185 203.059 267.738 204.091 267.637C205.124 267.536 204.808 265.983 203.776 266.084Z" fill="#FBB45C"/>
<path d="M210.924 265.385C209.892 265.486 210.208 267.039 211.24 266.938C212.272 266.837 211.956 265.284 210.924 265.385Z" fill="#FBB45C"/>
<path d="M200.684 260.842C199.651 260.943 199.967 262.496 201 262.395C202.032 262.294 201.637 260.749 200.684 260.842Z" fill="#FBB45C"/>
</g>
<g filter="url(#filter2_d_763_443)">
<path d="M27.5245 161.099C30.4741 159.184 34.3948 158.73 37.3522 160.593C36.4105 156.461 39.1596 151.823 43.31 150.681C47.4603 149.539 52.2707 151.963 53.6497 155.979C52.819 150.724 55.5459 145.126 60.0518 142.319C64.5503 139.439 70.6722 139.291 75.4159 141.796C80.4709 144.419 83.5992 149.451 84.4521 154.925C88.1134 154.867 91.4636 155.432 94.5248 157.581C99.9283 161.43 103.516 168.788 99.9966 175.427C96.914 181.208 90.0659 183.056 84.3736 181.532C82.6473 186.663 77.9192 190.232 72.8276 191.688C68.1066 193.108 61.3398 193.54 56.9075 191.154C53.5869 189.4 51.0888 186.16 50.2064 182.614C45.6856 184.534 40.8238 186.041 35.8728 185.928C30.4698 185.783 23.8361 183.091 22.1456 177.475C20.6701 172.506 22.3221 165.9 26.072 162.277C26.5463 161.787 27.0354 161.443 27.5245 161.099Z" fill="#FBB45C"/>
<path d="M85.5882 165.245C84.8394 163.761 83.6606 162.467 82.1039 161.877C80.5472 161.286 78.694 161.465 77.3747 162.483C76.1295 163.492 75.5812 165.472 76.4042 166.949" stroke="#1B0512" stroke-width="1.3586" stroke-miterlimit="10" stroke-linecap="round"/>
<path d="M64.8306 170.372C62.7916 172.427 59.2322 172.772 56.8887 171.068" stroke="#1B0512" stroke-width="1.3586" stroke-miterlimit="10" stroke-linecap="round"/>
<path d="M43.9983 172.49C44.2502 171.28 43.6719 170.002 42.8417 169.193C41.9374 168.392 40.7663 167.912 39.5507 167.734C38.4908 167.614 37.2235 167.662 36.475 168.402C35.2448 169.558 35.6008 171.598 36.0605 173.184" stroke="#1B0512" stroke-width="1.3586" stroke-miterlimit="10" stroke-linecap="round"/>
<path d="M80.5757 180.227C79.7199 182.899 77.7002 185.168 75.0439 186.315C74.6878 186.498 74.5093 186.959 74.6943 187.311C74.8793 187.663 75.339 187.766 75.7025 187.656C78.6481 186.407 81.0093 183.809 81.9768 180.756C82.2522 179.767 80.8585 179.311 80.5757 180.227Z" fill="#17436D"/>
<path d="M68.4794 187.327C67.7523 187.546 67.018 187.691 66.3651 187.903C66.1426 187.925 66.0089 188.086 65.8753 188.247C65.7416 188.408 65.6894 188.635 65.7783 188.774C65.8891 189.133 66.2967 189.463 66.6602 189.354C67.3872 189.135 68.1216 188.989 68.7744 188.777C68.997 188.756 69.1306 188.595 69.2643 188.434C69.398 188.273 69.4501 188.046 69.3613 187.906C69.2504 187.547 68.917 187.21 68.4794 187.327Z" fill="#17436D"/>
<path d="M58.7539 147.072C58.3683 146.962 57.938 147.152 57.8263 147.533C57.0529 149.532 56.6054 151.795 56.744 153.926C56.7807 154.293 57.0472 154.71 57.4181 154.674C57.7963 154.711 58.2119 154.375 58.1752 154.008C58.1182 151.943 58.4393 149.914 59.2201 147.988C59.4133 147.673 59.1467 147.256 58.7539 147.072Z" fill="#17436D"/>
<path d="M63.1605 146.937C63.0716 146.798 62.9013 146.593 62.7456 146.534C62.5899 146.475 62.3674 146.497 62.1522 146.592C62.0112 146.68 61.8034 146.848 61.7439 147.002C61.5801 147.61 61.4162 148.217 61.2524 148.825C61.2002 149.052 61.2149 149.199 61.3111 149.411C61.3999 149.551 61.5703 149.756 61.726 149.815C61.8816 149.873 62.1042 149.852 62.3194 149.757C62.4604 149.669 62.6682 149.501 62.7277 149.347C62.8915 148.739 63.0553 148.131 63.2192 147.523C63.2713 147.296 63.2566 147.15 63.1605 146.937Z" fill="#17436D"/>
<path d="M47.8072 154.429C46.6221 153.066 44.6871 152.441 42.9437 152.981C42.5802 153.091 42.2387 153.42 42.3569 153.852C42.4677 154.211 42.8752 154.541 43.2387 154.432C43.3871 154.417 43.6023 154.322 43.7506 154.308C43.8248 154.301 43.8248 154.301 43.899 154.293C43.9731 154.286 44.0473 154.279 44.1956 154.264C44.344 154.25 44.5738 154.302 44.7222 154.287L44.7964 154.28L44.8705 154.273C44.9447 154.265 45.0262 154.331 45.1745 154.317C45.3302 154.376 45.4859 154.434 45.6416 154.493C45.6416 154.493 45.6415 154.493 45.7157 154.486C45.7157 154.486 45.7899 154.479 45.7972 154.552C45.8787 154.618 45.9529 154.611 46.0344 154.677C46.1159 154.743 46.1974 154.809 46.2789 154.875L46.3605 154.941C46.3605 154.941 46.3604 154.941 46.4419 155.007C46.4419 155.007 46.4419 155.007 46.5234 155.073L46.605 155.139C46.6865 155.205 46.768 155.271 46.7753 155.344C47.0272 155.615 47.561 155.711 47.8284 155.389C48.0289 155.148 48.059 154.701 47.8072 154.429Z" fill="#17436D"/>
<path d="M29.4121 163.698C25.9767 165.291 23.9627 169.113 24.4111 172.842C24.4477 173.208 24.9221 173.458 25.2929 173.421C25.7306 173.305 25.9165 172.917 25.8798 172.55C25.4975 169.481 27.3623 166.413 30.1449 165.032C30.9983 164.579 30.2655 163.245 29.4121 163.698Z" fill="#17436D"/>
<path d="M96.7771 169.249C96.3248 169.219 96.0575 169.541 96.02 169.915C95.826 170.969 95.7062 172.017 95.5049 172.998C95.4674 173.372 95.8081 173.782 96.179 173.746C96.6313 173.776 96.8986 173.454 96.9361 173.08C97.1301 172.026 97.2499 170.978 97.4512 169.997C97.4887 169.623 97.1553 169.286 96.7771 169.249Z" fill="#17436D"/>
<path d="M85.6141 169.97C85.1031 169.354 84.1095 169.155 83.3605 169.154C82.1664 169.197 80.9202 169.467 79.8296 169.795C79.5403 169.897 79.3325 170.066 79.2876 170.366C79.0798 170.534 78.8793 170.776 78.8345 171.076C78.775 171.23 78.7228 171.457 78.7375 171.603C78.5443 171.918 78.5957 172.431 78.9144 172.622L78.9959 172.688C79.0032 172.761 79.0847 172.827 79.0847 172.827C79.2477 172.959 79.4108 173.091 79.6333 173.069C79.7075 173.062 79.7816 173.055 79.8558 173.048C81.4794 173.555 83.2301 173.088 84.7363 172.423C85.1667 172.233 85.6712 172.036 85.9312 171.64C86.1692 171.025 86.029 170.373 85.6141 169.97Z" fill="#FBB45C"/>
<path d="M46.5594 177.114C45.9081 175.846 44.529 175.537 43.1793 175.521C42.2077 175.542 41.2362 175.563 40.3681 175.869C39.7894 176.074 39.2849 176.271 38.7209 176.622C38.2979 176.885 38.5123 177.53 38.7641 177.802C40.8165 179.598 43.8281 179.008 46.1282 178.044C46.5659 177.927 46.7444 177.466 46.5594 177.114Z" fill="#FBB45C"/>
</g>
<g filter="url(#filter3_d_763_443)">
<path d="M593.291 114.686C589.671 110.579 585.784 106.776 581.681 103.236C578.634 100.643 575.07 98.9905 571.022 98.4229C565.986 97.7156 561.248 98.9201 556.768 100.431C553.173 101.649 549.664 102.968 546.566 104.986C543.675 106.834 541.204 109.287 538.742 111.647C534.652 115.596 530.554 119.64 528.009 124.912C525.396 130.412 524.913 136.584 525.642 142.539C526.499 149.166 528.12 156.288 530.938 162.345C532.556 165.935 534.364 169.542 537.101 172.389C539.786 175.278 543.591 177.424 547.553 177.372C547.983 177.365 548.507 177.367 548.912 177.122C549.867 176.599 550.421 174.249 550.706 173.24C551.147 171.586 550.779 170.421 549.165 169.328C531.102 156.521 535.072 131.46 549.655 118.321C556.473 112.225 566.177 107.388 575.375 111.5C579.816 113.47 583.506 116.83 586.913 120.163C588.663 121.835 590.741 123.583 592.224 125.559C594.205 128.335 596.295 132.487 599.163 134.451C600.502 135.424 602.487 135.61 603.727 134.596C604.76 133.751 605.046 132.224 604.782 130.974C604.474 129.674 603.771 128.525 603.017 127.418C600.188 123.008 596.869 118.741 593.291 114.686Z" fill="#F67E7D"/>
<path d="M598.826 129.897C588.63 120.652 579.743 105.079 565.837 104.388C560.234 104.145 555.185 106.121 550.917 108.924C546.692 111.778 543.101 115.492 539.382 119.052C533.149 125.015 528.956 134.653 530.666 144.892C531.654 150.636 534.171 156.335 537.05 161.738C538.515 164.419 540.075 167.108 542.367 169.112C545.19 171.543 549.891 172.266 552.558 170.774C554.82 169.526 556.245 166.033 553.782 163.306C548.197 157.272 542.277 150.737 543.951 142.039C545.32 135.056 549.785 127.609 554.024 122.072C567.987 103.836 581.632 127.155 592.008 136.51C596.573 140.706 603.486 134.101 598.826 129.897Z" fill="#FBB45C"/>
<path d="M550.42 116.74C548.707 118.228 547.123 119.869 545.435 121.595C541.785 125.444 538.384 128.658 536.837 133.976C532.982 146.613 541.383 159.739 548.889 168.683C553.264 173.897 561.433 166.091 557.11 160.835C553.894 157.002 548.755 151.293 548.394 145.984C548.025 140.251 553.591 132.249 556.582 127.301C558.22 124.582 560.8 123.505 564.299 123.315C566.886 123.181 568.752 122.602 570.727 123.917C576.47 127.752 581.386 133.299 585.451 138.766C586.72 140.486 588.893 141.208 590.974 140.885C592.04 140.702 592.815 140.068 593.795 139.783C594.964 139.516 595.78 139.969 596.418 138.757C596.815 138.088 596.646 136.33 596.484 135.514C595.767 132.48 592.927 129.718 590.893 127.502C587.35 123.591 583.885 119.357 579.877 115.826C574.195 110.82 566.79 108.949 559.411 111.366C555.868 112.541 553.02 114.44 550.42 116.74Z" fill="#98B08B"/>
<path d="M554.705 121.849C554.198 122.178 553.681 122.601 553.173 122.93C550.721 124.678 548.217 126.469 546.373 128.839C541.886 134.494 542.285 142.443 543.511 149.199C544.815 156.15 547.76 162.878 552.255 168.338C553.627 169.974 555.83 168.344 557.318 167.73C558.411 167.267 559.374 167.169 560.226 166.212C562.026 164.309 562.194 161.499 560.521 159.505C557.604 156.03 552.903 150.738 552.438 146.032C551.914 140.944 556.473 134.024 558.869 129.821C560.231 127.5 562.364 126.617 565.373 126.569C567.616 126.544 569.233 126.083 570.975 127.329C576.118 130.967 580.562 135.951 584.292 140.916C585.862 142.994 591.824 144.495 592.278 140.675C592.426 139.606 591.903 138.568 591.423 137.581C588.134 130.962 584.01 124.595 578.242 120.004C576.285 118.502 574.078 117.118 571.655 116.514C568.348 115.686 564.805 116.343 561.674 117.698C559.292 118.699 556.951 120.27 554.705 121.849Z" fill="#89C6E5"/>
<path d="M556.767 128.349C554.874 129.726 553.153 131.307 551.92 133.264C548.964 137.838 549.446 142.875 550.348 147.999C551.413 153.938 553.492 159.219 557.128 164.175C557.42 164.626 557.806 165.086 558.304 165.368C559.291 166.026 560.641 165.87 561.647 165.305C562.404 164.858 563.885 163.819 564.247 163.005C564.833 161.836 564.173 161.256 563.539 159.878C561.166 155.181 559.06 150.181 558.166 144.964C557.485 141.038 557.502 136.283 560.773 133.434C562.486 131.946 564.893 131.183 567.205 131.447C569.749 131.779 571.989 133.308 573.826 135.081C575.928 137.068 577.609 139.486 579.091 141.979C580.043 143.528 580.934 145.213 581.687 146.838C583.99 147.195 590.071 144.892 589.388 142.002C589.081 140.702 588.12 139.764 587.21 138.784C584.405 135.648 582.469 131.888 579.819 128.625C577.117 125.405 573.374 122.606 569.119 122.725C566.3 122.791 563.693 124.148 561.276 125.522C559.667 126.408 558.153 127.302 556.767 128.349Z" fill="#4592BA"/>
<path d="M570.598 128.416C570.28 128.245 569.842 128.345 569.67 128.659C569.497 128.972 569.6 129.405 569.917 129.576C571.325 130.32 572.629 131.148 573.821 132.154C574.087 132.368 574.465 132.403 574.775 132.15C574.99 131.887 575.034 131.421 574.768 131.207C573.49 130.099 572.1 129.169 570.598 128.416Z" fill="#1B2226"/>
<path d="M575.694 128.465C575.393 128.625 575.255 129.082 575.469 129.338L577.543 132.12C577.757 132.376 578.169 132.556 578.427 132.344C578.728 132.184 578.866 131.727 578.652 131.471L576.578 128.689C576.415 128.391 576.003 128.211 575.694 128.465Z" fill="#17436D"/>
<path d="M539.584 141.227C539.395 141.209 539.197 141.285 539.137 141.42C539.033 141.505 538.921 141.683 538.947 141.921C539.014 142.727 539.124 143.585 539.192 144.392C539.174 144.579 539.251 144.774 539.389 144.834C539.475 144.936 539.706 145.005 539.895 145.023C540.084 145.04 540.282 144.965 540.343 144.829C540.446 144.745 540.558 144.567 540.532 144.329C540.465 143.522 540.355 142.665 540.287 141.858C540.305 141.671 540.228 141.476 540.091 141.416C539.91 141.305 539.73 141.194 539.584 141.227Z" fill="#1B2226"/>
<path d="M545.924 143.791C545.735 143.773 545.537 143.849 545.477 143.984C545.373 144.069 545.261 144.247 545.287 144.484C545.354 145.291 545.464 146.149 545.532 146.956C545.514 147.142 545.591 147.338 545.729 147.398C545.814 147.5 546.046 147.569 546.235 147.587C546.424 147.604 546.622 147.529 546.682 147.393C546.786 147.309 546.898 147.131 546.872 146.893C546.805 146.086 546.695 145.228 546.627 144.422C546.645 144.235 546.568 144.039 546.43 143.98C546.302 143.826 546.07 143.757 545.924 143.791Z" fill="#1B2226"/>
<path d="M584.166 107.5C581.086 105.282 577.67 103.596 574.055 102.505C573.222 102.238 572.911 103.527 573.744 103.793C577.264 104.876 580.491 106.544 583.486 108.66C583.752 108.873 584.199 108.68 584.414 108.418C584.544 108.053 584.432 107.713 584.166 107.5Z" fill="#1B2226"/>
<path d="M531.333 156.331C531.913 158.268 532.649 160.079 533.531 161.856C533.694 162.154 534.157 162.291 534.415 162.08C534.768 161.878 534.803 161.504 534.64 161.207C533.844 159.532 533.151 157.772 532.604 155.98C532.348 155.155 531.076 155.507 531.333 156.331Z" fill="#1B2226"/>
</g>
<g filter="url(#filter4_d_763_443)">
<path d="M664.149 50.8797C664.474 50.8697 664.926 50.7915 665.211 50.5581C666.548 49.6824 665.553 48.0119 664.815 47.2644L659.872 41.9924C659.665 41.6136 659.428 41.332 659.221 40.9533C658.807 40.1957 659.131 39.1265 659.967 38.844C664.396 41.2111 668.914 43.2866 673.519 45.0705C674.769 45.5456 676.284 45.1459 676.892 43.8433C677.472 42.6379 676.998 41.0156 675.65 40.5115C675.355 40.4243 675.187 40.2689 674.892 40.1817C673.701 39.5123 672.353 39.0082 671.162 38.3388C669.016 37.2815 666.871 36.2242 664.784 34.9725C664.42 34.7591 664.046 34.225 664.163 33.8362C665.177 34.0296 666.22 34.1259 667.233 34.3194L678.696 36.1168C680.526 36.4456 681.646 34.8705 681.635 33.4907C681.841 32.8103 681.427 32.0527 680.728 31.5286C680.197 31.1599 679.508 30.9564 678.888 30.8792C677.481 30.5695 676.143 30.386 674.677 30.2707L669.944 29.614C668.409 29.3724 666.776 29.1018 665.241 28.8602C664.848 28.7439 664.68 28.5886 664.611 28.4624C664.532 28.0155 665.565 27.7911 665.919 27.6839C666.047 27.6157 666.273 27.5767 666.401 27.5085C670.326 27.2914 674.408 26.9089 678.323 26.371C681.559 25.9504 681.27 20.8882 677.935 21.2797C671.915 22.0429 665.757 22.5535 659.618 22.6463C658.9 22.54 658.182 22.4337 657.493 22.2303C657.001 22.0849 656.44 21.8134 656.135 21.4055C655.662 20.8423 655.543 20.172 655.651 19.4626C655.936 19.2291 656.25 18.8985 656.535 18.665C659.19 16.2724 661.735 13.53 662.401 9.9147C662.685 8.6221 661.729 7.17513 660.293 6.96261C658.955 6.77915 657.647 7.55764 657.363 8.85023C657.334 8.94743 657.235 8.91835 657.206 9.01554C655.614 11.0866 653.579 12.4974 651.347 13.8499C646.942 16.3607 643.666 16.5579 641.771 21.3985C640.329 25.1019 637.511 31.5759 638.577 35.4908C640.462 42.7186 649.944 40.4366 654.964 44.0372C657.524 45.8521 659.395 48.5226 662.043 50.0458C662.771 50.4727 663.401 50.8706 664.149 50.8797Z" fill="#89C6E5"/>
</g>
<defs>
<filter id="filter0_d_763_443" x="332.012" y="124.977" width="92.5664" height="74.3336" filterUnits="userSpaceOnUse" color-interpolation-filters="sRGB">
<feFlood flood-opacity="0" result="BackgroundImageFix"/>
<feColorMatrix in="SourceAlpha" type="matrix" values="0 0 0 0 0 0 0 0 0 0 0 0 0 0 0 0 0 0 127 0" result="hardAlpha"/>
<feOffset dx="4" dy="4"/>
<feGaussianBlur stdDeviation="0.5"/>
<feComposite in2="hardAlpha" operator="out"/>
<feColorMatrix type="matrix" values="0 0 0 0 0 0 0 0 0 0 0 0 0 0 0 0 0 0 0.25 0"/>
<feBlend mode="normal" in2="BackgroundImageFix" result="effect1_dropShadow_763_443"/>
<feBlend mode="normal" in="SourceGraphic" in2="effect1_dropShadow_763_443" result="shape"/>
</filter>
<filter id="filter1_d_763_443" x="168.523" y="176.686" width="75.5566" height="97.6893" filterUnits="userSpaceOnUse" color-interpolation-filters="sRGB">
<feFlood flood-opacity="0" result="BackgroundImageFix"/>
<feColorMatrix in="SourceAlpha" type="matrix" values="0 0 0 0 0 0 0 0 0 0 0 0 0 0 0 0 0 0 127 0" result="hardAlpha"/>
<feOffset dx="4" dy="4"/>
<feGaussianBlur stdDeviation="0.5"/>
<feComposite in2="hardAlpha" operator="out"/>
<feColorMatrix type="matrix" values="0 0 0 0 0 0 0 0 0 0 0 0 0 0 0 0 0 0 0.25 0"/>
<feBlend mode="normal" in2="BackgroundImageFix" result="effect1_dropShadow_763_443"/>
<feBlend mode="normal" in="SourceGraphic" in2="effect1_dropShadow_763_443" result="shape"/>
</filter>
<filter id="filter2_d_763_443" x="21.6094" y="140.03" width="84.7891" height="57.8184" filterUnits="userSpaceOnUse" color-interpolation-filters="sRGB">
<feFlood flood-opacity="0" result="BackgroundImageFix"/>
<feColorMatrix in="SourceAlpha" type="matrix" values="0 0 0 0 0 0 0 0 0 0 0 0 0 0 0 0 0 0 127 0" result="hardAlpha"/>
<feOffset dx="4" dy="4"/>
<feGaussianBlur stdDeviation="0.5"/>
<feComposite in2="hardAlpha" operator="out"/>
<feColorMatrix type="matrix" values="0 0 0 0 0 0 0 0 0 0 0 0 0 0 0 0 0 0 0.25 0"/>
<feBlend mode="normal" in2="BackgroundImageFix" result="effect1_dropShadow_763_443"/>
<feBlend mode="normal" in="SourceGraphic" in2="effect1_dropShadow_763_443" result="shape"/>
</filter>
<filter id="filter3_d_763_443" x="525.336" y="98.2151" width="84.5391" height="84.1575" filterUnits="userSpaceOnUse" color-interpolation-filters="sRGB">
<feFlood flood-opacity="0" result="BackgroundImageFix"/>
<feColorMatrix in="SourceAlpha" type="matrix" values="0 0 0 0 0 0 0 0 0 0 0 0 0 0 0 0 0 0 127 0" result="hardAlpha"/>
<feOffset dx="4" dy="4"/>
<feGaussianBlur stdDeviation="0.5"/>
<feComposite in2="hardAlpha" operator="out"/>
<feColorMatrix type="matrix" values="0 0 0 0 0 0 0 0 0 0 0 0 0 0 0 0 0 0 0.25 0"/>
<feBlend mode="normal" in2="BackgroundImageFix" result="effect1_dropShadow_763_443"/>
<feBlend mode="normal" in="SourceGraphic" in2="effect1_dropShadow_763_443" result="shape"/>
</filter>
<filter id="filter4_d_763_443" x="638.34" y="6.93597" width="45.3477" height="48.9437" filterUnits="userSpaceOnUse" color-interpolation-filters="sRGB">
<feFlood flood-opacity="0" result="BackgroundImageFix"/>
<feColorMatrix in="SourceAlpha" type="matrix" values="0 0 0 0 0 0 0 0 0 0 0 0 0 0 0 0 0 0 127 0" result="hardAlpha"/>
<feOffset dx="1" dy="4"/>
<feGaussianBlur stdDeviation="0.5"/>
<feComposite in2="hardAlpha" operator="out"/>
<feColorMatrix type="matrix" values="0 0 0 0 0 0 0 0 0 0 0 0 0 0 0 0 0 0 0.25 0"/>
<feBlend mode="normal" in2="BackgroundImageFix" result="effect1_dropShadow_763_443"/>
<feBlend mode="normal" in="SourceGraphic" in2="effect1_dropShadow_763_443" result="shape"/>
</filter>
</defs>
</svg>
