<svg width="252" height="12" viewBox="0 0 252 12" fill="none" xmlns="http://www.w3.org/2000/svg">
<path opacity="0.8" d="M149.006 6.426L135.141 10.2778L132.094 6.57412C131.79 9.53709 129.2 11.9075 126.152 11.9075C122.953 11.9075 120.515 9.53709 120.21 6.57412L117.163 10.2778L103.299 6.426V8.79634L0 5.98153L103.146 3.16672V5.98153L117.011 2.12966L120.058 5.83337C120.363 2.8704 122.953 0.500063 126 0.500063C129.2 0.500063 131.637 2.8704 131.942 5.83337L134.989 2.12966L148.854 5.98153V3.16672L252 5.98153L148.854 8.79634V6.426H149.006ZM126.152 2.27782C124.019 2.27782 122.343 3.90745 122.343 5.98153C122.343 8.05561 124.019 9.68524 126.152 9.68524C128.285 9.68524 129.961 8.05561 129.961 5.98153C129.961 4.0556 128.285 2.27782 126.152 2.27782Z" fill="#17436D"/>
</svg>
