<svg xmlns="http://www.w3.org/2000/svg" width="107" height="118" viewBox="0 0 107 118" fill="none">
  <path d="M38.1836 79.5723C49.2193 79.0126 58.6602 81.519 67.9507 87.4456C75.4877 92.2538 85.7897 98.2773 94.83 93.6771C103.314 89.36 109.289 79.2448 113.338 71.047C117.175 63.2793 120.353 54.1893 118.392 45.4592C116.473 36.9094 111.645 34.8838 104.575 40.1129C97.7153 45.1872 98.1936 54.6983 100.953 61.9348C103.646 68.9963 111.758 74.0123 118.787 75.7289C122.439 76.6208 126.285 76.9386 130.017 76.3705C136.565 75.3736 142.127 71.2506 148.73 70.4205C162.783 68.6538 169.355 79.2931 175.769 90.0733" stroke="#17436D" stroke-width="1.25" stroke-linecap="round" stroke-dasharray="8.25 8.25"/>
  <g filter="url(#filter0_d_811_7087)">
    <path d="M43.5351 85.2144C45.5348 86.3642 49.1089 87.4699 50.7669 84.9915C50.9809 84.6945 51.0791 84.3799 51.1773 84.0654C51.9312 82.0383 52.6426 79.9813 53.1221 77.8892C53.3433 76.958 53.5098 75.9244 53.133 75.0203C52.2762 72.8201 45.1434 72.2816 43.0143 71.9357C39.8845 71.462 36.9311 71.3679 33.8127 71.4135C30.8835 71.4642 27.901 70.5186 25.0216 69.9651C21.9957 69.4365 18.7863 69.1625 15.8434 70.0347C25.3675 74.7469 34.4086 79.9507 43.5351 85.2144Z" fill="#17436D"/>
    <path d="M47.6347 82.9178C45.458 81.8354 43.3303 80.5957 41.0803 79.5257C36.7389 77.4333 19.1819 70.3992 19.4137 70.4343C21.4028 70.6178 32.1751 73.3307 34.1883 73.659C37.7511 74.2454 41.3566 74.8617 44.9195 75.4481C46.7741 75.7288 48.5555 76.022 50.3796 76.3451C51.0445 76.4929 52.6666 77.1854 53.2711 76.9711C53.9183 76.7867 53.8458 76.3522 54.2981 75.903C56.9445 73.4801 59.0804 69.8034 60.904 66.7384C61.2284 66.1992 61.51 65.6301 61.6331 65.0134C61.7562 64.3968 61.5621 63.6851 61.0807 63.2828C60.7394 63.0429 60.3489 62.9603 59.9585 62.8776C58.4516 62.6495 56.8771 62.6936 55.3453 62.7676C40.9608 63.4607 26.577 63.707 12.4149 66.4103C11.5359 66.5596 10.0709 66.8084 9.70314 67.7645C9.36598 68.6781 10.225 69.5376 10.8771 70.0598C19.3968 76.8788 28.2039 83.3883 36.6319 90.3345C38.8135 92.1236 40.9895 93.653 43.3547 95.1874C45.4333 96.5844 47.2124 98.2184 49.6274 99.1486C50.5343 96.9095 50.7336 94.4926 50.8903 92.0458C50.9971 90.2031 51.7768 87.4271 51.2976 85.684C50.8305 84.0133 49.281 83.7552 47.6347 82.9178Z" fill="#89C6E5"/>
    <path d="M50.8569 83.7111C48.1746 82.0816 45.3699 80.6218 42.4856 79.3616C41.8697 79.0567 41.3861 79.9952 41.9592 80.2702C44.8436 81.5303 47.6177 83.0326 50.3306 84.6197C50.9158 84.9671 51.4421 84.0585 50.8569 83.7111Z" fill="#171714"/>
    <path d="M45.1884 88.0998C44.2804 87.3977 43.3723 86.6955 42.4642 85.9934C42.2509 85.8434 41.9031 85.7908 41.7502 86.0029C41.5546 86.1851 41.5418 86.5596 41.7551 86.7096C42.6632 87.4117 43.5713 88.1139 44.4794 88.816C44.6927 88.966 45.0404 89.0186 45.1934 88.8064C45.3889 88.6243 45.4444 88.2798 45.1884 88.0998Z" fill="#171714"/>
    <path d="M52.4063 71.6857C51.3717 71.2623 50.3043 70.9916 49.1714 71.0262C48.9038 71.0247 48.6394 70.7584 48.6939 70.5039C48.7081 70.1881 48.9572 70.0264 49.2249 70.0279C50.4091 70.0037 51.6414 70.2549 52.7165 70.7397C52.9623 70.8429 53.124 71.0884 53.0585 71.3937C53.0039 71.6482 52.6412 71.8398 52.4063 71.6857Z" fill="#171714"/>
    <path d="M52.7172 66.9151C52.6383 66.6678 52.3396 66.4579 52.0892 66.5377L48.9999 67.4347C48.7496 67.5145 48.5355 67.8115 48.6144 68.0587C48.6933 68.306 48.992 68.5159 49.2423 68.4361C50.2863 68.1471 51.2877 67.8281 52.3317 67.5391C52.582 67.4593 52.7961 67.1623 52.7172 66.9151Z" fill="#171714"/>
  </g>
  <defs>
    <filter id="filter0_d_811_7087" x="9.62891" y="62.7079" width="55.7891" height="40.1907" filterUnits="userSpaceOnUse" color-interpolation-filters="sRGB">
      <feFlood flood-opacity="0" result="BackgroundImageFix"/>
      <feColorMatrix in="SourceAlpha" type="matrix" values="0 0 0 0 0 0 0 0 0 0 0 0 0 0 0 0 0 0 127 0" result="hardAlpha"/>
      <feOffset dx="3" dy="3"/>
      <feGaussianBlur stdDeviation="0.375"/>
      <feComposite in2="hardAlpha" operator="out"/>
      <feColorMatrix type="matrix" values="0 0 0 0 0 0 0 0 0 0 0 0 0 0 0 0 0 0 0.25 0"/>
      <feBlend mode="normal" in2="BackgroundImageFix" result="effect1_dropShadow_811_7087"/>
      <feBlend mode="normal" in="SourceGraphic" in2="effect1_dropShadow_811_7087" result="shape"/>
    </filter>
  </defs>
</svg>