<svg width="119" height="120" viewBox="0 0 119 120" fill="none" xmlns="http://www.w3.org/2000/svg">
<mask id="mask0_747_1018" style="mask-type:luminance" maskUnits="userSpaceOnUse" x="-48" y="-91" width="216" height="302">
<path d="M-47.6836 210.432H167.183V-90.2797H-47.6836V210.432Z" fill="white"/>
</mask>
<g mask="url(#mask0_747_1018)">
<path fill-rule="evenodd" clip-rule="evenodd" d="M59.6224 1.92262C91.8013 1.92262 117.897 27.9729 117.897 60.0955C117.897 92.2182 91.8013 118.268 59.6224 118.268C27.4436 118.268 1.34766 92.2182 1.34766 60.0955C1.34766 27.9729 27.4436 1.92262 59.6224 1.92262Z" fill="#17436D"/>
<path d="M119.001 60.0956H116.792L116.72 57.1543L116.499 54.2565L116.133 51.4014L115.633 48.5931L114.996 45.8305L114.223 43.1262L113.324 40.4751L112.302 37.8809L111.157 35.3559L109.895 32.895L108.518 30.5019L107.028 28.1891L105.433 25.9513L103.737 23.7925L101.94 21.7246L100.045 19.743L98.0599 17.8511L95.9885 16.0571L93.8259 14.3644L91.5843 12.7725L89.2673 11.285L86.87 9.91003L84.4049 8.65103L81.8755 7.50741L79.2766 6.48729L76.621 5.58971L73.9118 4.81866L71.1445 4.18182L68.3312 3.68316L65.4712 3.31741L62.5683 3.09709L59.6218 3.02562V0.819855L62.6719 0.899818L65.6871 1.12888L68.6591 1.50317L71.5848 2.0278L74.4556 2.69038L77.2769 3.48741L80.0363 4.4193L82.7299 5.48264L85.3629 6.66927L87.9231 7.98003L90.4067 9.40672L92.8185 10.9458L95.1464 12.5981L97.3868 14.3596L99.5445 16.2226L101.607 18.1835L103.572 20.2427L105.438 22.3967L107.203 24.633L108.858 26.9569L110.399 29.3646L111.829 31.8438L113.142 34.3994L114.33 37.0279L115.396 39.7169L116.329 42.4715L117.128 45.2878L117.791 48.1536L118.317 51.074L118.692 54.041L118.921 57.0509L119.001 60.0956ZM59.6218 119.371V117.166L62.5683 117.094L65.4712 116.874L68.3312 116.508L71.1445 116.009L73.9118 115.373L76.621 114.602L79.2766 113.704L81.8755 112.684L84.4049 111.54L86.87 110.281L89.2673 108.906L91.5843 107.419L93.8259 105.827L95.9885 104.134L98.0599 102.34L100.045 100.448L101.94 98.4666L103.737 96.3989L105.433 94.24L107.028 92.0022L108.518 89.6894L109.895 87.2963L111.157 84.8354L112.302 82.3104L113.324 79.7162L114.223 77.0651L114.996 74.3607L115.633 71.5983L116.133 68.7898L116.499 65.9349L116.72 63.0369L116.792 60.0956H119.001L118.921 63.1405L118.692 66.1503L118.317 69.1173L117.791 72.0377L117.128 74.9035L116.329 77.7198L115.396 80.4744L114.33 83.1634L113.142 85.7919L111.829 88.3475L110.399 90.8267L108.858 93.2344L107.203 95.5582L105.438 97.7946L103.572 99.9487L101.607 102.008L99.5445 103.969L97.3868 105.832L95.1464 107.593L92.8185 109.245L90.4067 110.785L87.9231 112.211L85.3629 113.522L82.7299 114.709L80.0363 115.772L77.2769 116.704L74.4556 117.501L71.5848 118.164L68.6591 118.688L65.6871 119.062L62.6719 119.291L59.6218 119.371ZM0.242188 60.0956H2.45188L2.52341 63.0369L2.74423 65.9349L3.11044 68.7898L3.61009 71.5983L4.24794 74.3607L5.02048 77.0651L5.91952 79.7162L6.94154 82.3104L8.08708 84.8354L9.34825 87.2963L10.7257 89.6894L12.2157 92.0022L13.8105 94.24L15.5061 96.3989L17.3034 98.4666L19.1985 100.448L21.1837 102.34L23.2551 104.134L25.4177 105.827L27.6593 107.419L29.9763 108.906L32.3736 110.281L34.8387 111.54L37.3681 112.684L39.967 113.704L42.6226 114.602L45.3318 115.373L48.0991 116.009L50.9124 116.508L53.7724 116.874L56.6753 117.094L59.6218 117.166V119.371L56.5717 119.291L53.5565 119.062L50.5845 118.688L47.6588 118.164L44.788 117.501L41.9667 116.704L39.2073 115.772L36.5137 114.709L33.8807 113.522L31.3205 112.211L28.8369 110.785L26.4251 109.245L24.0972 107.593L21.8568 105.832L19.6991 103.969L17.6362 102.008L15.672 99.9487L13.8057 97.7946L12.0411 95.5582L10.386 93.2344L8.84415 90.8267L7.4149 88.3475L6.10195 85.7919L4.91315 83.1634L3.84788 80.4744L2.91433 77.7198L2.116 74.9035L1.45219 72.0377L0.926712 69.1173L0.551751 66.1503L0.32243 63.1405L0.242188 60.0956ZM59.6218 0.819855V3.02562L56.6753 3.09709L53.7724 3.31741L50.9124 3.68316L48.0991 4.18182L45.3318 4.81866L42.6226 5.58971L39.967 6.48729L37.3681 7.50741L34.8387 8.65103L32.3736 9.91003L29.9763 11.285L27.6593 12.7725L25.4177 14.3644L23.2551 16.0571L21.1837 17.8511L19.1985 19.743L17.3034 21.7246L15.5061 23.7925L13.8105 25.9513L12.2157 28.1891L10.7257 30.5019L9.34825 32.895L8.08708 35.3559L6.94154 37.8809L5.91952 40.4751L5.02048 43.1262L4.24794 45.8305L3.61009 48.5931L3.11044 51.4014L2.74423 54.2565L2.52341 57.1543L2.45188 60.0956H0.242188L0.32243 57.0509L0.551751 54.041L0.926712 51.074L1.45219 48.1536L2.116 45.2878L2.91433 42.4715L3.84788 39.7169L4.91315 37.0279L6.10195 34.3994L7.4149 31.8438L8.84415 29.3646L10.386 26.9569L12.0411 24.633L13.8057 22.3967L15.672 20.2427L17.6362 18.1835L19.6991 16.2226L21.8568 14.3596L24.0972 12.5981L26.4251 10.9458L28.8369 9.40672L31.3205 7.98003L33.8807 6.66927L36.5137 5.48264L39.2073 4.4193L41.9667 3.48741L44.788 2.69038L47.6588 2.0278L50.5845 1.50317L53.5565 1.12888L56.5717 0.899818L59.6218 0.819855Z" fill="#17436D"/>
<path fill-rule="evenodd" clip-rule="evenodd" d="M59.6196 5.23502C89.9353 5.23502 114.521 29.802 114.521 60.0957C114.521 90.3894 89.9353 114.956 59.6196 114.956C29.3039 114.956 4.71875 90.3894 4.71875 60.0957C4.71875 29.802 29.3039 5.23502 59.6196 5.23502Z" fill="#17436D"/>
<path d="M115.113 60.0952H113.938L113.869 57.3001L113.66 54.5441L113.313 51.8287L112.837 49.1573L112.231 46.5307L111.497 43.9575L110.643 41.4361L109.672 38.9701L108.584 36.5676L107.385 34.2273L106.076 31.9527L104.662 29.7521L103.147 27.6241L101.535 25.5722L99.8282 23.6045L98.0286 21.7198L96.1423 19.9215L94.1733 18.2153L92.1198 16.6049L89.9902 15.0913L87.788 13.6779L85.5118 12.3706L83.1698 11.1725L80.7656 10.0852L78.2978 9.11427L75.7745 8.26079L73.1994 7.52829L70.5709 6.92248L67.8975 6.44692L65.1802 6.1002L62.4222 5.89058L59.625 5.82148V4.64754L62.4774 4.7212L65.2949 4.93536L68.0719 5.28663L70.8051 5.77611L73.4884 6.39558L76.1233 7.14192L78.7017 8.01367L81.22 9.00762L83.6793 10.1179L86.0717 11.3433L88.3937 12.6782L90.6465 14.1191L92.8219 15.6649L94.9167 17.312L96.9317 19.0548L98.8593 20.8897L100.696 22.8157L102.44 24.8294L104.088 26.9225L105.635 29.0964L107.077 31.3475L108.413 33.6679L109.639 36.0585L110.75 38.5161L111.745 41.0325L112.617 43.609L113.364 46.2419L113.984 48.9234L114.474 51.6544L114.825 54.4295L115.04 57.245L115.113 60.0952ZM59.625 115.543V114.369L62.4222 114.3L65.1802 114.09L67.8975 113.743L70.5709 113.268L73.1994 112.662L75.7745 111.93L78.2978 111.076L80.7656 110.105L83.1698 109.018L85.5118 107.82L87.788 106.512L89.9902 105.099L92.1198 103.586L94.1733 101.975L96.1423 100.269L98.0286 98.4706L99.8282 96.5859L101.535 94.6182L103.147 92.5663L104.662 90.4382L106.076 88.2376L107.385 85.9631L108.584 83.6228L109.672 81.2203L110.643 78.7543L111.497 76.2329L112.231 73.6596L112.837 71.0331L113.313 68.3617L113.66 65.6463L113.869 62.8903L113.938 60.0952H115.113L115.04 62.9454L114.825 65.7608L114.474 68.5359L113.984 71.267L113.364 73.9484L112.617 76.5814L111.745 79.1579L110.75 81.6743L109.639 84.1319L108.413 86.5225L107.077 88.8428L105.635 91.094L104.088 93.2678L102.44 95.361L100.696 97.3747L98.8593 99.3006L96.9317 101.136L94.9167 102.878L92.8219 104.526L90.6465 106.071L88.3937 107.512L86.0717 108.847L83.6793 110.072L81.22 111.183L78.7017 112.177L76.1233 113.048L73.4884 113.795L70.8051 114.414L68.0719 114.904L65.2949 115.255L62.4774 115.469L59.625 115.543ZM4.13672 60.0952H5.31163L5.38063 62.8903L5.59046 65.6463L5.93736 68.3617L6.41339 71.0331L7.0196 73.6596L7.75274 76.2329L8.60674 78.7543L9.57847 81.2203L10.6666 83.6228L11.8654 85.9631L13.1738 88.2376L14.5882 90.4382L16.1029 92.5663L17.7146 94.6182L19.4219 96.5859L21.2215 98.4706L23.1078 100.269L25.0768 101.975L27.1303 103.586L29.2599 105.099L31.4621 106.512L33.7383 107.82L36.0802 109.018L38.4845 110.105L40.9523 111.076L43.4756 111.93L46.0507 112.662L48.6792 113.268L51.3526 113.743L54.0699 114.09L56.8279 114.3L59.625 114.369V115.543L56.7728 115.469L53.9552 115.255L51.1782 114.904L48.445 114.414L45.7617 113.795L43.1268 113.048L40.5484 112.177L38.0302 111.183L35.5708 110.072L33.1784 108.847L30.8564 107.512L28.6036 106.071L26.4282 104.526L24.3334 102.878L22.3184 101.136L20.3909 99.3006L18.5545 97.3747L16.8105 95.361L15.1622 93.2678L13.6153 91.094L12.1733 88.8428L10.8375 86.5225L9.61112 84.1319L8.50001 81.6743L7.50546 79.1579L6.63302 76.5814L5.88617 73.9484L5.26606 71.267L4.77635 68.5359L4.4249 65.7608L4.21052 62.9454L4.13672 60.0952ZM59.625 4.64754V5.82148L56.8279 5.89058L54.0699 6.1002L51.3526 6.44692L48.6792 6.92248L46.0507 7.52829L43.4756 8.26079L40.9523 9.11427L38.4845 10.0852L36.0802 11.1725L33.7383 12.3706L31.4621 13.6779L29.2599 15.0913L27.1303 16.6049L25.0768 18.2153L23.1078 19.9215L21.2215 21.7198L19.4219 23.6045L17.7146 25.5722L16.1029 27.6241L14.5882 29.7521L13.1738 31.9527L11.8654 34.2273L10.6666 36.5676L9.57847 38.9701L8.60674 41.4361L7.75274 43.9575L7.0196 46.5307L6.41339 49.1573L5.93736 51.8287L5.59046 54.5441L5.38063 57.3001L5.31163 60.0952H4.13672L4.21052 57.245L4.4249 54.4295L4.77635 51.6544L5.26606 48.9234L5.88617 46.2419L6.63302 43.609L7.50546 41.0325L8.50001 38.5161L9.61112 36.0585L10.8375 33.6679L12.1733 31.3475L13.6153 29.0964L15.1622 26.9225L16.8105 24.8294L18.5545 22.8157L20.3909 20.8897L22.3184 19.0548L24.3334 17.312L26.4282 15.6649L28.6036 14.1191L30.8564 12.6782L33.1784 11.3433L35.5708 10.1179L38.0302 9.00762L40.5484 8.01367L43.1268 7.14192L45.7617 6.39558L48.445 5.77611L51.1782 5.28663L53.9552 4.93536L56.7728 4.7212L59.625 4.64754Z" fill="white"/>
<path d="M16.9974 75.7677L16.6245 74.8093C16.9909 74.6427 17.2704 74.4357 17.4642 74.1873C17.6578 73.9389 17.7767 73.6117 17.8215 73.2057C17.8664 72.7997 17.8215 72.3719 17.6897 71.924C17.5724 71.5251 17.4122 71.1924 17.2095 70.923C17.0049 70.6547 16.7822 70.4761 16.5402 70.3904C16.2966 70.3051 16.0586 70.2986 15.8234 70.3729C15.5844 70.4489 15.3987 70.5863 15.263 70.7879C15.1266 70.9885 15.0478 71.2721 15.0242 71.6393C15.0073 71.8777 15.0207 72.3838 15.0663 73.1629C15.1112 73.94 15.1037 74.499 15.0407 74.836C14.9624 75.2729 14.8082 75.629 14.5817 75.9038C14.3546 76.1772 14.0664 76.3687 13.7166 76.48C13.3342 76.6017 12.9424 76.6035 12.5431 76.4831C12.1423 76.3635 11.7924 76.113 11.4914 75.7345C11.192 75.3534 10.9634 74.8996 10.8071 74.369C10.6345 73.7831 10.5736 73.2398 10.6235 72.7336C10.673 72.2299 10.8386 71.8014 11.1196 71.4493C11.4016 71.0987 11.7624 70.8414 12.2027 70.6814L12.5701 71.6594C12.107 71.8668 11.7965 72.1647 11.6436 72.5526C11.4889 72.9411 11.5019 73.4373 11.6802 74.0433C11.8663 74.6751 12.1129 75.0992 12.4208 75.3186C12.7287 75.5365 13.0403 75.5963 13.3533 75.4966C13.6278 75.4099 13.8219 75.2358 13.9368 74.9759C14.0545 74.7176 14.0806 74.1371 14.0146 73.2299C13.9507 72.3223 13.9402 71.6884 13.9851 71.3288C14.055 70.8045 14.2132 70.3826 14.4603 70.065C14.709 69.7468 15.0377 69.5238 15.4445 69.3945C15.8493 69.266 16.2646 69.265 16.6929 69.3921C17.1213 69.5191 17.5006 69.7767 17.8325 70.163C18.1633 70.55 18.4115 71.0258 18.5772 71.5879C18.7874 72.3027 18.8647 72.9332 18.8047 73.4782C18.7469 74.0247 18.5577 74.4985 18.2357 74.9025C17.9149 75.3035 17.501 75.5936 16.9974 75.7677ZM17.4532 67.3695L11.7555 68.2015L11.6338 67.2997L12.4962 67.1741C12.0619 67.0025 11.766 66.8285 11.6113 66.6514C11.4565 66.4757 11.3616 66.2704 11.3302 66.0365C11.2844 65.6977 11.3422 65.3402 11.5019 64.9601L12.4458 65.1751C12.338 65.4396 12.3016 65.6948 12.335 65.9402C12.3645 66.1612 12.4552 66.3477 12.6055 66.5043C12.7573 66.6604 12.9499 66.7587 13.185 66.7994C13.5423 66.8619 13.9258 66.8624 14.334 66.8022L17.3174 66.3669L17.4532 67.3695ZM10.1762 64.0395L9.05663 64.1208L8.98828 63.1088L10.1084 63.0276L10.1762 64.0395ZM16.9804 63.5453L11.2408 63.9622L11.1729 62.9503L16.9121 62.5333L16.9804 63.5453ZM14.1454 57.6178L14.2143 56.5865C14.6145 56.6039 14.953 56.5444 15.2319 56.41C15.511 56.2747 15.7556 56.0348 15.9672 55.6902C16.1788 55.346 16.319 54.9411 16.3895 54.4782C16.4523 54.0664 16.4493 53.6943 16.3805 53.3601C16.3096 53.0255 16.1848 52.7642 16.0036 52.5766C15.8205 52.3891 15.6098 52.2745 15.3667 52.2344C15.1202 52.1942 14.8951 52.233 14.6879 52.3522C14.4807 52.4698 14.2901 52.6894 14.114 53.0089C13.9981 53.2155 13.797 53.6764 13.5089 54.397C13.2214 55.1162 12.9789 55.6148 12.7798 55.8898C12.5252 56.2464 12.2361 56.4967 11.9163 56.6403C11.5967 56.7824 11.2574 56.8238 10.8954 56.764C10.5012 56.6991 10.1478 56.5226 9.8403 56.2324C9.53031 55.9426 9.32108 55.5581 9.21029 55.0807C9.10208 54.6019 9.08858 54.0898 9.17201 53.5417C9.26436 52.9362 9.43856 52.4206 9.69706 51.9885C9.95368 51.5583 10.2835 51.2485 10.6849 51.06C11.0861 50.8729 11.5193 50.8061 11.9827 50.863L11.8997 51.9093C11.3961 51.8848 10.9914 52.0105 10.6903 52.2898C10.3875 52.5686 10.1897 53.0204 10.0939 53.6465C9.99465 54.2993 10.0374 54.7924 10.2217 55.1301C10.4063 55.4664 10.6614 55.6617 10.9843 55.7146C11.2679 55.7615 11.5158 55.6932 11.7285 55.5126C11.9433 55.3337 12.2123 54.8239 12.5357 53.9786C12.8611 53.1332 13.1191 52.5592 13.3113 52.2564C13.5953 51.8165 13.9157 51.5098 14.2717 51.3368C14.6295 51.1641 15.0188 51.1133 15.4391 51.1827C15.8573 51.2515 16.2312 51.4395 16.5627 51.7487C16.8936 52.058 17.1256 52.462 17.2615 52.9607C17.3952 53.4593 17.4177 53.9994 17.3289 54.58C17.2165 55.3182 17.0198 55.9202 16.7359 56.383C16.4533 56.8483 16.0835 57.1879 15.6233 57.4039C15.1655 57.6184 14.6715 57.6906 14.1454 57.6178ZM17.8875 50.2246L12.4154 48.3778L12.6864 47.512L13.5144 47.7917C13.1969 47.4401 13.0039 47.1484 12.94 46.919C12.875 46.691 12.876 46.4631 12.9464 46.2382C13.0483 45.913 13.2514 45.6183 13.5554 45.3489L14.3131 45.9725C14.1044 46.1605 13.9642 46.3739 13.8903 46.6093C13.824 46.8213 13.8264 47.0302 13.8954 47.2392C13.9656 47.4492 14.0975 47.6247 14.2917 47.7688C14.5872 47.9877 14.931 48.1623 15.3232 48.295L18.1883 49.2621L17.8875 50.2246ZM12.6494 44.1071L11.5948 43.7085L11.9287 42.7556L12.9837 43.1541L12.6494 44.1071ZM19.0589 46.5304L13.6522 44.4861L13.9867 43.5331L19.3927 45.5774L19.0589 46.5304ZM21.241 41.0464L14.3619 36.921L16.1224 33.753C16.4768 33.1159 16.8083 32.6692 17.1157 32.4123C17.4232 32.155 17.7881 32.0214 18.2113 32.0088C18.6351 31.9988 19.0353 32.1086 19.4137 32.335C19.9018 32.6283 20.2214 33.0367 20.3729 33.5668C20.5258 34.0955 20.4565 34.7309 20.1669 35.471C20.4219 35.2891 20.6411 35.1674 20.8268 35.106C21.2237 34.9759 21.6749 34.898 22.1778 34.869L24.741 34.7494L24.0795 35.9389L22.1225 36.0251C21.5574 36.0547 21.1137 36.0919 20.7958 36.1409C20.4778 36.1878 20.2353 36.2551 20.0701 36.3443C19.9034 36.433 19.7631 36.5398 19.6463 36.6649C19.5655 36.7608 19.4572 36.9289 19.3215 37.1732L18.7119 38.2695L21.7661 40.1012L21.241 41.0464ZM17.9239 37.7971L19.0538 35.7637C19.2934 35.333 19.4387 34.9679 19.487 34.6731C19.5365 34.3763 19.5016 34.109 19.3828 33.8696C19.264 33.6297 19.0944 33.4437 18.8716 33.31C18.5467 33.115 18.2118 33.0762 17.8648 33.1962C17.519 33.3149 17.1995 33.6403 16.9046 34.1709L15.6478 36.4321L17.9239 37.7971ZM27.5857 30.7736C27.5625 31.2663 27.4838 31.6837 27.3505 32.0273C27.2137 32.3705 27.0151 32.6875 26.754 32.9785C26.3228 33.4591 25.8801 33.7185 25.4223 33.7578C24.9656 33.7963 24.5599 33.6452 24.2099 33.306C24.0029 33.1056 23.8575 32.8756 23.7756 32.6123C23.6918 32.3499 23.6702 32.0901 23.7087 31.8334C23.7483 31.5748 23.8291 31.3216 23.9539 31.0727C24.0473 30.8921 24.2073 30.6377 24.4375 30.3117C24.9057 29.6463 25.2206 29.1261 25.3778 28.751C25.2831 28.6537 25.2222 28.592 25.1967 28.5671C24.9057 28.2857 24.6372 28.1567 24.3932 28.1831C24.0622 28.2143 23.7288 28.4195 23.3944 28.7915C23.0819 29.1401 22.9092 29.4533 22.8768 29.7346C22.8452 30.0144 22.9441 30.3386 23.1712 30.7082L22.4255 31.3385C22.187 30.9845 22.0421 30.6419 21.9947 30.3147C21.9453 29.986 22.0002 29.6294 22.1575 29.2483C22.3147 28.8672 22.5613 28.4888 22.8992 28.1123C23.2346 27.7386 23.5491 27.4783 23.8425 27.3262C24.1371 27.1756 24.3966 27.1067 24.6246 27.1202C24.8513 27.1347 25.0804 27.215 25.3169 27.3602C25.4603 27.4539 25.6903 27.6535 26.0067 27.9602L26.9581 28.8813C27.6221 29.5246 28.0551 29.9151 28.2589 30.0518C28.462 30.1915 28.6881 30.2917 28.9322 30.355L28.2374 31.129C28.0217 31.0622 27.8031 30.9451 27.5857 30.7736ZM25.9369 29.2922C25.8011 29.6652 25.5287 30.1551 25.1214 30.764C24.8898 31.1091 24.7426 31.3715 24.683 31.5475C24.6222 31.7251 24.6111 31.8981 24.6531 32.0651C24.6931 32.2323 24.7739 32.3764 24.8982 32.4966C25.0889 32.6816 25.3155 32.7589 25.576 32.733C25.8356 32.7061 26.0962 32.5485 26.3542 32.2603C26.6109 31.975 26.7794 31.6632 26.8583 31.3246C26.9371 30.9859 26.9196 30.6618 26.805 30.3561C26.7155 30.1201 26.5128 29.8503 26.199 29.5461L25.9369 29.2922ZM31.0041 28.4035L25.6285 25.2873L26.4176 24.5996L29.5786 26.5164C29.9195 26.7231 30.2614 26.9491 30.6059 27.193C30.4775 26.8938 30.3353 26.5237 30.18 26.0799L28.9038 22.4321L29.6719 21.7628L31.7009 27.796L31.0041 28.4035ZM30.232 19.9699L29.6041 19.0029L30.4137 18.4358L31.0416 19.4023L30.232 19.9699ZM34.0459 25.8434L30.8284 20.8885L31.638 20.3214L34.8555 25.2759L34.0459 25.8434ZM34.8415 22.9145L35.6211 22.3054C35.8498 22.634 36.1226 22.8317 36.4386 22.9005C36.7523 22.9687 37.1066 22.895 37.4999 22.678C37.8952 22.4595 38.1458 22.2122 38.2515 21.9409C38.3564 21.6671 38.3524 21.4172 38.2375 21.1932C38.1334 20.9898 37.9676 20.8791 37.738 20.8556C37.5797 20.8411 37.2344 20.9031 36.7032 21.0401C35.9881 21.2217 35.4759 21.3219 35.1698 21.3343C34.8649 21.3485 34.5929 21.2831 34.3578 21.139C34.1227 20.9943 33.9384 20.7938 33.8063 20.536C33.6855 20.3006 33.6267 20.0542 33.6291 19.7962C33.6284 19.538 33.6855 19.2932 33.7958 19.0626C33.8776 18.8867 34.0154 18.6976 34.209 18.4992C34.4043 18.2995 34.6344 18.1271 34.8988 17.9809C35.2971 17.761 35.678 17.6288 36.0409 17.581C36.4038 17.5325 36.7083 17.5714 36.9562 17.6956C37.2049 17.8214 37.442 18.0388 37.67 18.3501L36.8909 18.9345C36.7127 18.6852 36.4931 18.5341 36.2321 18.4827C35.9711 18.4309 35.6726 18.4981 35.3376 18.6831C34.9423 18.9011 34.6948 19.1251 34.5959 19.3534C34.4956 19.5833 34.4926 19.7894 34.5854 19.971C34.6454 20.0881 34.7342 20.1714 34.8519 20.2263C34.9718 20.2842 35.1211 20.3015 35.3042 20.2831C35.4075 20.2676 35.6994 20.2043 36.1817 20.0901C36.8774 19.9235 37.3726 19.8262 37.6681 19.8024C37.9646 19.7754 38.2346 19.8287 38.4767 19.9584C38.7187 20.0876 38.9179 20.3041 39.074 20.6099C39.2269 20.9079 39.2853 21.2346 39.2538 21.5912C39.2204 21.9473 39.0832 22.2846 38.8414 22.6027C38.6004 22.9209 38.279 23.1897 37.8806 23.4098C37.2193 23.7748 36.6433 23.9105 36.1517 23.8167C35.6596 23.7228 35.2227 23.4221 34.8415 22.9145ZM40.9124 21.5029L38.0654 13.8001L38.9754 13.437L39.9971 16.201C40.2327 15.5207 40.6749 15.05 41.3222 14.7915C41.7196 14.6334 42.0954 14.578 42.4487 14.6245C42.8022 14.6689 43.0961 14.8105 43.3282 15.0474C43.5603 15.2842 43.779 15.6763 43.98 16.2218L45.2875 19.7584L44.3754 20.122L43.0686 16.585C42.8944 16.1136 42.669 15.8085 42.3924 15.672C42.1158 15.5352 41.796 15.5371 41.4351 15.6813C41.1655 15.7886 40.9389 15.9632 40.7542 16.2035C40.5701 16.444 40.4737 16.7086 40.4657 16.9975C40.4552 17.2858 40.5321 17.6503 40.6938 18.0877L41.8219 21.1404L40.9124 21.5029ZM50.106 17.6668C49.835 18.0722 49.5554 18.383 49.267 18.6003C48.976 18.8167 48.6461 18.9759 48.2762 19.0791C47.6653 19.2493 47.1571 19.2253 46.7489 19.0068C46.3421 18.7879 46.075 18.4368 45.9512 17.956C45.8779 17.6723 45.8723 17.3974 45.9367 17.1286C45.9996 16.8607 46.1139 16.6278 46.2776 16.4314C46.4433 16.2339 46.6404 16.0637 46.8737 15.9212C47.0447 15.8199 47.3103 15.6923 47.6718 15.5422C48.4085 15.2354 48.9405 14.9681 49.2659 14.7366C49.2351 14.602 49.2146 14.5158 49.2055 14.4808C49.1028 14.0819 48.9405 13.8246 48.7205 13.7127C48.4234 13.5566 48.0362 13.5471 47.5629 13.6789C47.1197 13.8021 46.8132 13.9731 46.6425 14.1935C46.4732 14.414 46.3914 14.7427 46.3955 15.181L45.4415 15.3057C45.4202 14.8738 45.472 14.5037 45.5988 14.1995C45.7246 13.8943 45.9532 13.6221 46.2805 13.3856C46.6086 13.1493 47.0108 12.9637 47.4895 12.8304C47.9648 12.6978 48.3641 12.6504 48.69 12.6828C49.017 12.7172 49.272 12.8016 49.4586 12.9388C49.6433 13.0758 49.7972 13.2698 49.9233 13.5233C49.9967 13.6818 50.0906 13.9776 50.2024 14.4119L50.5394 15.7167C50.7738 16.6274 50.942 17.1975 51.0449 17.4253C51.1462 17.6558 51.2865 17.8652 51.4617 18.0532L50.4774 18.327C50.3287 18.1516 50.2028 17.9321 50.106 17.6668ZM49.4636 15.5026C49.1582 15.7447 48.677 16.01 48.0211 16.3021C47.6483 16.4673 47.3898 16.6089 47.2494 16.7256C47.1077 16.8429 47.0099 16.9835 46.9604 17.148C46.9086 17.3116 46.9041 17.4781 46.948 17.6487C47.0154 17.9107 47.1681 18.1006 47.4022 18.2222C47.6359 18.3426 47.9373 18.352 48.3036 18.2497C48.666 18.149 48.9685 17.9775 49.2081 17.7336C49.4476 17.4902 49.5985 17.2055 49.6568 16.8827C49.7017 16.6339 49.6673 16.2932 49.5565 15.8629L49.4636 15.5026ZM52.7435 17.8792L52.0422 11.9472L52.9121 11.8365L53.012 12.679C53.355 11.9733 53.9225 11.5702 54.7135 11.4689C55.0585 11.425 55.3819 11.4495 55.6854 11.5407C55.9908 11.6336 56.2255 11.7736 56.3931 11.9652C56.5628 12.1547 56.6912 12.3896 56.7834 12.6685C56.8408 12.851 56.8977 13.1747 56.9526 13.6399L57.3838 17.2871L56.4146 17.4109L55.9878 13.8015C55.9393 13.3936 55.8665 13.0914 55.7672 12.8967C55.6678 12.7043 55.5152 12.5591 55.31 12.4635C55.1028 12.3663 54.8712 12.3337 54.6127 12.3667C54.1999 12.4191 53.8616 12.6017 53.5925 12.9107C53.3254 13.2215 53.2375 13.7557 53.328 14.5163L53.7107 17.7561L52.7435 17.8792ZM58.8129 17.3955V9.14433H59.7893V13.8495L62.0973 11.4191H63.3585L61.1599 13.6361L63.5827 17.3955H62.3787L60.4775 14.3392L59.7893 15.0269V17.3955H58.8129ZM68.1668 17.4289C67.7649 17.6922 67.3907 17.8647 67.0432 17.9475C66.6943 18.0289 66.3304 18.0417 65.9511 17.9864C65.3246 17.8946 64.8665 17.6668 64.5724 17.3001C64.2804 16.933 64.1666 16.5016 64.2335 16.0089C64.2729 15.7176 64.3708 15.4624 64.5316 15.2414C64.6902 15.0204 64.8829 14.8523 65.1075 14.7378C65.3342 14.6236 65.5796 14.5466 65.8481 14.5103C66.0439 14.4863 66.3364 14.4769 66.7256 14.4854C67.5188 14.5019 68.1093 14.4719 68.4957 14.3905C68.5181 14.2539 68.5316 14.1665 68.5365 14.1307C68.5919 13.7218 68.5396 13.419 68.3788 13.2271C68.1642 12.9626 67.8113 12.7965 67.3257 12.7258C66.8714 12.6595 66.5256 12.6922 66.2849 12.8261C66.0468 12.9602 65.8478 13.2301 65.6865 13.635L64.7616 13.3622C64.9043 12.9562 65.0915 12.6364 65.3221 12.4081C65.5528 12.1782 65.8658 12.0201 66.256 11.9353C66.6469 11.851 67.0866 11.8436 67.5777 11.9148C68.0644 11.9861 68.4502 12.1044 68.7381 12.2669C69.0262 12.431 69.2295 12.612 69.3496 12.814C69.4679 13.0155 69.5364 13.2563 69.5573 13.5407C69.5653 13.7163 69.5403 14.027 69.4799 14.4724L69.2993 15.8094C69.1729 16.7436 69.1131 17.336 69.122 17.5879C69.129 17.8408 69.1789 18.0907 69.2692 18.335L68.2601 18.1874C68.1892 17.966 68.1563 17.7126 68.1668 17.4289ZM68.3893 15.1761C68.0175 15.2752 67.4749 15.3242 66.7611 15.3267C66.3559 15.3277 66.0649 15.3526 65.8917 15.4029C65.717 15.4535 65.5737 15.5432 65.4663 15.6749C65.3575 15.8044 65.2902 15.9556 65.2666 16.1305C65.2302 16.3989 65.2992 16.6358 65.4688 16.8429C65.6391 17.0483 65.9127 17.1795 66.2884 17.2343C66.6599 17.2887 67.0027 17.2532 67.3152 17.1261C67.6271 16.9989 67.8732 16.7985 68.0484 16.5251C68.1833 16.3142 68.28 15.9864 68.3394 15.5452L68.3893 15.1761ZM70.4931 18.742L71.9821 12.9692L72.8291 13.2051L72.6034 14.0789C72.925 13.7307 73.1949 13.5157 73.4127 13.437C73.6283 13.3576 73.8474 13.3471 74.067 13.4085C74.3849 13.4968 74.679 13.6924 74.9538 13.9931L74.3939 14.812C74.2022 14.6055 73.99 14.4708 73.7595 14.4065C73.5524 14.3491 73.3518 14.3626 73.154 14.4449C72.9564 14.5291 72.7941 14.6748 72.6659 14.8838C72.4708 15.2014 72.3209 15.5676 72.2142 15.9815L71.4345 19.0043L70.4931 18.742ZM79.0504 22.0462L79.7667 13.229L80.7909 13.7477L80.116 20.0746C80.0631 20.5818 79.9972 21.0511 79.9203 21.478C80.2213 21.1305 80.5388 20.7912 80.8756 20.4596L85.3335 16.0494L86.2973 16.5375L80.0196 22.5373L79.0504 22.0462ZM87.0904 18.6349L87.7183 17.6681L88.5279 18.2353L87.9 19.2019L87.0904 18.6349ZM83.2766 24.5084L86.494 19.554L87.3031 20.121L84.0861 25.0755L83.2766 24.5084ZM88.2184 28.3296L88.6856 27.7511C88.0393 27.9625 87.4452 27.8315 86.9027 27.3582C86.5514 27.0519 86.3092 26.6703 86.1774 26.2121C86.0442 25.7552 86.0433 25.2754 86.173 24.7712C86.3028 24.2701 86.5558 23.7863 86.9351 23.3164C87.3034 22.86 87.7124 22.5095 88.159 22.2646C88.6073 22.0208 89.0576 21.9263 89.5102 21.9848C89.9639 22.0416 90.3732 22.2283 90.7361 22.5443C91.0007 22.7752 91.1898 23.0401 91.3027 23.3368C91.4174 23.6346 91.4634 23.9334 91.4428 24.2335L93.2747 21.9659L94.0169 22.6133L88.9112 28.9336L88.2184 28.3296ZM87.7027 23.9857C87.2287 24.5727 86.9936 25.1153 86.9971 25.6125C87.0011 26.1099 87.1638 26.5003 87.4882 26.7831C87.8142 27.0669 88.2046 27.1692 88.6562 27.0913C89.108 27.0135 89.5651 26.6897 90.0248 26.1202C90.5314 25.4934 90.786 24.9328 90.7905 24.4375C90.796 23.9409 90.6274 23.5454 90.2858 23.2481C89.9545 22.9589 89.5626 22.858 89.1129 22.9454C88.6637 23.0326 88.1925 23.3798 87.7027 23.9857ZM88.3413 31.4543L88.9486 30.7336C89.0495 30.939 89.1514 31.1021 89.2576 31.2254C89.4024 31.3919 89.5461 31.5006 89.6864 31.5505C89.8281 31.6019 89.9724 31.6138 90.1262 31.5863C90.2395 31.5685 90.485 31.4756 90.8639 31.3126C90.9173 31.2882 90.9952 31.2572 91.0994 31.2138L93.9231 25.5223L94.6258 26.3332L92.9528 29.5736C92.7405 29.9865 92.5046 30.4035 92.2399 30.8218C92.6483 30.5975 93.0615 30.3968 93.4828 30.2198L96.7976 28.8388L97.4499 29.5914L91.6376 31.9694C91.0101 32.2277 90.5649 32.3883 90.3009 32.4546C89.9454 32.544 89.6386 32.5544 89.3774 32.4855C89.1148 32.4158 88.8803 32.2627 88.6727 32.0228C88.5464 31.8771 88.4365 31.6876 88.3413 31.4543ZM96.5674 36.9259C96.1042 36.8171 95.7219 36.664 95.42 36.4675C95.118 36.2686 94.852 36.0103 94.6213 35.6925C94.2405 35.1677 94.0718 34.6701 94.1137 34.1947C94.1567 33.7206 94.3703 33.3319 94.7526 33.0327C94.9788 32.8557 95.2217 32.7474 95.4859 32.709C95.7489 32.6692 95.9995 32.6921 96.236 32.7759C96.4742 32.8616 96.7002 32.9879 96.9149 33.159C97.0692 33.2856 97.2828 33.494 97.5523 33.7858C98.1018 34.3803 98.5396 34.7927 98.8685 35.0192C98.9769 34.9389 99.0457 34.8871 99.0742 34.8652C99.3917 34.6168 99.5602 34.3644 99.5778 34.1101C99.6058 33.7658 99.4689 33.3893 99.174 32.9828C98.8979 32.6024 98.631 32.371 98.3698 32.2891C98.1104 32.2088 97.7859 32.2531 97.3961 32.4212L96.9279 31.549C97.3052 31.367 97.6551 31.2782 97.9735 31.2862C98.2935 31.293 98.6225 31.4109 98.9558 31.6383C99.2898 31.8652 99.6058 32.1829 99.9043 32.5939C100.2 33.0022 100.392 33.3689 100.486 33.6956C100.577 34.0227 100.597 34.3 100.545 34.5314C100.492 34.7609 100.376 34.9813 100.198 35.1978C100.084 35.3279 99.8544 35.5294 99.5089 35.7996L98.4703 36.6126C97.7454 37.1801 97.2997 37.5552 97.1345 37.7399C96.9673 37.9237 96.8325 38.1372 96.7302 38.3762L96.1173 37.5308C96.2181 37.3219 96.3668 37.1188 96.5674 36.9259ZM98.2581 35.4965C97.9277 35.2929 97.5108 34.9295 97.0046 34.4067C96.7172 34.1094 96.4942 33.914 96.3373 33.8223C96.1796 33.7295 96.0175 33.688 95.8521 33.702C95.6865 33.7134 95.5363 33.7713 95.4005 33.8777C95.1924 34.0407 95.0795 34.2586 95.0585 34.5299C95.039 34.8002 95.1434 35.0939 95.3715 35.4082C95.5976 35.7199 95.8642 35.9469 96.1711 36.086C96.4786 36.2256 96.789 36.264 97.0985 36.1997C97.3381 36.1493 97.6292 35.9888 97.9716 35.7209L98.2581 35.4965ZM98.9249 42.4139L106.479 39.8644L106.968 41.4284L102.2 45.0897C101.757 45.4298 101.423 45.6816 101.199 45.8416C101.502 45.8388 101.949 45.8413 102.542 45.8512L108.385 45.9555L108.822 47.3534L101.267 49.903L100.954 48.902L107.277 46.7678L100.241 46.6217L99.9482 45.6846L105.669 41.245L99.2383 43.4153L98.9249 42.4139ZM102.882 55.3096C102.522 54.988 102.253 54.6663 102.076 54.3455C101.899 54.0225 101.78 53.6648 101.721 53.2718C101.622 52.6231 101.698 52.1008 101.949 51.7014C102.201 51.3043 102.566 51.0655 103.039 50.9871C103.318 50.9413 103.582 50.9642 103.832 51.0589C104.082 51.1523 104.293 51.2945 104.464 51.4844C104.636 51.6758 104.778 51.8972 104.891 52.1532C104.969 52.3408 105.064 52.6285 105.17 53.0174C105.387 53.8105 105.587 54.3881 105.775 54.7481C105.907 54.7301 105.991 54.7186 106.026 54.7127C106.418 54.6483 106.682 54.5077 106.812 54.2918C106.992 54.0015 107.042 53.6025 106.965 53.0993C106.894 52.629 106.762 52.2948 106.569 52.0948C106.375 51.8972 106.069 51.7787 105.649 51.7366L105.629 50.7383C106.045 50.7612 106.394 50.8535 106.672 51.0161C106.951 51.1782 107.188 51.4425 107.38 51.8055C107.572 52.1692 107.708 52.604 107.785 53.1123C107.862 53.617 107.866 54.0344 107.801 54.3681C107.734 54.7022 107.626 54.9572 107.476 55.1356C107.325 55.3122 107.123 55.4504 106.868 55.5547C106.708 55.6139 106.415 55.6798 105.988 55.75L104.703 55.961C103.806 56.1087 103.243 56.2228 103.014 56.3052C102.783 56.386 102.568 56.5092 102.369 56.6698L102.21 55.6244C102.394 55.4893 102.617 55.3825 102.882 55.3096ZM105.02 54.8723C104.821 54.5317 104.617 54.007 104.406 53.2987C104.287 52.8963 104.178 52.6145 104.081 52.4574C103.984 52.2982 103.859 52.1827 103.707 52.1148C103.555 52.0439 103.397 52.0215 103.228 52.0494C102.971 52.0919 102.773 52.2296 102.632 52.4583C102.493 52.6878 102.452 52.998 102.511 53.3871C102.57 53.772 102.703 54.1023 102.911 54.375C103.119 54.6483 103.376 54.8334 103.679 54.9277C103.913 55 104.242 55.0004 104.666 54.9308L105.02 54.8723ZM102.434 57.9225H108.188V58.8328H107.37C108.003 59.2731 108.319 59.907 108.319 60.7349C108.319 61.096 108.256 61.4266 108.132 61.7279C108.007 62.0316 107.843 62.2565 107.64 62.4061C107.439 62.5578 107.198 62.6616 106.921 62.7229C106.739 62.7597 106.423 62.7787 105.972 62.7787H102.434V61.7643H105.935C106.331 61.7643 106.629 61.7258 106.827 61.6471C107.022 61.5682 107.18 61.4282 107.296 61.2288C107.415 61.0268 107.474 60.7923 107.474 60.5215C107.474 60.0896 107.341 59.7185 107.078 59.4033C106.814 59.0906 106.314 58.9348 105.576 58.9348H102.434V57.9225ZM101.693 68.0813L102.411 68.1994C101.904 67.7332 101.707 67.1362 101.817 66.4094C101.889 65.9391 102.079 65.5267 102.389 65.1737C102.698 64.8196 103.094 64.5717 103.576 64.4271C104.057 64.2843 104.587 64.261 105.169 64.3567C105.736 64.45 106.235 64.6334 106.668 64.9047C107.1 65.1781 107.409 65.5308 107.594 65.9636C107.781 66.397 107.838 66.8573 107.764 67.3431C107.71 67.6981 107.588 68.0029 107.402 68.2563C107.215 68.5116 106.992 68.7063 106.734 68.8428L109.548 69.3056L109.397 70.3002L101.552 69.0094L101.693 68.0813ZM105.012 65.385C104.284 65.2654 103.715 65.3352 103.306 65.5946C102.898 65.8545 102.66 66.2001 102.593 66.6345C102.527 67.0707 102.644 67.4713 102.941 67.8333C103.237 68.1955 103.74 68.4359 104.447 68.552C105.225 68.6802 105.819 68.6185 106.23 68.367C106.643 68.1157 106.882 67.762 106.951 67.3047C107.019 66.8609 106.901 66.4604 106.597 66.1047C106.294 65.7497 105.765 65.5088 105.012 65.385ZM107.658 72.6432L108.731 72.9843L108.446 73.9543L107.372 73.6132L107.658 72.6432ZM101.135 70.572L106.638 72.3191L106.352 73.289L100.85 71.542L101.135 70.572ZM100.363 72.9694L105.803 74.9154L105.517 75.7761L104.694 75.4816C105.006 75.8391 105.193 76.1338 105.254 76.3647C105.315 76.5937 105.31 76.8215 105.236 77.045C105.129 77.3683 104.921 77.6595 104.612 77.9232L103.865 77.2859C104.077 77.1019 104.221 76.8913 104.299 76.657C104.368 76.446 104.369 76.237 104.304 76.0271C104.237 75.8162 104.108 75.6381 103.917 75.49C103.625 75.2661 103.284 75.0849 102.894 74.9458L100.046 73.927L100.363 72.9694Z" fill="white"/>
<path fill-rule="evenodd" clip-rule="evenodd" d="M31.0601 91.7718C31.1821 91.4705 31.2679 91.2217 31.3177 91.025C31.4798 90.3992 31.5232 89.8096 31.4477 89.2562C31.427 89.0823 31.3781 88.9145 31.3007 88.7534C31.2233 88.592 31.1062 88.4246 30.9501 88.2515C30.6375 87.9051 30.2592 87.7123 29.8152 87.6734C29.5476 87.6457 29.3021 87.663 29.0785 87.7255C28.8551 87.7882 28.655 87.8814 28.4788 88.005C28.2285 88.1806 28.0172 88.4164 27.8449 88.7125C27.7912 88.8041 27.7332 88.9322 27.6702 89.0977L28.4691 89.9829L30.4267 91.804L30.4319 91.7735L33.1607 94.0614V94.0621L38.0143 97.1289L41.0494 98.6535L41.141 99.6386L39.647 98.8881L35.9441 104.704L35.4745 103.764L38.7598 98.6035L37.7435 97.9613L33.3593 103.411L33.0133 102.42L33.7235 101.538C33.4349 101.587 33.2013 101.613 33.0234 101.616C32.4384 101.633 31.9012 101.563 31.411 101.408C31.2016 101.34 31.0097 101.251 30.8349 101.14C30.4853 100.919 30.1954 100.633 29.9652 100.282C29.7352 99.9309 29.6231 99.574 29.6293 99.2113C29.6357 98.8486 29.7244 98.5606 29.896 98.3473C30.0674 98.1342 30.3125 97.9935 30.6314 97.9248C30.7379 97.9015 30.8851 97.892 31.0732 97.895C31.0018 97.7468 30.9527 97.6256 30.9258 97.5318C30.826 97.2371 30.7664 96.9745 30.7468 96.7434C30.722 96.2647 30.792 95.9228 30.9567 95.7179C31.135 95.4964 31.4097 95.4191 31.7805 95.486C31.8952 95.5072 32.0685 95.5652 32.2998 95.66L33.9023 96.6725L34.5095 95.9177L32.9937 94.9601L32.9798 95.035L32.5745 94.695L31.727 94.1596L31.7287 93.9925L26.5393 98.828L26.3399 97.8176L27.7606 96.4937C27.6252 96.5015 27.507 96.5002 27.4059 96.49C26.7761 96.436 26.2312 96.1949 25.7707 95.7663C25.2936 95.3226 25.0343 94.7508 24.9925 94.0513C24.9507 93.3515 25.1702 92.8001 25.6513 92.3971C26.0878 92.0893 26.5704 91.9684 27.0986 92.0345C27.6269 92.1009 28.1132 92.3405 28.5575 92.7536C29.0507 93.2126 29.2789 93.8503 29.2422 94.667C29.2387 94.8084 29.2178 94.9762 29.1803 95.171L30.9747 93.4988L28.3114 91.021L28.2871 91.0902L27.7699 90.5171L27.4213 90.193L27.4334 90.1442L27.2148 89.9023L21.2897 94.0596L21.2656 93.0257L26.6343 89.2587L25.9531 88.5039L26.2855 87.5634L27.4582 88.8626C27.5152 88.6072 27.574 88.4041 27.635 88.2533C27.8198 87.7869 28.0793 87.4365 28.4131 87.2025C28.7097 86.994 29.0442 86.8741 29.4164 86.8418C29.7888 86.8096 30.1296 86.8601 30.439 86.9932C30.7485 87.1264 31.0259 87.3293 31.2717 87.6014C31.6068 87.9726 31.7978 88.3775 31.8454 88.8158C31.915 89.3462 31.8827 89.9482 31.7485 90.6216C31.7061 90.8266 31.6344 91.0991 31.5328 91.4399L31.0601 91.7718ZM104.253 90.9884L104.348 91.3135C104.12 91.3653 103.94 91.4016 103.808 91.4229C103.233 91.5301 102.897 91.599 102.801 91.6295C102.567 91.6898 102.335 91.7458 102.107 91.7975C101.72 91.9049 101.383 92.0683 101.097 92.2882C101.007 92.3479 100.926 92.4253 100.852 92.5201C100.745 92.6585 100.659 92.8159 100.595 92.9925C100.565 93.0504 100.544 93.1329 100.533 93.2406L99.3196 93.3217C99.3406 93.2199 99.3612 93.1372 99.3818 93.0736C99.4498 92.8737 99.5474 92.6914 99.6747 92.5273C99.775 92.398 99.8726 92.2954 99.9674 92.2197C100.062 92.144 100.191 92.0666 100.353 91.9875C100.764 91.7933 101.152 91.6481 101.516 91.5519C102.038 91.438 102.458 91.3443 102.776 91.2706C103.01 91.2103 103.329 91.1441 103.733 91.0719C103.855 91.0447 104.029 91.017 104.253 90.9884ZM94.2178 86.7826L93.2543 88.0255L99.5212 91.842L98.4241 92.1656L96.1217 90.7634L94.3936 92.6195L94.8771 92.9723C94.9509 93.0259 95.0146 93.086 95.0687 93.1528C95.1226 93.2193 95.1296 93.2989 95.0897 93.3917C95.0094 93.5774 94.6237 93.693 93.9324 93.738C93.2409 93.7831 92.8258 93.7552 92.6879 93.6544C92.605 93.594 92.5696 93.5071 92.5821 93.3942C92.5955 93.3635 92.6109 93.3137 92.6286 93.2449L93.1026 92.7361L90.6019 90.9122L90.3787 91.152L90.6337 91.199L89.4176 92.2548L94.7555 97.0515L93.607 97.1832L92.0488 95.7831C92.0531 95.8987 92.0488 95.9998 92.0351 96.0861C91.9574 96.6396 91.6703 97.1106 91.1735 97.4989C90.6592 97.9003 90.0056 98.1047 89.2132 98.1109C88.4206 98.1174 87.8027 97.8992 87.3593 97.457C87.2364 97.3114 87.1415 97.1613 87.0753 97.0069L85.7242 97.8882C85.4908 98.0669 85.3298 98.2178 85.2417 98.3407C84.9912 98.727 85.033 99.1194 85.3676 99.5176C85.6094 99.8057 85.9342 100.056 86.3415 100.269C86.749 100.482 87.2046 100.66 87.7084 100.804C88.0082 100.897 88.2278 100.956 88.3681 100.983C88.4252 100.998 88.5036 101.013 88.6035 101.026L88.5064 101.463L86.6416 100.929C86.133 100.762 85.6857 100.572 85.2998 100.359C84.9137 100.145 84.6103 99.9065 84.3897 99.6439C83.9342 99.1017 83.8818 98.5656 84.2327 98.035C84.3544 97.8639 84.5761 97.6538 84.8977 97.4046L87.0214 96.0195C87.1372 95.6127 87.4096 95.2415 87.8387 94.9064C88.3709 94.4908 89.0984 94.317 90.0209 94.3852C90.1773 94.3941 90.3621 94.4188 90.5754 94.4589L88.759 92.8267L87.9866 93.4976L87.8807 93.4793L85.8469 95.0681L85.9158 95.0882L85.343 95.4619L84.9127 95.798L84.85 95.7834L82.0003 97.6422L81.8349 97.592L81.6164 97.7098L85.6065 103.435L84.4517 103.335L80.8277 98.1351L80.6659 98.2222L80.6738 98.226L80.5449 98.2876L79.9026 98.634L79.8568 98.616L79.3759 98.8455L81.1266 101.677C81.1759 101.953 81.193 102.167 81.1779 102.318C81.1191 102.79 80.8546 103.137 80.3858 103.361C80.2188 103.441 80.0724 103.499 79.9462 103.535C79.8202 103.571 79.6355 103.599 79.3914 103.62C78.8032 103.673 78.2875 103.559 77.8446 103.279C77.7075 103.189 77.5445 103.045 77.3548 102.848L75.9045 100.502L75.0289 100.92L74.67 100.754L74.6367 100.766L77.5691 106.964L76.4449 106.706L75.6129 104.948C75.3466 105.135 75.0713 105.269 74.7872 105.347C74.6966 105.372 74.6114 105.395 74.5322 105.417C74.3855 105.424 74.2764 105.432 74.2048 105.441C73.5501 105.456 72.9657 105.286 72.4514 104.931C72.2838 104.811 72.0868 104.628 71.8606 104.382L70.9904 101.974L70.1579 102.203L69.2635 101.589L71.9827 100.84L75.2811 99.6429L75.4894 99.7654L79.6959 97.7581L79.7191 97.7693L80.152 97.5357C80.0758 97.5083 80.01 97.4816 79.9537 97.4558C79.2839 97.1893 78.775 96.971 78.4268 96.8012C78.0787 96.6313 77.7956 96.4013 77.5774 96.1116C77.3726 95.8392 77.2717 95.5725 77.2747 95.3116C77.2775 95.0511 77.4224 94.8372 77.7091 94.67C77.976 94.5144 78.2992 94.4525 78.6784 94.4841C78.797 94.4908 78.9621 94.521 79.1734 94.5748L79.1341 94.8062C79.0747 94.8027 79.027 94.8055 78.9907 94.814C78.875 94.8307 78.768 94.8681 78.669 94.9255C78.5406 95.0004 78.4353 95.1155 78.353 95.2711C78.2708 95.4261 78.2453 95.5863 78.277 95.7511C78.3086 95.9161 78.3902 96.0863 78.5226 96.262C78.6483 96.4289 78.7785 96.5645 78.914 96.6689C79.0494 96.7731 79.2095 96.8726 79.3944 96.9671C79.6878 97.1117 79.9833 97.2303 80.28 97.3224C80.3316 97.3356 80.3917 97.3512 80.4605 97.3693L82.0534 96.5103L82.1238 96.539L84.7542 94.8232L87.661 92.5524L87.7296 92.5667L88.4369 91.9524L88.428 91.9517L91.7566 88.3767L91.848 88.3839L93.0997 86.7683L94.2178 86.7826ZM95.3669 90.3036L92.7327 88.6993L92.1202 89.489L91.9277 89.4888L91.1887 90.2823L93.689 92.106L95.3669 90.3036ZM91.2242 95.0419L90.9591 94.8038C90.7343 94.7679 90.5445 94.7507 90.3891 94.7523C89.7067 94.7502 89.1483 94.9189 88.7135 95.2584C88.6336 95.3208 88.5716 95.3692 88.5272 95.4039C88.2131 95.7057 88.0363 96.0303 87.9993 96.3797C87.9621 96.7292 88.0851 97.045 88.3721 97.3314C88.6592 97.6176 88.9464 97.7701 89.2318 97.7865C89.5195 97.805 89.7996 97.7058 90.0744 97.4911C90.2874 97.3246 90.4837 97.0867 90.6637 96.7772C90.8437 96.4678 90.9786 96.1367 91.0685 95.7848C91.1254 95.5576 91.1737 95.3296 91.2136 95.1014C91.2171 95.0828 91.2204 95.0628 91.2242 95.0419ZM80.2292 101.962L78.5472 99.241L76.7178 100.114L78.3741 102.793C78.452 102.876 78.5106 102.938 78.5497 102.979C78.8645 103.248 79.1923 103.319 79.5325 103.193C79.8889 103.071 80.1127 102.832 80.2036 102.477C80.2308 102.368 80.2394 102.196 80.2292 101.962ZM81.4456 108.582L81.2487 108.859L80.3721 108.391C79.9509 108.179 79.6965 108.05 79.6094 108.001C79.2239 107.811 78.8839 107.69 78.589 107.637C78.2945 107.584 78.0046 107.61 77.7195 107.713C77.1602 107.916 76.8763 108.253 76.8676 108.723C76.8683 108.78 76.8751 108.834 76.8871 108.887C76.8991 108.94 76.9167 108.99 76.9397 109.039C77.0822 109.34 77.3456 109.421 77.7293 109.282C77.883 109.226 78.0233 109.15 78.1506 109.052C78.2779 108.955 78.3897 108.831 78.4865 108.682C78.5164 108.637 78.5569 108.56 78.6079 108.45L79.4568 108.86C79.3777 108.991 79.309 109.09 79.2506 109.157C79.0409 109.393 78.7989 109.56 78.5248 109.66C78.3493 109.724 78.1822 109.764 78.0236 109.782C77.8649 109.8 77.6727 109.787 77.4467 109.744C76.7933 109.639 76.3493 109.339 76.1147 108.843C76.0319 108.668 75.9942 108.493 76.0022 108.32C76.0142 107.802 76.322 107.435 76.9251 107.216C77.4184 107.037 77.9637 107.021 78.5604 107.169C78.8734 107.26 79.2126 107.393 79.5783 107.568C79.7789 107.666 80.0275 107.798 80.3243 107.964L81.4456 108.582ZM75.2299 104.138L73.8353 101.191L71.8735 101.731L72.7821 104.244C72.8995 104.466 73.0065 104.624 73.1031 104.718C73.4188 105.007 73.8146 105.085 74.2901 104.954C74.5734 104.876 74.874 104.622 75.1916 104.193C75.2041 104.176 75.2167 104.158 75.2299 104.138ZM66.8745 102.734L65.1823 102.952L66.3367 109.58L65.3139 109.09L64.673 105.409L62.7017 105.478C62.3941 105.51 62.1645 105.554 62.013 105.612C61.5595 105.807 61.3462 106.151 61.3732 106.644C61.3928 107.001 61.5048 107.368 61.71 107.745C61.9148 108.122 62.182 108.493 62.5114 108.861C62.7023 109.086 62.8477 109.244 62.9479 109.335C62.9858 109.375 63.042 109.426 63.1169 109.486L62.7589 109.799L61.5423 108.437C61.2236 108.048 60.9707 107.671 60.7844 107.304C60.5977 106.937 60.4957 106.591 60.4779 106.265C60.441 105.594 60.737 105.125 61.3652 104.862C61.5749 104.781 61.8928 104.717 62.3187 104.671L64.5309 104.594L64.3015 103.276L59.7522 103.435L59.6619 103.33L59.0811 103.324L59.0493 110.037L58.1247 109.396L58.1536 103.313L57.0657 103.301L57.0016 103.215L56.5459 103.182L55.9854 109.857L55.1118 109.177L55.6112 103.229L53.8403 102.961L53.5853 104.344C53.5777 104.385 53.5595 104.42 53.5301 104.447C53.5009 104.475 53.4405 104.508 53.3487 104.547C53.257 104.587 53.1756 104.603 53.1042 104.598C53.0327 104.593 52.9737 104.586 52.9267 104.579L50.9547 104.281C50.7066 104.254 50.5198 104.252 50.395 104.276C50.0041 104.365 49.7689 104.628 49.6885 105.063C49.6277 105.394 49.6673 105.701 49.8084 105.983C49.9496 106.265 50.1287 106.471 50.3463 106.599C50.4758 106.683 50.6031 106.745 50.7283 106.785C50.8537 106.825 50.9868 106.856 51.1275 106.877C51.3153 106.906 51.502 106.907 51.6876 106.882C51.7112 106.886 51.7424 106.88 51.7813 106.864C51.7047 106.757 51.6545 106.67 51.6308 106.602C51.5378 106.386 51.5243 106.198 51.5899 106.037C51.6483 105.918 51.7888 105.876 52.0118 105.909C52.3285 105.957 52.6447 106.109 52.9594 106.364C53.2743 106.62 53.3637 106.854 53.228 107.068C53.1268 107.223 53.0022 107.342 52.8541 107.426C52.8132 107.452 52.7477 107.479 52.6579 107.508L53.2909 110.063L52.7113 110.212L52.0578 107.721C51.9953 107.732 51.9158 107.739 51.8189 107.74C51.7221 107.741 51.6208 107.734 51.5154 107.718C51.2453 107.677 51.0105 107.61 50.8107 107.516C50.5227 107.376 50.2463 107.175 49.9811 106.911C49.6043 106.535 49.3215 106.138 49.133 105.721C48.9444 105.304 48.8837 104.914 48.9504 104.552C48.9885 104.345 49.0916 104.129 49.26 103.904C49.428 103.679 49.6995 103.532 50.0745 103.461C50.1995 103.437 50.3705 103.426 50.5877 103.427L52.7353 103.752L52.9072 102.82L50.5142 102.458L50.6191 102.788L48.705 102.216L48.2082 103.544C48.1932 103.584 48.1688 103.616 48.1351 103.639C48.1013 103.662 48.0356 103.686 47.9379 103.712C47.8403 103.738 47.7565 103.744 47.687 103.729C47.6174 103.713 47.56 103.699 47.5148 103.685L45.6173 103.118C45.3766 103.058 45.1922 103.03 45.0644 103.036C44.6622 103.071 44.3829 103.297 44.2265 103.715C44.1076 104.033 44.0926 104.341 44.1823 104.639C44.2717 104.937 44.4126 105.165 44.605 105.321C44.7182 105.421 44.8333 105.5 44.95 105.557C45.0668 105.614 45.193 105.663 45.3283 105.704C45.5092 105.758 45.6936 105.785 45.8816 105.786C45.9041 105.793 45.936 105.791 45.9774 105.781C45.9206 105.665 45.8864 105.572 45.8748 105.502C45.8214 105.276 45.8411 105.088 45.9349 104.939C46.0131 104.83 46.1597 104.807 46.3744 104.871C46.6792 104.962 46.9649 105.156 47.2311 105.451C47.4974 105.746 47.5443 105.99 47.3721 106.182C47.2449 106.321 47.1005 106.421 46.939 106.483C46.8939 106.503 46.8245 106.521 46.7304 106.537L46.904 109.145L46.3045 109.212L46.0993 106.664C46.0353 106.667 45.9554 106.663 45.8595 106.65C45.7635 106.638 45.6651 106.617 45.5632 106.587C45.3033 106.509 45.083 106.41 44.9021 106.289C44.6419 106.112 44.404 105.875 44.1888 105.579C43.8825 105.155 43.6733 104.725 43.5604 104.287C43.4479 103.85 43.4565 103.457 43.587 103.109C43.6614 102.91 43.8016 102.711 44.0076 102.513C44.2136 102.315 44.5083 102.206 44.8919 102.188C45.0199 102.182 45.1908 102.194 45.4055 102.225L47.472 102.843L47.8069 101.948L43.9108 100.783L43.6081 99.83L48.7065 101.354L54.2409 102.192L57.6995 102.445L57.7278 102.489L58.3182 102.495C58.1288 102.294 57.9867 102.124 57.8925 101.986C57.5972 101.563 57.4504 101.162 57.4523 100.783C57.4537 100.447 57.5563 100.141 57.7598 99.8653C57.9634 99.5892 58.2198 99.3872 58.5295 99.2592C58.8394 99.1315 59.1907 99.0696 59.5831 99.0742C60.1181 99.0807 60.5933 99.2067 61.0083 99.453C61.5182 99.7425 62.0276 100.147 62.5363 100.668C62.6902 100.827 62.8856 101.05 63.1219 101.337L63.1194 101.872C62.9304 101.597 62.765 101.38 62.623 101.221C62.1736 100.711 61.6817 100.306 61.1484 100.006C60.9823 99.9097 60.8042 99.8366 60.6144 99.7872C60.4241 99.7378 60.2043 99.7115 59.9546 99.7088C59.4551 99.7031 59.0502 99.8403 58.7395 100.12C58.5487 100.287 58.411 100.466 58.3269 100.66C58.2428 100.853 58.2002 101.049 58.1991 101.249C58.1977 101.533 58.2737 101.828 58.4269 102.134C58.4739 102.229 58.5506 102.351 58.6569 102.499L60.1733 102.517L60.2341 102.598L62.4586 102.52L62.4142 102.478L66.1162 102.003L66.8745 102.734ZM34.4748 100.604L36.9861 97.4825L35.3543 96.4516L34.6752 97.296C34.6477 97.3298 34.5963 97.3939 34.5208 97.4878C34.4453 97.5816 34.3593 97.643 34.2628 97.672C34.166 97.701 34.0347 97.6823 33.8683 97.6158C33.8489 97.6034 33.8164 97.5894 33.7707 97.5733L32.0079 96.4594C31.8806 96.4176 31.7857 96.3899 31.7235 96.3764C31.5132 96.3462 31.376 96.4074 31.3118 96.56C31.2043 96.8393 31.2557 97.1034 31.4658 97.3519C31.5327 97.4327 31.6501 97.5325 31.8181 97.6516C31.9288 97.6958 32.0508 97.7537 32.184 97.8249C32.3171 97.8961 32.4808 97.993 32.6749 98.1158C32.9859 98.3123 33.2273 98.5036 33.3998 98.6898C33.5724 98.8759 33.6217 99.0421 33.5479 99.1884C33.4741 99.3347 33.4339 99.4123 33.427 99.4209C33.3035 99.5741 33.1009 99.562 32.8193 99.384C32.7126 99.3164 32.5899 99.2229 32.4517 99.1036C32.3133 98.984 32.2198 98.9088 32.1715 98.8784C31.8801 98.6941 31.5769 98.6246 31.2622 98.6703C30.9471 98.7157 30.7144 98.8322 30.5634 99.0198C30.3165 99.3268 30.2044 99.5841 30.2278 99.7919C30.2513 99.9995 30.3745 100.174 30.5979 100.315C30.8117 100.45 31.0873 100.554 31.4248 100.626C31.5855 100.663 31.8615 100.702 32.2527 100.744C32.8118 100.814 33.3397 100.813 33.8371 100.741C34.0026 100.717 34.2153 100.671 34.4748 100.604ZM31.026 93.3966L31.0113 93.4648L31.0568 93.4225L31.026 93.3966ZM28.5614 95.7477L28.8073 95.5185C28.8398 95.3137 28.8518 95.1414 28.8431 95.0015C28.8158 94.3989 28.6006 93.9102 28.1975 93.5353C28.1236 93.4664 28.0659 93.4129 28.025 93.3745C27.6697 93.1049 27.295 92.9573 26.8981 92.9338C26.5012 92.9101 26.1489 93.027 25.8378 93.2881C25.5264 93.549 25.3666 93.8069 25.3606 94.0592C25.3523 94.3136 25.4765 94.5583 25.7315 94.7955C25.9289 94.9791 26.2066 95.1462 26.5647 95.297C26.9226 95.4478 27.3027 95.5583 27.7046 95.6286C27.9643 95.6727 28.2242 95.7094 28.4843 95.7387C28.5083 95.7419 28.5339 95.7447 28.5614 95.7477Z" fill="white"/>
<path d="M97.5094 60.0958H96.0996L96.0539 58.219L95.913 56.37L95.6793 54.5485L95.3605 52.7565L94.9535 50.9939L94.4607 49.2684L93.887 47.5769L93.235 45.9216L92.5039 44.3104L91.6992 42.7402L90.8203 41.2134L89.8696 39.7377L88.8521 38.3099L87.7701 36.9324L86.6234 35.613L85.4143 34.3486L84.1475 33.1416L82.8259 31.9968L81.446 30.9167L80.0157 29.901L78.5374 28.952L77.0077 28.0746L75.435 27.2714L73.8209 26.5415L72.1628 25.8906L70.4683 25.318L68.7398 24.826L66.974 24.4197L65.179 24.1014L63.3542 23.8682L61.502 23.7275L59.6219 23.682V22.2745L61.568 22.3256L63.4919 22.4718L65.3883 22.7107L67.2549 23.0454L69.0868 23.4681L70.8869 23.9766L72.6474 24.5712L74.3661 25.2496L76.0462 26.0068L77.6797 26.8432L79.2643 27.7535L80.8033 28.7356L82.2886 29.7897L83.7181 30.9138L85.0949 32.1025L86.411 33.3535L87.6644 34.6674L88.8551 36.0418L89.9811 37.4688L91.0372 38.9515L92.021 40.4877L92.9328 42.0696L93.7707 43.7003L94.5291 45.3773L95.2087 47.093L95.8044 48.8505L96.3139 50.6475L96.7373 52.4762L97.0726 54.3396L97.3119 56.2326L97.4583 58.153L97.5094 60.0958ZM59.6219 97.9171V96.5096L61.502 96.4642L63.3542 96.3235L65.179 96.0902L66.974 95.7719L68.7398 95.3656L70.4683 94.8736L72.1628 94.301L73.8209 93.6501L75.435 92.9203L77.0077 92.117L78.5374 91.2397L80.0157 90.2906L81.446 89.275L82.8259 88.1949L84.1475 87.05L85.4143 85.843L86.6234 84.5787L87.7701 83.2592L88.8521 81.8818L89.8696 80.454L90.8203 78.9782L91.6992 77.4514L92.5039 75.8812L93.235 74.27L93.887 72.6148L94.4607 70.9232L94.9535 69.1978L95.3605 67.4352L95.6793 65.6431L95.913 63.8217L96.0539 61.9726L96.0996 60.0958H97.5094L97.4583 62.0386L97.3119 63.959L97.0726 65.8521L96.7373 67.7155L96.3139 69.5441L95.8044 71.3411L95.2087 73.0987L94.5291 74.8144L93.7707 76.4914L92.9328 78.1221L92.021 79.704L91.0372 81.2402L89.9811 82.7229L88.8551 84.1499L87.6644 85.5243L86.411 86.8382L85.0949 88.0892L83.7181 89.2778L82.2886 90.4019L80.8033 91.456L79.2643 92.4382L77.6797 93.3485L76.0462 94.1849L74.3661 94.942L72.6474 95.6205L70.8869 96.2151L69.0868 96.7235L67.2549 97.1463L65.3883 97.481L63.4919 97.7199L61.568 97.8661L59.6219 97.9171ZM21.7344 60.0958H23.1442L23.1899 61.9726L23.3308 63.8217L23.5644 65.6431L23.8833 67.4352L24.2903 69.1978L24.7831 70.9232L25.3567 72.6148L26.0088 74.27L26.7398 75.8812L27.5446 77.4514L28.4234 78.9782L29.3741 80.454L30.3917 81.8818L31.4736 83.2592L32.6204 84.5787L33.8295 85.843L35.0962 87.05L36.4178 88.1949L37.7977 89.275L39.2281 90.2906L40.7064 91.2397L42.236 92.117L43.8088 92.9203L45.4228 93.6501L47.081 94.301L48.7755 94.8736L50.504 95.3656L52.2698 95.7719L54.0648 96.0902L55.8896 96.3235L57.7418 96.4642L59.6219 96.5096V97.9171L57.6757 97.8661L55.7519 97.7199L53.8554 97.481L51.9889 97.1463L50.157 96.7235L48.3569 96.2151L46.5963 95.6205L44.8776 94.942L43.1975 94.1849L41.5641 93.3485L39.9795 92.4382L38.4404 91.456L36.9552 90.4019L35.5256 89.2778L34.1489 88.0892L32.8327 86.8382L31.5794 85.5243L30.3886 84.1499L29.2626 82.7229L28.2066 81.2402L27.2227 79.704L26.3109 78.1221L25.4731 76.4914L24.7146 74.8144L24.0351 73.0987L23.4394 71.3411L22.9299 69.5441L22.5064 67.7155L22.1711 65.8521L21.9318 63.959L21.7855 62.0386L21.7344 60.0958ZM59.6219 22.2745V23.682L57.7418 23.7275L55.8896 23.8682L54.0648 24.1014L52.2698 24.4197L50.504 24.826L48.7755 25.318L47.081 25.8906L45.4228 26.5415L43.8088 27.2714L42.236 28.0746L40.7064 28.952L39.2281 29.901L37.7977 30.9167L36.4178 31.9968L35.0962 33.1416L33.8295 34.3486L32.6204 35.613L31.4736 36.9324L30.3917 38.3099L29.3741 39.7377L28.4234 41.2134L27.5446 42.7402L26.7398 44.3104L26.0088 45.9216L25.3567 47.5769L24.7831 49.2684L24.2903 50.9939L23.8833 52.7565L23.5644 54.5485L23.3308 56.37L23.1899 58.219L23.1442 60.0958H21.7344L21.7855 58.153L21.9318 56.2326L22.1711 54.3396L22.5064 52.4762L22.9299 50.6475L23.4394 48.8505L24.0351 47.093L24.7146 45.3773L25.4731 43.7003L26.3109 42.0696L27.2227 40.4877L28.2066 38.9515L29.2626 37.4688L30.3886 36.0418L31.5794 34.6674L32.8327 33.3535L34.1489 32.1025L35.5256 30.9138L36.9552 29.7897L38.4404 28.7356L39.9795 27.7535L41.5641 26.8432L43.1975 26.0068L44.8776 25.2496L46.5963 24.5712L48.3569 23.9766L50.157 23.4681L51.9889 23.0454L53.8554 22.7107L55.7519 22.4718L57.6757 22.3256L59.6219 22.2745Z" fill="white"/>
<path d="M59.4766 52.6351V48.4849H59.7771V52.6351H59.4766Z" fill="white"/>
<path d="M57.403 52.9091L56.4766 48.8561L56.7688 48.7892L57.6953 52.8422L57.403 52.9091Z" fill="white"/>
<path d="M53.8989 49.7534L55.7128 53.5142L55.4428 53.6444L53.6289 49.8837L53.8989 49.7534Z" fill="white"/>
<path d="M63.5312 53.5153L65.3417 49.7546L65.6117 49.8837L63.8013 53.6444L63.5312 53.5153Z" fill="white"/>
<path d="M61.5586 52.8429L62.4822 48.7899L62.7745 48.8556L61.8508 52.9086L61.5586 52.8429Z" fill="white"/>
<path d="M62.5664 53.1211L63.2922 51.05L63.5751 51.1485L62.8493 53.2196L62.5664 53.1211Z" fill="white"/>
<path d="M60.5195 52.6794L60.7615 50.5108L61.0596 50.5437L60.8177 52.7123L60.5195 52.6794Z" fill="white"/>
<path d="M58.4273 52.7142L58.1836 50.5438L58.4818 50.5109L58.7255 52.6813L58.4273 52.7142Z" fill="white"/>
<path d="M56.3971 53.2201L55.6719 51.149L55.9548 51.0505L56.68 53.1216L56.3971 53.2201Z" fill="white"/>
<path fill-rule="evenodd" clip-rule="evenodd" d="M50.6942 63.397L68.5928 63.4037C68.706 62.8197 68.7644 62.22 68.7644 61.6068C68.7644 56.5048 64.6805 52.3696 59.6464 52.3696C54.6073 52.3696 50.5234 56.5048 50.5234 61.6068C50.5234 62.22 50.5801 62.8178 50.6942 63.397Z" fill="url(#paint0_radial_747_1018)"/>
<path d="M68.7378 63.4306L68.5906 63.5519L50.692 63.5452V63.2463L68.5906 63.2529L68.7378 63.4306ZM68.7378 63.4306L68.7143 63.5519H68.5906L68.7378 63.4306ZM68.612 61.6055H68.9124L68.9117 61.6636L68.9114 61.7215L68.9107 61.78L68.9093 61.8378L68.9079 61.896L68.9061 61.9537L68.904 62.0118L68.9016 62.0699L68.8988 62.1272L68.8956 62.1847L68.892 62.2424L68.8881 62.3L68.8839 62.3571L68.8793 62.4147L68.8739 62.4716L68.8686 62.529L68.8631 62.5857L68.8571 62.643L68.851 62.6995L68.8444 62.7565L68.8369 62.8129L68.8297 62.8698L68.8222 62.9265L68.8143 62.9826L68.8061 63.0392L68.797 63.0951L68.7882 63.1515L68.779 63.2073L68.7695 63.2636L68.7591 63.319L68.749 63.3746L68.7386 63.4306L68.4441 63.3743L68.4546 63.3207L68.4647 63.2663L68.4739 63.212L68.4834 63.1581L68.4926 63.1036L68.5014 63.0493L68.5093 62.9946L68.5176 62.9404L68.5254 62.8855L68.5329 62.8311L68.5401 62.7766L68.5464 62.7214L68.553 62.6666L68.5591 62.6112L68.5651 62.5563L68.5707 62.5008L68.5759 62.4458L68.5802 62.3901L68.5847 62.3349L68.5889 62.279L68.5929 62.2236L68.5964 62.1682L68.5996 62.112L68.6024 62.0558L68.6048 62.0001L68.6069 61.9444L68.6087 61.8879L68.6101 61.8319L68.6115 61.7752L68.6122 61.7191L68.6125 61.6624L68.612 61.6055ZM59.6442 52.5184V52.2183L60.1209 52.2309L60.5914 52.2671L61.0553 52.3271L61.5113 52.4095L61.9599 52.5143L62.3995 52.6405L62.8308 52.7887L63.2513 52.9564L63.6622 53.1443L64.0617 53.3518L64.45 53.5784L64.826 53.8221L65.1893 54.0844L65.5396 54.3627L65.8758 54.6577L66.1978 54.9687L66.5044 55.2949L66.7957 55.6353L67.0711 55.9901L67.3295 56.358L67.5703 56.7387L67.7935 57.1319L67.9983 57.5367L68.1839 57.9523L68.3496 58.3788L68.4953 58.8144L68.6206 59.2605L68.7235 59.7144L68.8055 60.1763L68.8641 60.6463L68.8999 61.1231L68.9124 61.6055H68.612L68.6007 61.1372L68.5661 60.6757L68.5087 60.2209L68.4303 59.7731L68.3295 59.3332L68.209 58.9025L68.068 58.4797L67.9069 58.0673L67.7273 57.6646L67.5294 57.2727L67.3133 56.8924L67.0795 56.5233L66.8295 56.1671L66.5634 55.824L66.2814 55.4941L65.9843 55.1786L65.6728 54.8781L65.3472 54.5924L65.0086 54.3222L64.6569 54.0695L64.2929 53.8327L63.9175 53.6144L63.5308 53.4139L63.1341 53.2319L62.7265 53.0688L62.3104 52.9266L61.8849 52.804L61.4514 52.7024L61.0095 52.6225L60.5609 52.5649L60.1057 52.5298L59.6442 52.5184ZM50.6714 61.6055H50.3711L50.3836 61.1231L50.4194 60.6463L50.478 60.1763L50.56 59.7144L50.6629 59.2605L50.7882 58.8144L50.934 58.3788L51.0996 57.9523L51.2853 57.5367L51.4902 57.1319L51.7134 56.7387L51.9548 56.3574L52.2133 55.9901L52.4882 55.6353L52.7795 55.2949L53.0863 54.9687L53.4084 54.6577L53.7447 54.3627L54.0951 54.0838L54.4587 53.8221L54.8347 53.5778L55.2233 53.3518L55.6231 53.1443L56.0342 52.9564L56.455 52.7881L56.8865 52.6405L57.3266 52.5143L57.7754 52.4095L58.2318 52.3271L58.6961 52.2671L59.1671 52.2309L59.6442 52.2183V52.5184L59.1824 52.5298L58.7267 52.5649L58.2777 52.6225L57.8354 52.7024L57.4016 52.804L56.9756 52.9266L56.5594 53.0694L56.1515 53.2319L55.7544 53.4139L55.3675 53.6144L54.9919 53.8333L54.6277 54.0695L54.2759 54.3228L53.9371 54.5924L53.6113 54.8781L53.2998 55.1786L53.0025 55.4941L52.7205 55.824L52.4537 56.1671L52.2035 56.5239L51.9703 56.8924L51.7543 57.2727L51.5563 57.6646L51.3766 58.0673L51.2155 58.4797L51.0745 58.9025L50.954 59.3332L50.8532 59.7731L50.7748 60.2209L50.7174 60.6757L50.6828 61.1372L50.6714 61.6055ZM50.692 63.2463V63.5452L50.5448 63.4245L50.5343 63.369L50.5241 63.3139L50.5136 63.2581L50.5041 63.2029L50.4949 63.1469L50.486 63.0909L50.4769 63.0353L50.4688 62.979L50.461 62.9232L50.4534 62.8667L50.4463 62.8107L50.4388 62.754L50.4324 62.6978L50.4261 62.641L50.4204 62.584L50.4148 62.5275L50.4091 62.4702L50.4043 62.4135L50.3997 62.3561L50.3956 62.2992L50.3918 62.2417L50.3883 62.1841L50.3852 62.1269L50.3824 62.069L50.3799 62.0115L50.3778 61.9535L50.3761 61.8959L50.3747 61.8377L50.3736 61.78L50.3729 61.7215L50.3726 61.6636L50.3719 61.6055H50.6722L50.6719 61.6624L50.6722 61.7191L50.6729 61.7752L50.674 61.8318L50.6754 61.8878L50.6771 61.9442L50.6792 61.9998L50.6817 62.0561L50.6845 62.1116L50.6876 62.1676L50.6911 62.2229L50.6949 62.2782L50.6991 62.3339L50.7036 62.3889L50.7084 62.4444L50.713 62.4994L50.7185 62.5546L50.7243 62.6093L50.7305 62.6639L50.737 62.7189L50.7432 62.7732L50.7504 62.828L50.7579 62.8821L50.7657 62.9368L50.7739 62.9907L50.7818 63.0451L50.7906 63.0989L50.7998 63.1525L50.8094 63.2065L50.8186 63.26L50.8288 63.3139L50.8393 63.367L50.692 63.2463ZM50.692 63.5452H50.5686L50.5448 63.4245L50.692 63.5452Z" fill="white"/>
<path fill-rule="evenodd" clip-rule="evenodd" d="M46.7173 67.5955C46.7 67.6429 46.6881 67.6901 46.6881 67.7175C46.6881 67.7631 46.7173 67.7761 46.8416 67.7761H47.4362C47.5422 67.7761 47.5715 67.7631 47.5778 67.7305C47.5778 67.7175 47.5815 67.7305 47.5422 67.6182L47.1027 66.5404L46.7173 67.5955ZM46.333 68.8263C46.2983 68.943 46.2736 69.048 46.2736 69.1002C46.2736 69.2113 46.3557 69.257 46.573 69.2632C46.7487 69.2689 46.8115 69.298 46.8115 69.3693C46.8115 69.4257 46.7595 69.455 46.6546 69.455H46.5896L46.4144 69.4442H46.333C46.2052 69.4395 46.0828 69.4338 45.9878 69.4338C45.8443 69.4338 45.7028 69.4395 45.5631 69.4442C45.5157 69.4496 45.5038 69.4496 45.4469 69.4496C45.3823 69.4496 45.3477 69.4222 45.3477 69.3565C45.3477 69.2928 45.3924 69.2689 45.5284 69.257C45.7858 69.236 45.8262 69.2005 45.9605 68.9128C46.0701 68.6747 46.1749 68.4228 46.4098 67.817C46.5842 67.3681 46.6071 67.316 46.8364 66.6975L46.9512 66.3836L47.0747 66.0668C47.1404 65.888 47.1924 65.7603 47.1979 65.731C47.2873 65.4801 47.2966 65.461 47.3659 65.461C47.4298 65.461 47.4535 65.4966 47.5486 65.7702C47.6052 65.9346 47.6637 66.0914 47.7284 66.244L48.7028 68.6108C48.9541 69.2113 48.9713 69.236 49.3045 69.2835C49.3568 69.2871 49.3915 69.3281 49.3915 69.3693C49.3915 69.4257 49.346 69.455 49.2575 69.455C49.2354 69.455 49.1806 69.4496 49.1357 69.4496C48.996 69.4395 48.7339 69.4257 48.5231 69.4257C48.3111 69.4257 48.2946 69.4257 47.8729 69.455C47.8564 69.4623 47.8098 69.4623 47.7796 69.4623C47.6937 69.4623 47.6518 69.4395 47.6518 69.3812C47.6518 69.3109 47.7093 69.2835 47.88 69.2632C48.039 69.2516 48.1066 69.2113 48.1019 69.1301C48.0954 69.0844 48.0854 69.0199 48.0544 68.9378L47.7888 68.1903C47.7157 68.0096 47.7093 68.0034 47.5294 68.0034H46.7778C46.5969 68.0034 46.5969 68.0034 46.544 68.1611L46.333 68.8263Z" fill="white"/>
<path fill-rule="evenodd" clip-rule="evenodd" d="M50.9276 67.1692C50.9276 67.3983 50.933 67.3983 51.2453 67.3983C51.8106 67.3983 52.0845 67.1408 52.0845 66.6117C52.0845 66.0623 51.7532 65.7183 51.2251 65.7183C50.9823 65.7183 50.9276 65.7888 50.9276 66.1198V67.1692ZM49.889 65.5386C49.9358 65.5386 49.8957 65.5386 50.1229 65.5496C50.2928 65.5596 50.397 65.5596 50.5613 65.5596C50.7414 65.5596 50.9222 65.555 51.1276 65.5496C51.3185 65.5439 51.5231 65.5386 51.5814 65.5386C52.3349 65.5386 52.7916 65.9119 52.7916 66.5157C52.7916 67.0251 52.5111 67.328 51.9332 67.4566C52.0553 67.5324 52.1249 67.6117 52.2362 67.8059L52.8363 68.8737C53.0474 69.2516 53.0536 69.2516 53.3933 69.2928C53.438 69.298 53.4803 69.3408 53.4803 69.3812C53.4803 69.4338 53.4445 69.4623 53.3933 69.4623C53.3567 69.4623 53.333 69.4623 53.2983 69.455C53.2801 69.455 53.153 69.4496 52.9652 69.4442C52.9066 69.4395 52.8717 69.4395 52.8555 69.4395L52.4591 69.4496C52.3631 69.4496 52.3295 69.4222 52.2491 69.2689L51.501 67.8519C51.3558 67.5828 51.3185 67.5614 51.0573 67.5614C50.9468 67.5614 50.9276 67.579 50.9276 67.7012V68.8263C50.9276 69.1759 50.9823 69.2516 51.2453 69.2689C51.417 69.2835 51.4655 69.3036 51.4655 69.3737C51.4655 69.4395 51.429 69.4623 51.3367 69.4623H51.302C51.2609 69.4623 51.2956 69.4623 51.0673 69.4496C50.8754 69.4442 50.7119 69.4395 50.5841 69.4395C50.4372 69.4395 50.344 69.4442 49.9604 69.455C49.9358 69.4623 49.9193 69.4623 49.889 69.4623H49.8543C49.7613 69.4623 49.7266 69.4395 49.7266 69.3737C49.7266 69.3036 49.7732 69.2835 49.9485 69.2689C50.2043 69.2516 50.2574 69.1759 50.2574 68.8263V66.1716C50.2574 65.8214 50.2043 65.7484 49.9485 65.731C49.7732 65.7183 49.7266 65.6946 49.7266 65.6234C49.7266 65.5596 49.7613 65.5386 49.8543 65.5386H49.889Z" fill="white"/>
<path fill-rule="evenodd" clip-rule="evenodd" d="M58.968 67.3616C58.968 68.4592 59.6083 69.3452 60.4024 69.3452C61.153 69.3452 61.7291 68.5406 61.7291 67.4847C61.7291 66.4417 61.1146 65.6542 60.2908 65.6542C59.5026 65.6542 58.968 66.3476 58.968 67.3616ZM62.4761 67.4445C62.4761 68.5622 61.5083 69.5023 60.355 69.5023C59.1779 69.5023 58.2188 68.6036 58.2188 67.5011C58.2188 66.3651 59.1524 65.4964 60.3658 65.4964C61.5356 65.4964 62.4761 66.3595 62.4761 67.4445Z" fill="white"/>
<path fill-rule="evenodd" clip-rule="evenodd" d="M38.4323 67.2503C38.6497 67.2503 38.6605 67.2395 38.6605 67.0589V66.1716C38.6605 65.8214 38.6085 65.7484 38.3512 65.731C38.1757 65.7183 38.1283 65.6946 38.1283 65.6234C38.1283 65.5596 38.1656 65.5386 38.259 65.5386C38.2871 65.5386 38.3793 65.5439 38.5246 65.5496C38.7311 65.5596 38.8115 65.5596 39.0341 65.5596C39.1621 65.5596 39.2898 65.555 39.4717 65.5496C39.6122 65.5439 39.7056 65.5386 39.7392 65.5386C39.8333 65.5386 39.868 65.5596 39.868 65.6234C39.868 65.6946 39.8224 65.7183 39.6461 65.731C39.384 65.7484 39.3302 65.8214 39.3302 66.1716V68.8263C39.3302 69.1759 39.384 69.2516 39.6461 69.2689C39.8224 69.2835 39.868 69.3036 39.868 69.3737C39.868 69.4395 39.8333 69.4623 39.7392 69.4623H39.7056C39.658 69.4623 39.7 69.4623 39.4717 69.4496C39.2726 69.4442 39.1456 69.4395 38.9932 69.4395C38.8013 69.4395 38.7647 69.4395 38.3576 69.455C38.3375 69.4623 38.3173 69.4623 38.2926 69.4623H38.259C38.1656 69.4623 38.1283 69.4395 38.1283 69.3737C38.1283 69.3036 38.1757 69.2835 38.3512 69.2689C38.6085 69.2516 38.6605 69.1759 38.6605 68.8263V67.6182C38.6605 67.4722 38.6427 67.4611 38.4562 67.4611H37.1365C36.9028 67.4611 36.8972 67.4667 36.8972 67.6074V68.8263C36.8972 69.1759 36.9511 69.2516 37.205 69.2689C37.3813 69.2835 37.4279 69.3036 37.4279 69.3737C37.4279 69.4395 37.3939 69.4623 37.3017 69.4623C37.2718 69.4623 37.1766 69.455 37.0369 69.4496C36.8322 69.4395 36.7456 69.4395 36.5356 69.4395C36.3949 69.4395 36.2735 69.4442 36.0919 69.4496C35.9511 69.455 35.8581 69.4623 35.8242 69.4623C35.7292 69.4623 35.6953 69.4395 35.6953 69.3737C35.6953 69.3036 35.7412 69.2835 35.9182 69.2689C36.1731 69.2516 36.2259 69.1759 36.2259 68.8263V66.1716C36.2259 65.8214 36.1731 65.7484 35.9182 65.731C35.7412 65.7183 35.6953 65.6946 35.6953 65.6234C35.6953 65.5596 35.7292 65.5386 35.8242 65.5386H35.8581C35.9055 65.5386 35.866 65.5386 36.0919 65.5496C36.2436 65.555 36.4416 65.5596 36.5475 65.5596C36.7638 65.5596 36.7886 65.5596 37.2023 65.5439C37.2188 65.5386 37.2435 65.5386 37.2662 65.5386H37.3017C37.3939 65.5386 37.4279 65.5596 37.4279 65.6234C37.4279 65.6946 37.3813 65.7183 37.205 65.731C36.9511 65.7484 36.8972 65.8214 36.8972 66.1716V67.0589C36.8972 67.2503 36.8972 67.2503 37.1026 67.2503H38.4323Z" fill="white"/>
<path fill-rule="evenodd" clip-rule="evenodd" d="M40.8078 66.1716C40.8078 65.8214 40.7559 65.7422 40.4982 65.731C40.3221 65.7183 40.2773 65.6946 40.2773 65.6234C40.2773 65.5596 40.311 65.5386 40.4051 65.5386C40.4163 65.5386 40.469 65.5386 40.5048 65.5439C40.5668 65.5439 40.6251 65.5439 40.6728 65.5496C40.7367 65.555 40.7832 65.555 40.8078 65.555H42.5769C42.7157 65.555 42.8436 65.5496 42.9605 65.5439C43.0133 65.5386 43.0719 65.5386 43.0966 65.5386C43.1651 65.5386 43.177 65.5596 43.177 65.7183V66.2959C43.177 66.3707 43.154 66.4065 43.1066 66.4065C43.0644 66.4065 43.0316 66.3707 42.9961 66.2959C42.8389 65.9683 42.7805 65.9055 42.5677 65.8214C42.4006 65.7603 42.1191 65.722 41.8233 65.722C41.5066 65.722 41.4793 65.7603 41.4793 66.1097V67.0469C41.4793 67.2677 41.5066 67.2931 41.8005 67.2931C42.4372 67.2931 42.5588 67.2292 42.6992 66.8195C42.7157 66.7557 42.7459 66.7267 42.7858 66.7267C42.8389 66.7267 42.8564 66.7494 42.8564 66.8143C42.8564 66.8195 42.8508 66.8901 42.8436 66.9774L42.8389 67.1061L42.8273 67.2395L42.8198 67.3681C42.8135 67.4611 42.8086 67.5324 42.8086 67.5387L42.8336 68.0096C42.8389 68.0734 42.8034 68.121 42.7567 68.121C42.6992 68.121 42.6618 68.0734 42.6353 67.9676C42.5211 67.5443 42.4071 67.4667 41.8625 67.4667C41.4901 67.4667 41.4793 67.4722 41.4793 67.6529V68.7504C41.4793 69.1759 41.5878 69.2632 42.1037 69.2632C42.6764 69.2632 42.8336 69.1603 43.1478 68.5516C43.177 68.5042 43.2071 68.4758 43.2471 68.4758C43.2894 68.4758 43.3155 68.5189 43.3155 68.5624C43.3155 68.6108 43.3056 68.7031 43.2818 68.7961C43.2636 68.8867 43.2528 69.0014 43.2409 69.1412C43.2171 69.455 43.2344 69.4442 42.9367 69.4442H40.8078C40.7832 69.4442 40.7367 69.4442 40.6728 69.4496C40.6251 69.455 40.5668 69.455 40.5048 69.455C40.469 69.4623 40.4163 69.4623 40.4051 69.4623C40.311 69.4623 40.2773 69.4395 40.2773 69.3737C40.2773 69.3036 40.3221 69.2835 40.4982 69.2689C40.7559 69.2516 40.8078 69.1759 40.8078 68.8263V66.1716Z" fill="white"/>
<path fill-rule="evenodd" clip-rule="evenodd" d="M55.3569 68.8263C55.3569 69.1759 55.4088 69.2516 55.6718 69.2689C55.8473 69.2835 55.893 69.3036 55.893 69.3737C55.893 69.4395 55.8581 69.4623 55.7588 69.4623C55.7249 69.4623 55.6665 69.4623 55.4965 69.4496C55.3029 69.4395 55.1348 69.4338 54.9879 69.4338C54.9066 69.4338 54.7139 69.4395 54.5513 69.4496C54.3823 69.4623 54.3222 69.4623 54.2903 69.4623C54.1898 69.4623 54.1542 69.4395 54.1542 69.3737C54.1542 69.3036 54.2006 69.2835 54.3761 69.2689C54.6327 69.2516 54.6847 69.1759 54.6847 68.8263V65.9055C54.6847 65.7702 54.6509 65.7358 54.533 65.7358C54.1431 65.7358 53.9668 65.7638 53.8326 65.8533C53.6994 65.9391 53.4875 66.1716 53.4016 66.3362C53.3486 66.4354 53.3185 66.4601 53.2654 66.4647C53.219 66.4684 53.1797 66.4311 53.1797 66.39C53.1797 66.3597 53.185 66.3307 53.1961 66.2877L53.4547 65.4044C53.4782 65.3167 53.4993 65.2921 53.5477 65.2921C53.5878 65.2921 53.6063 65.3102 53.6225 65.3789C53.6527 65.5138 53.7113 65.555 53.8976 65.555H55.9176C56.1551 65.555 56.4053 65.532 56.5002 65.5092C56.5652 65.4847 56.6107 65.4382 56.641 65.3578C56.6646 65.2921 56.6892 65.2686 56.7267 65.2686C56.7923 65.2686 56.8218 65.3387 56.8161 65.4491L56.8107 65.5249L56.7695 66.2877C56.7642 66.4311 56.7329 66.483 56.6672 66.483C56.6107 66.483 56.5887 66.4474 56.5705 66.3478C56.482 65.8699 56.3202 65.7422 55.7999 65.7422C55.3394 65.7422 55.3569 65.731 55.3569 65.9629V68.8263Z" fill="white"/>
<path fill-rule="evenodd" clip-rule="evenodd" d="M67.7891 69.4442C67.7654 69.4442 67.7233 69.4442 67.6576 69.4496C67.612 69.455 67.5518 69.455 67.4861 69.455C67.4533 69.4623 67.3983 69.4623 67.3856 69.4623C67.296 69.4623 67.2578 69.4395 67.2578 69.3737C67.2578 69.3036 67.3068 69.2835 67.4823 69.2689C67.7363 69.2516 67.7891 69.1759 67.7891 68.8263V66.1716C67.7891 65.8214 67.7363 65.7484 67.4823 65.731C67.3068 65.7183 67.2578 65.6946 67.2578 65.6234C67.2578 65.5596 67.296 65.5386 67.3856 65.5386C67.4275 65.5386 67.4988 65.5439 67.6576 65.5496C67.8733 65.5596 68.0266 65.5649 68.1655 65.5649C68.2405 65.5649 68.421 65.5596 68.6021 65.5496C68.7591 65.5439 68.8303 65.5386 68.8707 65.5386C68.9637 65.5386 68.9983 65.5596 68.9983 65.6234C68.9983 65.6946 68.9527 65.7183 68.7772 65.731C68.5125 65.7484 68.4594 65.8214 68.4594 66.1716V68.6639C68.4594 69.1182 68.589 69.2689 68.9692 69.2689C69.4531 69.2689 69.7909 69.0525 70.043 68.5819C70.0722 68.5243 70.096 68.5042 70.138 68.5042C70.1838 68.5042 70.213 68.5408 70.213 68.6038C70.213 68.6355 70.2075 68.693 70.1947 68.7504C70.1564 68.9542 70.1437 69.048 70.1271 69.3109C70.1144 69.4222 70.085 69.455 69.9717 69.455C69.9572 69.455 69.9152 69.455 69.8751 69.4496C69.8332 69.4442 69.7855 69.4442 69.7345 69.4442H67.7891Z" fill="white"/>
<path fill-rule="evenodd" clip-rule="evenodd" d="M71.6803 68.8263C71.6803 69.1759 71.7351 69.2516 72.0001 69.2689C72.1732 69.2835 72.2208 69.3036 72.2208 69.3737C72.2208 69.4395 72.1844 69.4623 72.0912 69.4623H72.0565C72.0109 69.4623 72.0493 69.4623 71.8208 69.4496C71.6583 69.4442 71.4703 69.4395 71.3388 69.4395C71.1741 69.4395 71.0702 69.4442 70.7139 69.455C70.6882 69.4623 70.6704 69.4623 70.6446 69.4623H70.6098C70.5168 69.4623 70.4766 69.4395 70.4766 69.3737C70.4766 69.3036 70.5258 69.2835 70.7031 69.2689C70.9586 69.2516 71.0136 69.1759 71.0136 68.8263V66.1716C71.0136 65.8214 70.9586 65.7484 70.7031 65.731C70.5258 65.7183 70.4766 65.6946 70.4766 65.6234C70.4766 65.5596 70.5168 65.5386 70.6098 65.5386H70.6446C70.6882 65.5386 70.652 65.5386 70.8747 65.5496C71.0794 65.555 71.1999 65.5596 71.3733 65.5596C71.5361 65.5596 71.5944 65.5596 71.9869 65.5439C72.0109 65.5386 72.0273 65.5386 72.0565 65.5386H72.0912C72.1844 65.5386 72.2208 65.5596 72.2208 65.6234C72.2208 65.6946 72.1732 65.7183 72.0001 65.731C71.7351 65.7484 71.6803 65.8214 71.6803 66.1716V68.8263Z" fill="white"/>
<path fill-rule="evenodd" clip-rule="evenodd" d="M75.5276 66.2609C75.5788 66.1333 75.6154 65.9983 75.6154 65.9288C75.6154 65.7992 75.5241 65.7306 75.3562 65.7216C75.1443 65.718 75.0913 65.7015 75.0913 65.6312C75.0913 65.5646 75.135 65.5382 75.2336 65.5382C75.2593 65.5382 75.3469 65.5436 75.4219 65.5492C75.557 65.5547 75.6793 65.5592 75.7961 65.5592C75.9187 65.5592 76.0299 65.5547 76.1342 65.5436C76.2219 65.5382 76.2911 65.5317 76.3569 65.5317C76.4192 65.5317 76.4558 65.5592 76.4558 65.6123C76.4558 65.6888 76.4465 65.6888 76.1891 65.7306C76.0299 65.7537 75.9533 65.8631 75.7779 66.2955L74.5233 69.4155C74.494 69.4857 74.4538 69.5331 74.4118 69.5331C74.3716 69.5331 74.3368 69.4913 74.3021 69.4016L72.9287 66.1332C72.7955 65.7992 72.7297 65.7354 72.5213 65.718C72.3607 65.7015 72.3203 65.6824 72.3203 65.6185C72.3203 65.5646 72.3607 65.5382 72.4173 65.5382H72.4739C72.7297 65.5492 72.4136 65.5382 73.4546 65.57C73.4673 65.57 73.5662 65.5646 73.6996 65.5547C73.7963 65.5436 73.9096 65.5382 73.9513 65.5382C74.0462 65.5382 74.0866 65.5646 74.0866 65.6185C74.0866 65.6943 74.0866 65.6943 73.8273 65.718C73.6885 65.7354 73.5973 65.7884 73.6027 65.8631C73.6027 65.9052 73.6299 65.9854 73.6828 66.104L74.6803 68.4289L75.5276 66.2609Z" fill="white"/>
<path fill-rule="evenodd" clip-rule="evenodd" d="M77.7663 68.8263C77.7663 69.1759 77.8212 69.2516 78.0823 69.2689C78.2594 69.2835 78.3049 69.3036 78.3049 69.3737C78.3049 69.4395 78.2702 69.4623 78.179 69.4623H78.1409C78.0951 69.4623 78.1353 69.4623 77.907 69.4496C77.7443 69.4442 77.5565 69.4395 77.4246 69.4395C77.2584 69.4395 77.156 69.4442 76.8001 69.455C76.7782 69.4623 76.7563 69.4623 76.7305 69.4623H76.6959C76.6028 69.4623 76.5625 69.4395 76.5625 69.3737C76.5625 69.3036 76.6119 69.2835 76.7874 69.2689C77.0448 69.2516 77.0996 69.1759 77.0996 68.8263V66.1716C77.0996 65.8214 77.0448 65.7484 76.7874 65.731C76.6119 65.7183 76.5625 65.6946 76.5625 65.6234C76.5625 65.5596 76.6028 65.5386 76.6959 65.5386H76.7305C76.7782 65.5386 76.7362 65.5386 76.9607 65.5496C77.1691 65.555 77.2841 65.5596 77.4593 65.5596C77.6221 65.5596 77.6823 65.5596 78.0696 65.5439C78.0951 65.5386 78.1097 65.5386 78.1409 65.5386H78.179C78.2702 65.5386 78.3049 65.5596 78.3049 65.6234C78.3049 65.6946 78.2594 65.7183 78.0823 65.731C77.8212 65.7484 77.7663 65.8214 77.7663 66.1716V68.8263Z" fill="white"/>
<path fill-rule="evenodd" clip-rule="evenodd" d="M82.1364 66.5105C82.1255 65.8409 82.0925 65.7544 81.8113 65.7425C81.5828 65.7313 81.5245 65.7076 81.5245 65.6375C81.5245 65.5782 81.5776 65.5499 81.6724 65.5499C81.6889 65.5499 81.7509 65.5554 81.8113 65.5554C81.9354 65.5653 82.0797 65.5707 82.2551 65.5707C82.4141 65.5707 82.5584 65.5653 82.6697 65.5599C82.7392 65.5554 82.8177 65.5499 82.8431 65.5499C82.9199 65.5499 82.9619 65.5782 82.9619 65.6375C82.9619 65.7122 82.9091 65.7361 82.7153 65.7544C82.4414 65.7752 82.3956 65.8298 82.3956 66.1374L82.4141 69.4023C82.4141 69.5337 82.3829 69.5868 82.3006 69.5868C82.2461 69.5868 82.1912 69.5383 82.1036 69.4341L79.4479 66.11L79.4713 68.2728C79.4826 69.2181 79.4953 69.2427 80.0066 69.2838C80.0816 69.2838 80.118 69.3166 80.118 69.3696C80.118 69.426 80.0705 69.4553 79.9793 69.4553C79.9554 69.4553 79.8699 69.4499 79.7911 69.4445C79.6633 69.4398 79.5409 69.4341 79.4221 69.4341C79.2743 69.4341 79.1282 69.4398 78.982 69.4553C78.8888 69.468 78.7849 69.4745 78.7445 69.4745C78.6789 69.4745 78.6367 69.4445 78.6367 69.3934C78.6367 69.323 78.6534 69.3112 78.9216 69.2746C79.2121 69.2427 79.2248 69.2008 79.2248 68.342V66.267C79.2248 65.7999 79.1847 65.7313 78.9051 65.7223C78.7245 65.7223 78.6698 65.7022 78.6698 65.6319C78.6698 65.5653 78.7191 65.5442 78.8469 65.5442L79.4004 65.5599L79.8038 65.5499C79.9099 65.5499 79.9099 65.5499 80.0377 65.7223L82.1618 68.4425L82.1364 66.5105Z" fill="white"/>
<path fill-rule="evenodd" clip-rule="evenodd" d="M86.1981 68.0916C86.1981 67.8114 86.1103 67.7248 85.807 67.7173C85.608 67.712 85.5605 67.6899 85.5605 67.6115C85.5605 67.5612 85.5953 67.5385 85.6849 67.5385C85.6957 67.5385 85.7816 67.5441 85.8418 67.5441C86.1486 67.556 86.3898 67.5612 86.6527 67.5612C86.8099 67.5612 86.9687 67.556 87.084 67.5441C87.1897 67.5385 87.2959 67.5322 87.3305 67.5322C87.3943 67.5322 87.4273 67.556 87.4273 67.6004C87.4347 67.6718 87.3835 67.6956 87.2008 67.7064C86.956 67.7248 86.8865 67.7879 86.8865 67.9975C86.8865 68.0331 86.892 68.2084 86.9029 68.401C86.9029 68.5002 86.9085 68.641 86.9085 68.7394C86.9085 69.0708 86.9085 69.0708 86.8173 69.1354C86.5014 69.3516 85.9258 69.5023 85.4037 69.5023C84.7497 69.5023 84.2199 69.3107 83.8345 68.932C83.4782 68.5817 83.25 68.0331 83.25 67.5258C83.25 66.9179 83.5786 66.3167 84.1068 65.9446C84.5323 65.6486 85.0637 65.4964 85.7011 65.4964C86.0812 65.4964 86.5834 65.5941 86.6765 65.6889C86.7184 65.7308 86.7184 65.7356 86.7587 65.9726C86.7915 66.1845 86.8042 66.2703 86.8042 66.3305C86.8042 66.3898 86.7752 66.4309 86.7277 66.4352C86.6802 66.4417 86.6363 66.3932 86.5834 66.2875C86.3422 65.8531 86.0281 65.6542 85.5496 65.6542C84.7332 65.6542 84.0373 66.5212 84.0373 67.5441C84.0373 68.5742 84.6876 69.3452 85.5531 69.3452C85.807 69.3452 86.0173 69.2833 86.0975 69.1829C86.1559 69.1 86.1981 68.8916 86.1981 68.6279V68.0916Z" fill="white"/>
<path fill-rule="evenodd" clip-rule="evenodd" d="M63.1215 66.1716C63.1215 65.8214 63.0685 65.7484 62.8126 65.731C62.6375 65.7183 62.5898 65.6946 62.5898 65.6234C62.5898 65.5596 62.6226 65.5386 62.7179 65.5386C62.7287 65.5386 62.7818 65.5386 62.8202 65.5439C62.8803 65.5439 62.9404 65.5439 62.9881 65.5496C63.0503 65.555 63.0976 65.555 63.1215 65.555H64.8639C64.9479 65.555 65.0392 65.555 65.1359 65.5496C65.2274 65.5439 65.3333 65.5386 65.357 65.5386C65.4483 65.5386 65.4667 65.5551 65.4667 65.6488V66.3123C65.4667 66.39 65.4429 66.4354 65.3955 66.4354C65.3279 66.4354 65.3205 66.4227 65.1926 66.1336C65.0758 65.8533 64.7489 65.7358 64.1058 65.7358C63.85 65.7358 63.7917 65.7932 63.7917 66.0623V66.9073C63.7917 67.2987 63.7606 67.2752 64.3161 67.2752C64.6959 67.2752 64.842 67.1692 64.9479 66.8143C64.9716 66.7449 65.0008 66.7147 65.0467 66.7147C65.0978 66.7147 65.1232 66.7449 65.1232 66.8143L65.0978 67.4849C65.0978 67.5828 65.0978 67.6244 65.1105 67.7358C65.1232 67.87 65.1359 68.0034 65.1359 68.0395C65.1359 68.109 65.1049 68.1448 65.0575 68.1448C65.0171 68.1448 64.9862 68.1146 64.9644 68.0691C64.957 68.0508 64.9716 68.0861 64.9351 67.9622L64.9205 67.8881L64.895 67.8059C64.8311 67.5745 64.6392 67.4722 64.2357 67.4722C63.7917 67.4722 63.7917 67.4722 63.7917 67.7596V68.8263C63.7917 69.1759 63.85 69.257 64.1058 69.2689C64.2977 69.2835 64.3415 69.298 64.3415 69.3737C64.3415 69.4395 64.303 69.4623 64.208 69.4623H64.1772C64.1296 69.4623 64.1715 69.4623 63.9414 69.4496C63.779 69.4442 63.5944 69.4395 63.4574 69.4395C63.2822 69.4395 63.1835 69.4442 62.8217 69.455C62.7981 69.4623 62.7818 69.4623 62.7506 69.4623H62.7179C62.6226 69.4623 62.5898 69.4395 62.5898 69.3737C62.5898 69.3036 62.6375 69.2835 62.8126 69.2689C63.0685 69.2516 63.1215 69.1759 63.1215 68.8263V66.1716Z" fill="white"/>
<path fill-rule="evenodd" clip-rule="evenodd" d="M33.9847 68.834C33.9847 69.1851 34.0358 69.261 34.2988 69.2754C34.4732 69.2893 34.5217 69.3139 34.5217 69.3834C34.5217 69.4472 34.4851 69.4698 34.3877 69.4698C34.3511 69.4698 34.2924 69.4699 34.1236 69.459C33.9317 69.4472 33.761 69.4415 33.6168 69.4415C33.5354 69.4415 33.342 69.4472 33.1793 69.459C33.0103 69.4699 32.9519 69.4698 32.9153 69.4698C32.8176 69.4698 32.7819 69.4472 32.7819 69.3834C32.7819 69.3139 32.8303 69.2893 33.0031 69.2754C33.2596 69.261 33.3143 69.1851 33.3143 68.834V65.9129C33.3143 65.7797 33.2777 65.7432 33.1619 65.7432C32.7708 65.7432 32.5948 65.7733 32.4605 65.8599C32.3271 65.9485 32.1163 66.1801 32.0294 66.3426C31.9774 66.444 31.9473 66.4668 31.8935 66.4733C31.8486 66.4787 31.8086 66.4365 31.8086 66.3957C31.8086 66.3683 31.8121 66.3384 31.8258 66.2969L32.0825 65.4118C32.1044 65.3225 32.1291 65.3024 32.1766 65.3024C32.2147 65.3024 32.2341 65.317 32.2505 65.3882C32.2805 65.5222 32.3383 65.5626 32.5261 65.5626H34.5427C34.784 65.5626 35.0349 65.5397 35.1272 65.5151C35.1911 65.4912 35.2386 65.4438 35.2688 65.3646C35.2907 65.3024 35.3154 65.2789 35.3565 65.2789C35.4193 65.2789 35.4484 65.3462 35.4422 65.4576L35.4368 65.5334L35.3965 66.2969C35.3912 66.4365 35.3629 66.4914 35.2972 66.4914C35.2386 66.4914 35.2168 66.4552 35.1984 66.3564C35.1098 65.8782 34.9453 65.7495 34.4285 65.7495C33.9664 65.7495 33.9847 65.7379 33.9847 65.9715V68.834Z" fill="white"/>
<path fill-rule="evenodd" clip-rule="evenodd" d="M87.4831 71.7064H31.7578V71.4064H87.4831V71.7064Z" fill="white"/>
<path d="M53.7949 54.515L51.2031 51.2664L51.4378 51.0801L54.0296 54.3287L53.7949 54.515Z" fill="white"/>
<path d="M52.3827 56.0135L49.1094 53.403L49.2959 53.1685L52.5692 55.7791L52.3827 56.0135Z" fill="white"/>
<path d="M51.3387 57.7772L47.5469 55.952L47.677 55.6825L51.4688 57.5076L51.3387 57.7772Z" fill="white"/>
<path d="M50.7074 59.7228L46.5859 58.7828L46.6516 58.4909L50.7731 59.431L50.7074 59.7228Z" fill="white"/>
<path d="M46.2812 61.457H50.5141V61.756H46.2812V61.457Z" fill="white"/>
<path d="M68.7617 61.4559H72.9938V61.756H68.7617V61.4559Z" fill="white"/>
<path d="M68.5 59.431L72.6168 58.4909L72.6836 58.7828L68.5669 59.7228L68.5 59.431Z" fill="white"/>
<path d="M67.8125 57.5076L71.6043 55.6834L71.7345 55.953L67.9426 57.7772L67.8125 57.5076Z" fill="white"/>
<path d="M66.7148 55.7791L69.9897 53.1685L70.1762 53.403L66.9013 56.0135L66.7148 55.7791Z" fill="white"/>
<path d="M65.2539 54.3287L67.8438 51.0818L68.0786 51.2681L65.4886 54.515L65.2539 54.3287Z" fill="white"/>
<path d="M50.5935 62.7747L48.3259 63.0292L48.293 62.7314L50.5606 62.4769L50.5935 62.7747Z" fill="white"/>
<path d="M68.6875 60.4365L70.9521 60.182L70.985 60.4797L68.7204 60.7343L68.6875 60.4365Z" fill="white"/>
<path d="M68.2148 58.4501L70.3556 57.702L70.4542 57.9845L68.3135 58.7325L68.2148 58.4501Z" fill="white"/>
<path d="M67.3125 56.6117L69.2158 55.4163L69.3753 55.6694L67.472 56.8649L67.3125 56.6117Z" fill="white"/>
<path d="M66.0273 55.0133L67.5962 53.443L67.8085 53.6539L66.2396 55.2242L66.0273 55.0133Z" fill="white"/>
<path d="M64.4062 53.7355L65.5734 51.8803L65.8268 52.0397L64.6596 53.8949L64.4062 53.7355Z" fill="white"/>
<path d="M54.6162 53.8949L53.4492 52.0389L53.7025 51.8795L54.8695 53.7355L54.6162 53.8949Z" fill="white"/>
<path d="M53.0431 55.2257L51.4727 53.6546L51.6849 53.4437L53.2554 55.0148L53.0431 55.2257Z" fill="white"/>
<path d="M51.8054 56.8661L49.9023 55.67L50.0619 55.4168L51.9648 56.613L51.8054 56.8661Z" fill="white"/>
<path d="M50.966 58.7333L48.8242 57.9842L48.9228 57.7017L51.0646 58.4508L50.966 58.7333Z" fill="white"/>
<path d="M68.7204 62.4787L70.985 62.7343L70.9521 63.0321L68.6875 62.7765L68.7204 62.4787Z" fill="white"/>
<path d="M50.5606 60.7343L48.293 60.4797L48.3259 60.182L50.5935 60.4365L50.5606 60.7343Z" fill="white"/>
<path fill-rule="evenodd" clip-rule="evenodd" d="M43.3392 57.7436C43.3904 57.7533 43.5813 57.5884 43.6123 57.4742C43.6462 57.3536 43.607 57.2405 43.5548 57.1513C43.5036 57.0629 43.3512 56.8673 43.3182 56.8072C43.2835 56.745 43.2407 56.6457 43.2518 56.6311C43.2615 56.6184 43.8479 56.4695 43.0097 55.6638C42.7684 55.4321 42.2845 55.0431 41.7537 54.8618C41.2498 54.6883 40.8781 54.6975 40.7419 54.7021C40.6836 54.7028 40.6982 54.7778 40.7209 54.7759C40.7273 54.7759 41.6499 54.8643 42.3566 55.4156C43.0388 55.943 43.0707 56.1575 43.0326 56.2276C43.0041 56.2763 42.8937 56.2717 42.8085 56.234C42.6956 56.1867 42.5967 56.1336 42.6142 56.1072C42.6252 56.0907 42.6853 56.0007 42.646 55.91C42.6079 55.8224 42.521 55.7898 42.4454 55.8052C42.3382 55.8281 42.3028 55.9184 42.3047 55.9731C42.3098 56.1218 42.4479 56.1209 42.4479 56.1519C42.4455 56.1729 42.4032 56.4576 42.2489 56.4624C41.9685 56.4652 41.5173 56.0754 41.425 55.9977C40.9466 55.5999 40.2089 55.5544 39.8224 55.9111C39.404 56.2952 39.467 56.8345 39.6945 57.1432C39.876 57.3966 40.0095 57.5171 40.0752 57.558C40.0973 57.5707 40.1345 57.5838 40.1129 57.541C40.0954 57.5062 39.7987 57.1659 39.8114 56.7233C39.8186 56.5069 39.9075 56.3136 40.0398 56.1979C40.1394 56.1126 40.3811 55.9138 40.8124 56.0007C41.0306 56.0452 41.2726 56.1683 41.5273 56.3728C41.8561 56.6385 42.361 56.7386 42.7053 57.0629C42.848 57.197 43.0097 57.3338 43.0472 57.3786C43.0846 57.4204 43.3092 57.6203 43.3339 57.6676L43.3392 57.7436Z" fill="white"/>
<path fill-rule="evenodd" clip-rule="evenodd" d="M34.3078 59.6814C34.4505 59.7836 34.8028 60.1302 34.8158 60.1413C34.8277 60.1531 35.1781 60.04 35.3026 60.0101C35.4624 59.9743 36.033 59.8721 36.0413 59.8803C36.0504 59.8884 35.9755 59.9936 35.9356 60.0575C35.8952 60.1194 35.856 60.1997 35.8396 60.2336C35.824 60.2692 35.824 60.2582 35.7555 60.272C35.6887 60.2854 35.6495 60.2982 35.4924 60.3258C35.329 60.3586 34.8842 60.5154 34.8623 60.5192C34.8405 60.5237 34.8065 60.471 34.6149 60.3503C34.4221 60.2299 34.3236 60.2105 34.2844 60.2043C34.2496 60.1978 34.3308 60.9443 34.3901 61.2419C34.4475 61.5401 34.5152 61.7895 34.7125 62.3232C34.9115 62.855 35.1977 63.3772 35.1977 63.3772H42.6497C42.6497 63.3772 43.7628 61.9062 43.929 61.0274C44.0716 60.2746 42.9411 59.4954 42.7802 59.3867C42.7282 59.3547 42.7565 59.3301 42.7875 59.3483C42.7931 59.3536 44.3099 60.0163 44.2606 61.0957C44.1483 62.3159 43.1408 63.5533 43.1408 63.5533H34.8834C34.8715 63.5458 34.8322 63.4573 34.7756 63.3462C34.7217 63.2365 34.5137 62.8542 34.392 62.5823C34.2687 62.3132 34.0897 61.8642 34.0001 61.6298C33.9116 61.3976 33.7673 60.8759 33.6961 60.5583C33.6277 60.2408 33.5875 59.8075 33.5691 59.5758C33.5546 59.3421 33.5674 59.2798 33.5754 59.2718C33.5937 59.2571 33.7169 59.3148 33.8404 59.3821C33.8404 59.3821 34.1336 59.5529 34.3078 59.6814Z" fill="white"/>
<path fill-rule="evenodd" clip-rule="evenodd" d="M34.3313 56.2647C34.3798 56.0492 34.4446 55.9427 34.4446 55.9427C34.4446 55.9427 36.1479 55.9233 37.8822 57.3897C39.6172 58.8506 40.1225 59.9912 40.0694 60.0169C40.0171 60.0453 39.5727 59.035 37.6857 57.6542C35.799 56.2757 34.2812 56.6316 34.2812 56.6316C34.2812 56.6316 34.283 56.4689 34.3313 56.2647Z" fill="white"/>
<path fill-rule="evenodd" clip-rule="evenodd" d="M34.2464 57.6845C34.2337 57.4946 34.2536 57.4008 34.2536 57.4008C34.2536 57.4008 34.8964 57.354 35.5312 57.4646C36.4263 57.6215 37.4518 58.2903 37.4518 58.2903L37.2711 58.4528C37.2711 58.4528 36.146 58.0832 35.4592 58.0112C34.7697 57.94 34.2938 57.9921 34.2938 57.9921C34.2938 57.9921 34.2599 57.8798 34.2464 57.6845Z" fill="white"/>
<path fill-rule="evenodd" clip-rule="evenodd" d="M34.5411 59.1556C34.4681 58.9328 34.457 58.8197 34.457 58.8197C34.457 58.8197 35.0351 58.7723 35.5174 58.8062C35.9996 58.8424 36.7127 58.985 36.7127 58.985L36.5521 59.1757C36.5521 59.1757 35.9129 59.2211 35.5319 59.2832C35.1502 59.3463 34.6681 59.506 34.6681 59.506C34.6681 59.506 34.6196 59.3864 34.5411 59.1556Z" fill="white"/>
<path fill-rule="evenodd" clip-rule="evenodd" d="M42.8678 56.598C42.8678 56.598 42.7893 56.6047 42.7071 56.6274C42.6224 56.6492 42.5391 56.685 42.5391 56.685C42.5391 56.685 42.8076 56.8973 42.8898 56.9794C42.9721 57.0637 43.2039 57.2906 43.2129 57.3025C43.2157 57.3062 43.3045 57.2413 43.255 57.1701C43.2039 57.0963 43.1015 56.9576 43.0149 56.8472C42.9602 56.7723 42.8678 56.598 42.8678 56.598Z" fill="white" stroke="white" stroke-width="0.228282" stroke-miterlimit="2.61313"/>
<path fill-rule="evenodd" clip-rule="evenodd" d="M41.746 59.8257C41.0822 59.4014 40.6746 59.126 39.5962 58.3557C38.1596 57.3309 38.5944 56.0269 38.6948 55.8027L38.6965 55.8017C38.725 55.7633 38.7897 55.8053 38.775 55.8474C38.6909 56.0782 38.3899 57.2691 39.8574 58.2043C41.3278 59.1443 41.6154 59.3169 42.0745 59.6005C42.7558 60.0203 42.7632 60.4282 42.7204 60.7592C42.6765 61.0641 42.5112 61.337 42.4865 61.3773C42.4637 61.4081 42.2052 61.1428 41.8108 60.8954C41.3881 60.6261 40.8352 60.4073 40.8161 60.3998C40.7459 60.3682 40.7725 60.3516 40.8042 60.3487C40.8364 60.3469 41.2838 60.3644 41.6547 60.4629C42.0391 60.5705 42.2656 60.7112 42.2747 60.6985C42.2747 60.6985 42.537 60.3232 41.746 59.8257Z" fill="white"/>
<path fill-rule="evenodd" clip-rule="evenodd" d="M75.9426 57.7276C75.8914 57.7359 75.7014 57.5708 75.6703 57.4585C75.6338 57.3381 75.6741 57.224 75.7272 57.1364C75.7799 57.0469 75.9315 56.8509 75.9662 56.7923C75.9972 56.7296 76.0412 56.63 76.0319 56.6165C76.0211 56.6035 75.4328 56.4539 76.275 55.65C76.5108 55.4175 76.9999 55.0285 77.5296 54.8443C78.0321 54.6726 78.4029 54.6799 78.5399 54.6872C78.6 54.6889 78.5837 54.761 78.5617 54.7602C78.5545 54.7602 77.6358 54.8486 76.9252 55.3999C76.2458 55.9265 76.2108 56.1437 76.2512 56.213C76.2803 56.2605 76.3846 56.2549 76.474 56.2183C76.5855 56.1702 76.684 56.119 76.6694 56.0926C76.6602 56.0742 76.5982 55.9839 76.6367 55.8954C76.675 55.8059 76.7591 55.775 76.8338 55.7905C76.9433 55.8134 76.9818 55.9026 76.9799 55.9568C76.9745 56.1063 76.8338 56.1045 76.8338 56.1373C76.8338 56.1564 76.8794 56.4412 77.033 56.4455C77.3142 56.4493 77.7653 56.0587 77.8586 55.9821C78.3371 55.5835 79.073 55.5406 79.4621 55.8962C79.8767 56.2787 79.8129 56.8188 79.5899 57.1272C79.4073 57.3793 79.2704 57.5003 79.2067 57.5426C79.1865 57.5552 79.148 57.57 79.1701 57.5242C79.1881 57.4895 79.4823 57.1491 79.4714 56.7065C79.464 56.4931 79.3725 56.297 79.2412 56.1802C79.1443 56.0963 78.9015 55.8973 78.4687 55.9839C78.2513 56.0276 78.0101 56.1518 77.7563 56.3571C77.4274 56.6207 76.9179 56.724 76.578 57.0469C76.4338 57.1805 76.275 57.32 76.2329 57.3627C76.1981 57.4038 75.9736 57.6037 75.9479 57.6511L75.9426 57.7276Z" fill="white"/>
<path fill-rule="evenodd" clip-rule="evenodd" d="M84.9773 59.6639C84.8328 59.7695 84.4802 60.1137 84.4712 60.1256C84.4548 60.1372 84.106 60.0233 83.98 59.9941C83.8229 59.9583 83.2509 59.8565 83.242 59.8643C83.2312 59.8718 83.3096 59.9777 83.3498 60.0405C83.3899 60.1027 83.4266 60.1848 83.4448 60.2159C83.4594 60.2532 83.4594 60.2413 83.5271 60.2559C83.5945 60.2705 83.631 60.2816 83.7937 60.3106C83.9542 60.3408 84.4 60.5005 84.4219 60.5032C84.4455 60.506 84.4786 60.4547 84.6702 60.3344C84.8605 60.214 84.9609 60.1956 84.9972 60.1883C85.0337 60.1819 84.9533 60.9275 84.8929 61.2269C84.8347 61.5242 84.7689 61.7744 84.5735 62.3072C84.3708 62.8403 84.0858 63.3612 84.0858 63.3612H76.6356C76.6356 63.3612 75.5214 61.8893 75.3551 61.0125C75.2109 60.2578 76.3416 59.4791 76.504 59.3717C76.5551 59.338 76.5277 59.3142 76.4985 59.3325C76.4913 59.3361 74.9753 60.0004 75.0246 61.079C75.134 62.2999 76.1424 63.5355 76.1424 63.5355C76.1424 63.5355 84.4 63.5355 84.4019 63.5355C84.4111 63.5309 84.4529 63.4424 84.5077 63.3301C84.5624 63.2198 84.7708 62.8384 84.8929 62.5674C85.0155 62.298 85.1944 61.8493 85.2841 61.6146C85.3718 61.3828 85.516 60.8599 85.5873 60.5424C85.6566 60.2259 85.6966 59.7897 85.7132 59.5586C85.7315 59.3261 85.715 59.2641 85.7076 59.2568C85.6915 59.2422 85.5671 59.2996 85.4446 59.3672C85.4446 59.3672 85.1525 59.537 84.9773 59.6639Z" fill="white"/>
<path fill-rule="evenodd" clip-rule="evenodd" d="M84.9459 56.2484C84.8983 56.0334 84.8327 55.9262 84.8327 55.9262C84.8327 55.9262 83.1303 55.9054 81.3972 57.3728C79.6618 58.8365 79.1578 59.9752 79.2107 60.0008C79.2619 60.029 79.7075 59.018 81.5926 57.6381C83.4791 56.2588 84.9971 56.6163 84.9971 56.6163C84.9971 56.6163 84.9954 56.452 84.9459 56.2484Z" fill="white"/>
<path fill-rule="evenodd" clip-rule="evenodd" d="M85.0317 57.6696C85.0482 57.4797 85.0264 57.3841 85.0264 57.3841C85.0264 57.3841 84.3814 57.3383 83.7476 57.4479C82.851 57.6058 81.8281 58.2754 81.8281 58.2754L82.0071 58.4369C82.0071 58.4369 83.1322 58.0667 83.8209 57.9953C84.5076 57.9234 84.9843 57.9752 84.9843 57.9752C84.9843 57.9752 85.019 57.8649 85.0317 57.6696Z" fill="white"/>
<path fill-rule="evenodd" clip-rule="evenodd" d="M84.7363 59.1383C84.8093 58.9166 84.8203 58.8042 84.8203 58.8042C84.8203 58.8042 84.243 58.7569 83.7591 58.7894C83.2786 58.8242 82.5664 58.9685 82.5664 58.9685L82.7235 59.1591C82.7235 59.1591 83.3663 59.2048 83.7461 59.2659C84.1261 59.329 84.6067 59.4886 84.6067 59.4886C84.6067 59.4886 84.6579 59.3708 84.7363 59.1383Z" fill="white"/>
<path fill-rule="evenodd" clip-rule="evenodd" d="M76.4119 56.5804C76.4119 56.5804 76.4927 56.5894 76.5764 56.6121C76.6585 56.6323 76.7428 56.6689 76.7428 56.6689C76.7428 56.6689 76.4761 56.8804 76.3922 56.9652C76.3099 57.0474 76.0795 57.2747 76.0687 57.2874C76.0669 57.2902 75.9772 57.2244 76.0264 57.1544C76.0795 57.0805 76.1819 56.9418 76.2622 56.8293C76.3208 56.7573 76.4119 56.5804 76.4119 56.5804Z" fill="white"/>
<path fill-rule="evenodd" clip-rule="evenodd" d="M77.5384 59.8107C78.2032 59.3865 78.6086 59.1118 79.6899 58.3425C81.1256 57.3189 80.6909 56.0138 80.5885 55.7884V55.7877C80.5594 55.7475 80.4936 55.7914 80.51 55.8324C80.5942 56.065 80.8955 57.2533 79.4306 58.1912C77.9584 59.1276 77.668 59.3007 77.2076 59.5866C76.5301 60.0045 76.5211 60.4139 76.5667 60.7453C76.6104 61.0493 76.7748 61.3238 76.8004 61.3604C76.8169 61.3933 77.0798 61.1269 77.4745 60.8786C77.8982 60.6121 78.4498 60.3912 78.4681 60.3831C78.5391 60.353 78.5118 60.3355 78.4826 60.333C78.4498 60.3313 78.0023 60.3501 77.6334 60.4497C77.2461 60.5547 77.0178 60.6969 77.0086 60.6822C77.0086 60.6822 76.7493 60.309 77.5384 59.8107Z" fill="white"/>
<path fill-rule="evenodd" clip-rule="evenodd" d="M87.4849 63.5834H31.7578V63.2832H87.4849V63.5834Z" fill="white"/>
</g>
<defs>
<radialGradient id="paint0_radial_747_1018" cx="0" cy="0" r="1" gradientUnits="userSpaceOnUse" gradientTransform="translate(59.8262 63.8451) scale(14.7752 14.7633)">
<stop stop-color="#FFF200"/>
<stop offset="0.1" stop-color="#FFF200"/>
<stop offset="1" stop-color="#F68712"/>
</radialGradient>
</defs>
</svg>
