<svg width="1363" height="595" viewBox="0 0 1363 595" fill="none" xmlns="http://www.w3.org/2000/svg">
<rect x="1" width="595" height="595" rx="297.5" fill="white"/>
<mask id="mask0_1118_523" style="mask-type:luminance" maskUnits="userSpaceOnUse" x="-239" y="-455" width="1075" height="1504">
<path d="M-238.668 1048.56H835.663V-455H-238.668V1048.56Z" fill="white"/>
</mask>
<g mask="url(#mask0_1118_523)">
<path fill-rule="evenodd" clip-rule="evenodd" d="M297.862 6.01141C458.756 6.01141 589.236 136.263 589.236 296.876C589.236 457.489 458.756 587.74 297.862 587.74C136.968 587.74 6.48828 457.489 6.48828 296.876C6.48828 136.263 136.968 6.01141 297.862 6.01141Z" fill="#17436D"/>
<path d="M594.757 296.877H583.709L583.351 282.17L582.247 267.681L580.416 253.405L577.917 239.364L574.728 225.551L570.865 212.029L566.37 198.774L561.26 185.803L555.533 173.178L549.227 160.873L542.34 148.908L534.889 137.344L526.915 126.155L518.437 115.361L509.451 105.022L499.975 95.1133L490.05 85.6539L479.693 76.6838L468.88 68.2202L457.671 60.261L446.087 52.8232L434.1 45.9484L421.774 39.6534L409.127 33.9353L396.133 28.8347L382.855 24.3469L369.309 20.4916L355.473 17.3074L341.406 14.8141L327.106 12.9853L312.592 11.8838L297.859 11.5264V0.497559L313.11 0.8974L328.186 2.04272L343.046 3.91418L357.674 6.53729L372.028 9.85022L386.134 13.8354L399.931 18.4948L413.4 23.8115L426.565 29.7446L439.366 36.2984L451.784 43.4319L463.842 51.1273L475.482 59.3888L486.684 68.1964L497.473 77.5114L507.787 87.3157L517.608 97.6116L526.94 108.382L535.763 119.564L544.038 131.183L551.747 143.221L558.893 155.617L565.458 168.395L571.402 181.538L576.729 194.983L581.396 208.756L585.388 222.837L588.707 237.166L591.334 251.768L593.209 266.603L594.356 281.653L594.757 296.877ZM297.859 593.256V582.227L312.592 581.869L327.106 580.768L341.406 578.939L355.473 576.446L369.309 573.262L382.855 569.406L396.133 564.918L409.127 559.818L421.774 554.1L434.1 547.805L446.087 540.93L457.671 533.492L468.88 525.533L479.693 517.069L490.05 508.099L499.975 498.64L509.451 488.731L518.437 478.393L526.915 467.598L534.889 456.409L542.34 444.845L549.227 432.88L555.533 420.575L561.26 407.95L566.37 394.979L570.865 381.724L574.728 368.202L577.917 354.39L580.416 340.348L582.247 326.073L583.351 311.583L583.709 296.877H594.757L594.356 312.101L593.209 327.15L591.334 341.985L588.707 356.587L585.388 370.916L581.396 384.997L576.729 398.77L571.402 412.215L565.458 425.358L558.893 438.136L551.747 450.532L544.038 462.57L535.763 474.189L526.94 485.371L517.608 496.142L507.787 506.438L497.473 516.242L486.684 525.557L475.482 534.364L463.842 542.626L451.784 550.321L439.366 557.455L426.565 564.008L413.4 569.942L399.931 575.258L386.134 579.918L372.028 583.903L357.674 587.216L343.046 589.839L328.186 591.71L313.11 592.856L297.859 593.256ZM0.960938 296.877H12.0094L12.3671 311.583L13.4711 326.073L15.3022 340.348L17.8005 354.39L20.9897 368.202L24.8524 381.724L29.3476 394.979L34.4577 407.95L40.1854 420.575L46.4912 432.88L53.3785 444.845L60.8286 456.409L68.8027 467.598L77.2806 478.393L86.2669 488.731L95.7427 498.64L105.668 508.099L116.025 517.069L126.838 525.533L138.047 533.492L149.631 540.93L161.618 547.805L173.944 554.1L186.591 559.818L199.585 564.918L212.863 569.406L226.409 573.262L240.245 576.446L254.312 578.939L268.612 580.768L283.126 581.869L297.859 582.227V593.256L282.608 592.856L267.532 591.71L252.672 589.839L238.044 587.216L223.69 583.903L209.584 579.918L195.787 575.258L182.318 569.942L169.153 564.008L156.352 557.455L143.934 550.321L131.876 542.626L120.236 534.364L109.034 525.557L98.2453 516.242L87.9309 506.438L78.1098 496.142L68.7784 485.371L59.9554 474.189L51.6799 462.57L43.9707 450.532L36.8245 438.136L30.2597 425.358L24.3157 412.215L18.9894 398.77L14.3217 384.997L10.33 370.916L7.01095 356.587L4.38356 341.985L2.50875 327.15L1.36215 312.101L0.960938 296.877ZM297.859 0.497559V11.5264L283.126 11.8838L268.612 12.9853L254.312 14.8141L240.245 17.3074L226.409 20.4916L212.863 24.3469L199.585 28.8347L186.591 33.9353L173.944 39.6534L161.618 45.9484L149.631 52.8232L138.047 60.261L126.838 68.2202L116.025 76.6838L105.668 85.6539L95.7427 95.1133L86.2669 105.022L77.2806 115.361L68.8027 126.155L60.8286 137.344L53.3785 148.908L46.4912 160.873L40.1854 173.178L34.4577 185.803L29.3476 198.774L24.8524 212.029L20.9897 225.551L17.8005 239.364L15.3022 253.405L13.4711 267.681L12.3671 282.17L12.0094 296.877H0.960938L1.36215 281.653L2.50875 266.603L4.38356 251.768L7.01095 237.166L10.33 222.837L14.3217 208.756L18.9894 194.983L24.3157 181.538L30.2597 168.395L36.8245 155.617L43.9707 143.221L51.6799 131.183L59.9554 119.564L68.7784 108.382L78.1098 97.6116L87.9309 87.3157L98.2453 77.5114L109.034 68.1964L120.236 59.3888L131.876 51.1273L143.934 43.4319L156.352 36.2984L169.153 29.7446L182.318 23.8115L195.787 18.4948L209.584 13.8354L223.69 9.85022L238.044 6.53729L252.672 3.91418L267.532 2.04272L282.608 0.8974L297.859 0.497559Z" fill="#17436D"/>
<path fill-rule="evenodd" clip-rule="evenodd" d="M297.848 22.5734C449.427 22.5734 572.353 145.409 572.353 296.877C572.353 448.345 449.427 571.18 297.848 571.18C146.27 571.18 23.3438 448.345 23.3438 296.877C23.3438 145.409 146.27 22.5734 297.848 22.5734Z" fill="#17436D"/>
<path d="M575.317 296.874H569.442L569.097 282.899L568.048 269.119L566.314 255.542L563.934 242.185L560.903 229.052L557.237 216.186L552.967 203.579L548.108 191.249L542.668 179.236L536.674 167.535L530.132 156.162L523.059 145.159L515.486 134.519L507.427 124.259L498.891 114.421L489.893 104.997L480.462 96.0057L470.617 87.4751L460.349 79.4228L449.701 71.8547L438.69 64.788L427.309 58.2512L415.599 52.261L403.578 46.8244L391.239 41.9697L378.623 37.7023L365.747 34.0398L352.605 31.0107L339.237 28.633L325.651 26.8994L311.861 25.8513L297.875 25.5057V19.6361L312.137 20.0043L326.224 21.0752L340.109 22.8315L353.775 25.2789L367.192 28.3762L380.367 32.108L393.259 36.4667L405.85 41.4365L418.147 46.9879L430.108 53.1149L441.718 59.7895L452.983 66.9939L463.86 74.7227L474.333 82.9583L484.409 91.6722L494.046 100.847L503.228 110.477L511.948 120.545L520.19 131.011L527.924 141.88L535.134 153.136L541.813 164.738L547.945 176.691L553.5 188.979L558.473 201.561L562.836 214.443L566.57 227.608L569.67 241.015L572.119 254.671L573.876 268.546L574.948 282.623L575.317 296.874ZM297.875 574.113V568.243L311.861 567.897L325.651 566.849L339.237 565.116L352.605 562.738L365.747 559.709L378.623 556.046L391.239 551.779L403.578 546.924L415.599 541.487L427.309 535.497L438.69 528.961L449.701 521.894L460.349 514.326L470.617 506.274L480.462 497.743L489.893 488.752L498.891 479.328L507.427 469.49L515.486 459.23L523.059 448.59L530.132 437.587L536.674 426.214L542.668 414.512L548.108 402.5L552.967 390.17L557.237 377.563L560.903 364.696L563.934 351.564L566.314 338.207L568.048 324.63L569.097 310.85L569.442 296.874H575.317L574.948 311.125L573.876 325.203L572.119 339.078L569.67 352.734L566.57 366.141L562.836 379.305L558.473 392.188L553.5 404.77L547.945 417.058L541.813 429.011L535.134 440.612L527.924 451.868L520.19 462.737L511.948 473.203L503.228 483.272L494.046 492.902L484.409 502.076L474.333 510.79L463.86 519.026L452.983 526.755L441.718 533.959L430.108 540.634L418.147 546.761L405.85 552.312L393.259 557.282L380.367 561.641L367.192 565.372L353.775 568.47L340.109 570.917L326.224 572.673L312.137 573.744L297.875 574.113ZM20.4336 296.874H26.3081L26.6532 310.85L27.7023 324.63L29.4368 338.207L31.817 351.564L34.848 364.696L38.5137 377.563L42.7837 390.17L47.6424 402.5L53.0828 414.512L59.0768 426.214L65.6189 437.587L72.6911 448.59L80.2647 459.23L88.3231 469.49L96.8595 479.328L105.858 488.752L115.289 497.743L125.134 506.274L135.401 514.326L146.049 521.894L157.061 528.961L168.441 535.497L180.151 541.487L192.172 546.924L204.512 551.779L217.128 556.046L230.004 559.709L243.146 562.738L256.513 565.116L270.1 566.849L283.89 567.897L297.875 568.243V574.113L283.614 573.744L269.526 572.673L255.641 570.917L241.975 568.47L228.558 565.372L215.384 561.641L202.492 557.282L189.901 552.312L177.604 546.761L165.642 540.634L154.032 533.959L142.768 526.755L131.891 519.026L121.417 510.79L111.342 502.076L101.704 492.902L92.5226 483.272L83.8027 473.203L75.5608 462.737L67.8265 451.868L60.6164 440.612L53.9373 429.011L47.8056 417.058L42.2501 404.77L37.2773 392.188L32.9151 379.305L29.1808 366.141L26.0803 352.734L23.6317 339.078L21.8745 325.203L20.8026 311.125L20.4336 296.874ZM297.875 19.6361V25.5057L283.89 25.8513L270.1 26.8994L256.513 28.633L243.146 31.0107L230.004 34.0398L217.128 37.7023L204.512 41.9697L192.172 46.8244L180.151 52.261L168.441 58.2512L157.061 64.788L146.049 71.8547L135.401 79.4228L125.134 87.4751L115.289 96.0057L105.858 104.997L96.8595 114.421L88.3231 124.259L80.2647 134.519L72.6911 145.159L65.6189 156.162L59.0768 167.535L53.0828 179.236L47.6424 191.249L42.7837 203.579L38.5137 216.186L34.848 229.052L31.817 242.185L29.4368 255.542L27.7023 269.119L26.6532 282.899L26.3081 296.874H20.4336L20.8026 282.623L21.8745 268.546L23.6317 254.671L26.0803 241.015L29.1808 227.608L32.9151 214.443L37.2773 201.561L42.2501 188.979L47.8056 176.691L53.9373 164.738L60.6164 153.136L67.8265 141.88L75.5608 131.011L83.8027 120.545L92.5226 110.477L101.704 100.847L111.342 91.6722L121.417 82.9583L131.891 74.7227L142.768 66.9939L154.032 59.7895L165.642 53.1149L177.604 46.9879L189.901 41.4365L202.492 36.4667L215.384 32.108L228.558 28.3762L241.975 25.2789L255.641 22.8315L269.526 21.0752L283.614 20.0043L297.875 19.6361Z" fill="white"/>
<path d="M84.7369 375.237L82.8724 370.445C84.7045 369.612 86.1022 368.577 87.071 367.335C88.0391 366.093 88.6333 364.457 88.8574 362.427C89.0821 360.397 88.8575 358.258 88.1983 356.018C87.612 354.024 86.811 352.36 85.7977 351.014C84.7745 349.672 83.6609 348.779 82.4508 348.35C81.2332 347.924 80.0429 347.891 78.8672 348.263C77.672 348.643 76.7436 349.33 76.065 350.338C75.383 351.341 74.9891 352.759 74.8712 354.595C74.7863 355.787 74.8537 358.317 75.0815 362.213C75.3062 366.098 75.2684 368.893 74.9534 370.578C74.5622 372.763 73.7909 374.543 72.6585 375.917C71.5228 377.284 70.0819 378.242 68.333 378.798C66.4211 379.407 64.4619 379.416 62.4657 378.814C60.4613 378.216 58.712 376.963 57.2072 375.071C55.7098 373.165 54.5671 370.896 53.7853 368.243C52.9223 365.314 52.6179 362.597 52.8674 360.066C53.1148 357.548 53.9431 355.405 55.3478 353.645C56.7582 351.892 58.5622 350.605 60.7634 349.805L62.6006 354.695C60.2848 355.732 58.7323 357.222 57.968 359.161C57.1943 361.104 57.2597 363.585 58.151 366.615C59.0815 369.774 60.3145 371.894 61.8539 372.991C63.3935 374.081 64.9515 374.38 66.5163 373.881C67.8888 373.448 68.8593 372.577 69.4338 371.278C70.0224 369.986 70.1529 367.084 69.8231 362.548C69.5036 358.01 69.4511 354.84 69.6757 353.042C70.0248 350.421 70.816 348.311 72.0515 346.723C73.2949 345.132 74.9386 344.017 76.9726 343.371C78.9967 342.728 81.0729 342.723 83.2146 343.359C85.3563 343.994 87.253 345.282 88.9126 347.213C90.5666 349.149 91.8075 351.528 92.6358 354.338C93.6869 357.912 94.0737 361.064 93.7737 363.789C93.4844 366.522 92.5387 368.891 90.9286 370.911C89.3246 372.916 87.2549 374.367 84.7369 375.237ZM87.0159 333.246L58.5275 337.406L57.9188 332.897L62.231 332.269C60.0596 331.411 58.58 330.541 57.8063 329.655C57.0326 328.777 56.5579 327.75 56.4011 326.581C56.1721 324.887 56.4608 323.1 57.2597 321.199L61.979 322.274C61.44 323.596 61.2578 324.872 61.4251 326.099C61.5723 327.204 62.0261 328.137 62.7776 328.92C63.5365 329.7 64.4995 330.192 65.6752 330.396C67.4616 330.708 69.3792 330.71 71.4201 330.41L86.3368 328.233L87.0159 333.246ZM50.6309 316.596L45.0331 317.002L44.6914 311.942L50.2921 311.537L50.6309 316.596ZM84.652 314.125L55.9542 316.209L55.6146 311.15L84.3103 309.065L84.652 314.125ZM70.4768 284.487L70.8215 279.331C72.8223 279.418 74.515 279.121 75.9093 278.448C77.3049 277.772 78.5281 276.572 79.586 274.85C80.6439 273.128 81.3452 271.104 81.6974 268.789C82.0113 266.73 81.9964 264.87 81.6523 263.199C81.2981 261.526 80.6742 260.219 79.768 259.281C78.8524 258.344 77.799 257.771 76.5833 257.57C75.3508 257.369 74.2254 257.564 73.1897 258.159C72.1537 258.747 71.2004 259.845 70.32 261.443C69.7407 262.476 68.7349 264.78 67.2945 268.383C65.8571 271.979 64.6444 274.472 63.649 275.847C62.3759 277.63 60.9304 278.882 59.3314 279.6C57.7333 280.31 56.0372 280.517 54.2272 280.218C52.2562 279.894 50.489 279.011 48.9515 277.56C47.4016 276.111 46.3554 274.189 45.8014 271.802C45.2604 269.408 45.1929 266.847 45.61 264.107C46.0718 261.079 46.9428 258.501 48.2353 256.341C49.5184 254.19 51.1675 252.641 53.1743 251.698C55.1805 250.763 57.3465 250.429 59.6633 250.713L59.2486 255.945C56.7306 255.823 54.7069 256.451 53.2016 257.847C51.6873 259.242 50.6984 261.5 50.2197 264.631C49.7233 267.895 49.9369 270.361 50.8585 272.049C51.7815 273.73 53.0572 274.707 54.6717 274.972C56.0896 275.206 57.3292 274.864 58.3925 273.962C59.4663 273.067 60.8115 270.518 62.4284 266.291C64.0553 262.064 65.3454 259.195 66.3065 257.68C67.7266 255.481 69.3286 253.947 71.1086 253.082C72.8977 252.219 74.8439 251.965 76.9453 252.312C79.0364 252.656 80.9058 253.596 82.5633 255.142C84.2181 256.688 85.3781 258.708 86.0576 261.202C86.7261 263.695 86.8383 266.395 86.3944 269.298C85.8324 272.989 84.8489 275.999 83.4295 278.313C82.0167 280.64 80.1673 282.338 77.8664 283.418C75.5774 284.49 73.1075 284.851 70.4768 284.487ZM89.1873 247.521L61.8268 238.287L63.1818 233.958L67.3222 235.357C65.7347 233.599 64.7695 232.14 64.45 230.993C64.1251 229.853 64.1302 228.714 64.4822 227.589C64.9916 225.963 66.0069 224.49 67.5271 223.143L71.3154 226.261C70.2719 227.201 69.5711 228.268 69.2016 229.445C68.8698 230.505 68.8821 231.549 69.2268 232.594C69.5779 233.645 70.2376 234.522 71.2083 235.242C72.6858 236.337 74.4049 237.21 76.366 237.873L90.6915 242.709L89.1873 247.521ZM62.9972 216.934L57.7239 214.941L59.3935 210.176L64.6687 212.169L62.9972 216.934ZM95.0443 229.05L68.0112 218.829L69.6836 214.064L96.7134 224.285L95.0443 229.05ZM105.955 201.63L71.5595 181.003L80.3622 165.163C82.1338 161.978 83.7915 159.744 85.3284 158.46C86.8661 157.173 88.6904 156.505 90.8067 156.442C92.9256 156.392 94.9267 156.941 96.8185 158.073C99.2592 159.54 100.857 161.582 101.615 164.232C102.379 166.876 102.032 170.053 100.584 173.754C101.86 172.844 102.955 172.235 103.884 171.928C105.868 171.278 108.125 170.888 110.639 170.743L123.455 170.145L120.148 176.093L110.362 176.524C107.537 176.672 105.319 176.858 103.729 177.103C102.139 177.337 100.927 177.674 100.101 178.12C99.2671 178.563 98.5653 179.097 97.9816 179.723C97.5774 180.202 97.0362 181.043 96.3573 182.264L93.3095 187.746L108.581 196.905L105.955 201.63ZM89.3693 185.384L95.0191 175.217C96.2168 173.063 96.9435 171.238 97.1851 169.764C97.4325 168.28 97.2579 166.943 96.6642 165.746C96.07 164.547 95.2219 163.617 94.1079 162.948C92.4836 161.974 90.8091 161.779 89.0742 162.379C87.3452 162.973 85.7477 164.6 84.273 167.253L77.9889 178.559L89.3693 185.384ZM137.678 150.266C137.563 152.73 137.169 154.817 136.502 156.535C135.818 158.251 134.825 159.836 133.52 161.291C131.364 163.694 129.15 164.991 126.861 165.187C124.578 165.38 122.549 164.624 120.799 162.928C119.764 161.926 119.038 160.776 118.628 159.46C118.209 158.148 118.101 156.849 118.294 155.565C118.492 154.273 118.895 153.006 119.519 151.762C119.986 150.859 120.786 149.587 121.938 147.957C124.279 144.63 125.853 142.029 126.639 140.153C126.165 139.667 125.861 139.358 125.733 139.234C124.279 137.827 122.936 137.182 121.716 137.314C120.061 137.47 118.394 138.496 116.722 140.356C115.16 142.099 114.296 143.665 114.134 145.071C113.976 146.47 114.471 148.091 115.606 149.939L111.878 153.091C110.685 151.321 109.961 149.608 109.723 147.972C109.477 146.328 109.751 144.545 110.537 142.64C111.324 140.735 112.557 138.842 114.246 136.96C115.923 135.091 117.496 133.79 118.963 133.029C120.435 132.276 121.733 131.932 122.873 131.999C124.006 132.072 125.152 132.473 126.335 133.199C127.051 133.668 128.201 134.666 129.784 136.199L134.541 140.805C137.86 144.021 140.026 145.974 141.045 146.657C142.06 147.356 143.191 147.857 144.411 148.173L140.937 152.043C139.859 151.709 138.765 151.124 137.678 150.266ZM129.434 142.859C128.755 144.725 127.394 147.174 125.357 150.218C124.199 151.944 123.463 153.256 123.165 154.136C122.861 155.024 122.806 155.889 123.015 156.724C123.215 157.56 123.62 158.28 124.241 158.881C125.194 159.806 126.328 160.193 127.63 160.064C128.928 159.929 130.231 159.141 131.521 157.7C132.804 156.273 133.647 154.714 134.042 153.021C134.436 151.328 134.348 149.707 133.775 148.179C133.327 146.999 132.314 145.65 130.745 144.129L129.434 142.859ZM154.77 138.416L127.892 122.835L131.838 119.397L147.643 128.98C149.348 130.014 151.057 131.144 152.779 132.364C152.138 130.867 151.426 129.017 150.65 126.798L144.269 108.559L148.109 105.212L158.255 135.378L154.77 138.416ZM150.91 96.2476L147.771 91.4127L151.818 88.5776L154.958 93.4099L150.91 96.2476ZM169.979 125.615L153.892 100.841L157.94 98.0055L174.027 122.778L169.979 125.615ZM173.958 110.971L177.856 107.925C178.999 109.569 180.363 110.557 181.943 110.901C183.511 111.242 185.283 110.873 187.249 109.788C189.226 108.696 190.479 107.459 191.008 106.103C191.532 104.734 191.512 103.484 190.938 102.364C190.417 101.347 189.588 100.794 188.44 100.676C187.649 100.604 185.922 100.914 183.266 101.599C179.69 102.507 177.129 103.008 175.599 103.07C174.075 103.141 172.715 102.814 171.539 102.093C170.364 101.37 169.442 100.368 168.781 99.0785C168.177 97.9015 167.883 96.6694 167.896 95.3793C167.892 94.0883 168.177 92.8642 168.729 91.7115C169.138 90.8318 169.827 89.8864 170.795 88.8942C171.771 87.8961 172.922 87.0337 174.244 86.3027C176.236 85.2034 178.14 84.5424 179.954 84.3035C181.769 84.061 183.292 84.2555 184.531 84.8763C185.774 85.5054 186.96 86.5921 188.1 88.1488L184.205 91.0708C183.313 89.8244 182.215 89.0686 180.91 88.8118C179.605 88.5527 178.113 88.8887 176.438 89.8139C174.462 90.9036 173.224 92.0238 172.729 93.1651C172.228 94.3148 172.213 95.3452 172.677 96.2531C172.977 96.8388 173.421 97.2552 174.01 97.5298C174.609 97.8192 175.355 97.9059 176.271 97.8138C176.788 97.7365 178.247 97.4196 180.658 96.8488C184.137 96.0157 186.613 95.5296 188.091 95.4102C189.573 95.2754 190.923 95.5419 192.133 96.1902C193.344 96.8364 194.34 97.9188 195.12 99.4477C195.885 100.938 196.177 102.571 196.019 104.355C195.852 106.135 195.166 107.821 193.957 109.412C192.752 111.003 191.145 112.347 189.153 113.447C185.846 115.272 182.967 115.951 180.509 115.482C178.048 115.013 175.864 113.509 173.958 110.971ZM204.312 103.913L190.077 65.3987L194.627 63.5835L199.735 77.4034C200.913 74.0017 203.124 71.6481 206.361 70.3556C208.348 69.5652 210.227 69.2886 211.994 69.5206C213.761 69.7426 215.23 70.4509 216.391 71.6352C217.552 72.8192 218.645 74.7797 219.65 77.5074L226.187 95.1906L221.627 97.0085L215.093 79.3233C214.222 76.9664 213.095 75.441 211.712 74.7581C210.329 74.0741 208.73 74.084 206.925 74.8046C205.578 75.3413 204.444 76.2141 203.521 77.4159C202.6 78.6182 202.119 79.9414 202.079 81.386C202.026 82.8271 202.41 84.6499 203.219 86.8369L208.86 102.1L204.312 103.913ZM250.28 84.7323C248.925 86.7591 247.527 88.3133 246.085 89.4001C244.63 90.4819 242.98 91.278 241.131 91.7938C238.077 92.6449 235.536 92.5249 233.495 91.4326C231.461 90.3378 230.125 88.5824 229.506 86.1783C229.139 84.7599 229.112 83.3852 229.434 82.0411C229.748 80.7021 230.319 79.5374 231.138 78.5552C231.966 77.5679 232.952 76.7171 234.119 76.0045C234.974 75.498 236.301 74.8597 238.109 74.1093C241.793 72.5755 244.452 71.2389 246.08 70.0811C245.926 69.4085 245.823 68.9774 245.778 68.8025C245.264 66.8077 244.453 65.5211 243.352 64.9616C241.867 64.1815 239.931 64.134 237.565 64.7926C235.349 65.4087 233.816 66.2636 232.962 67.3658C232.116 68.4685 231.707 70.1119 231.727 72.3034L226.958 72.9267C226.851 70.7675 227.11 68.9169 227.744 67.396C228.373 65.8701 229.516 64.5087 231.153 63.3263C232.793 62.1448 234.804 61.2169 237.198 60.5505C239.574 59.8874 241.57 59.6504 243.2 59.8125C244.835 59.9845 246.11 60.4063 247.043 61.0922C247.966 61.7775 248.736 62.7474 249.367 64.0146C249.734 64.8075 250.203 66.2864 250.762 68.458L252.447 74.9821C253.619 79.5354 254.46 82.3857 254.974 83.5249C255.481 84.6772 256.182 85.7244 257.058 86.6645L252.137 88.0332C251.393 87.1561 250.764 86.0589 250.28 84.7323ZM247.068 73.9116C245.541 75.1217 243.135 76.4483 239.856 77.9089C237.991 78.7346 236.699 79.4427 235.997 80.0261C235.289 80.6128 234.8 81.3161 234.552 82.1383C234.293 82.9565 234.27 83.789 234.49 84.642C234.827 85.9519 235.591 86.9015 236.761 87.5095C237.929 88.1111 239.437 88.1581 241.268 87.6467C243.08 87.1432 244.592 86.2858 245.791 85.0662C246.988 83.8495 247.742 82.4256 248.034 80.8116C248.259 79.5677 248.086 77.8643 247.533 75.713L247.068 73.9116ZM263.467 85.7942L259.961 56.1342L264.311 55.5807L264.81 59.7933C266.525 56.2646 269.362 54.2495 273.317 53.743C275.042 53.5234 276.659 53.6459 278.177 54.1017C279.704 54.5663 280.878 55.2665 281.715 56.2244C282.564 57.172 283.206 58.3466 283.667 59.7407C283.954 60.6531 284.238 62.2717 284.513 64.5979L286.669 82.834L281.823 83.4526L279.689 65.4058C279.447 63.3663 279.083 61.8554 278.586 60.8819C278.089 59.92 277.326 59.194 276.3 58.7159C275.264 58.2296 274.106 58.067 272.813 58.232C270.75 58.4937 269.058 59.4068 267.713 60.9519C266.377 62.506 265.938 65.1768 266.39 68.9799L268.303 85.1788L263.467 85.7942ZM293.814 83.3757V42.12H298.696V65.6457L310.236 53.4937H316.542L305.549 64.5787L317.663 83.3757H311.643L302.137 68.0943L298.696 71.5328V83.3757H293.814ZM340.584 83.5427C338.575 84.8595 336.703 85.7218 334.966 86.1356C333.221 86.5426 331.402 86.607 329.505 86.3304C326.373 85.8714 324.082 84.7322 322.612 82.8989C321.152 81.0634 320.583 78.9065 320.917 76.4429C321.114 74.9864 321.604 73.7103 322.408 72.6052C323.201 71.5005 324.165 70.66 325.288 70.0871C326.421 69.5161 327.648 69.1316 328.991 68.9496C329.969 68.8297 331.432 68.7826 333.378 68.8253C337.344 68.9076 340.297 68.7578 342.229 68.351C342.341 67.668 342.408 67.231 342.432 67.0516C342.71 65.0073 342.448 63.4933 341.644 62.5338C340.571 61.2115 338.806 60.3809 336.378 60.0275C334.107 59.696 332.378 59.8595 331.174 60.5286C329.984 61.1991 328.989 62.5486 328.183 64.5732L323.558 63.2094C324.271 61.1794 325.208 59.5805 326.36 58.4387C327.514 57.2896 329.079 56.4986 331.03 56.0748C332.984 55.6531 335.183 55.6164 337.639 55.9721C340.072 56.329 342.001 56.9203 343.441 57.7331C344.881 58.5532 345.897 59.4581 346.498 60.4681C347.09 61.4757 347.432 62.68 347.537 64.1019C347.576 64.9801 347.452 66.5333 347.15 68.7605L346.246 75.4453C345.615 80.1163 345.315 83.0784 345.36 84.3377C345.395 85.6024 345.644 86.8517 346.096 88.0735L341.05 87.3355C340.696 86.2282 340.531 84.9611 340.584 83.5427ZM341.696 72.2786C339.837 72.7746 337.124 73.0195 333.556 73.0317C331.53 73.037 330.074 73.1611 329.208 73.4129C328.335 73.6657 327.618 74.1141 327.082 74.7729C326.538 75.4201 326.201 76.1763 326.083 77.0509C325.901 78.3926 326.246 79.5775 327.094 80.6129C327.946 81.6397 329.313 82.2958 331.192 82.5699C333.049 82.842 334.763 82.6645 336.326 82.0288C337.886 81.3929 339.116 80.3908 339.992 79.024C340.666 77.9694 341.15 76.3305 341.447 74.1241L341.696 72.2786ZM352.216 90.1083L359.66 61.2442L363.896 62.4238L362.767 66.7929C364.375 65.0519 365.725 63.9771 366.813 63.5835C367.891 63.1864 368.987 63.134 370.085 63.4408C371.675 63.8823 373.145 64.8601 374.519 66.3637L371.719 70.4582C370.761 69.426 369.7 68.7524 368.547 68.4309C367.512 68.1438 366.509 68.2113 365.52 68.623C364.532 69.0439 363.721 69.7724 363.08 70.8175C362.104 72.4053 361.355 74.2362 360.821 76.3057L356.923 91.4201L352.216 90.1083ZM395.002 106.629L398.583 62.5432L403.704 65.1367L400.33 96.7715C400.065 99.3075 399.736 101.654 399.352 103.788C400.856 102.051 402.444 100.355 404.128 98.6963L426.418 76.6452L431.237 79.0859L399.848 109.085L395.002 106.629ZM435.202 89.5726L438.342 84.739L442.389 87.5748L439.25 92.4079L435.202 89.5726ZM416.133 118.94L432.22 94.1682L436.265 97.0034L420.181 121.776L416.133 118.94ZM440.842 138.047L443.178 135.154C439.947 136.211 436.976 135.556 434.264 133.189C432.507 131.658 431.296 129.75 430.637 127.459C429.971 125.174 429.966 122.775 430.615 120.254C431.264 117.749 432.529 115.33 434.426 112.98C436.267 110.699 438.312 108.946 440.545 107.722C442.786 106.502 445.038 106.03 447.301 106.322C449.57 106.606 451.616 107.54 453.43 109.12C454.754 110.274 455.699 111.599 456.263 113.082C456.837 114.572 457.067 116.065 456.964 117.566L466.124 106.228L469.835 109.465L444.306 141.066L440.842 138.047ZM438.264 116.327C435.893 119.262 434.718 121.975 434.736 124.461C434.755 126.948 435.569 128.9 437.191 130.314C438.821 131.733 440.773 132.244 443.031 131.855C445.29 131.466 447.575 129.847 449.874 126.999C452.407 123.865 453.68 121.062 453.703 118.586C453.73 116.103 452.887 114.125 451.179 112.639C449.522 111.193 447.563 110.689 445.315 111.125C443.069 111.561 440.712 113.297 438.264 116.327ZM441.456 153.67L444.493 150.066C444.998 151.093 445.507 151.909 446.038 152.525C446.762 153.358 447.48 153.901 448.182 154.151C448.891 154.408 449.612 154.467 450.381 154.33C450.947 154.241 452.175 153.777 454.069 152.961C454.336 152.839 454.726 152.684 455.247 152.468L469.365 124.01L472.879 128.064L464.514 144.266C463.453 146.331 462.273 148.416 460.95 150.507C462.991 149.386 465.058 148.382 467.164 147.497L483.738 140.592L487 144.355L457.938 156.245C454.8 157.537 452.574 158.34 451.254 158.671C449.477 159.118 447.943 159.17 446.637 158.826C445.324 158.477 444.151 157.712 443.113 156.512C442.482 155.784 441.932 154.837 441.456 153.67ZM482.587 181.028C480.271 180.484 478.36 179.718 476.85 178.736C475.34 177.741 474.01 176.45 472.857 174.861C470.953 172.237 470.109 169.749 470.319 167.372C470.533 165.001 471.602 163.058 473.513 161.562C474.644 160.677 475.859 160.135 477.18 159.944C478.495 159.744 479.747 159.859 480.93 160.278C482.121 160.706 483.251 161.338 484.324 162.193C485.096 162.826 486.164 163.869 487.511 165.327C490.259 168.3 492.448 170.362 494.093 171.494C494.634 171.093 494.979 170.834 495.121 170.724C496.708 169.482 497.551 168.22 497.639 166.949C497.779 165.228 497.094 163.345 495.62 161.312C494.239 159.41 492.905 158.253 491.599 157.844C490.302 157.442 488.68 157.664 486.73 158.504L484.39 154.143C486.276 153.233 488.025 152.789 489.617 152.829C491.217 152.864 492.862 153.453 494.529 154.59C496.199 155.724 497.779 157.313 499.271 159.368C500.751 161.41 501.711 163.243 502.179 164.876C502.635 166.512 502.737 167.898 502.475 169.055C502.209 170.203 501.632 171.305 500.739 172.387C500.169 173.038 499.022 174.046 497.294 175.396L492.101 179.461C488.477 182.299 486.249 184.174 485.422 185.098C484.587 186.017 483.913 187.084 483.401 188.279L480.336 184.052C480.84 183.008 481.584 181.992 482.587 181.028ZM491.04 173.881C489.388 172.863 487.304 171.046 484.773 168.432C483.336 166.945 482.221 165.968 481.437 165.51C480.648 165.046 479.838 164.839 479.011 164.908C478.183 164.965 477.432 165.255 476.753 165.787C475.712 166.602 475.147 167.691 475.042 169.048C474.945 170.399 475.467 171.868 476.607 173.439C477.738 174.998 479.071 176.133 480.605 176.828C482.143 177.526 483.695 177.718 485.242 177.397C486.441 177.145 487.896 176.342 489.608 175.003L491.04 173.881ZM494.374 208.468L532.147 195.721L534.592 203.54L510.751 221.847C508.533 223.547 506.865 224.807 505.744 225.606C507.258 225.592 509.496 225.605 512.458 225.655L541.673 226.176L543.859 233.165L506.087 245.913L504.522 240.908L536.137 230.237L500.955 229.507L499.491 224.821L528.093 202.623L495.942 213.475L494.374 208.468ZM514.158 272.946C512.358 271.338 511.016 269.73 510.128 268.126C509.244 266.511 508.652 264.722 508.353 262.757C507.859 259.514 508.238 256.902 509.495 254.905C510.756 252.92 512.578 251.726 514.944 251.334C516.342 251.105 517.659 251.22 518.912 251.693C520.162 252.16 521.216 252.871 522.072 253.82C522.93 254.777 523.641 255.884 524.203 257.165C524.597 258.102 525.068 259.541 525.601 261.485C526.683 265.451 527.684 268.339 528.623 270.139C529.284 270.049 529.706 269.991 529.88 269.962C531.842 269.64 533.16 268.937 533.809 267.857C534.71 266.406 534.959 264.411 534.574 261.895C534.218 259.543 533.559 257.872 532.593 256.873C531.627 255.884 530.095 255.292 527.994 255.082L527.897 250.09C529.975 250.204 531.722 250.666 533.11 251.479C534.505 252.29 535.69 253.611 536.651 255.426C537.611 257.244 538.288 259.418 538.677 261.96C539.062 264.483 539.079 266.57 538.755 268.239C538.418 269.909 537.882 271.184 537.131 272.076C536.374 272.959 535.366 273.65 534.088 274.172C533.289 274.468 531.824 274.797 529.688 275.148L523.267 276.203C518.782 276.942 515.967 277.512 514.821 277.924C513.666 278.328 512.59 278.944 511.597 279.747L510.801 274.521C511.72 273.845 512.836 273.311 514.158 272.946ZM524.852 270.76C523.854 269.057 522.835 266.433 521.78 262.892C521.184 260.88 520.639 259.471 520.155 258.686C519.668 257.89 519.046 257.312 518.283 256.972C517.527 256.618 516.733 256.506 515.892 256.645C514.604 256.858 513.616 257.546 512.91 258.69C512.214 259.837 512.011 261.388 512.306 263.334C512.601 265.258 513.265 266.91 514.305 268.274C515.346 269.64 516.631 270.565 518.143 271.037C519.314 271.398 520.961 271.4 523.08 271.052L524.852 270.76ZM511.922 286.011H540.69V290.562H536.601C539.763 292.764 541.345 295.933 541.345 300.073C541.345 301.878 541.031 303.531 540.41 305.038C539.783 306.556 538.967 307.681 537.951 308.429C536.943 309.187 535.74 309.706 534.355 310.013C533.447 310.197 531.866 310.292 529.611 310.292H511.922V305.22H529.426C531.405 305.22 532.893 305.027 533.884 304.634C534.862 304.239 535.648 303.539 536.232 302.542C536.824 301.532 537.118 300.36 537.118 299.006C537.118 296.846 536.454 294.991 535.141 293.415C533.818 291.851 531.32 291.073 527.631 291.073H511.922V286.011ZM508.215 336.805L511.806 337.395C509.269 335.064 508.283 332.079 508.837 328.445C509.194 326.094 510.144 324.032 511.697 322.267C513.239 320.496 515.219 319.257 517.632 318.534C520.033 317.82 522.683 317.704 525.595 318.182C528.428 318.648 530.926 319.566 533.09 320.922C535.249 322.289 536.796 324.052 537.722 326.216C538.656 328.384 538.939 330.685 538.571 333.114C538.298 334.889 537.692 336.413 536.759 337.68C535.825 338.956 534.712 339.93 533.419 340.613L547.492 342.926L546.737 347.899L507.509 341.445L508.215 336.805ZM524.812 323.324C521.169 322.725 518.325 323.074 516.282 324.371C514.24 325.671 513.05 327.399 512.717 329.571C512.386 331.752 512.969 333.755 514.455 335.565C515.937 337.376 518.45 338.578 521.987 339.158C525.875 339.799 528.844 339.491 530.898 338.233C532.963 336.977 534.158 335.208 534.507 332.922C534.847 330.703 534.253 328.7 532.735 326.922C531.218 325.147 528.576 323.942 524.812 323.324ZM538.038 359.614L543.407 361.32L541.98 366.17L536.611 364.464L538.038 359.614ZM505.425 349.258L532.938 357.994L531.51 362.843L504 354.108L505.425 349.258ZM501.564 361.245L528.765 370.975L527.337 375.279L523.219 373.806C524.779 375.594 525.717 377.068 526.02 378.222C526.326 379.367 526.299 380.506 525.93 381.623C525.393 383.24 524.353 384.696 522.81 386.014L519.074 382.828C520.135 381.908 520.854 380.855 521.243 379.683C521.592 378.628 521.595 377.583 521.27 376.534C520.936 375.479 520.292 374.589 519.334 373.848C517.876 372.729 516.172 371.823 514.22 371.127L499.98 366.033L501.564 361.245Z" fill="white"/>
<path fill-rule="evenodd" clip-rule="evenodd" d="M155.05 455.257C155.66 453.751 156.089 452.507 156.338 451.523C157.149 448.394 157.366 445.446 156.989 442.68C156.885 441.81 156.64 440.971 156.254 440.165C155.867 439.358 155.281 438.521 154.5 437.656C152.938 435.924 151.046 434.96 148.826 434.766C147.488 434.627 146.261 434.713 145.143 435.026C144.026 435.34 143.025 435.805 142.144 436.423C140.892 437.302 139.836 438.48 138.975 439.961C138.706 440.419 138.416 441.06 138.101 441.887L142.095 446.313L151.883 455.418L151.909 455.266L165.553 466.705V466.709L189.821 482.043L204.997 489.666L205.455 494.591L197.985 490.839L179.471 519.918L177.123 515.216L193.549 489.416L188.467 486.205L166.546 513.452L164.816 508.501L168.368 504.087C166.924 504.333 165.757 504.464 164.867 504.478C161.942 504.561 159.256 504.215 156.805 503.437C155.758 503.098 154.798 502.652 153.925 502.1C152.177 500.995 150.727 499.565 149.576 497.809C148.426 496.053 147.866 494.268 147.896 492.455C147.929 490.641 148.372 489.201 149.23 488.135C150.087 487.069 151.313 486.366 152.907 486.022C153.439 485.906 154.175 485.858 155.116 485.873C154.759 485.132 154.513 484.527 154.379 484.057C153.88 482.584 153.582 481.271 153.484 480.115C153.36 477.722 153.71 476.012 154.534 474.988C155.425 473.88 156.798 473.494 158.652 473.828C159.226 473.934 160.092 474.224 161.249 474.698L169.261 479.761L172.297 475.987L164.719 471.199L164.649 471.573L162.623 469.873L158.385 467.196L158.394 466.361L132.447 490.538L131.45 485.487L138.553 478.867C137.876 478.906 137.285 478.899 136.779 478.848C133.631 478.579 130.906 477.373 128.604 475.23C126.218 473.012 124.922 470.153 124.713 466.655C124.503 463.156 125.601 460.399 128.007 458.384C130.189 456.845 132.602 456.24 135.243 456.571C137.885 456.903 140.316 458.101 142.537 460.166C145.004 462.461 146.145 465.65 145.961 469.733C145.944 470.44 145.839 471.279 145.651 472.253L154.624 463.892L141.307 451.503L141.185 451.849L138.599 448.984L136.856 447.363L136.917 447.12L135.824 445.91L106.199 466.696L106.078 461.527L132.921 442.692L129.515 438.918L131.177 434.216L137.041 440.711C137.326 439.434 137.62 438.419 137.925 437.665C138.849 435.333 140.146 433.581 141.815 432.411C143.298 431.368 144.971 430.769 146.832 430.607C148.694 430.446 150.398 430.699 151.945 431.364C153.492 432.03 154.88 433.045 156.109 434.405C157.784 436.261 158.739 438.286 158.977 440.477C159.325 443.129 159.163 446.139 158.492 449.506C158.28 450.531 157.922 451.894 157.414 453.598L155.05 455.257ZM521.016 451.341L521.492 452.966C520.351 453.225 519.45 453.407 518.789 453.513C515.914 454.049 514.237 454.393 513.757 454.546C512.583 454.847 511.425 455.127 510.284 455.386C508.35 455.923 506.666 456.74 505.235 457.839C504.787 458.138 504.379 458.525 504.011 458.999C503.475 459.691 503.047 460.478 502.724 461.361C502.573 461.65 502.468 462.063 502.414 462.601L496.348 463.007C496.453 462.498 496.556 462.084 496.659 461.766C496.999 460.767 497.487 459.855 498.123 459.035C498.625 458.388 499.113 457.875 499.587 457.497C500.061 457.118 500.704 456.731 501.516 456.336C503.572 455.365 505.51 454.639 507.329 454.158C509.941 453.589 512.041 453.12 513.628 452.751C514.802 452.45 516.396 452.119 518.413 451.758C519.026 451.622 519.893 451.483 521.016 451.341ZM470.839 430.311L466.022 436.526L497.356 455.609L491.87 457.226L480.359 450.216L471.718 459.496L474.135 461.26C474.505 461.528 474.823 461.829 475.093 462.162C475.363 462.495 475.398 462.893 475.198 463.357C474.797 464.285 472.868 464.863 469.412 465.088C465.954 465.314 463.879 465.174 463.19 464.67C462.775 464.369 462.598 463.934 462.66 463.369C462.727 463.216 462.805 462.967 462.893 462.623L465.263 460.079L452.759 450.959L451.644 452.158L452.918 452.393L446.838 457.672L473.527 481.656L467.785 482.314L459.994 475.314C460.016 475.892 459.994 476.397 459.925 476.829C459.537 479.596 458.101 481.951 455.617 483.893C453.046 485.9 449.778 486.922 445.816 486.953C441.853 486.985 438.764 485.894 436.546 483.683C435.932 482.955 435.458 482.205 435.127 481.433L428.371 485.839C427.204 486.733 426.399 487.487 425.959 488.102C424.706 490.034 424.915 491.996 426.588 493.986C427.797 495.427 429.421 496.678 431.457 497.743C433.495 498.808 435.773 499.698 438.292 500.416C439.791 500.881 440.889 501.181 441.59 501.313C441.876 501.389 442.268 501.461 442.767 501.53L442.282 503.715L432.958 501.043C430.415 500.21 428.178 499.259 426.249 498.191C424.319 497.122 422.801 495.931 421.698 494.618C419.421 491.907 419.159 489.226 420.914 486.573C421.522 485.718 422.63 484.667 424.238 483.421L434.857 476.496C435.436 474.462 436.798 472.606 438.943 470.93C441.605 468.852 445.242 467.983 449.855 468.324C450.637 468.369 451.561 468.492 452.627 468.693L443.545 460.532L439.683 463.886L439.154 463.795L428.985 471.739L429.329 471.839L426.465 473.708L424.313 475.388L424 475.315L409.752 484.609L408.924 484.359L407.832 484.947L427.782 513.575L422.008 513.074L403.889 487.074L403.08 487.51L403.119 487.528L402.475 487.836L399.263 489.568L399.034 489.478L396.629 490.626L405.383 504.784C405.63 506.165 405.715 507.232 405.64 507.987C405.345 510.346 404.023 512.084 401.679 513.203C400.844 513.602 400.112 513.891 399.481 514.072C398.851 514.253 397.927 514.395 396.707 514.498C393.766 514.763 391.188 514.195 388.973 512.795C388.288 512.343 387.472 511.624 386.524 510.639L379.272 498.908L374.895 500.998L373.1 500.166L372.934 500.226L387.595 531.22L381.974 529.927L377.815 521.137C376.483 522.075 375.107 522.741 373.686 523.133C373.233 523.258 372.807 523.375 372.411 523.484C371.677 523.52 371.132 523.56 370.774 523.604C367.501 523.677 364.578 522.827 362.007 521.053C361.169 520.455 360.184 519.54 359.053 518.308L354.702 506.268L350.539 507.414L346.068 504.343L359.664 500.599L376.156 494.613L377.197 495.225L398.229 485.189L398.345 485.245L400.51 484.077C400.129 483.94 399.8 483.806 399.518 483.678C396.17 482.345 393.625 481.253 391.884 480.404C390.143 479.555 388.728 478.405 387.637 476.956C386.613 475.595 386.109 474.261 386.123 472.956C386.137 471.654 386.862 470.584 388.295 469.748C389.63 468.97 391.246 468.661 393.142 468.819C393.735 468.852 394.561 469.003 395.617 469.272L395.421 470.429C395.124 470.412 394.885 470.426 394.704 470.468C394.125 470.552 393.59 470.739 393.095 471.026C392.453 471.4 391.926 471.976 391.515 472.754C391.104 473.529 390.977 474.33 391.135 475.154C391.293 475.979 391.701 476.83 392.363 477.708C392.991 478.543 393.643 479.221 394.32 479.743C394.997 480.264 395.798 480.762 396.722 481.234C398.189 481.957 399.666 482.55 401.15 483.011C401.408 483.076 401.709 483.154 402.052 483.245L410.017 478.95L410.369 479.093L423.521 470.514L438.055 459.16L438.398 459.232L441.934 456.16L441.89 456.157L458.533 438.282L458.99 438.318L465.248 430.24L470.839 430.311ZM476.585 447.916L463.413 439.895L460.351 443.843L459.388 443.842L455.694 447.81L468.195 456.928L476.585 447.916ZM455.871 471.608L454.546 470.417C453.422 470.238 452.472 470.152 451.696 470.16C448.283 470.15 445.491 470.993 443.317 472.69C442.918 473.002 442.608 473.244 442.386 473.418C440.815 474.927 439.931 476.55 439.746 478.297C439.56 480.045 440.175 481.623 441.611 483.055C443.046 484.486 444.482 485.249 445.909 485.331C447.347 485.423 448.748 484.927 450.122 483.854C451.187 483.021 452.169 481.832 453.068 480.284C453.968 478.737 454.643 477.082 455.093 475.322C455.377 474.186 455.618 473.046 455.818 471.905C455.835 471.812 455.852 471.713 455.871 471.608ZM400.896 506.207L392.486 492.603L383.339 496.968L391.62 510.363C392.01 510.776 392.303 511.087 392.498 511.292C394.073 512.639 395.711 512.996 397.412 512.363C399.195 511.753 400.314 510.559 400.768 508.784C400.904 508.24 400.947 507.381 400.896 506.207ZM406.978 539.311L405.994 540.693L401.611 538.354C399.505 537.296 398.232 536.647 397.797 536.405C395.87 535.453 394.169 534.846 392.695 534.582C391.223 534.321 389.773 534.448 388.347 534.965C385.551 535.98 384.132 537.662 384.088 540.014C384.091 540.298 384.126 540.571 384.186 540.833C384.246 541.096 384.333 541.349 384.448 541.591C385.161 543.1 386.478 543.504 388.396 542.809C389.165 542.53 389.867 542.147 390.503 541.659C391.139 541.172 391.699 540.555 392.182 539.81C392.332 539.586 392.535 539.199 392.789 538.65L397.034 540.698C396.639 541.355 396.295 541.85 396.003 542.184C394.954 543.361 393.745 544.2 392.374 544.697C391.496 545.016 390.661 545.219 389.868 545.307C389.075 545.396 388.113 545.333 386.983 545.116C383.716 544.592 381.496 543.092 380.323 540.612C379.909 539.737 379.721 538.865 379.761 537.997C379.821 535.41 381.36 533.571 384.376 532.477C386.842 531.581 389.568 531.503 392.552 532.242C394.117 532.7 395.813 533.366 397.642 534.24C398.645 534.731 399.887 535.39 401.372 536.218L406.978 539.311ZM375.9 517.09L368.927 502.351L359.117 505.052L363.66 517.618C364.247 518.727 364.783 519.517 365.265 519.99C366.844 521.431 368.823 521.824 371.201 521.169C372.617 520.779 374.12 519.51 375.708 517.363C375.77 517.278 375.834 517.186 375.9 517.09ZM334.122 510.07L325.661 511.158L331.434 544.3L326.32 541.847L323.115 523.443L313.259 523.787C311.721 523.946 310.573 524.169 309.815 524.459C307.547 525.433 306.481 527.153 306.616 529.62C306.714 531.405 307.274 533.239 308.3 535.122C309.324 537.007 310.66 538.865 312.307 540.702C313.262 541.826 313.988 542.616 314.489 543.071C314.679 543.275 314.96 543.528 315.334 543.83L313.544 545.392L307.462 538.584C305.868 536.641 304.604 534.752 303.672 532.917C302.738 531.083 302.228 529.353 302.14 527.726C301.955 524.366 303.435 522.026 306.576 520.707C307.624 520.302 309.214 519.984 311.344 519.752L322.405 519.366L321.257 512.779L298.511 513.574L298.06 513.05L295.156 513.016L294.997 546.581L290.374 543.377L290.518 512.963L285.078 512.901L284.758 512.475L282.479 512.308L279.677 545.683L275.309 542.282L277.806 512.546L268.951 511.205L267.677 518.117C267.639 518.324 267.547 518.496 267.401 518.633C267.255 518.771 266.953 518.937 266.493 519.134C266.035 519.332 265.628 519.415 265.271 519.388C264.914 519.361 264.618 519.329 264.383 519.294L254.524 517.801C253.283 517.667 252.349 517.658 251.725 517.777C249.771 518.225 248.595 519.537 248.192 521.713C247.888 523.369 248.087 524.904 248.792 526.314C249.498 527.726 250.394 528.752 251.481 529.394C252.129 529.813 252.765 530.122 253.391 530.322C254.018 530.524 254.684 530.678 255.388 530.784C256.327 530.927 257.26 530.935 258.188 530.81C258.306 530.827 258.462 530.797 258.656 530.721C258.273 530.183 258.022 529.747 257.904 529.408C257.439 528.328 257.372 527.386 257.7 526.585C257.992 525.989 258.694 525.777 259.809 525.946C261.393 526.186 262.973 526.944 264.547 528.22C266.121 529.497 266.569 530.668 265.89 531.736C265.384 532.511 264.761 533.109 264.021 533.529C263.816 533.657 263.489 533.794 263.04 533.939L266.205 546.712L263.307 547.457L260.039 535.002C259.727 535.061 259.329 535.094 258.845 535.1C258.361 535.106 257.854 535.07 257.327 534.99C255.976 534.786 254.803 534.448 253.804 533.978C252.364 533.28 250.981 532.273 249.656 530.955C247.771 529.072 246.357 527.089 245.415 525.004C244.472 522.918 244.169 520.971 244.502 519.158C244.693 518.122 245.208 517.043 246.05 515.92C246.89 514.795 248.247 514.056 250.122 513.702C250.748 513.584 251.602 513.526 252.688 513.531L263.427 515.158L264.286 510.498L252.321 508.686L252.845 510.339L243.275 507.479L240.791 514.12C240.716 514.319 240.594 514.476 240.425 514.591C240.257 514.706 239.928 514.83 239.44 514.961C238.952 515.09 238.533 515.118 238.185 515.042C237.837 514.965 237.55 514.893 237.324 514.825L227.837 511.99C226.633 511.687 225.711 511.549 225.072 511.579C223.061 511.753 221.665 512.884 220.882 514.973C220.288 516.565 220.213 518.106 220.661 519.594C221.109 521.084 221.813 522.221 222.775 523.005C223.341 523.506 223.916 523.899 224.5 524.184C225.084 524.47 225.715 524.713 226.391 524.916C227.296 525.187 228.218 525.323 229.158 525.328C229.271 525.361 229.43 525.354 229.637 525.305C229.353 524.723 229.182 524.257 229.124 523.908C228.857 522.777 228.956 521.838 229.424 521.093C229.816 520.547 230.549 520.433 231.622 520.755C233.146 521.21 234.575 522.176 235.905 523.652C237.237 525.129 237.472 526.347 236.611 527.306C235.974 528.001 235.253 528.504 234.445 528.815C234.22 528.915 233.872 529.005 233.402 529.085L234.27 542.121L231.272 542.456L230.247 529.718C229.926 529.732 229.527 529.711 229.047 529.65C228.567 529.588 228.075 529.483 227.566 529.332C226.266 528.943 225.165 528.448 224.261 527.845C222.96 526.959 221.77 525.775 220.694 524.291C219.162 522.174 218.116 520.023 217.552 517.835C216.99 515.648 217.033 513.684 217.685 511.943C218.057 510.948 218.758 509.955 219.788 508.963C220.818 507.971 222.292 507.431 224.21 507.339C224.849 507.308 225.704 507.37 226.777 507.525L237.11 510.613L238.785 506.137L219.304 500.314L217.791 495.548L243.283 503.167L270.955 507.356L288.248 508.622L288.389 508.842L291.341 508.876C290.394 507.867 289.684 507.017 289.212 506.33C287.736 504.213 287.002 502.207 287.012 500.315C287.019 498.634 287.531 497.104 288.549 495.725C289.567 494.344 290.849 493.334 292.398 492.694C293.947 492.056 295.703 491.746 297.666 491.769C300.34 491.802 302.717 492.432 304.791 493.663C307.341 495.111 309.888 497.135 312.431 499.74C313.201 500.535 314.178 501.65 315.359 503.081L315.347 505.76C314.402 504.384 313.575 503.297 312.865 502.502C310.618 499.954 308.159 497.93 305.492 496.429C304.661 495.947 303.771 495.581 302.822 495.334C301.871 495.087 300.771 494.956 299.523 494.942C297.025 494.914 295.001 495.6 293.447 497C292.494 497.831 291.805 498.729 291.385 499.697C290.964 500.663 290.751 501.646 290.746 502.644C290.739 504.062 291.119 505.537 291.884 507.068C292.12 507.544 292.503 508.153 293.035 508.895L300.616 508.982L300.92 509.387L312.043 508.999L311.821 508.79L330.331 506.412L334.122 510.07ZM172.124 499.418L184.681 483.811L176.522 478.656L173.126 482.878C172.989 483.047 172.731 483.368 172.354 483.837C171.976 484.306 171.546 484.613 171.064 484.759C170.58 484.903 169.924 484.81 169.092 484.477C168.995 484.415 168.832 484.345 168.604 484.265L159.789 478.696C159.153 478.486 158.679 478.348 158.368 478.28C157.316 478.129 156.63 478.435 156.309 479.199C155.772 480.595 156.028 481.915 157.079 483.158C157.413 483.562 158.001 484.061 158.841 484.656C159.394 484.877 160.004 485.167 160.67 485.523C161.335 485.879 162.154 486.363 163.125 486.977C164.679 487.96 165.887 488.916 166.749 489.847C167.612 490.778 167.859 491.609 167.489 492.34C167.121 493.072 166.92 493.46 166.885 493.503C166.268 494.269 165.254 494.208 163.847 493.318C163.313 492.98 162.699 492.513 162.009 491.916C161.317 491.318 160.849 490.942 160.607 490.79C159.151 489.869 157.634 489.521 156.061 489.75C154.485 489.977 153.322 490.559 152.567 491.497C151.332 493.032 150.772 494.319 150.889 495.358C151.007 496.396 151.623 497.269 152.74 497.974C153.808 498.649 155.186 499.166 156.874 499.526C157.678 499.711 159.058 499.908 161.014 500.116C163.809 500.466 166.449 500.462 168.935 500.104C169.763 499.984 170.827 499.755 172.124 499.418ZM154.88 463.381L154.806 463.722L155.034 463.511L154.88 463.381ZM142.557 475.137L143.787 473.991C143.949 472.967 144.009 472.105 143.966 471.406C143.829 468.393 142.753 465.949 140.738 464.075C140.368 463.73 140.08 463.463 139.875 463.271C138.099 461.923 136.225 461.185 134.24 461.067C132.256 460.949 130.495 461.533 128.939 462.839C127.382 464.144 126.583 465.433 126.553 466.694C126.511 467.966 127.132 469.19 128.408 470.376C129.395 471.294 130.783 472.129 132.573 472.883C134.363 473.637 136.263 474.19 138.273 474.541C139.572 474.762 140.871 474.945 142.172 475.092C142.292 475.108 142.42 475.122 142.557 475.137Z" fill="white"/>
<path d="M487.297 296.877H480.248L480.019 287.493L479.315 278.248L478.147 269.141L476.552 260.181L474.518 251.368L472.053 242.74L469.185 234.283L465.925 226.006L462.27 217.951L458.246 210.1L453.852 202.465L449.098 195.087L444.01 187.948L438.601 181.061L432.867 174.463L426.822 168.141L420.488 162.106L413.88 156.382L406.98 150.982L399.829 145.904L392.437 141.158L384.789 136.771L376.925 132.755L368.855 129.106L360.564 125.851L352.091 122.989L343.449 120.528L334.62 118.497L325.645 116.906L316.521 115.739L307.26 115.036L297.859 114.808V107.771L307.59 108.026L317.209 108.757L326.692 109.952L336.024 111.625L345.184 113.739L354.185 116.281L362.987 119.254L371.581 122.647L379.981 126.432L388.149 130.614L396.071 135.166L403.767 140.076L411.193 145.347L418.341 150.967L425.224 156.911L431.805 163.166L438.072 169.735L444.026 176.607L449.656 183.742L454.936 191.156L459.855 198.837L464.414 206.746L468.603 214.9L472.396 223.285L475.794 231.863L478.772 240.651L481.319 249.636L483.437 258.779L485.113 268.096L486.309 277.561L487.042 287.163L487.297 296.877ZM297.859 485.984V478.947L307.26 478.719L316.521 478.016L325.645 476.849L334.62 475.258L343.449 473.227L352.091 470.766L360.564 467.903L368.855 464.649L376.925 461L384.789 456.984L392.437 452.597L399.829 447.851L406.98 442.773L413.88 437.373L420.488 431.649L426.822 425.613L432.867 419.292L438.601 412.694L444.01 405.807L449.098 398.668L453.852 391.289L458.246 383.655L462.27 375.804L465.925 367.749L469.185 359.472L472.053 351.014L474.518 342.387L476.552 333.574L478.147 324.614L479.315 315.507L480.019 306.261L480.248 296.877H487.297L487.042 306.591L486.309 316.193L485.113 325.659L483.437 334.976L481.319 344.119L478.772 353.104L475.794 361.892L472.396 370.47L468.603 378.855L464.414 387.009L459.855 394.918L454.936 402.599L449.656 410.013L444.026 417.148L438.072 424.02L431.805 430.589L425.224 436.844L418.341 442.788L411.193 448.408L403.767 453.679L396.071 458.589L388.149 463.141L379.981 467.323L371.581 471.108L362.987 474.501L354.185 477.474L345.184 480.016L336.024 482.13L326.692 483.803L317.209 484.998L307.59 485.729L297.859 485.984ZM108.422 296.877H115.471L115.699 306.261L116.404 315.507L117.572 324.614L119.166 333.574L121.201 342.387L123.665 351.014L126.534 359.472L129.794 367.749L133.449 375.804L137.473 383.655L141.867 391.289L146.621 398.668L151.708 405.807L157.118 412.694L162.852 419.292L168.897 425.613L175.231 431.649L181.839 437.373L188.739 442.773L195.89 447.851L203.282 452.597L210.93 456.984L218.794 461L226.864 464.649L235.155 467.903L243.627 470.766L252.27 473.227L261.099 475.258L270.074 476.849L279.198 478.016L288.459 478.719L297.859 478.947V485.984L288.129 485.729L278.51 484.998L269.027 483.803L259.694 482.13L250.535 480.016L241.534 477.474L232.732 474.501L224.138 471.108L215.738 467.323L207.57 463.141L199.647 458.589L191.952 453.679L184.526 448.408L177.378 442.788L170.494 436.844L163.914 430.589L157.647 424.02L151.693 417.148L146.063 410.013L140.783 402.599L135.864 394.918L131.305 387.009L127.116 378.855L123.323 370.47L119.925 361.892L116.947 353.104L114.399 344.119L112.282 334.976L110.606 325.659L109.409 316.193L108.677 306.591L108.422 296.877ZM297.859 107.771V114.808L288.459 115.036L279.198 115.739L270.074 116.906L261.099 118.497L252.27 120.528L243.627 122.989L235.155 125.851L226.864 129.106L218.794 132.755L210.93 136.771L203.282 141.158L195.89 145.904L188.739 150.982L181.839 156.382L175.231 162.106L168.897 168.141L162.852 174.463L157.118 181.061L151.708 187.948L146.621 195.087L141.867 202.465L137.473 210.1L133.449 217.951L129.794 226.006L126.534 234.283L123.665 242.74L121.201 251.368L119.166 260.181L117.572 269.141L116.404 278.248L115.699 287.493L115.471 296.877H108.422L108.677 287.163L109.409 277.561L110.606 268.096L112.282 258.779L114.399 249.636L116.947 240.651L119.925 231.863L123.323 223.285L127.116 214.9L131.305 206.746L135.864 198.837L140.783 191.156L146.063 183.742L151.693 176.607L157.647 169.735L163.914 163.166L170.494 156.911L177.378 150.967L184.526 145.347L191.952 140.076L199.647 135.166L207.57 130.614L215.738 126.432L224.138 122.647L232.732 119.254L241.534 116.281L250.535 113.739L259.694 111.625L269.027 109.952L278.51 108.757L288.129 108.026L297.859 107.771Z" fill="white"/>
<path d="M297.133 259.574V238.823H298.636V259.574H297.133Z" fill="white"/>
<path d="M286.765 260.944L282.133 240.679L283.594 240.345L288.226 260.609L286.765 260.944Z" fill="white"/>
<path d="M269.245 245.166L278.314 263.969L276.964 264.62L267.895 245.817L269.245 245.166Z" fill="white"/>
<path d="M317.406 263.975L326.458 245.171L327.809 245.817L318.756 264.62L317.406 263.975Z" fill="white"/>
<path d="M307.543 260.613L312.161 240.348L313.622 240.676L309.004 260.941L307.543 260.613Z" fill="white"/>
<path d="M312.582 262.004L316.211 251.648L317.625 252.141L313.997 262.496L312.582 262.004Z" fill="white"/>
<path d="M302.348 259.795L303.557 248.952L305.048 249.117L303.839 259.96L302.348 259.795Z" fill="white"/>
<path d="M291.886 259.969L290.668 249.117L292.159 248.953L293.377 259.805L291.886 259.969Z" fill="white"/>
<path d="M281.736 262.499L278.109 252.143L279.524 251.651L283.15 262.006L281.736 262.499Z" fill="white"/>
<path fill-rule="evenodd" clip-rule="evenodd" d="M253.221 313.384L342.714 313.417C343.28 310.497 343.572 307.498 343.572 304.432C343.572 278.922 323.152 258.246 297.982 258.246C272.786 258.246 252.367 278.922 252.367 304.432C252.367 307.498 252.65 310.487 253.221 313.384Z" fill="url(#paint0_radial_1118_523)"/>
<path d="M343.439 313.551L342.703 314.158L253.21 314.124V312.63L342.703 312.663L343.439 313.551ZM343.439 313.551L343.322 314.158H342.703L343.439 313.551ZM342.81 304.426H344.312L344.309 304.716L344.307 305.006L344.303 305.298L344.296 305.587L344.289 305.878L344.281 306.167L344.27 306.457L344.258 306.748L344.244 307.034L344.228 307.322L344.21 307.61L344.19 307.898L344.169 308.184L344.147 308.472L344.119 308.756L344.093 309.043L344.065 309.327L344.036 309.613L344.005 309.896L343.972 310.181L343.934 310.463L343.899 310.747L343.861 311.031L343.822 311.311L343.781 311.595L343.735 311.874L343.691 312.156L343.645 312.435L343.598 312.716L343.545 312.994L343.495 313.271L343.443 313.551L341.971 313.27L342.023 313.002L342.073 312.73L342.12 312.458L342.167 312.189L342.213 311.916L342.257 311.645L342.297 311.371L342.338 311.1L342.377 310.826L342.415 310.554L342.451 310.281L342.482 310.005L342.515 309.731L342.546 309.455L342.575 309.18L342.603 308.902L342.629 308.627L342.651 308.349L342.674 308.073L342.694 307.793L342.714 307.516L342.732 307.239L342.748 306.958L342.762 306.677L342.774 306.399L342.785 306.12L342.793 305.838L342.8 305.558L342.807 305.274L342.811 304.994L342.813 304.71L342.81 304.426ZM297.971 258.99V257.49L300.355 257.553L302.707 257.734L305.027 258.034L307.307 258.446L309.549 258.97L311.748 259.601L313.904 260.342L316.007 261.18L318.061 262.12L320.059 263.157L322 264.29L323.88 265.509L325.697 266.82L327.448 268.212L329.129 269.687L330.739 271.242L332.272 272.873L333.729 274.575L335.106 276.349L336.398 278.188L337.601 280.092L338.717 282.058L339.741 284.082L340.669 286.16L341.498 288.292L342.226 290.471L342.853 292.701L343.368 294.971L343.777 297.28L344.07 299.63L344.25 302.014L344.312 304.426H342.81L342.754 302.084L342.581 299.777L342.293 297.503L341.901 295.264L341.397 293.065L340.795 290.911L340.09 288.797L339.285 286.735L338.386 284.721L337.397 282.762L336.317 280.86L335.148 279.015L333.897 277.234L332.567 275.518L331.157 273.869L329.672 272.291L328.114 270.789L326.486 269.36L324.793 268.009L323.035 266.746L321.214 265.562L319.338 264.471L317.404 263.468L315.42 262.558L313.382 261.742L311.302 261.031L309.174 260.418L307.007 259.911L304.797 259.511L302.554 259.223L300.278 259.047L297.971 258.99ZM253.107 304.426H251.605L251.668 302.014L251.847 299.63L252.14 297.28L252.55 294.971L253.065 292.701L253.691 290.471L254.42 288.292L255.248 286.16L256.176 284.082L257.201 282.058L258.317 280.092L259.524 278.185L260.816 276.349L262.191 274.575L263.647 272.873L265.182 271.242L266.792 269.687L268.473 268.212L270.226 266.817L272.043 265.509L273.924 264.287L275.866 263.157L277.865 262.12L279.921 261.18L282.025 260.339L284.183 259.601L286.383 258.97L288.627 258.446L290.909 258.034L293.231 257.734L295.585 257.553L297.971 257.49V258.99L295.662 259.047L293.383 259.223L291.138 259.511L288.927 259.911L286.758 260.418L284.628 261.031L282.547 261.745L280.507 262.558L278.522 263.468L276.588 264.471L274.709 265.565L272.889 266.746L271.129 268.012L269.435 269.36L267.807 270.789L266.249 272.291L264.762 273.869L263.352 275.518L262.019 277.234L260.768 279.018L259.602 280.86L258.521 282.762L257.531 284.721L256.633 286.735L255.828 288.797L255.122 290.911L254.52 293.065L254.016 295.264L253.624 297.503L253.337 299.777L253.164 302.084L253.107 304.426ZM253.21 312.63V314.124L252.474 313.521L252.421 313.243L252.37 312.968L252.318 312.689L252.271 312.413L252.224 312.133L252.18 311.853L252.135 311.575L252.094 311.293L252.055 311.014L252.017 310.732L251.981 310.452L251.944 310.168L251.912 309.887L251.881 309.603L251.852 309.318L251.824 309.036L251.795 308.749L251.771 308.466L251.749 308.179L251.728 307.895L251.709 307.607L251.692 307.319L251.676 307.033L251.662 306.743L251.65 306.456L251.639 306.166L251.63 305.878L251.623 305.587L251.618 305.298L251.615 305.006L251.613 304.716L251.609 304.426H253.111L253.109 304.71L253.111 304.994L253.115 305.274L253.12 305.557L253.127 305.837L253.136 306.119L253.146 306.397L253.158 306.679L253.172 306.956L253.188 307.236L253.206 307.513L253.224 307.789L253.245 308.068L253.268 308.343L253.292 308.62L253.315 308.895L253.343 309.172L253.371 309.445L253.403 309.718L253.435 309.993L253.466 310.264L253.502 310.538L253.539 310.809L253.579 311.082L253.619 311.352L253.659 311.624L253.703 311.893L253.749 312.161L253.797 312.431L253.843 312.698L253.894 312.968L253.947 313.233L253.21 312.63ZM253.21 314.124H252.593L252.474 313.521L253.21 314.124Z" fill="white"/>
<path fill-rule="evenodd" clip-rule="evenodd" d="M233.336 334.376C233.25 334.613 233.19 334.849 233.19 334.986C233.19 335.214 233.336 335.279 233.958 335.279H236.931C237.461 335.279 237.607 335.214 237.639 335.051C237.639 334.986 237.657 335.051 237.461 334.489L235.264 329.1L233.336 334.376ZM231.415 340.53C231.241 341.113 231.118 341.638 231.118 341.899C231.118 342.455 231.528 342.683 232.615 342.715C233.494 342.743 233.808 342.889 233.808 343.245C233.808 343.527 233.548 343.673 233.023 343.673H232.698L231.822 343.619H231.415C230.776 343.596 230.164 343.567 229.689 343.567C228.972 343.567 228.264 343.596 227.566 343.619C227.328 343.646 227.269 343.646 226.985 343.646C226.661 343.646 226.488 343.509 226.488 343.181C226.488 342.862 226.712 342.743 227.392 342.683C228.679 342.578 228.881 342.401 229.552 340.963C230.101 339.772 230.624 338.512 231.799 335.483C232.671 333.239 232.786 332.978 233.932 329.886L234.506 328.316L235.123 326.732C235.452 325.838 235.712 325.2 235.739 325.053C236.187 323.799 236.233 323.703 236.579 323.703C236.899 323.703 237.017 323.881 237.493 325.249C237.776 326.071 238.068 326.855 238.392 327.618L243.264 339.452C244.52 342.455 244.607 342.578 246.273 342.816C246.534 342.834 246.708 343.039 246.708 343.245C246.708 343.527 246.48 343.673 246.037 343.673C245.927 343.673 245.653 343.646 245.428 343.646C244.73 343.596 243.42 343.527 242.366 343.527C241.305 343.527 241.223 343.527 239.114 343.673C239.032 343.71 238.799 343.71 238.648 343.71C238.218 343.71 238.009 343.596 238.009 343.304C238.009 342.953 238.297 342.816 239.15 342.715C239.945 342.657 240.283 342.455 240.259 342.049C240.227 341.82 240.177 341.498 240.022 341.088L238.694 337.35C238.328 336.446 238.297 336.415 237.397 336.415H233.639C232.735 336.415 232.735 336.415 232.47 337.204L231.415 340.53Z" fill="white"/>
<path fill-rule="evenodd" clip-rule="evenodd" d="M254.388 332.244C254.388 333.39 254.415 333.39 255.976 333.39C258.803 333.39 260.172 332.102 260.172 329.457C260.172 326.71 258.516 324.99 255.875 324.99C254.661 324.99 254.388 325.342 254.388 326.997V332.244ZM249.195 324.091C249.429 324.091 249.228 324.091 250.364 324.146C251.214 324.196 251.735 324.196 252.557 324.196C253.457 324.196 254.361 324.174 255.388 324.146C256.342 324.118 257.366 324.091 257.657 324.091C261.425 324.091 263.708 325.958 263.708 328.977C263.708 331.524 262.306 333.038 259.416 333.682C260.027 334.061 260.374 334.457 260.931 335.428L263.932 340.767C264.987 342.656 265.018 342.657 266.716 342.862C266.94 342.889 267.151 343.103 267.151 343.304C267.151 343.567 266.972 343.71 266.716 343.71C266.533 343.71 266.415 343.71 266.242 343.673C266.151 343.673 265.515 343.646 264.576 343.619C264.283 343.596 264.109 343.596 264.027 343.596L262.046 343.646C261.566 343.646 261.397 343.51 260.996 342.743L257.255 335.658C256.529 334.312 256.342 334.205 255.036 334.205C254.484 334.205 254.388 334.293 254.388 334.904V340.53C254.388 342.278 254.661 342.657 255.976 342.743C256.835 342.816 257.078 342.916 257.078 343.267C257.078 343.596 256.895 343.71 256.433 343.71H256.26C256.054 343.71 256.228 343.71 255.087 343.646C254.127 343.619 253.31 343.596 252.671 343.596C251.936 343.596 251.47 343.619 249.552 343.673C249.429 343.71 249.347 343.71 249.195 343.71H249.022C248.557 343.71 248.383 343.596 248.383 343.267C248.383 342.916 248.616 342.816 249.492 342.743C250.772 342.657 251.037 342.278 251.037 340.53V327.257C251.037 325.505 250.772 325.14 249.492 325.053C248.616 324.99 248.383 324.871 248.383 324.516C248.383 324.196 248.557 324.091 249.022 324.091H249.195Z" fill="white"/>
<path fill-rule="evenodd" clip-rule="evenodd" d="M294.59 333.206C294.59 338.694 297.791 343.124 301.762 343.124C305.515 343.124 308.396 339.101 308.396 333.822C308.396 328.607 305.323 324.669 301.204 324.669C297.263 324.669 294.59 328.136 294.59 333.206ZM312.13 333.621C312.13 339.209 307.292 343.91 301.525 343.91C295.639 343.91 290.844 339.416 290.844 333.904C290.844 328.224 295.512 323.88 301.579 323.88C307.428 323.88 312.13 328.196 312.13 333.621Z" fill="white"/>
<path fill-rule="evenodd" clip-rule="evenodd" d="M191.911 332.65C192.998 332.65 193.053 332.596 193.053 331.693V327.257C193.053 325.505 192.793 325.14 191.506 325.053C190.629 324.99 190.392 324.871 190.392 324.516C190.392 324.196 190.578 324.091 191.045 324.091C191.186 324.091 191.646 324.118 192.373 324.146C193.406 324.196 193.807 324.196 194.92 324.196C195.561 324.196 196.199 324.174 197.109 324.146C197.811 324.118 198.278 324.091 198.446 324.091C198.917 324.091 199.09 324.196 199.09 324.516C199.09 324.871 198.862 324.99 197.981 325.053C196.67 325.14 196.401 325.505 196.401 327.257V340.53C196.401 342.278 196.67 342.657 197.981 342.743C198.862 342.816 199.09 342.916 199.09 343.267C199.09 343.596 198.917 343.71 198.446 343.71H198.278C198.04 343.71 198.25 343.71 197.109 343.646C196.113 343.619 195.478 343.596 194.716 343.596C193.756 343.596 193.574 343.596 191.538 343.673C191.438 343.71 191.336 343.71 191.213 343.71H191.045C190.578 343.71 190.392 343.596 190.392 343.267C190.392 342.916 190.629 342.816 191.506 342.743C192.793 342.657 193.053 342.278 193.053 340.53V334.489C193.053 333.759 192.963 333.704 192.031 333.704H185.433C184.264 333.704 184.236 333.732 184.236 334.435V340.53C184.236 342.278 184.505 342.657 185.775 342.743C186.656 342.816 186.889 342.916 186.889 343.267C186.889 343.596 186.72 343.71 186.258 343.71C186.109 343.71 185.633 343.673 184.934 343.646C183.911 343.596 183.478 343.596 182.428 343.596C181.724 343.596 181.118 343.619 180.21 343.646C179.506 343.673 179.041 343.71 178.871 343.71C178.396 343.71 178.227 343.596 178.227 343.267C178.227 342.916 178.456 342.816 179.341 342.743C180.615 342.657 180.879 342.278 180.879 340.53V327.257C180.879 325.505 180.615 325.14 179.341 325.053C178.456 324.99 178.227 324.871 178.227 324.516C178.227 324.196 178.396 324.091 178.871 324.091H179.041C179.278 324.091 179.08 324.091 180.21 324.146C180.968 324.174 181.958 324.196 182.487 324.196C183.569 324.196 183.693 324.196 185.762 324.118C185.844 324.091 185.967 324.091 186.081 324.091H186.258C186.72 324.091 186.889 324.196 186.889 324.516C186.889 324.871 186.656 324.99 185.775 325.053C184.505 325.14 184.236 325.505 184.236 327.257V331.693C184.236 332.65 184.236 332.65 185.263 332.65H191.911Z" fill="white"/>
<path fill-rule="evenodd" clip-rule="evenodd" d="M203.789 327.257C203.789 325.505 203.529 325.109 202.241 325.053C201.36 324.99 201.137 324.871 201.137 324.516C201.137 324.196 201.305 324.091 201.776 324.091C201.832 324.091 202.095 324.091 202.274 324.118C202.584 324.118 202.876 324.118 203.114 324.146C203.434 324.174 203.666 324.174 203.789 324.174H212.635C213.328 324.174 213.968 324.146 214.553 324.118C214.816 324.091 215.11 324.091 215.233 324.091C215.575 324.091 215.635 324.196 215.635 324.99V327.878C215.635 328.252 215.52 328.431 215.283 328.431C215.072 328.431 214.908 328.252 214.731 327.878C213.945 326.24 213.652 325.926 212.589 325.505C211.753 325.2 210.346 325.008 208.867 325.008C207.283 325.008 207.147 325.2 207.147 326.947V331.633C207.147 332.737 207.283 332.864 208.753 332.864C211.936 332.864 212.544 332.545 213.246 330.496C213.328 330.177 213.479 330.032 213.679 330.032C213.945 330.032 214.032 330.145 214.032 330.47C214.032 330.496 214.004 330.849 213.968 331.285L213.945 331.929L213.886 332.596L213.849 333.239C213.818 333.704 213.793 334.061 213.793 334.092L213.918 336.446C213.945 336.766 213.767 337.003 213.533 337.003C213.246 337.003 213.059 336.766 212.927 336.236C212.355 334.12 211.786 333.732 209.062 333.732C207.201 333.732 207.147 333.759 207.147 334.663V340.15C207.147 342.278 207.689 342.715 210.269 342.715C213.132 342.715 213.918 342.2 215.489 339.156C215.635 338.919 215.786 338.778 215.985 338.778C216.197 338.778 216.328 338.993 216.328 339.21C216.328 339.453 216.278 339.914 216.159 340.379C216.068 340.832 216.014 341.405 215.954 342.104C215.836 343.674 215.922 343.619 214.434 343.619H203.789C203.666 343.619 203.434 343.619 203.114 343.646C202.876 343.673 202.584 343.673 202.274 343.673C202.095 343.71 201.832 343.71 201.776 343.71C201.305 343.71 201.137 343.596 201.137 343.267C201.137 342.916 201.36 342.816 202.241 342.743C203.529 342.657 203.789 342.278 203.789 340.53V327.257Z" fill="white"/>
<path fill-rule="evenodd" clip-rule="evenodd" d="M276.534 340.53C276.534 342.278 276.794 342.657 278.109 342.743C278.986 342.816 279.215 342.916 279.215 343.267C279.215 343.596 279.04 343.71 278.544 343.71C278.374 343.71 278.083 343.71 277.233 343.646C276.265 343.596 275.424 343.567 274.689 343.567C274.283 343.567 273.319 343.596 272.506 343.646C271.662 343.71 271.361 343.71 271.201 343.71C270.699 343.71 270.521 343.596 270.521 343.267C270.521 342.916 270.753 342.816 271.631 342.743C272.914 342.657 273.173 342.278 273.173 340.53V325.926C273.173 325.249 273.004 325.077 272.415 325.077C270.465 325.077 269.584 325.217 268.913 325.665C268.247 326.094 267.187 327.257 266.758 328.079C266.493 328.575 266.342 328.699 266.077 328.722C265.845 328.74 265.648 328.554 265.648 328.348C265.648 328.197 265.675 328.052 265.731 327.837L267.023 323.42C267.141 322.982 267.246 322.859 267.488 322.859C267.689 322.859 267.782 322.949 267.863 323.293C268.014 323.967 268.306 324.174 269.238 324.174H279.338C280.525 324.174 281.776 324.059 282.251 323.945C282.576 323.822 282.804 323.589 282.955 323.187C283.073 322.859 283.196 322.741 283.383 322.741C283.712 322.741 283.859 323.092 283.831 323.644L283.803 324.023L283.598 327.837C283.571 328.554 283.415 328.813 283.086 328.813C282.804 328.813 282.693 328.635 282.603 328.137C282.16 325.748 281.351 325.109 278.749 325.109C276.447 325.109 276.534 325.053 276.534 326.213V340.53Z" fill="white"/>
<path fill-rule="evenodd" clip-rule="evenodd" d="M338.696 343.619C338.577 343.619 338.367 343.619 338.038 343.646C337.81 343.673 337.509 343.673 337.18 343.673C337.016 343.71 336.741 343.71 336.678 343.71C336.23 343.71 336.039 343.596 336.039 343.267C336.039 342.916 336.284 342.816 337.162 342.743C338.431 342.657 338.696 342.278 338.696 340.53V327.257C338.696 325.505 338.431 325.14 337.162 325.053C336.284 324.99 336.039 324.871 336.039 324.516C336.039 324.196 336.23 324.091 336.678 324.091C336.888 324.091 337.244 324.118 338.038 324.146C339.117 324.196 339.883 324.223 340.577 324.223C340.952 324.223 341.855 324.196 342.76 324.146C343.545 324.118 343.901 324.091 344.103 324.091C344.569 324.091 344.742 324.196 344.742 324.516C344.742 324.871 344.514 324.99 343.636 325.053C342.312 325.14 342.047 325.505 342.047 327.257V339.718C342.047 341.989 342.695 342.743 344.596 342.743C347.015 342.743 348.705 341.661 349.965 339.308C350.111 339.02 350.23 338.919 350.44 338.919C350.669 338.919 350.815 339.102 350.815 339.417C350.815 339.576 350.787 339.863 350.723 340.15C350.532 341.169 350.468 341.638 350.385 342.953C350.322 343.509 350.175 343.673 349.609 343.673C349.536 343.673 349.326 343.673 349.125 343.646C348.916 343.619 348.677 343.619 348.422 343.619H338.696Z" fill="white"/>
<path fill-rule="evenodd" clip-rule="evenodd" d="M358.152 340.53C358.152 342.278 358.425 342.657 359.75 342.743C360.616 342.816 360.854 342.916 360.854 343.267C360.854 343.596 360.672 343.71 360.206 343.71H360.032C359.804 343.71 359.996 343.71 358.854 343.646C358.041 343.619 357.102 343.596 356.444 343.596C355.621 343.596 355.101 343.619 353.32 343.673C353.191 343.71 353.102 343.71 352.973 343.71H352.799C352.334 343.71 352.133 343.596 352.133 343.267C352.133 342.916 352.379 342.816 353.266 342.743C354.543 342.657 354.818 342.278 354.818 340.53V327.257C354.818 325.505 354.543 325.14 353.266 325.053C352.379 324.99 352.133 324.871 352.133 324.516C352.133 324.196 352.334 324.091 352.799 324.091H352.973C353.191 324.091 353.01 324.091 354.124 324.146C355.147 324.174 355.749 324.196 356.616 324.196C357.43 324.196 357.722 324.196 359.685 324.118C359.804 324.091 359.887 324.091 360.032 324.091H360.206C360.672 324.091 360.854 324.196 360.854 324.516C360.854 324.871 360.616 324.99 359.75 325.053C358.425 325.14 358.152 325.505 358.152 327.257V340.53Z" fill="white"/>
<path fill-rule="evenodd" clip-rule="evenodd" d="M377.388 327.703C377.644 327.065 377.827 326.39 377.827 326.042C377.827 325.394 377.37 325.051 376.531 325.006C375.471 324.988 375.206 324.906 375.206 324.554C375.206 324.221 375.425 324.089 375.918 324.089C376.047 324.089 376.485 324.116 376.86 324.145C377.535 324.172 378.147 324.195 378.73 324.195C379.343 324.195 379.9 324.172 380.421 324.116C380.859 324.089 381.205 324.057 381.534 324.057C381.846 324.057 382.029 324.195 382.029 324.46C382.029 324.842 381.983 324.842 380.696 325.051C379.9 325.167 379.516 325.714 378.64 327.876L372.366 343.476C372.22 343.827 372.019 344.064 371.809 344.064C371.608 344.064 371.434 343.855 371.26 343.406L364.393 327.065C363.727 325.394 363.399 325.075 362.356 324.988C361.553 324.906 361.352 324.81 361.352 324.491C361.352 324.221 361.553 324.089 361.837 324.089H362.119C363.399 324.145 361.818 324.089 367.023 324.249C367.087 324.249 367.581 324.221 368.248 324.172C368.731 324.116 369.298 324.089 369.507 324.089C369.981 324.089 370.183 324.221 370.183 324.491C370.183 324.87 370.183 324.87 368.887 324.988C368.192 325.075 367.736 325.34 367.763 325.714C367.763 325.924 367.9 326.325 368.164 326.918L373.152 338.543L377.388 327.703Z" fill="white"/>
<path fill-rule="evenodd" clip-rule="evenodd" d="M388.581 340.53C388.581 342.278 388.856 342.657 390.162 342.743C391.047 342.816 391.275 342.916 391.275 343.267C391.275 343.596 391.101 343.71 390.645 343.71H390.455C390.226 343.71 390.426 343.71 389.285 343.646C388.471 343.619 387.532 343.596 386.873 343.596C386.042 343.596 385.53 343.619 383.75 343.673C383.641 343.71 383.532 343.71 383.403 343.71H383.23C382.764 343.71 382.562 343.596 382.562 343.267C382.562 342.916 382.81 342.816 383.687 342.743C384.974 342.657 385.248 342.278 385.248 340.53V327.257C385.248 325.505 384.974 325.14 383.687 325.053C382.81 324.99 382.562 324.871 382.562 324.516C382.562 324.196 382.764 324.091 383.23 324.091H383.403C383.641 324.091 383.431 324.091 384.554 324.146C385.595 324.174 386.17 324.196 387.046 324.196C387.861 324.196 388.161 324.196 390.098 324.118C390.226 324.091 390.298 324.091 390.455 324.091H390.645C391.101 324.091 391.275 324.196 391.275 324.516C391.275 324.871 391.047 324.99 390.162 325.053C388.856 325.14 388.581 325.505 388.581 327.257V340.53Z" fill="white"/>
<path fill-rule="evenodd" clip-rule="evenodd" d="M410.432 328.951C410.377 325.603 410.213 325.17 408.807 325.111C407.664 325.055 407.373 324.936 407.373 324.586C407.373 324.289 407.638 324.148 408.112 324.148C408.195 324.148 408.505 324.175 408.807 324.175C409.427 324.225 410.148 324.252 411.026 324.252C411.821 324.252 412.542 324.225 413.098 324.198C413.446 324.175 413.838 324.148 413.965 324.148C414.35 324.148 414.56 324.289 414.56 324.586C414.56 324.959 414.296 325.079 413.326 325.17C411.957 325.274 411.728 325.547 411.728 327.085L411.821 343.41C411.821 344.067 411.664 344.332 411.253 344.332C410.98 344.332 410.706 344.09 410.268 343.569L396.989 326.948L397.107 337.762C397.163 342.489 397.226 342.612 399.783 342.817C400.158 342.817 400.34 342.981 400.34 343.246C400.34 343.528 400.103 343.675 399.646 343.675C399.527 343.675 399.1 343.648 398.705 343.621C398.066 343.597 397.455 343.569 396.861 343.569C396.121 343.569 395.391 343.597 394.66 343.675C394.194 343.739 393.675 343.771 393.473 343.771C393.144 343.771 392.934 343.621 392.934 343.365C392.934 343.014 393.017 342.954 394.358 342.772C395.811 342.612 395.874 342.402 395.874 338.109V327.733C395.874 325.398 395.673 325.055 394.276 325.01C393.372 325.01 393.099 324.909 393.099 324.558C393.099 324.225 393.346 324.12 393.985 324.12L396.752 324.198L398.769 324.148C399.299 324.148 399.299 324.148 399.938 325.01L410.559 338.611L410.432 328.951Z" fill="white"/>
<path fill-rule="evenodd" clip-rule="evenodd" d="M430.741 336.856C430.741 335.455 430.302 335.022 428.785 334.985C427.79 334.958 427.552 334.848 427.552 334.456C427.552 334.204 427.727 334.091 428.174 334.091C428.229 334.091 428.658 334.119 428.959 334.119C430.493 334.178 431.699 334.204 433.013 334.204C433.799 334.204 434.593 334.178 435.17 334.119C435.699 334.091 436.229 334.06 436.402 334.06C436.722 334.06 436.886 334.178 436.886 334.4C436.924 334.757 436.668 334.876 435.754 334.93C434.53 335.022 434.182 335.338 434.182 336.386C434.182 336.564 434.21 337.44 434.265 338.403C434.265 338.899 434.292 339.603 434.292 340.095C434.292 341.752 434.292 341.752 433.837 342.075C432.257 343.157 429.379 343.91 426.768 343.91C423.498 343.91 420.85 342.952 418.922 341.058C417.141 339.307 416 336.564 416 334.027C416 330.988 417.643 327.982 420.284 326.121C422.412 324.641 425.069 323.88 428.255 323.88C430.156 323.88 432.667 324.369 433.132 324.843C433.342 325.052 433.342 325.076 433.543 326.261C433.708 327.321 433.771 327.75 433.771 328.051C433.771 328.347 433.626 328.553 433.388 328.574C433.151 328.607 432.931 328.364 432.667 327.836C431.461 325.664 429.891 324.669 427.498 324.669C423.416 324.669 419.937 329.004 419.937 334.119C419.937 339.269 423.188 343.124 427.515 343.124C428.785 343.124 429.837 342.815 430.238 342.313C430.529 341.898 430.741 340.856 430.741 339.538V336.856Z" fill="white"/>
<path fill-rule="evenodd" clip-rule="evenodd" d="M315.358 327.257C315.358 325.505 315.092 325.14 313.813 325.053C312.938 324.99 312.699 324.871 312.699 324.516C312.699 324.196 312.863 324.091 313.339 324.091C313.394 324.091 313.659 324.091 313.851 324.118C314.151 324.118 314.452 324.118 314.691 324.146C315.001 324.174 315.238 324.174 315.358 324.174H324.07C324.49 324.174 324.946 324.174 325.43 324.146C325.887 324.118 326.417 324.091 326.535 324.091C326.992 324.091 327.084 324.174 327.084 324.642V327.96C327.084 328.348 326.965 328.575 326.728 328.575C326.389 328.575 326.353 328.512 325.713 327.066C325.129 325.665 323.494 325.077 320.279 325.077C319 325.077 318.708 325.365 318.708 326.71V330.935C318.708 332.892 318.553 332.774 321.33 332.774C323.229 332.774 323.96 332.244 324.49 330.47C324.608 330.123 324.754 329.972 324.983 329.972C325.239 329.972 325.366 330.123 325.366 330.47L325.239 333.823C325.239 334.312 325.239 334.521 325.303 335.078C325.366 335.749 325.43 336.415 325.43 336.596C325.43 336.943 325.274 337.122 325.037 337.122C324.835 337.122 324.681 336.971 324.572 336.744C324.535 336.652 324.608 336.829 324.425 336.209L324.352 335.839L324.225 335.428C323.906 334.271 322.946 333.759 320.929 333.759C318.708 333.759 318.708 333.759 318.708 335.196V340.53C318.708 342.278 319 342.683 320.279 342.743C321.239 342.816 321.457 342.889 321.457 343.267C321.457 343.596 321.265 343.71 320.79 343.71H320.636C320.398 343.71 320.608 343.71 319.457 343.646C318.645 343.619 317.722 343.596 317.037 343.596C316.161 343.596 315.668 343.619 313.859 343.673C313.74 343.71 313.659 343.71 313.503 343.71H313.339C312.863 343.71 312.699 343.596 312.699 343.267C312.699 342.916 312.938 342.816 313.813 342.743C315.092 342.657 315.358 342.278 315.358 340.53V327.257Z" fill="white"/>
<path fill-rule="evenodd" clip-rule="evenodd" d="M169.673 340.568C169.673 342.324 169.929 342.703 171.244 342.775C172.116 342.845 172.359 342.968 172.359 343.315C172.359 343.634 172.176 343.748 171.689 343.748C171.506 343.748 171.212 343.748 170.368 343.694C169.409 343.634 168.555 343.606 167.834 343.606C167.427 343.606 166.46 343.634 165.646 343.694C164.801 343.748 164.51 343.748 164.327 343.748C163.838 343.748 163.66 343.634 163.66 343.315C163.66 342.968 163.902 342.845 164.766 342.775C166.048 342.703 166.322 342.324 166.322 340.568V325.963C166.322 325.297 166.139 325.114 165.56 325.114C163.604 325.114 162.724 325.265 162.053 325.698C161.386 326.141 160.331 327.299 159.897 328.111C159.637 328.618 159.486 328.732 159.217 328.765C158.993 328.792 158.793 328.581 158.793 328.377C158.793 328.24 158.81 328.09 158.879 327.883L160.162 323.457C160.272 323.011 160.396 322.91 160.633 322.91C160.824 322.91 160.92 322.983 161.003 323.339C161.152 324.009 161.442 324.211 162.38 324.211H172.464C173.67 324.211 174.924 324.097 175.386 323.974C175.706 323.854 175.943 323.617 176.094 323.221C176.204 322.91 176.327 322.793 176.532 322.793C176.846 322.793 176.992 323.129 176.961 323.686L176.934 324.065L176.733 327.883C176.706 328.581 176.565 328.855 176.236 328.855C175.943 328.855 175.834 328.674 175.742 328.18C175.299 325.79 174.476 325.146 171.892 325.146C169.582 325.146 169.673 325.088 169.673 326.256V340.568Z" fill="white"/>
<path fill-rule="evenodd" clip-rule="evenodd" d="M437.166 354.93H158.539V353.43H437.166V354.93Z" fill="white"/>
<path d="M268.725 268.973L255.766 252.73L256.939 251.799L269.898 268.042L268.725 268.973Z" fill="white"/>
<path d="M261.663 276.466L245.297 263.413L246.229 262.241L262.596 275.294L261.663 276.466Z" fill="white"/>
<path d="M256.443 285.284L237.484 276.159L238.135 274.811L257.094 283.936L256.443 285.284Z" fill="white"/>
<path d="M253.287 295.012L232.68 290.312L233.008 288.853L253.616 293.553L253.287 295.012Z" fill="white"/>
<path d="M231.156 303.683H252.32V305.178H231.156V303.683Z" fill="white"/>
<path d="M343.559 303.678H364.719V305.178H343.559V303.678Z" fill="white"/>
<path d="M342.25 293.553L362.834 288.853L363.168 290.312L342.584 295.012L342.25 293.553Z" fill="white"/>
<path d="M338.812 283.936L357.772 274.815L358.422 276.163L339.463 285.284L338.812 283.936Z" fill="white"/>
<path d="M333.324 275.294L349.699 262.241L350.631 263.413L334.257 276.466L333.324 275.294Z" fill="white"/>
<path d="M326.02 268.042L338.969 251.807L340.143 252.739L327.193 268.973L326.02 268.042Z" fill="white"/>
<path d="M252.718 310.272L241.379 311.544L241.215 310.055L252.553 308.783L252.718 310.272Z" fill="white"/>
<path d="M343.188 298.581L354.51 297.308L354.675 298.797L343.352 300.07L343.188 298.581Z" fill="white"/>
<path d="M340.824 288.649L351.528 284.908L352.021 286.321L341.317 290.061L340.824 288.649Z" fill="white"/>
<path d="M336.312 279.457L345.829 273.48L346.627 274.745L337.11 280.723L336.312 279.457Z" fill="white"/>
<path d="M329.887 271.465L337.731 263.613L338.793 264.668L330.948 272.52L329.887 271.465Z" fill="white"/>
<path d="M321.781 265.076L327.617 255.8L328.884 256.597L323.048 265.873L321.781 265.076Z" fill="white"/>
<path d="M272.831 265.873L266.996 256.593L268.263 255.796L274.098 265.076L272.831 265.873Z" fill="white"/>
<path d="M264.966 272.527L257.113 264.671L258.175 263.617L266.027 271.472L264.966 272.527Z" fill="white"/>
<path d="M258.777 280.729L249.262 274.748L250.059 273.482L259.574 279.463L258.777 280.729Z" fill="white"/>
<path d="M254.58 290.065L243.871 286.319L244.364 284.907L255.073 288.652L254.58 290.065Z" fill="white"/>
<path d="M343.352 308.792L354.675 310.07L354.51 311.559L343.188 310.281L343.352 308.792Z" fill="white"/>
<path d="M252.553 300.07L241.215 298.797L241.379 297.308L252.718 298.581L252.553 300.07Z" fill="white"/>
<path fill-rule="evenodd" clip-rule="evenodd" d="M216.446 285.116C216.702 285.165 217.656 284.34 217.811 283.769C217.981 283.166 217.785 282.601 217.524 282.155C217.268 281.713 216.506 280.735 216.341 280.434C216.168 280.123 215.954 279.627 216.009 279.554C216.058 279.49 218.99 278.746 214.798 274.717C213.592 273.559 211.172 271.614 208.519 270.707C205.999 269.84 204.141 269.886 203.46 269.909C203.168 269.912 203.241 270.287 203.355 270.278C203.387 270.278 208 270.72 211.533 273.477C214.944 276.114 215.103 277.186 214.913 277.536C214.771 277.78 214.219 277.757 213.792 277.568C213.228 277.332 212.734 277.067 212.821 276.934C212.876 276.852 213.177 276.402 212.98 275.948C212.79 275.51 212.355 275.347 211.977 275.424C211.441 275.539 211.264 275.99 211.273 276.264C211.299 277.007 211.99 277.003 211.99 277.158C211.977 277.263 211.766 278.687 210.995 278.71C209.592 278.724 207.336 276.775 206.875 276.387C204.483 274.398 200.794 274.17 198.862 275.954C196.77 277.874 197.085 280.571 198.223 282.114C199.13 283.381 199.797 283.984 200.126 284.189C200.236 284.252 200.423 284.317 200.315 284.103C200.227 283.929 198.743 282.228 198.807 280.015C198.843 278.933 199.287 277.966 199.949 277.388C200.447 276.961 201.656 275.967 203.812 276.402C204.903 276.624 206.113 277.24 207.386 278.262C209.031 279.591 211.555 280.091 213.277 281.713C213.99 282.383 214.798 283.067 214.986 283.291C215.173 283.5 216.296 284.5 216.42 284.736L216.446 285.116Z" fill="white"/>
<path fill-rule="evenodd" clip-rule="evenodd" d="M171.289 294.805C172.003 295.316 173.764 297.049 173.829 297.105C173.888 297.164 175.641 296.598 176.263 296.449C177.062 296.27 179.915 295.759 179.957 295.8C180.002 295.84 179.628 296.366 179.428 296.686C179.226 296.995 179.03 297.397 178.948 297.566C178.87 297.744 178.87 297.689 178.528 297.758C178.193 297.826 177.997 297.889 177.212 298.027C176.395 298.191 174.171 298.975 174.061 298.994C173.953 299.017 173.783 298.753 172.824 298.15C171.861 297.548 171.368 297.451 171.172 297.42C170.998 297.387 171.404 301.12 171.7 302.608C171.988 304.099 172.326 305.346 173.312 308.014C174.307 310.673 175.738 313.284 175.738 313.284H212.999C212.999 313.284 218.564 305.929 219.395 301.535C220.108 297.772 214.455 293.875 213.651 293.332C213.391 293.172 213.532 293.049 213.688 293.14C213.715 293.166 221.3 296.48 221.053 301.877C220.492 307.978 215.454 314.165 215.454 314.165H174.167C174.107 314.127 173.911 313.685 173.628 313.129C173.359 312.581 172.318 310.669 171.71 309.31C171.093 307.964 170.199 305.719 169.751 304.547C169.308 303.386 168.587 300.778 168.231 299.19C167.888 297.602 167.687 295.436 167.596 294.277C167.523 293.109 167.587 292.797 167.627 292.757C167.719 292.684 168.335 292.972 168.952 293.309C168.952 293.309 170.418 294.163 171.289 294.805Z" fill="white"/>
<path fill-rule="evenodd" clip-rule="evenodd" d="M171.407 277.722C171.649 276.644 171.973 276.112 171.973 276.112C171.973 276.112 180.49 276.015 189.161 283.347C197.836 290.652 200.362 296.354 200.097 296.483C199.835 296.625 197.613 291.573 188.178 284.669C178.745 277.777 171.156 279.556 171.156 279.556C171.156 279.556 171.165 278.743 171.407 277.722Z" fill="white"/>
<path fill-rule="evenodd" clip-rule="evenodd" d="M170.982 284.821C170.919 283.871 171.018 283.402 171.018 283.402C171.018 283.402 174.232 283.168 177.406 283.721C181.881 284.506 187.009 287.85 187.009 287.85L186.106 288.662C186.106 288.662 180.48 286.814 177.046 286.454C173.598 286.099 171.219 286.359 171.219 286.359C171.219 286.359 171.05 285.797 170.982 284.821Z" fill="white"/>
<path fill-rule="evenodd" clip-rule="evenodd" d="M172.456 292.176C172.091 291.062 172.035 290.497 172.035 290.497C172.035 290.497 174.926 290.26 177.337 290.429C179.748 290.61 183.313 291.323 183.313 291.323L182.51 292.277C182.51 292.277 179.315 292.504 177.41 292.815C175.501 293.13 173.091 293.928 173.091 293.928C173.091 293.928 172.848 293.331 172.456 292.176Z" fill="white"/>
<path fill-rule="evenodd" clip-rule="evenodd" d="M214.089 279.388C214.089 279.388 213.697 279.422 213.286 279.535C212.862 279.644 212.445 279.823 212.445 279.823C212.445 279.823 213.788 280.885 214.199 281.295C214.61 281.717 215.769 282.851 215.815 282.911C215.829 282.929 216.272 282.605 216.025 282.249C215.769 281.88 215.258 281.186 214.825 280.634C214.551 280.26 214.089 279.388 214.089 279.388Z" fill="white" stroke="white" stroke-width="1.14141" stroke-miterlimit="2.61313"/>
<path fill-rule="evenodd" clip-rule="evenodd" d="M208.48 295.527C205.161 293.405 203.123 292.028 197.731 288.177C190.548 283.053 192.722 276.533 193.224 275.412L193.233 275.407C193.375 275.215 193.698 275.425 193.625 275.635C193.204 276.789 191.7 282.744 199.037 287.42C206.389 292.12 207.827 292.983 210.123 294.401C213.529 296.5 213.566 298.54 213.352 300.194C213.133 301.719 212.306 303.083 212.182 303.285C212.069 303.439 210.776 302.112 208.804 300.875C206.69 299.529 203.926 298.435 203.83 298.397C203.48 298.239 203.613 298.156 203.771 298.142C203.932 298.133 206.169 298.22 208.024 298.713C209.945 299.251 211.078 299.954 211.123 299.891C211.123 299.891 212.435 298.014 208.48 295.527Z" fill="white"/>
<path fill-rule="evenodd" clip-rule="evenodd" d="M379.463 285.036C379.207 285.078 378.257 284.252 378.101 283.691C377.919 283.089 378.12 282.518 378.386 282.08C378.65 281.633 379.407 280.653 379.581 280.36C379.736 280.046 379.956 279.548 379.909 279.481C379.855 279.416 376.914 278.668 381.125 274.648C382.304 273.486 384.75 271.541 387.398 270.62C389.91 269.761 391.764 269.798 392.449 269.834C392.75 269.843 392.669 270.203 392.559 270.199C392.523 270.199 387.929 270.642 384.376 273.398C380.979 276.031 380.804 277.117 381.006 277.463C381.152 277.701 381.673 277.673 382.12 277.49C382.677 277.249 383.17 276.993 383.097 276.861C383.051 276.769 382.741 276.318 382.933 275.875C383.125 275.428 383.545 275.273 383.919 275.351C384.466 275.465 384.659 275.911 384.649 276.182C384.623 276.93 383.919 276.921 383.919 277.085C383.919 277.18 384.147 278.604 384.915 278.626C386.321 278.645 388.577 276.692 389.043 276.309C391.436 274.316 395.115 274.101 397.061 275.879C399.134 277.792 398.814 280.492 397.699 282.034C396.787 283.295 396.102 283.9 395.783 284.111C395.683 284.174 395.49 284.248 395.6 284.019C395.691 283.846 397.162 282.144 397.107 279.931C397.07 278.864 396.613 277.883 395.956 277.299C395.471 276.88 394.258 275.885 392.093 276.318C391.007 276.537 389.8 277.158 388.532 278.184C386.887 279.502 384.34 280.018 382.64 281.633C381.919 282.301 381.125 282.998 380.914 283.212C380.741 283.417 379.618 284.417 379.49 284.654L379.463 285.036Z" fill="white"/>
<path fill-rule="evenodd" clip-rule="evenodd" d="M424.636 294.718C423.914 295.246 422.151 296.967 422.106 297.026C422.024 297.084 420.28 296.515 419.65 296.369C418.864 296.19 416.005 295.681 415.96 295.72C415.906 295.758 416.298 296.287 416.499 296.601C416.7 296.912 416.883 297.322 416.974 297.478C417.047 297.664 417.047 297.605 417.385 297.678C417.723 297.751 417.905 297.806 418.719 297.951C419.521 298.103 421.75 298.901 421.86 298.914C421.977 298.928 422.143 298.672 423.101 298.07C424.052 297.468 424.554 297.376 424.736 297.34C424.918 297.308 424.517 301.036 424.215 302.533C423.923 304.019 423.595 305.27 422.618 307.935C421.604 310.6 420.179 313.205 420.179 313.205H382.928C382.928 313.205 377.357 305.845 376.526 301.461C375.804 297.687 381.458 293.794 382.27 293.257C382.526 293.088 382.389 292.969 382.242 293.061C382.207 293.079 374.627 296.4 374.873 301.793C375.42 307.898 380.462 314.076 380.462 314.076C380.462 314.076 421.75 314.076 421.76 314.076C421.806 314.053 422.015 313.611 422.289 313.049C422.562 312.497 423.604 310.59 424.215 309.235C424.828 307.888 425.722 305.645 426.17 304.471C426.609 303.312 427.33 300.698 427.687 299.11C428.033 297.528 428.233 295.347 428.316 294.191C428.408 293.029 428.325 292.719 428.288 292.682C428.207 292.609 427.585 292.896 426.973 293.234C426.973 293.234 425.513 294.083 424.636 294.718Z" fill="white"/>
<path fill-rule="evenodd" clip-rule="evenodd" d="M424.48 277.64C424.242 276.565 423.914 276.029 423.914 276.029C423.914 276.029 415.402 275.925 406.736 283.262C398.059 290.581 395.539 296.274 395.804 296.402C396.06 296.543 398.288 291.488 407.713 284.589C417.145 277.692 424.736 279.48 424.736 279.48C424.736 279.48 424.727 278.659 424.48 277.64Z" fill="white"/>
<path fill-rule="evenodd" clip-rule="evenodd" d="M424.908 284.746C424.991 283.797 424.882 283.319 424.882 283.319C424.882 283.319 421.657 283.09 418.488 283.638C414.005 284.427 408.891 287.775 408.891 287.775L409.785 288.583C409.785 288.583 415.411 286.732 418.854 286.375C422.288 286.015 424.672 286.274 424.672 286.274C424.672 286.274 424.845 285.723 424.908 284.746Z" fill="white"/>
<path fill-rule="evenodd" clip-rule="evenodd" d="M423.432 292.09C423.797 290.981 423.851 290.42 423.851 290.42C423.851 290.42 420.965 290.183 418.546 290.345C416.143 290.519 412.582 291.241 412.582 291.241L413.368 292.194C413.368 292.194 416.582 292.422 418.481 292.728C420.38 293.043 422.783 293.842 422.783 293.842C422.783 293.842 423.039 293.252 423.432 292.09Z" fill="white"/>
<path fill-rule="evenodd" clip-rule="evenodd" d="M381.81 279.3C381.81 279.3 382.213 279.345 382.632 279.459C383.043 279.56 383.464 279.743 383.464 279.743C383.464 279.743 382.13 280.8 381.711 281.225C381.3 281.635 380.148 282.772 380.093 282.835C380.085 282.849 379.636 282.521 379.882 282.17C380.147 281.801 380.66 281.107 381.061 280.545C381.354 280.185 381.81 279.3 381.81 279.3Z" fill="white"/>
<path fill-rule="evenodd" clip-rule="evenodd" d="M387.442 295.452C390.766 293.331 392.793 291.957 398.199 288.111C405.378 282.993 403.204 276.467 402.693 275.34V275.337C402.547 275.136 402.218 275.355 402.3 275.56C402.721 276.724 404.228 282.665 396.903 287.354C389.542 292.036 388.09 292.902 385.788 294.331C382.4 296.421 382.356 298.468 382.583 300.125C382.802 301.645 383.624 303.017 383.752 303.2C383.835 303.365 385.149 302.033 387.123 300.791C389.241 299.459 391.999 298.354 392.091 298.314C392.445 298.164 392.309 298.076 392.163 298.064C391.999 298.055 389.762 298.149 387.917 298.647C385.98 299.172 384.839 299.883 384.793 299.809C384.793 299.809 383.496 297.943 387.442 295.452Z" fill="white"/>
<path fill-rule="evenodd" clip-rule="evenodd" d="M437.175 314.315H158.539V312.814H437.175V314.315Z" fill="white"/>
</g>
<path d="M743.059 187.814C741.46 185.495 739.301 183.816 736.582 182.776C733.944 181.657 731.145 181.097 728.187 181.097C726.427 181.097 724.708 181.297 723.029 181.697C721.43 182.096 719.951 182.736 718.591 183.616C717.312 184.495 716.273 185.655 715.473 187.094C714.673 188.453 714.274 190.092 714.274 192.011C714.274 194.89 715.273 197.089 717.272 198.608C719.271 200.127 721.75 201.447 724.708 202.566C727.667 203.686 730.905 204.765 734.423 205.805C737.942 206.844 741.18 208.283 744.139 210.122C747.097 211.961 749.576 214.4 751.575 217.439C753.574 220.477 754.573 224.515 754.573 229.553C754.573 234.11 753.734 238.108 752.055 241.547C750.375 244.905 748.097 247.703 745.218 249.942C742.419 252.181 739.141 253.86 735.383 254.98C731.625 256.099 727.667 256.659 723.509 256.659C718.232 256.659 713.154 255.779 708.277 254.02C703.399 252.261 699.201 249.303 695.683 245.145L707.077 234.11C708.916 236.909 711.315 239.108 714.274 240.707C717.312 242.226 720.51 242.986 723.869 242.986C725.628 242.986 727.387 242.746 729.146 242.266C730.905 241.786 732.504 241.067 733.944 240.107C735.383 239.148 736.542 237.948 737.422 236.509C738.302 234.99 738.741 233.271 738.741 231.352C738.741 228.233 737.742 225.834 735.743 224.155C733.744 222.476 731.265 221.077 728.307 219.957C725.348 218.758 722.11 217.639 718.591 216.599C715.073 215.56 711.835 214.16 708.876 212.401C705.918 210.562 703.439 208.163 701.44 205.205C699.441 202.166 698.442 198.128 698.442 193.091C698.442 188.693 699.321 184.895 701.08 181.697C702.919 178.498 705.278 175.86 708.157 173.781C711.115 171.622 714.474 170.023 718.232 168.983C721.99 167.944 725.828 167.424 729.746 167.424C734.224 167.424 738.541 168.104 742.699 169.463C746.937 170.822 750.735 173.061 754.094 176.179L743.059 187.814ZM808.332 187.814C806.733 185.495 804.574 183.816 801.856 182.776C799.217 181.657 796.418 181.097 793.46 181.097C791.701 181.097 789.982 181.297 788.303 181.697C786.703 182.096 785.224 182.736 783.865 183.616C782.585 184.495 781.546 185.655 780.746 187.094C779.947 188.453 779.547 190.092 779.547 192.011C779.547 194.89 780.546 197.089 782.545 198.608C784.544 200.127 787.023 201.447 789.982 202.566C792.94 203.686 796.179 204.765 799.697 205.805C803.215 206.844 806.453 208.283 809.412 210.122C812.37 211.961 814.849 214.4 816.848 217.439C818.847 220.477 819.847 224.515 819.847 229.553C819.847 234.11 819.007 238.108 817.328 241.547C815.649 244.905 813.37 247.703 810.491 249.942C807.693 252.181 804.414 253.86 800.656 254.98C796.898 256.099 792.94 256.659 788.782 256.659C783.505 256.659 778.428 255.779 773.55 254.02C768.672 252.261 764.475 249.303 760.956 245.145L772.351 234.11C774.19 236.909 776.588 239.108 779.547 240.707C782.585 242.226 785.784 242.986 789.142 242.986C790.901 242.986 792.66 242.746 794.419 242.266C796.179 241.786 797.778 241.067 799.217 240.107C800.656 239.148 801.816 237.948 802.695 236.509C803.575 234.99 804.015 233.271 804.015 231.352C804.015 228.233 803.015 225.834 801.016 224.155C799.017 222.476 796.538 221.077 793.58 219.957C790.621 218.758 787.383 217.639 783.865 216.599C780.347 215.56 777.108 214.16 774.15 212.401C771.191 210.562 768.712 208.163 766.713 205.205C764.714 202.166 763.715 198.128 763.715 193.091C763.715 188.693 764.595 184.895 766.354 181.697C768.193 178.498 770.552 175.86 773.43 173.781C776.389 171.622 779.747 170.023 783.505 168.983C787.263 167.944 791.101 167.424 795.019 167.424C799.497 167.424 803.815 168.104 807.973 169.463C812.211 170.822 816.009 173.061 819.367 176.179L808.332 187.814ZM831.987 169.583H861.492C865.57 169.583 869.488 169.983 873.246 170.782C877.084 171.502 880.482 172.781 883.441 174.62C886.399 176.459 888.758 178.938 890.517 182.056C892.276 185.175 893.156 189.133 893.156 193.931C893.156 200.087 891.437 205.245 887.999 209.403C884.64 213.561 879.803 216.079 873.486 216.959L896.035 254.5H877.804L858.134 218.518H847.099V254.5H831.987V169.583ZM858.853 205.565C861.012 205.565 863.171 205.485 865.33 205.325C867.489 205.085 869.448 204.605 871.207 203.885C873.046 203.086 874.525 201.926 875.645 200.407C876.764 198.808 877.324 196.609 877.324 193.811C877.324 191.332 876.804 189.333 875.765 187.814C874.725 186.294 873.366 185.175 871.687 184.455C870.008 183.656 868.129 183.136 866.05 182.896C864.051 182.656 862.092 182.536 860.173 182.536H847.099V205.565H858.853ZM903.937 169.583H937.04C940.238 169.583 943.397 169.983 946.515 170.782C949.633 171.502 952.392 172.741 954.791 174.5C957.27 176.179 959.269 178.378 960.788 181.097C962.307 183.816 963.067 187.094 963.067 190.932C963.067 195.73 961.707 199.688 958.989 202.806C956.27 205.924 952.712 208.163 948.314 209.523V209.763C950.953 210.082 953.392 210.842 955.63 212.041C957.949 213.161 959.908 214.64 961.508 216.479C963.107 218.238 964.346 220.317 965.226 222.716C966.185 225.035 966.665 227.554 966.665 230.272C966.665 234.91 965.745 238.788 963.906 241.906C962.067 244.945 959.628 247.424 956.59 249.343C953.631 251.182 950.193 252.501 946.275 253.301C942.437 254.1 938.519 254.5 934.521 254.5H903.937V169.583ZM919.049 204.125H932.842C937.879 204.125 941.638 203.166 944.116 201.247C946.675 199.248 947.954 196.649 947.954 193.451C947.954 189.773 946.635 187.054 943.996 185.295C941.438 183.456 937.28 182.536 931.523 182.536H919.049V204.125ZM919.049 241.547H932.962C934.881 241.547 936.92 241.427 939.079 241.187C941.318 240.947 943.357 240.387 945.196 239.508C947.035 238.628 948.554 237.389 949.753 235.789C950.953 234.11 951.553 231.871 951.553 229.073C951.553 224.595 950.073 221.477 947.115 219.718C944.236 217.958 939.718 217.079 933.562 217.079H919.049V241.547ZM978.471 169.583H1001.5L1024.17 229.073L1047.08 169.583H1069.87V254.5H1055.47V183.976H1055.23L1029.45 254.5H1018.89L993.104 183.976H992.864V254.5H978.471V169.583ZM701.44 331.583H730.945C735.023 331.583 738.941 331.983 742.699 332.782C746.537 333.502 749.936 334.781 752.894 336.62C755.853 338.459 758.211 340.938 759.971 344.056C761.73 347.175 762.609 351.133 762.609 355.931C762.609 362.087 760.89 367.245 757.452 371.403C754.094 375.561 749.256 378.079 742.939 378.959L765.488 416.5H747.257L727.587 380.518H716.552V416.5H701.44V331.583ZM728.307 367.565C730.465 367.565 732.624 367.485 734.783 367.325C736.942 367.085 738.901 366.605 740.66 365.885C742.499 365.086 743.979 363.926 745.098 362.407C746.218 360.808 746.777 358.609 746.777 355.811C746.777 353.332 746.257 351.333 745.218 349.814C744.179 348.294 742.819 347.175 741.14 346.455C739.461 345.656 737.582 345.136 735.503 344.896C733.504 344.656 731.545 344.536 729.626 344.536H716.552V367.565H728.307ZM773.39 331.583H802.895C806.973 331.583 810.891 331.983 814.649 332.782C818.487 333.502 821.885 334.781 824.844 336.62C827.802 338.459 830.161 340.938 831.92 344.056C833.679 347.175 834.559 351.133 834.559 355.931C834.559 362.087 832.84 367.245 829.402 371.403C826.043 375.561 821.206 378.079 814.889 378.959L837.438 416.5H819.207L799.537 380.518H788.502V416.5H773.39V331.583ZM800.256 367.565C802.415 367.565 804.574 367.485 806.733 367.325C808.892 367.085 810.851 366.605 812.61 365.885C814.449 365.086 815.928 363.926 817.048 362.407C818.167 360.808 818.727 358.609 818.727 355.811C818.727 353.332 818.207 351.333 817.168 349.814C816.128 348.294 814.769 347.175 813.09 346.455C811.411 345.656 809.532 345.136 807.453 344.896C805.454 344.656 803.495 344.536 801.576 344.536H788.502V367.565H800.256ZM877.231 331.583H897.261L938.4 394.671H938.64V331.583H953.753V416.5H934.562L892.583 351.373H892.344V416.5H877.231V331.583ZM996.559 331.583H1009.63L1046.21 416.5H1028.94L1021.03 397.07H984.205L976.529 416.5H959.618L996.559 331.583ZM1015.75 384.116L1002.68 349.574L989.363 384.116H1015.75ZM1127.49 410.263C1117.02 415.86 1105.31 418.659 1092.35 418.659C1085.8 418.659 1079.76 417.619 1074.24 415.54C1068.8 413.382 1064.09 410.383 1060.09 406.545C1056.17 402.627 1053.09 397.949 1050.85 392.512C1048.61 387.075 1047.49 381.038 1047.49 374.401C1047.49 367.605 1048.61 361.448 1050.85 355.931C1053.09 350.333 1056.17 345.576 1060.09 341.658C1064.09 337.74 1068.8 334.741 1074.24 332.662C1079.76 330.503 1085.8 329.424 1092.35 329.424C1098.83 329.424 1104.91 330.223 1110.58 331.823C1116.26 333.342 1121.34 336.1 1125.82 340.098L1114.66 351.373C1111.94 348.734 1108.62 346.695 1104.71 345.256C1100.87 343.817 1096.79 343.097 1092.47 343.097C1088.07 343.097 1084.08 343.897 1080.48 345.496C1076.96 347.015 1073.92 349.174 1071.36 351.972C1068.8 354.691 1066.81 357.89 1065.37 361.568C1064.01 365.246 1063.33 369.204 1063.33 373.442C1063.33 377.999 1064.01 382.197 1065.37 386.035C1066.81 389.873 1068.8 393.192 1071.36 395.99C1073.92 398.789 1076.96 400.988 1080.48 402.587C1084.08 404.186 1088.07 404.986 1092.47 404.986C1096.31 404.986 1099.91 404.626 1103.27 403.906C1106.71 403.187 1109.74 402.067 1112.38 400.548V380.518H1094.99V366.845H1127.49V410.263ZM1169.27 331.583H1182.35L1218.93 416.5H1201.66L1193.74 397.07H1156.92L1149.24 416.5H1132.33L1169.27 331.583ZM1188.46 384.116L1175.39 349.574L1162.08 384.116H1188.46ZM1224.77 331.583H1254.27C1258.35 331.583 1262.27 331.983 1266.02 332.782C1269.86 333.502 1273.26 334.781 1276.22 336.62C1279.18 338.459 1281.54 340.938 1283.3 344.056C1285.06 347.175 1285.93 351.133 1285.93 355.931C1285.93 362.087 1284.22 367.245 1280.78 371.403C1277.42 375.561 1272.58 378.079 1266.26 378.959L1288.81 416.5H1270.58L1250.91 380.518H1239.88V416.5H1224.77V331.583ZM1251.63 367.565C1253.79 367.565 1255.95 367.485 1258.11 367.325C1260.27 367.085 1262.23 366.605 1263.99 365.885C1265.82 365.086 1267.3 363.926 1268.42 362.407C1269.54 360.808 1270.1 358.609 1270.1 355.811C1270.1 353.332 1269.58 351.333 1268.54 349.814C1267.5 348.294 1266.14 347.175 1264.47 346.455C1262.79 345.656 1260.91 345.136 1258.83 344.896C1256.83 344.656 1254.87 344.536 1252.95 344.536H1239.88V367.565H1251.63Z" fill="#17436D"/>
<defs>
<radialGradient id="paint0_radial_1118_523" cx="0" cy="0" r="1" gradientUnits="userSpaceOnUse" gradientTransform="translate(298.881 315.624) scale(73.8759 73.8167)">
<stop stop-color="#FFF200"/>
<stop offset="0.1" stop-color="#FFF200"/>
<stop offset="1" stop-color="#F68712"/>
</radialGradient>
</defs>
</svg>
