<svg width="663" height="725" viewBox="0 0 663 725" fill="none" xmlns="http://www.w3.org/2000/svg">
<rect x="34" width="595" height="595" rx="297.5" fill="white"/>
<mask id="mask0_1041_692" style="mask-type:luminance" maskUnits="userSpaceOnUse" x="-206" y="-455" width="1075" height="1504">
<path d="M-205.668 1048.56H868.663V-455H-205.668V1048.56Z" fill="white"/>
</mask>
<g mask="url(#mask0_1041_692)">
<path fill-rule="evenodd" clip-rule="evenodd" d="M330.862 6.01141C491.756 6.01141 622.236 136.263 622.236 296.876C622.236 457.489 491.756 587.74 330.862 587.74C169.968 587.74 39.4883 457.489 39.4883 296.876C39.4883 136.263 169.968 6.01141 330.862 6.01141Z" fill="#17436D"/>
<path d="M627.757 296.877H616.709L616.351 282.17L615.247 267.681L613.416 253.405L610.917 239.364L607.728 225.551L603.865 212.029L599.37 198.774L594.26 185.803L588.533 173.178L582.227 160.873L575.34 148.908L567.889 137.344L559.915 126.155L551.437 115.361L542.451 105.022L532.975 95.1133L523.05 85.6539L512.693 76.6838L501.88 68.2202L490.671 60.261L479.087 52.8232L467.1 45.9484L454.774 39.6534L442.127 33.9353L429.133 28.8347L415.855 24.3469L402.309 20.4916L388.473 17.3074L374.406 14.8141L360.106 12.9853L345.592 11.8838L330.859 11.5264V0.497559L346.11 0.8974L361.186 2.04272L376.046 3.91418L390.674 6.53729L405.028 9.85022L419.134 13.8354L432.931 18.4948L446.4 23.8115L459.565 29.7446L472.366 36.2984L484.784 43.4319L496.842 51.1273L508.482 59.3888L519.684 68.1964L530.473 77.5114L540.787 87.3157L550.608 97.6116L559.94 108.382L568.763 119.564L577.038 131.183L584.747 143.221L591.893 155.617L598.458 168.395L604.402 181.538L609.729 194.983L614.396 208.756L618.388 222.837L621.707 237.166L624.334 251.768L626.209 266.603L627.356 281.653L627.757 296.877ZM330.859 593.256V582.227L345.592 581.869L360.106 580.768L374.406 578.939L388.473 576.446L402.309 573.262L415.855 569.406L429.133 564.918L442.127 559.818L454.774 554.1L467.1 547.805L479.087 540.93L490.671 533.492L501.88 525.533L512.693 517.069L523.05 508.099L532.975 498.64L542.451 488.731L551.437 478.393L559.915 467.598L567.889 456.409L575.34 444.845L582.227 432.88L588.533 420.575L594.26 407.95L599.37 394.979L603.865 381.724L607.728 368.202L610.917 354.39L613.416 340.348L615.247 326.073L616.351 311.583L616.709 296.877H627.757L627.356 312.101L626.209 327.15L624.334 341.985L621.707 356.587L618.388 370.916L614.396 384.997L609.729 398.77L604.402 412.215L598.458 425.358L591.893 438.136L584.747 450.532L577.038 462.57L568.763 474.189L559.94 485.371L550.608 496.142L540.787 506.438L530.473 516.242L519.684 525.557L508.482 534.364L496.842 542.626L484.784 550.321L472.366 557.455L459.565 564.008L446.4 569.942L432.931 575.258L419.134 579.918L405.028 583.903L390.674 587.216L376.046 589.839L361.186 591.71L346.11 592.856L330.859 593.256ZM33.9609 296.877H45.0094L45.3671 311.583L46.4711 326.073L48.3022 340.348L50.8005 354.39L53.9897 368.202L57.8524 381.724L62.3476 394.979L67.4577 407.95L73.1854 420.575L79.4912 432.88L86.3785 444.845L93.8286 456.409L101.803 467.598L110.281 478.393L119.267 488.731L128.743 498.64L138.668 508.099L149.025 517.069L159.838 525.533L171.047 533.492L182.631 540.93L194.618 547.805L206.944 554.1L219.591 559.818L232.585 564.918L245.863 569.406L259.409 573.262L273.245 576.446L287.312 578.939L301.612 580.768L316.126 581.869L330.859 582.227V593.256L315.608 592.856L300.532 591.71L285.672 589.839L271.044 587.216L256.69 583.903L242.584 579.918L228.787 575.258L215.318 569.942L202.153 564.008L189.352 557.455L176.934 550.321L164.876 542.626L153.236 534.364L142.034 525.557L131.245 516.242L120.931 506.438L111.11 496.142L101.778 485.371L92.9554 474.189L84.6799 462.57L76.9707 450.532L69.8245 438.136L63.2597 425.358L57.3157 412.215L51.9894 398.77L47.3217 384.997L43.33 370.916L40.011 356.587L37.3836 341.985L35.5088 327.15L34.3622 312.101L33.9609 296.877ZM330.859 0.497559V11.5264L316.126 11.8838L301.612 12.9853L287.312 14.8141L273.245 17.3074L259.409 20.4916L245.863 24.3469L232.585 28.8347L219.591 33.9353L206.944 39.6534L194.618 45.9484L182.631 52.8232L171.047 60.261L159.838 68.2202L149.025 76.6838L138.668 85.6539L128.743 95.1133L119.267 105.022L110.281 115.361L101.803 126.155L93.8286 137.344L86.3785 148.908L79.4912 160.873L73.1854 173.178L67.4577 185.803L62.3476 198.774L57.8524 212.029L53.9897 225.551L50.8005 239.364L48.3022 253.405L46.4711 267.681L45.3671 282.17L45.0094 296.877H33.9609L34.3622 281.653L35.5088 266.603L37.3836 251.768L40.011 237.166L43.33 222.837L47.3217 208.756L51.9894 194.983L57.3157 181.538L63.2597 168.395L69.8245 155.617L76.9707 143.221L84.6799 131.183L92.9554 119.564L101.778 108.382L111.11 97.6116L120.931 87.3157L131.245 77.5114L142.034 68.1964L153.236 59.3888L164.876 51.1273L176.934 43.4319L189.352 36.2984L202.153 29.7446L215.318 23.8115L228.787 18.4948L242.584 13.8354L256.69 9.85022L271.044 6.53729L285.672 3.91418L300.532 2.04272L315.608 0.8974L330.859 0.497559Z" fill="#17436D"/>
<path fill-rule="evenodd" clip-rule="evenodd" d="M330.848 22.5734C482.427 22.5734 605.353 145.409 605.353 296.877C605.353 448.345 482.427 571.18 330.848 571.18C179.27 571.18 56.3438 448.345 56.3438 296.877C56.3438 145.409 179.27 22.5734 330.848 22.5734Z" fill="#17436D"/>
<path d="M608.317 296.874H602.442L602.097 282.899L601.048 269.119L599.314 255.542L596.934 242.185L593.903 229.052L590.237 216.186L585.967 203.579L581.108 191.249L575.668 179.236L569.674 167.535L563.132 156.162L556.059 145.159L548.486 134.519L540.427 124.259L531.891 114.421L522.893 104.997L513.462 96.0057L503.617 87.4751L493.349 79.4228L482.701 71.8547L471.69 64.788L460.309 58.2512L448.599 52.261L436.578 46.8244L424.239 41.9697L411.623 37.7023L398.747 34.0398L385.605 31.0107L372.237 28.633L358.651 26.8994L344.861 25.8513L330.875 25.5057V19.6361L345.137 20.0043L359.224 21.0752L373.109 22.8315L386.775 25.2789L400.192 28.3762L413.367 32.108L426.259 36.4667L438.85 41.4365L451.147 46.9879L463.108 53.1149L474.718 59.7895L485.983 66.9939L496.86 74.7227L507.333 82.9583L517.409 91.6722L527.046 100.847L536.228 110.477L544.948 120.545L553.19 131.011L560.924 141.88L568.134 153.136L574.813 164.738L580.945 176.691L586.5 188.979L591.473 201.561L595.836 214.443L599.57 227.608L602.67 241.015L605.119 254.671L606.876 268.546L607.948 282.623L608.317 296.874ZM330.875 574.113V568.243L344.861 567.897L358.651 566.849L372.237 565.116L385.605 562.738L398.747 559.709L411.623 556.046L424.239 551.779L436.578 546.924L448.599 541.487L460.309 535.497L471.69 528.961L482.701 521.894L493.349 514.326L503.617 506.274L513.462 497.743L522.893 488.752L531.891 479.328L540.427 469.49L548.486 459.23L556.059 448.59L563.132 437.587L569.674 426.214L575.668 414.512L581.108 402.5L585.967 390.17L590.237 377.563L593.903 364.696L596.934 351.564L599.314 338.207L601.048 324.63L602.097 310.85L602.442 296.874H608.317L607.948 311.125L606.876 325.203L605.119 339.078L602.67 352.734L599.57 366.141L595.836 379.305L591.473 392.188L586.5 404.77L580.945 417.058L574.813 429.011L568.134 440.612L560.924 451.868L553.19 462.737L544.948 473.203L536.228 483.272L527.046 492.902L517.409 502.076L507.333 510.79L496.86 519.026L485.983 526.755L474.718 533.959L463.108 540.634L451.147 546.761L438.85 552.312L426.259 557.282L413.367 561.641L400.192 565.372L386.775 568.47L373.109 570.917L359.224 572.673L345.137 573.744L330.875 574.113ZM53.4336 296.874H59.3081L59.6532 310.85L60.7023 324.63L62.4368 338.207L64.817 351.564L67.848 364.696L71.5137 377.563L75.7837 390.17L80.6424 402.5L86.0828 414.512L92.0768 426.214L98.6189 437.587L105.691 448.59L113.265 459.23L121.323 469.49L129.859 479.328L138.858 488.752L148.289 497.743L158.134 506.274L168.401 514.326L179.049 521.894L190.061 528.961L201.441 535.497L213.151 541.487L225.172 546.924L237.512 551.779L250.128 556.046L263.004 559.709L276.146 562.738L289.513 565.116L303.1 566.849L316.89 567.897L330.875 568.243V574.113L316.614 573.744L302.526 572.673L288.641 570.917L274.975 568.47L261.558 565.372L248.384 561.641L235.492 557.282L222.901 552.312L210.604 546.761L198.642 540.634L187.032 533.959L175.768 526.755L164.891 519.026L154.417 510.79L144.342 502.076L134.704 492.902L125.523 483.272L116.803 473.203L108.561 462.737L100.826 451.868L93.6164 440.612L86.9373 429.011L80.8056 417.058L75.2501 404.77L70.2773 392.188L65.9151 379.305L62.1808 366.141L59.0803 352.734L56.6317 339.078L54.8745 325.203L53.8026 311.125L53.4336 296.874ZM330.875 19.6361V25.5057L316.89 25.8513L303.1 26.8994L289.513 28.633L276.146 31.0107L263.004 34.0398L250.128 37.7023L237.512 41.9697L225.172 46.8244L213.151 52.261L201.441 58.2512L190.061 64.788L179.049 71.8547L168.401 79.4228L158.134 87.4751L148.289 96.0057L138.858 104.997L129.859 114.421L121.323 124.259L113.265 134.519L105.691 145.159L98.6189 156.162L92.0768 167.535L86.0828 179.236L80.6424 191.249L75.7837 203.579L71.5137 216.186L67.848 229.052L64.817 242.185L62.4368 255.542L60.7023 269.119L59.6532 282.899L59.3081 296.874H53.4336L53.8026 282.623L54.8745 268.546L56.6317 254.671L59.0803 241.015L62.1808 227.608L65.9151 214.443L70.2773 201.561L75.2501 188.979L80.8056 176.691L86.9373 164.738L93.6164 153.136L100.826 141.88L108.561 131.011L116.803 120.545L125.523 110.477L134.704 100.847L144.342 91.6722L154.417 82.9583L164.891 74.7227L175.768 66.9939L187.032 59.7895L198.642 53.1149L210.604 46.9879L222.901 41.4365L235.492 36.4667L248.384 32.108L261.558 28.3762L274.975 25.2789L288.641 22.8315L302.526 21.0752L316.614 20.0043L330.875 19.6361Z" fill="white"/>
<path d="M117.737 375.237L115.872 370.445C117.704 369.612 119.102 368.577 120.071 367.335C121.039 366.093 121.633 364.457 121.857 362.427C122.082 360.397 121.857 358.258 121.198 356.018C120.612 354.024 119.811 352.36 118.798 351.014C117.774 349.672 116.661 348.779 115.451 348.35C114.233 347.924 113.043 347.891 111.867 348.263C110.672 348.643 109.744 349.33 109.065 350.338C108.383 351.341 107.989 352.759 107.871 354.595C107.786 355.787 107.854 358.317 108.082 362.213C108.306 366.098 108.268 368.893 107.953 370.578C107.562 372.763 106.791 374.543 105.658 375.917C104.523 377.284 103.082 378.242 101.333 378.798C99.4211 379.407 97.4619 379.416 95.4657 378.814C93.4613 378.216 91.712 376.963 90.2072 375.071C88.7098 373.165 87.5671 370.896 86.7853 368.243C85.9223 365.314 85.6179 362.597 85.8674 360.066C86.1148 357.548 86.9431 355.405 88.3478 353.645C89.7582 351.892 91.5622 350.605 93.7634 349.805L95.6006 354.695C93.2848 355.732 91.7323 357.222 90.968 359.161C90.1943 361.104 90.2597 363.585 91.151 366.615C92.0815 369.774 93.3145 371.894 94.8539 372.991C96.3935 374.081 97.9515 374.38 99.5163 373.881C100.889 373.448 101.859 372.577 102.434 371.278C103.022 369.986 103.153 367.084 102.823 362.548C102.504 358.01 102.451 354.84 102.676 353.042C103.025 350.421 103.816 348.311 105.052 346.723C106.295 345.132 107.939 344.017 109.973 343.371C111.997 342.728 114.073 342.723 116.215 343.359C118.356 343.994 120.253 345.282 121.913 347.213C123.567 349.149 124.808 351.528 125.636 354.338C126.687 357.912 127.074 361.064 126.774 363.789C126.484 366.522 125.539 368.891 123.929 370.911C122.325 372.916 120.255 374.367 117.737 375.237ZM120.016 333.246L91.5275 337.406L90.9188 332.897L95.231 332.269C93.0596 331.411 91.58 330.541 90.8063 329.655C90.0326 328.777 89.5579 327.75 89.4011 326.581C89.1721 324.887 89.4608 323.1 90.2597 321.199L94.979 322.274C94.44 323.596 94.2578 324.872 94.4251 326.099C94.5723 327.204 95.0261 328.137 95.7776 328.92C96.5365 329.7 97.4995 330.192 98.6752 330.396C100.462 330.708 102.379 330.71 104.42 330.41L119.337 328.233L120.016 333.246ZM83.6309 316.596L78.0331 317.002L77.6914 311.942L83.2921 311.537L83.6309 316.596ZM117.652 314.125L88.9542 316.209L88.6146 311.15L117.31 309.065L117.652 314.125ZM103.477 284.487L103.821 279.331C105.822 279.418 107.515 279.121 108.909 278.448C110.305 277.772 111.528 276.572 112.586 274.85C113.644 273.128 114.345 271.104 114.697 268.789C115.011 266.73 114.996 264.87 114.652 263.199C114.298 261.526 113.674 260.219 112.768 259.281C111.852 258.344 110.799 257.771 109.583 257.57C108.351 257.369 107.225 257.564 106.19 258.159C105.154 258.747 104.2 259.845 103.32 261.443C102.741 262.476 101.735 264.78 100.295 268.383C98.8571 271.979 97.6444 274.472 96.649 275.847C95.3759 277.63 93.9304 278.882 92.3314 279.6C90.7333 280.31 89.0372 280.517 87.2272 280.218C85.2562 279.894 83.489 279.011 81.9515 277.56C80.4016 276.111 79.3554 274.189 78.8014 271.802C78.2604 269.408 78.1929 266.847 78.61 264.107C79.0718 261.079 79.9428 258.501 81.2353 256.341C82.5184 254.19 84.1675 252.641 86.1743 251.698C88.1805 250.763 90.3465 250.429 92.6633 250.713L92.2486 255.945C89.7306 255.823 87.7069 256.451 86.2016 257.847C84.6873 259.242 83.6984 261.5 83.2197 264.631C82.7233 267.895 82.9369 270.361 83.8585 272.049C84.7815 273.73 86.0572 274.707 87.6717 274.972C89.0896 275.206 90.3292 274.864 91.3925 273.962C92.4663 273.067 93.8115 270.518 95.4284 266.291C97.0553 262.064 98.3454 259.195 99.3065 257.68C100.727 255.481 102.329 253.947 104.109 253.082C105.898 252.219 107.844 251.965 109.945 252.312C112.036 252.656 113.906 253.596 115.563 255.142C117.218 256.688 118.378 258.708 119.058 261.202C119.726 263.695 119.838 266.395 119.394 269.298C118.832 272.989 117.849 275.999 116.429 278.313C115.017 280.64 113.167 282.338 110.866 283.418C108.577 284.49 106.107 284.851 103.477 284.487ZM122.187 247.521L94.8268 238.287L96.1818 233.958L100.322 235.357C98.7347 233.599 97.7695 232.14 97.45 230.993C97.1251 229.853 97.1302 228.714 97.4822 227.589C97.9916 225.963 99.0069 224.49 100.527 223.143L104.315 226.261C103.272 227.201 102.571 228.268 102.202 229.445C101.87 230.505 101.882 231.549 102.227 232.594C102.578 233.645 103.238 234.522 104.208 235.242C105.686 236.337 107.405 237.21 109.366 237.873L123.692 242.709L122.187 247.521ZM95.9972 216.934L90.7239 214.941L92.3935 210.176L97.6687 212.169L95.9972 216.934ZM128.044 229.05L101.011 218.829L102.684 214.064L129.713 224.285L128.044 229.05ZM138.955 201.63L104.56 181.003L113.362 165.163C115.134 161.978 116.791 159.744 118.328 158.46C119.866 157.173 121.69 156.505 123.807 156.442C125.926 156.392 127.927 156.941 129.819 158.073C132.259 159.54 133.857 161.582 134.615 164.232C135.379 166.876 135.032 170.053 133.584 173.754C134.86 172.844 135.955 172.235 136.884 171.928C138.868 171.278 141.125 170.888 143.639 170.743L156.455 170.145L153.148 176.093L143.362 176.524C140.537 176.672 138.319 176.858 136.729 177.103C135.139 177.337 133.927 177.674 133.101 178.12C132.267 178.563 131.565 179.097 130.982 179.723C130.577 180.202 130.036 181.043 129.357 182.264L126.309 187.746L141.581 196.905L138.955 201.63ZM122.369 185.384L128.019 175.217C129.217 173.063 129.943 171.238 130.185 169.764C130.433 168.28 130.258 166.943 129.664 165.746C129.07 164.547 128.222 163.617 127.108 162.948C125.484 161.974 123.809 161.779 122.074 162.379C120.345 162.973 118.748 164.6 117.273 167.253L110.989 178.559L122.369 185.384ZM170.678 150.266C170.563 152.73 170.169 154.817 169.502 156.535C168.818 158.251 167.825 159.836 166.52 161.291C164.364 163.694 162.15 164.991 159.861 165.187C157.578 165.38 155.549 164.624 153.799 162.928C152.764 161.926 152.038 160.776 151.628 159.46C151.209 158.148 151.101 156.849 151.294 155.565C151.492 154.273 151.895 153.006 152.519 151.762C152.986 150.859 153.786 149.587 154.938 147.957C157.279 144.63 158.853 142.029 159.639 140.153C159.165 139.667 158.861 139.358 158.733 139.234C157.279 137.827 155.936 137.182 154.716 137.314C153.061 137.47 151.394 138.496 149.722 140.356C148.16 142.099 147.296 143.665 147.134 145.071C146.976 146.47 147.471 148.091 148.606 149.939L144.878 153.091C143.685 151.321 142.961 149.608 142.723 147.972C142.477 146.328 142.751 144.545 143.537 142.64C144.324 140.735 145.557 138.842 147.246 136.96C148.923 135.091 150.496 133.79 151.963 133.029C153.435 132.276 154.733 131.932 155.873 131.999C157.006 132.072 158.152 132.473 159.335 133.199C160.051 133.668 161.201 134.666 162.784 136.199L167.541 140.805C170.86 144.021 173.026 145.974 174.045 146.657C175.06 147.356 176.191 147.857 177.411 148.173L173.937 152.043C172.859 151.709 171.765 151.124 170.678 150.266ZM162.434 142.859C161.755 144.725 160.394 147.174 158.357 150.218C157.199 151.944 156.463 153.256 156.165 154.136C155.861 155.024 155.806 155.889 156.015 156.724C156.215 157.56 156.62 158.28 157.241 158.881C158.194 159.806 159.328 160.193 160.63 160.064C161.928 159.929 163.231 159.141 164.521 157.7C165.804 156.273 166.647 154.714 167.042 153.021C167.436 151.328 167.348 149.707 166.775 148.179C166.327 146.999 165.314 145.65 163.745 144.129L162.434 142.859ZM187.77 138.416L160.892 122.835L164.838 119.397L180.643 128.98C182.348 130.014 184.057 131.144 185.779 132.364C185.138 130.867 184.426 129.017 183.65 126.798L177.269 108.559L181.109 105.212L191.255 135.378L187.77 138.416ZM183.91 96.2476L180.771 91.4127L184.818 88.5776L187.958 93.4099L183.91 96.2476ZM202.979 125.615L186.892 100.841L190.94 98.0055L207.027 122.778L202.979 125.615ZM206.958 110.971L210.856 107.925C211.999 109.569 213.363 110.557 214.943 110.901C216.511 111.242 218.283 110.873 220.249 109.788C222.226 108.696 223.479 107.459 224.008 106.103C224.532 104.734 224.512 103.484 223.938 102.364C223.417 101.347 222.588 100.794 221.44 100.676C220.649 100.604 218.922 100.914 216.266 101.599C212.69 102.507 210.129 103.008 208.599 103.07C207.075 103.141 205.715 102.814 204.539 102.093C203.364 101.37 202.442 100.368 201.781 99.0785C201.177 97.9015 200.883 96.6694 200.896 95.3793C200.892 94.0883 201.177 92.8642 201.729 91.7115C202.138 90.8318 202.827 89.8864 203.795 88.8942C204.771 87.8961 205.922 87.0337 207.244 86.3027C209.236 85.2034 211.14 84.5424 212.954 84.3035C214.769 84.061 216.292 84.2555 217.531 84.8763C218.774 85.5054 219.96 86.5921 221.1 88.1488L217.205 91.0708C216.313 89.8244 215.215 89.0686 213.91 88.8118C212.605 88.5527 211.113 88.8887 209.438 89.8139C207.462 90.9036 206.224 92.0238 205.729 93.1651C205.228 94.3148 205.213 95.3452 205.677 96.2531C205.977 96.8388 206.421 97.2552 207.01 97.5298C207.609 97.8192 208.355 97.9059 209.271 97.8138C209.788 97.7365 211.247 97.4196 213.658 96.8488C217.137 96.0157 219.613 95.5296 221.091 95.4102C222.573 95.2754 223.923 95.5419 225.133 96.1902C226.344 96.8364 227.34 97.9188 228.12 99.4477C228.885 100.938 229.177 102.571 229.019 104.355C228.852 106.135 228.166 107.821 226.957 109.412C225.752 111.003 224.145 112.347 222.153 113.447C218.846 115.272 215.967 115.951 213.509 115.482C211.048 115.013 208.864 113.509 206.958 110.971ZM237.312 103.913L223.077 65.3987L227.627 63.5835L232.735 77.4034C233.913 74.0017 236.124 71.6481 239.361 70.3556C241.348 69.5652 243.227 69.2886 244.994 69.5206C246.761 69.7426 248.23 70.4509 249.391 71.6352C250.552 72.8192 251.645 74.7797 252.65 77.5074L259.187 95.1906L254.627 97.0085L248.093 79.3233C247.222 76.9664 246.095 75.441 244.712 74.7581C243.329 74.0741 241.73 74.084 239.925 74.8046C238.578 75.3413 237.444 76.2141 236.521 77.4159C235.6 78.6182 235.119 79.9414 235.079 81.386C235.026 82.8271 235.41 84.6499 236.219 86.8369L241.86 102.1L237.312 103.913ZM283.28 84.7323C281.925 86.7591 280.527 88.3133 279.085 89.4001C277.63 90.4819 275.98 91.278 274.131 91.7938C271.077 92.6449 268.536 92.5249 266.495 91.4326C264.461 90.3378 263.125 88.5824 262.506 86.1783C262.139 84.7599 262.112 83.3852 262.434 82.0411C262.748 80.7021 263.319 79.5374 264.138 78.5552C264.966 77.5679 265.952 76.7171 267.119 76.0045C267.974 75.498 269.301 74.8597 271.109 74.1093C274.793 72.5755 277.452 71.2389 279.08 70.0811C278.926 69.4085 278.823 68.9774 278.778 68.8025C278.264 66.8077 277.453 65.5211 276.352 64.9616C274.867 64.1815 272.931 64.134 270.565 64.7926C268.349 65.4087 266.816 66.2636 265.962 67.3658C265.116 68.4685 264.707 70.1119 264.727 72.3034L259.958 72.9267C259.851 70.7675 260.11 68.9169 260.744 67.396C261.373 65.8701 262.516 64.5087 264.153 63.3263C265.793 62.1448 267.804 61.2169 270.198 60.5505C272.574 59.8874 274.57 59.6504 276.2 59.8125C277.835 59.9845 279.11 60.4063 280.043 61.0922C280.966 61.7775 281.736 62.7474 282.367 64.0146C282.734 64.8075 283.203 66.2864 283.762 68.458L285.447 74.9821C286.619 79.5354 287.46 82.3857 287.974 83.5249C288.481 84.6772 289.182 85.7244 290.058 86.6645L285.137 88.0332C284.393 87.1561 283.764 86.0589 283.28 84.7323ZM280.068 73.9116C278.541 75.1217 276.135 76.4483 272.856 77.9089C270.991 78.7346 269.699 79.4427 268.997 80.0261C268.289 80.6128 267.8 81.3161 267.552 82.1383C267.293 82.9565 267.27 83.789 267.49 84.642C267.827 85.9519 268.591 86.9015 269.761 87.5095C270.929 88.1111 272.437 88.1581 274.268 87.6467C276.08 87.1432 277.592 86.2858 278.791 85.0662C279.988 83.8495 280.742 82.4256 281.034 80.8116C281.259 79.5677 281.086 77.8643 280.533 75.713L280.068 73.9116ZM296.467 85.7942L292.961 56.1342L297.311 55.5807L297.81 59.7933C299.525 56.2646 302.362 54.2495 306.317 53.743C308.042 53.5234 309.659 53.6459 311.177 54.1017C312.704 54.5663 313.878 55.2665 314.715 56.2244C315.564 57.172 316.206 58.3466 316.667 59.7407C316.954 60.6531 317.238 62.2717 317.513 64.5979L319.669 82.834L314.823 83.4526L312.689 65.4058C312.447 63.3663 312.083 61.8554 311.586 60.8819C311.089 59.92 310.326 59.194 309.3 58.7159C308.264 58.2296 307.106 58.067 305.813 58.232C303.75 58.4937 302.058 59.4068 300.713 60.9519C299.377 62.506 298.938 65.1768 299.39 68.9799L301.303 85.1788L296.467 85.7942ZM326.814 83.3757V42.12H331.696V65.6457L343.236 53.4937H349.542L338.549 64.5787L350.663 83.3757H344.643L335.137 68.0943L331.696 71.5328V83.3757H326.814ZM373.584 83.5427C371.575 84.8595 369.703 85.7218 367.966 86.1356C366.221 86.5426 364.402 86.607 362.505 86.3304C359.373 85.8714 357.082 84.7322 355.612 82.8989C354.152 81.0634 353.583 78.9065 353.917 76.4429C354.114 74.9864 354.604 73.7103 355.408 72.6052C356.201 71.5005 357.165 70.66 358.288 70.0871C359.421 69.5161 360.648 69.1316 361.991 68.9496C362.969 68.8297 364.432 68.7826 366.378 68.8253C370.344 68.9076 373.297 68.7578 375.229 68.351C375.341 67.668 375.408 67.231 375.432 67.0516C375.71 65.0073 375.448 63.4933 374.644 62.5338C373.571 61.2115 371.806 60.3809 369.378 60.0275C367.107 59.696 365.378 59.8595 364.174 60.5286C362.984 61.1991 361.989 62.5486 361.183 64.5732L356.558 63.2094C357.271 61.1794 358.208 59.5805 359.36 58.4387C360.514 57.2896 362.079 56.4986 364.03 56.0748C365.984 55.6531 368.183 55.6164 370.639 55.9721C373.072 56.329 375.001 56.9203 376.441 57.7331C377.881 58.5532 378.897 59.4581 379.498 60.4681C380.09 61.4757 380.432 62.68 380.537 64.1019C380.576 64.9801 380.452 66.5333 380.15 68.7605L379.246 75.4453C378.615 80.1163 378.315 83.0784 378.36 84.3377C378.395 85.6024 378.644 86.8517 379.096 88.0735L374.05 87.3355C373.696 86.2282 373.531 84.9611 373.584 83.5427ZM374.696 72.2786C372.837 72.7746 370.124 73.0195 366.556 73.0317C364.53 73.037 363.074 73.1611 362.208 73.4129C361.335 73.6657 360.618 74.1141 360.082 74.7729C359.538 75.4201 359.201 76.1763 359.083 77.0509C358.901 78.3926 359.246 79.5775 360.094 80.6129C360.946 81.6397 362.313 82.2958 364.192 82.5699C366.049 82.842 367.763 82.6645 369.326 82.0288C370.886 81.3929 372.116 80.3908 372.992 79.024C373.666 77.9694 374.15 76.3305 374.447 74.1241L374.696 72.2786ZM385.216 90.1083L392.66 61.2442L396.896 62.4238L395.767 66.7929C397.375 65.0519 398.725 63.9771 399.813 63.5835C400.891 63.1864 401.987 63.134 403.085 63.4408C404.675 63.8823 406.145 64.8601 407.519 66.3637L404.719 70.4582C403.761 69.426 402.7 68.7524 401.547 68.4309C400.512 68.1438 399.509 68.2113 398.52 68.623C397.532 69.0439 396.721 69.7724 396.08 70.8175C395.104 72.4053 394.355 74.2362 393.821 76.3057L389.923 91.4201L385.216 90.1083ZM428.002 106.629L431.583 62.5432L436.704 65.1367L433.33 96.7715C433.065 99.3075 432.736 101.654 432.352 103.788C433.856 102.051 435.444 100.355 437.128 98.6963L459.418 76.6452L464.237 79.0859L432.848 109.085L428.002 106.629ZM468.202 89.5726L471.342 84.739L475.389 87.5748L472.25 92.4079L468.202 89.5726ZM449.133 118.94L465.22 94.1682L469.265 97.0034L453.181 121.776L449.133 118.94ZM473.842 138.047L476.178 135.154C472.947 136.211 469.976 135.556 467.264 133.189C465.507 131.658 464.296 129.75 463.637 127.459C462.971 125.174 462.966 122.775 463.615 120.254C464.264 117.749 465.529 115.33 467.426 112.98C469.267 110.699 471.312 108.946 473.545 107.722C475.786 106.502 478.038 106.03 480.301 106.322C482.57 106.606 484.616 107.54 486.43 109.12C487.754 110.274 488.699 111.599 489.263 113.082C489.837 114.572 490.067 116.065 489.964 117.566L499.124 106.228L502.835 109.465L477.306 141.066L473.842 138.047ZM471.264 116.327C468.893 119.262 467.718 121.975 467.736 124.461C467.755 126.948 468.569 128.9 470.191 130.314C471.821 131.733 473.773 132.244 476.031 131.855C478.29 131.466 480.575 129.847 482.874 126.999C485.407 123.865 486.68 121.062 486.703 118.586C486.73 116.103 485.887 114.125 484.179 112.639C482.522 111.193 480.563 110.689 478.315 111.125C476.069 111.561 473.712 113.297 471.264 116.327ZM474.456 153.67L477.493 150.066C477.998 151.093 478.507 151.909 479.038 152.525C479.762 153.358 480.48 153.901 481.182 154.151C481.891 154.408 482.612 154.467 483.381 154.33C483.947 154.241 485.175 153.777 487.069 152.961C487.336 152.839 487.726 152.684 488.247 152.468L502.365 124.01L505.879 128.064L497.514 144.266C496.453 146.331 495.273 148.416 493.95 150.507C495.991 149.386 498.058 148.382 500.164 147.497L516.738 140.592L520 144.355L490.938 156.245C487.8 157.537 485.574 158.34 484.254 158.671C482.477 159.118 480.943 159.17 479.637 158.826C478.324 158.477 477.151 157.712 476.113 156.512C475.482 155.784 474.932 154.837 474.456 153.67ZM515.587 181.028C513.271 180.484 511.36 179.718 509.85 178.736C508.34 177.741 507.01 176.45 505.857 174.861C503.953 172.237 503.109 169.749 503.319 167.372C503.533 165.001 504.602 163.058 506.513 161.562C507.644 160.677 508.859 160.135 510.18 159.944C511.495 159.744 512.747 159.859 513.93 160.278C515.121 160.706 516.251 161.338 517.324 162.193C518.096 162.826 519.164 163.869 520.511 165.327C523.259 168.3 525.448 170.362 527.093 171.494C527.634 171.093 527.979 170.834 528.121 170.724C529.708 169.482 530.551 168.22 530.639 166.949C530.779 165.228 530.094 163.345 528.62 161.312C527.239 159.41 525.905 158.253 524.599 157.844C523.302 157.442 521.68 157.664 519.73 158.504L517.39 154.143C519.276 153.233 521.025 152.789 522.617 152.829C524.217 152.864 525.862 153.453 527.529 154.59C529.199 155.724 530.779 157.313 532.271 159.368C533.751 161.41 534.711 163.243 535.179 164.876C535.635 166.512 535.737 167.898 535.475 169.055C535.209 170.203 534.632 171.305 533.739 172.387C533.169 173.038 532.022 174.046 530.294 175.396L525.101 179.461C521.477 182.299 519.249 184.174 518.422 185.098C517.587 186.017 516.913 187.084 516.401 188.279L513.336 184.052C513.84 183.008 514.584 181.992 515.587 181.028ZM524.04 173.881C522.388 172.863 520.304 171.046 517.773 168.432C516.336 166.945 515.221 165.968 514.437 165.51C513.648 165.046 512.838 164.839 512.011 164.908C511.183 164.965 510.432 165.255 509.753 165.787C508.712 166.602 508.147 167.691 508.042 169.048C507.945 170.399 508.467 171.868 509.607 173.439C510.738 174.998 512.071 176.133 513.605 176.828C515.143 177.526 516.695 177.718 518.242 177.397C519.441 177.145 520.896 176.342 522.608 175.003L524.04 173.881ZM527.374 208.468L565.147 195.721L567.592 203.54L543.751 221.847C541.533 223.547 539.865 224.807 538.744 225.606C540.258 225.592 542.496 225.605 545.458 225.655L574.673 226.176L576.859 233.165L539.087 245.913L537.522 240.908L569.137 230.237L533.955 229.507L532.491 224.821L561.093 202.623L528.942 213.475L527.374 208.468ZM547.158 272.946C545.358 271.338 544.016 269.73 543.128 268.126C542.244 266.511 541.652 264.722 541.353 262.757C540.859 259.514 541.238 256.902 542.495 254.905C543.756 252.92 545.578 251.726 547.944 251.334C549.342 251.105 550.659 251.22 551.912 251.693C553.162 252.16 554.216 252.871 555.072 253.82C555.93 254.777 556.641 255.884 557.203 257.165C557.597 258.102 558.068 259.541 558.601 261.485C559.683 265.451 560.684 268.339 561.623 270.139C562.284 270.049 562.706 269.991 562.88 269.962C564.842 269.64 566.16 268.937 566.809 267.857C567.71 266.406 567.959 264.411 567.574 261.895C567.218 259.543 566.559 257.872 565.593 256.873C564.627 255.884 563.095 255.292 560.994 255.082L560.897 250.09C562.975 250.204 564.722 250.666 566.11 251.479C567.505 252.29 568.69 253.611 569.651 255.426C570.611 257.244 571.288 259.418 571.677 261.96C572.062 264.483 572.079 266.57 571.755 268.239C571.418 269.909 570.882 271.184 570.131 272.076C569.374 272.959 568.366 273.65 567.088 274.172C566.289 274.468 564.824 274.797 562.688 275.148L556.267 276.203C551.782 276.942 548.967 277.512 547.821 277.924C546.666 278.328 545.59 278.944 544.597 279.747L543.801 274.521C544.72 273.845 545.836 273.311 547.158 272.946ZM557.852 270.76C556.854 269.057 555.835 266.433 554.78 262.892C554.184 260.88 553.639 259.471 553.155 258.686C552.668 257.89 552.046 257.312 551.283 256.972C550.527 256.618 549.733 256.506 548.892 256.645C547.604 256.858 546.616 257.546 545.91 258.69C545.214 259.837 545.011 261.388 545.306 263.334C545.601 265.258 546.265 266.91 547.305 268.274C548.346 269.64 549.631 270.565 551.143 271.037C552.314 271.398 553.961 271.4 556.08 271.052L557.852 270.76ZM544.922 286.011H573.69V290.562H569.601C572.763 292.764 574.345 295.933 574.345 300.073C574.345 301.878 574.031 303.531 573.41 305.038C572.783 306.556 571.967 307.681 570.951 308.429C569.943 309.187 568.74 309.706 567.355 310.013C566.447 310.197 564.866 310.292 562.611 310.292H544.922V305.22H562.426C564.405 305.22 565.893 305.027 566.884 304.634C567.862 304.239 568.648 303.539 569.232 302.542C569.824 301.532 570.118 300.36 570.118 299.006C570.118 296.846 569.454 294.991 568.141 293.415C566.818 291.851 564.32 291.073 560.631 291.073H544.922V286.011ZM541.215 336.805L544.806 337.395C542.269 335.064 541.283 332.079 541.837 328.445C542.194 326.094 543.144 324.032 544.697 322.267C546.239 320.496 548.219 319.257 550.632 318.534C553.033 317.82 555.683 317.704 558.595 318.182C561.428 318.648 563.926 319.566 566.09 320.922C568.249 322.289 569.796 324.052 570.722 326.216C571.656 328.384 571.939 330.685 571.571 333.114C571.298 334.889 570.692 336.413 569.759 337.68C568.825 338.956 567.712 339.93 566.419 340.613L580.492 342.926L579.737 347.899L540.509 341.445L541.215 336.805ZM557.812 323.324C554.169 322.725 551.325 323.074 549.282 324.371C547.24 325.671 546.05 327.399 545.717 329.571C545.386 331.752 545.969 333.755 547.455 335.565C548.937 337.376 551.45 338.578 554.987 339.158C558.875 339.799 561.844 339.491 563.898 338.233C565.963 336.977 567.158 335.208 567.507 332.922C567.847 330.703 567.253 328.7 565.735 326.922C564.218 325.147 561.576 323.942 557.812 323.324ZM571.038 359.614L576.407 361.32L574.98 366.17L569.611 364.464L571.038 359.614ZM538.425 349.258L565.938 357.994L564.51 362.843L537 354.108L538.425 349.258ZM534.564 361.245L561.765 370.975L560.337 375.279L556.219 373.806C557.779 375.594 558.717 377.068 559.02 378.222C559.326 379.367 559.299 380.506 558.93 381.623C558.393 383.24 557.353 384.696 555.81 386.014L552.074 382.828C553.135 381.908 553.854 380.855 554.243 379.683C554.592 378.628 554.595 377.583 554.27 376.534C553.936 375.479 553.292 374.589 552.334 373.848C550.876 372.729 549.172 371.823 547.22 371.127L532.98 366.033L534.564 361.245Z" fill="white"/>
<path fill-rule="evenodd" clip-rule="evenodd" d="M188.05 455.257C188.66 453.751 189.089 452.507 189.338 451.523C190.149 448.394 190.366 445.446 189.989 442.68C189.885 441.81 189.64 440.971 189.254 440.165C188.867 439.358 188.281 438.521 187.5 437.656C185.938 435.924 184.046 434.96 181.826 434.766C180.488 434.627 179.261 434.713 178.143 435.026C177.026 435.34 176.025 435.805 175.144 436.423C173.892 437.302 172.836 438.48 171.975 439.961C171.706 440.419 171.416 441.06 171.101 441.887L175.095 446.313L184.883 455.418L184.909 455.266L198.553 466.705V466.709L222.821 482.043L237.997 489.666L238.455 494.591L230.985 490.839L212.471 519.918L210.123 515.216L226.549 489.416L221.467 486.205L199.546 513.452L197.816 508.501L201.368 504.087C199.924 504.333 198.757 504.464 197.867 504.478C194.942 504.561 192.256 504.215 189.805 503.437C188.758 503.098 187.798 502.652 186.925 502.1C185.177 500.995 183.727 499.565 182.576 497.809C181.426 496.053 180.866 494.268 180.896 492.455C180.929 490.641 181.372 489.201 182.23 488.135C183.087 487.069 184.313 486.366 185.907 486.022C186.439 485.906 187.175 485.858 188.116 485.873C187.759 485.132 187.513 484.527 187.379 484.057C186.88 482.584 186.582 481.271 186.484 480.115C186.36 477.722 186.71 476.012 187.534 474.988C188.425 473.88 189.798 473.494 191.652 473.828C192.226 473.934 193.092 474.224 194.249 474.698L202.261 479.761L205.297 475.987L197.719 471.199L197.649 471.573L195.623 469.873L191.385 467.196L191.394 466.361L165.447 490.538L164.45 485.487L171.553 478.867C170.876 478.906 170.285 478.899 169.779 478.848C166.631 478.579 163.906 477.373 161.604 475.23C159.218 473.012 157.922 470.153 157.713 466.655C157.503 463.156 158.601 460.399 161.007 458.384C163.189 456.845 165.602 456.24 168.243 456.571C170.885 456.903 173.316 458.101 175.537 460.166C178.004 462.461 179.145 465.65 178.961 469.733C178.944 470.44 178.839 471.279 178.651 472.253L187.624 463.892L174.307 451.503L174.185 451.849L171.599 448.984L169.856 447.363L169.917 447.12L168.824 445.91L139.199 466.696L139.078 461.527L165.921 442.692L162.515 438.918L164.177 434.216L170.041 440.711C170.326 439.434 170.62 438.419 170.925 437.665C171.849 435.333 173.146 433.581 174.815 432.411C176.298 431.368 177.971 430.769 179.832 430.607C181.694 430.446 183.398 430.699 184.945 431.364C186.492 432.03 187.88 433.045 189.109 434.405C190.784 436.261 191.739 438.286 191.977 440.477C192.325 443.129 192.163 446.139 191.492 449.506C191.28 450.531 190.922 451.894 190.414 453.598L188.05 455.257ZM554.016 451.341L554.492 452.966C553.351 453.225 552.45 453.407 551.789 453.513C548.914 454.049 547.237 454.393 546.757 454.546C545.583 454.847 544.425 455.127 543.284 455.386C541.35 455.923 539.666 456.74 538.235 457.839C537.787 458.138 537.379 458.525 537.011 458.999C536.475 459.691 536.047 460.478 535.724 461.361C535.573 461.65 535.468 462.063 535.414 462.601L529.348 463.007C529.453 462.498 529.556 462.084 529.659 461.766C529.999 460.767 530.487 459.855 531.123 459.035C531.625 458.388 532.113 457.875 532.587 457.497C533.061 457.118 533.704 456.731 534.516 456.336C536.572 455.365 538.51 454.639 540.329 454.158C542.941 453.589 545.041 453.12 546.628 452.751C547.802 452.45 549.396 452.119 551.413 451.758C552.026 451.622 552.893 451.483 554.016 451.341ZM503.839 430.311L499.022 436.526L530.356 455.609L524.87 457.226L513.359 450.216L504.718 459.496L507.135 461.26C507.505 461.528 507.823 461.829 508.093 462.162C508.363 462.495 508.398 462.893 508.198 463.357C507.797 464.285 505.868 464.863 502.412 465.088C498.954 465.314 496.879 465.174 496.19 464.67C495.775 464.369 495.598 463.934 495.66 463.369C495.727 463.216 495.805 462.967 495.893 462.623L498.263 460.079L485.759 450.959L484.644 452.158L485.918 452.393L479.838 457.672L506.527 481.656L500.785 482.314L492.994 475.314C493.016 475.892 492.994 476.397 492.925 476.829C492.537 479.596 491.101 481.951 488.617 483.893C486.046 485.9 482.778 486.922 478.816 486.953C474.853 486.985 471.764 485.894 469.546 483.683C468.932 482.955 468.458 482.205 468.127 481.433L461.371 485.839C460.204 486.733 459.399 487.487 458.959 488.102C457.706 490.034 457.915 491.996 459.588 493.986C460.797 495.427 462.421 496.678 464.457 497.743C466.495 498.808 468.773 499.698 471.292 500.416C472.791 500.881 473.889 501.181 474.59 501.313C474.876 501.389 475.268 501.461 475.767 501.53L475.282 503.715L465.958 501.043C463.415 500.21 461.178 499.259 459.249 498.191C457.319 497.122 455.801 495.931 454.698 494.618C452.421 491.907 452.159 489.226 453.914 486.573C454.522 485.718 455.63 484.667 457.238 483.421L467.857 476.496C468.436 474.462 469.798 472.606 471.943 470.93C474.605 468.852 478.242 467.983 482.855 468.324C483.637 468.369 484.561 468.492 485.627 468.693L476.545 460.532L472.683 463.886L472.154 463.795L461.985 471.739L462.329 471.839L459.465 473.708L457.313 475.388L457 475.315L442.752 484.609L441.924 484.359L440.832 484.947L460.782 513.575L455.008 513.074L436.889 487.074L436.08 487.51L436.119 487.528L435.475 487.836L432.263 489.568L432.034 489.478L429.629 490.626L438.383 504.784C438.63 506.165 438.715 507.232 438.64 507.987C438.345 510.346 437.023 512.084 434.679 513.203C433.844 513.602 433.112 513.891 432.481 514.072C431.851 514.253 430.927 514.395 429.707 514.498C426.766 514.763 424.188 514.195 421.973 512.795C421.288 512.343 420.472 511.624 419.524 510.639L412.272 498.908L407.895 500.998L406.1 500.166L405.934 500.226L420.595 531.22L414.974 529.927L410.815 521.137C409.483 522.075 408.107 522.741 406.686 523.133C406.233 523.258 405.807 523.375 405.411 523.484C404.677 523.52 404.132 523.56 403.774 523.604C400.501 523.677 397.578 522.827 395.007 521.053C394.169 520.455 393.184 519.54 392.053 518.308L387.702 506.268L383.539 507.414L379.068 504.343L392.664 500.599L409.156 494.613L410.197 495.225L431.229 485.189L431.345 485.245L433.51 484.077C433.129 483.94 432.8 483.806 432.518 483.678C429.17 482.345 426.625 481.253 424.884 480.404C423.143 479.555 421.728 478.405 420.637 476.956C419.613 475.595 419.109 474.261 419.123 472.956C419.137 471.654 419.862 470.584 421.295 469.748C422.63 468.97 424.246 468.661 426.142 468.819C426.735 468.852 427.561 469.003 428.617 469.272L428.421 470.429C428.124 470.412 427.885 470.426 427.704 470.468C427.125 470.552 426.59 470.739 426.095 471.026C425.453 471.4 424.926 471.976 424.515 472.754C424.104 473.529 423.977 474.33 424.135 475.154C424.293 475.979 424.701 476.83 425.363 477.708C425.991 478.543 426.643 479.221 427.32 479.743C427.997 480.264 428.798 480.762 429.722 481.234C431.189 481.957 432.666 482.55 434.15 483.011C434.408 483.076 434.709 483.154 435.052 483.245L443.017 478.95L443.369 479.093L456.521 470.514L471.055 459.16L471.398 459.232L474.934 456.16L474.89 456.157L491.533 438.282L491.99 438.318L498.248 430.24L503.839 430.311ZM509.585 447.916L496.413 439.895L493.351 443.843L492.388 443.842L488.694 447.81L501.195 456.928L509.585 447.916ZM488.871 471.608L487.546 470.417C486.422 470.238 485.472 470.152 484.696 470.16C481.283 470.15 478.491 470.993 476.317 472.69C475.918 473.002 475.608 473.244 475.386 473.418C473.815 474.927 472.931 476.55 472.746 478.297C472.56 480.045 473.175 481.623 474.611 483.055C476.046 484.486 477.482 485.249 478.909 485.331C480.347 485.423 481.748 484.927 483.122 483.854C484.187 483.021 485.169 481.832 486.068 480.284C486.968 478.737 487.643 477.082 488.093 475.322C488.377 474.186 488.618 473.046 488.818 471.905C488.835 471.812 488.852 471.713 488.871 471.608ZM433.896 506.207L425.486 492.603L416.339 496.968L424.62 510.363C425.01 510.776 425.303 511.087 425.498 511.292C427.073 512.639 428.711 512.996 430.412 512.363C432.195 511.753 433.314 510.559 433.768 508.784C433.904 508.24 433.947 507.381 433.896 506.207ZM439.978 539.311L438.994 540.693L434.611 538.354C432.505 537.296 431.232 536.647 430.797 536.405C428.87 535.453 427.169 534.846 425.695 534.582C424.223 534.321 422.773 534.448 421.347 534.965C418.551 535.98 417.132 537.662 417.088 540.014C417.091 540.298 417.126 540.571 417.186 540.833C417.246 541.096 417.333 541.349 417.448 541.591C418.161 543.1 419.478 543.504 421.396 542.809C422.165 542.53 422.867 542.147 423.503 541.659C424.139 541.172 424.699 540.555 425.182 539.81C425.332 539.586 425.535 539.199 425.789 538.65L430.034 540.698C429.639 541.355 429.295 541.85 429.003 542.184C427.954 543.361 426.745 544.2 425.374 544.697C424.496 545.016 423.661 545.219 422.868 545.307C422.075 545.396 421.113 545.333 419.983 545.116C416.716 544.592 414.496 543.092 413.323 540.612C412.909 539.737 412.721 538.865 412.761 537.997C412.821 535.41 414.36 533.571 417.376 532.477C419.842 531.581 422.568 531.503 425.552 532.242C427.117 532.7 428.813 533.366 430.642 534.24C431.645 534.731 432.887 535.39 434.372 536.218L439.978 539.311ZM408.9 517.09L401.927 502.351L392.117 505.052L396.66 517.618C397.247 518.727 397.783 519.517 398.265 519.99C399.844 521.431 401.823 521.824 404.201 521.169C405.617 520.779 407.12 519.51 408.708 517.363C408.77 517.278 408.834 517.186 408.9 517.09ZM367.122 510.07L358.661 511.158L364.434 544.3L359.32 541.847L356.115 523.443L346.259 523.787C344.721 523.946 343.573 524.169 342.815 524.459C340.547 525.433 339.481 527.153 339.616 529.62C339.714 531.405 340.274 533.239 341.3 535.122C342.324 537.007 343.66 538.865 345.307 540.702C346.262 541.826 346.988 542.616 347.489 543.071C347.679 543.275 347.96 543.528 348.334 543.83L346.544 545.392L340.462 538.584C338.868 536.641 337.604 534.752 336.672 532.917C335.738 531.083 335.228 529.353 335.14 527.726C334.955 524.366 336.435 522.026 339.576 520.707C340.624 520.302 342.214 519.984 344.344 519.752L355.405 519.366L354.257 512.779L331.511 513.574L331.06 513.05L328.156 513.016L327.997 546.581L323.374 543.377L323.518 512.963L318.078 512.901L317.758 512.475L315.479 512.308L312.677 545.683L308.309 542.282L310.806 512.546L301.951 511.205L300.677 518.117C300.639 518.324 300.547 518.496 300.401 518.633C300.255 518.771 299.953 518.937 299.493 519.134C299.035 519.332 298.628 519.415 298.271 519.388C297.914 519.361 297.618 519.329 297.383 519.294L287.524 517.801C286.283 517.667 285.349 517.658 284.725 517.777C282.771 518.225 281.595 519.537 281.192 521.713C280.888 523.369 281.087 524.904 281.792 526.314C282.498 527.726 283.394 528.752 284.481 529.394C285.129 529.813 285.765 530.122 286.391 530.322C287.018 530.524 287.684 530.678 288.388 530.784C289.327 530.927 290.26 530.935 291.188 530.81C291.306 530.827 291.462 530.797 291.656 530.721C291.273 530.183 291.022 529.747 290.904 529.408C290.439 528.328 290.372 527.386 290.7 526.585C290.992 525.989 291.694 525.777 292.809 525.946C294.393 526.186 295.973 526.944 297.547 528.22C299.121 529.497 299.569 530.668 298.89 531.736C298.384 532.511 297.761 533.109 297.021 533.529C296.816 533.657 296.489 533.794 296.04 533.939L299.205 546.712L296.307 547.457L293.039 535.002C292.727 535.061 292.329 535.094 291.845 535.1C291.361 535.106 290.854 535.07 290.327 534.99C288.976 534.786 287.803 534.448 286.804 533.978C285.364 533.28 283.981 532.273 282.656 530.955C280.771 529.072 279.357 527.089 278.415 525.004C277.472 522.918 277.169 520.971 277.502 519.158C277.693 518.122 278.208 517.043 279.05 515.92C279.89 514.795 281.247 514.056 283.122 513.702C283.748 513.584 284.602 513.526 285.688 513.531L296.427 515.158L297.286 510.498L285.321 508.686L285.845 510.339L276.275 507.479L273.791 514.12C273.716 514.319 273.594 514.476 273.425 514.591C273.257 514.706 272.928 514.83 272.44 514.961C271.952 515.09 271.533 515.118 271.185 515.042C270.837 514.965 270.55 514.893 270.324 514.825L260.837 511.99C259.633 511.687 258.711 511.549 258.072 511.579C256.061 511.753 254.665 512.884 253.882 514.973C253.288 516.565 253.213 518.106 253.661 519.594C254.109 521.084 254.813 522.221 255.775 523.005C256.341 523.506 256.916 523.899 257.5 524.184C258.084 524.47 258.715 524.713 259.391 524.916C260.296 525.187 261.218 525.323 262.158 525.328C262.271 525.361 262.43 525.354 262.637 525.305C262.353 524.723 262.182 524.257 262.124 523.908C261.857 522.777 261.956 521.838 262.424 521.093C262.816 520.547 263.549 520.433 264.622 520.755C266.146 521.21 267.575 522.176 268.905 523.652C270.237 525.129 270.472 526.347 269.611 527.306C268.974 528.001 268.253 528.504 267.445 528.815C267.22 528.915 266.872 529.005 266.402 529.085L267.27 542.121L264.272 542.456L263.247 529.718C262.926 529.732 262.527 529.711 262.047 529.65C261.567 529.588 261.075 529.483 260.566 529.332C259.266 528.943 258.165 528.448 257.261 527.845C255.96 526.959 254.77 525.775 253.694 524.291C252.162 522.174 251.116 520.023 250.552 517.835C249.99 515.648 250.033 513.684 250.685 511.943C251.057 510.948 251.758 509.955 252.788 508.963C253.818 507.971 255.292 507.431 257.21 507.339C257.849 507.308 258.704 507.37 259.777 507.525L270.11 510.613L271.785 506.137L252.304 500.314L250.791 495.548L276.283 503.167L303.955 507.356L321.248 508.622L321.389 508.842L324.341 508.876C323.394 507.867 322.684 507.017 322.212 506.33C320.736 504.213 320.002 502.207 320.012 500.315C320.019 498.634 320.531 497.104 321.549 495.725C322.567 494.344 323.849 493.334 325.398 492.694C326.947 492.056 328.703 491.746 330.666 491.769C333.34 491.802 335.717 492.432 337.791 493.663C340.341 495.111 342.888 497.135 345.431 499.74C346.201 500.535 347.178 501.65 348.359 503.081L348.347 505.76C347.402 504.384 346.575 503.297 345.865 502.502C343.618 499.954 341.159 497.93 338.492 496.429C337.661 495.947 336.771 495.581 335.822 495.334C334.871 495.087 333.771 494.956 332.523 494.942C330.025 494.914 328.001 495.6 326.447 497C325.494 497.831 324.805 498.729 324.385 499.697C323.964 500.663 323.751 501.646 323.746 502.644C323.739 504.062 324.119 505.537 324.884 507.068C325.12 507.544 325.503 508.153 326.035 508.895L333.616 508.982L333.92 509.387L345.043 508.999L344.821 508.79L363.331 506.412L367.122 510.07ZM205.124 499.418L217.681 483.811L209.522 478.656L206.126 482.878C205.989 483.047 205.731 483.368 205.354 483.837C204.976 484.306 204.546 484.613 204.064 484.759C203.58 484.903 202.924 484.81 202.092 484.477C201.995 484.415 201.832 484.345 201.604 484.265L192.789 478.696C192.153 478.486 191.679 478.348 191.368 478.28C190.316 478.129 189.63 478.435 189.309 479.199C188.772 480.595 189.028 481.915 190.079 483.158C190.413 483.562 191.001 484.061 191.841 484.656C192.394 484.877 193.004 485.167 193.67 485.523C194.335 485.879 195.154 486.363 196.125 486.977C197.679 487.96 198.887 488.916 199.749 489.847C200.612 490.778 200.859 491.609 200.489 492.34C200.121 493.072 199.92 493.46 199.885 493.503C199.268 494.269 198.254 494.208 196.847 493.318C196.313 492.98 195.699 492.513 195.009 491.916C194.317 491.318 193.849 490.942 193.607 490.79C192.151 489.869 190.634 489.521 189.061 489.75C187.485 489.977 186.322 490.559 185.567 491.497C184.332 493.032 183.772 494.319 183.889 495.358C184.007 496.396 184.623 497.269 185.74 497.974C186.808 498.649 188.186 499.166 189.874 499.526C190.678 499.711 192.058 499.908 194.014 500.116C196.809 500.466 199.449 500.462 201.935 500.104C202.763 499.984 203.827 499.755 205.124 499.418ZM187.88 463.381L187.806 463.722L188.034 463.511L187.88 463.381ZM175.557 475.137L176.787 473.991C176.949 472.967 177.009 472.105 176.966 471.406C176.829 468.393 175.753 465.949 173.738 464.075C173.368 463.73 173.08 463.463 172.875 463.271C171.099 461.923 169.225 461.185 167.24 461.067C165.256 460.949 163.495 461.533 161.939 462.839C160.382 464.144 159.583 465.433 159.553 466.694C159.511 467.966 160.132 469.19 161.408 470.376C162.395 471.294 163.783 472.129 165.573 472.883C167.363 473.637 169.263 474.19 171.273 474.541C172.572 474.762 173.871 474.945 175.172 475.092C175.292 475.108 175.42 475.122 175.557 475.137Z" fill="white"/>
<path d="M520.297 296.877H513.248L513.019 287.493L512.315 278.248L511.147 269.141L509.552 260.181L507.518 251.368L505.053 242.74L502.185 234.283L498.925 226.006L495.27 217.951L491.246 210.1L486.852 202.465L482.098 195.087L477.01 187.948L471.601 181.061L465.867 174.463L459.822 168.141L453.488 162.106L446.88 156.382L439.98 150.982L432.829 145.904L425.437 141.158L417.789 136.771L409.925 132.755L401.855 129.106L393.564 125.851L385.091 122.989L376.449 120.528L367.62 118.497L358.645 116.906L349.521 115.739L340.26 115.036L330.859 114.808V107.771L340.59 108.026L350.209 108.757L359.692 109.952L369.024 111.625L378.184 113.739L387.185 116.281L395.987 119.254L404.581 122.647L412.981 126.432L421.149 130.614L429.071 135.166L436.767 140.076L444.193 145.347L451.341 150.967L458.224 156.911L464.805 163.166L471.072 169.735L477.026 176.607L482.656 183.742L487.936 191.156L492.855 198.837L497.414 206.746L501.603 214.9L505.396 223.285L508.794 231.863L511.772 240.651L514.319 249.636L516.437 258.779L518.113 268.096L519.309 277.561L520.042 287.163L520.297 296.877ZM330.859 485.984V478.947L340.26 478.719L349.521 478.016L358.645 476.849L367.62 475.258L376.449 473.227L385.091 470.766L393.564 467.903L401.855 464.649L409.925 461L417.789 456.984L425.437 452.597L432.829 447.851L439.98 442.773L446.88 437.373L453.488 431.649L459.822 425.613L465.867 419.292L471.601 412.694L477.01 405.807L482.098 398.668L486.852 391.289L491.246 383.655L495.27 375.804L498.925 367.749L502.185 359.472L505.053 351.014L507.518 342.387L509.552 333.574L511.147 324.614L512.315 315.507L513.019 306.261L513.248 296.877H520.297L520.042 306.591L519.309 316.193L518.113 325.659L516.437 334.976L514.319 344.119L511.772 353.104L508.794 361.892L505.396 370.47L501.603 378.855L497.414 387.009L492.855 394.918L487.936 402.599L482.656 410.013L477.026 417.148L471.072 424.02L464.805 430.589L458.224 436.844L451.341 442.788L444.193 448.408L436.767 453.679L429.071 458.589L421.149 463.141L412.981 467.323L404.581 471.108L395.987 474.501L387.185 477.474L378.184 480.016L369.024 482.13L359.692 483.803L350.209 484.998L340.59 485.729L330.859 485.984ZM141.422 296.877H148.471L148.699 306.261L149.404 315.507L150.572 324.614L152.166 333.574L154.201 342.387L156.665 351.014L159.534 359.472L162.794 367.749L166.449 375.804L170.473 383.655L174.867 391.289L179.621 398.668L184.708 405.807L190.118 412.694L195.852 419.292L201.897 425.613L208.231 431.649L214.839 437.373L221.739 442.773L228.89 447.851L236.282 452.597L243.93 456.984L251.794 461L259.864 464.649L268.155 467.903L276.627 470.766L285.27 473.227L294.099 475.258L303.074 476.849L312.198 478.016L321.459 478.719L330.859 478.947V485.984L321.129 485.729L311.51 484.998L302.027 483.803L292.694 482.13L283.535 480.016L274.534 477.474L265.732 474.501L257.138 471.108L248.738 467.323L240.57 463.141L232.647 458.589L224.952 453.679L217.526 448.408L210.378 442.788L203.494 436.844L196.914 430.589L190.647 424.02L184.693 417.148L179.063 410.013L173.783 402.599L168.864 394.918L164.305 387.009L160.116 378.855L156.323 370.47L152.925 361.892L149.947 353.104L147.399 344.119L145.282 334.976L143.606 325.659L142.409 316.193L141.677 306.591L141.422 296.877ZM330.859 107.771V114.808L321.459 115.036L312.198 115.739L303.074 116.906L294.099 118.497L285.27 120.528L276.627 122.989L268.155 125.851L259.864 129.106L251.794 132.755L243.93 136.771L236.282 141.158L228.89 145.904L221.739 150.982L214.839 156.382L208.231 162.106L201.897 168.141L195.852 174.463L190.118 181.061L184.708 187.948L179.621 195.087L174.867 202.465L170.473 210.1L166.449 217.951L162.794 226.006L159.534 234.283L156.665 242.74L154.201 251.368L152.166 260.181L150.572 269.141L149.404 278.248L148.699 287.493L148.471 296.877H141.422L141.677 287.163L142.409 277.561L143.606 268.096L145.282 258.779L147.399 249.636L149.947 240.651L152.925 231.863L156.323 223.285L160.116 214.9L164.305 206.746L168.864 198.837L173.783 191.156L179.063 183.742L184.693 176.607L190.647 169.735L196.914 163.166L203.494 156.911L210.378 150.967L217.526 145.347L224.952 140.076L232.647 135.166L240.57 130.614L248.738 126.432L257.138 122.647L265.732 119.254L274.534 116.281L283.535 113.739L292.694 111.625L302.027 109.952L311.51 108.757L321.129 108.026L330.859 107.771Z" fill="white"/>
<path d="M330.133 259.574V238.823H331.636V259.574H330.133Z" fill="white"/>
<path d="M319.765 260.944L315.133 240.679L316.594 240.345L321.226 260.609L319.765 260.944Z" fill="white"/>
<path d="M302.245 245.166L311.314 263.969L309.964 264.62L300.895 245.817L302.245 245.166Z" fill="white"/>
<path d="M350.406 263.975L359.458 245.171L360.809 245.817L351.756 264.62L350.406 263.975Z" fill="white"/>
<path d="M340.543 260.613L345.161 240.348L346.622 240.676L342.004 260.941L340.543 260.613Z" fill="white"/>
<path d="M345.582 262.004L349.211 251.648L350.625 252.141L346.997 262.496L345.582 262.004Z" fill="white"/>
<path d="M335.348 259.795L336.557 248.952L338.048 249.117L336.839 259.96L335.348 259.795Z" fill="white"/>
<path d="M324.886 259.969L323.668 249.117L325.159 248.953L326.377 259.805L324.886 259.969Z" fill="white"/>
<path d="M314.736 262.499L311.109 252.143L312.524 251.651L316.15 262.006L314.736 262.499Z" fill="white"/>
<path fill-rule="evenodd" clip-rule="evenodd" d="M286.221 313.384L375.714 313.417C376.28 310.497 376.572 307.498 376.572 304.432C376.572 278.922 356.152 258.246 330.982 258.246C305.786 258.246 285.367 278.922 285.367 304.432C285.367 307.498 285.65 310.487 286.221 313.384Z" fill="url(#paint0_radial_1041_692)"/>
<path d="M376.439 313.551L375.703 314.158L286.21 314.124V312.63L375.703 312.663L376.439 313.551ZM376.439 313.551L376.322 314.158H375.703L376.439 313.551ZM375.81 304.426H377.312L377.309 304.716L377.307 305.006L377.303 305.298L377.296 305.587L377.289 305.878L377.281 306.167L377.27 306.457L377.258 306.748L377.244 307.034L377.228 307.322L377.21 307.61L377.19 307.898L377.169 308.184L377.147 308.472L377.119 308.756L377.093 309.043L377.065 309.327L377.036 309.613L377.005 309.896L376.972 310.181L376.934 310.463L376.899 310.747L376.861 311.031L376.822 311.311L376.781 311.595L376.735 311.874L376.691 312.156L376.645 312.435L376.598 312.716L376.545 312.994L376.495 313.271L376.443 313.551L374.971 313.27L375.023 313.002L375.073 312.73L375.12 312.458L375.167 312.189L375.213 311.916L375.257 311.645L375.297 311.371L375.338 311.1L375.377 310.826L375.415 310.554L375.451 310.281L375.482 310.005L375.515 309.731L375.546 309.455L375.575 309.18L375.603 308.902L375.629 308.627L375.651 308.349L375.674 308.073L375.694 307.793L375.714 307.516L375.732 307.239L375.748 306.958L375.762 306.677L375.774 306.399L375.785 306.12L375.793 305.838L375.8 305.558L375.807 305.274L375.811 304.994L375.813 304.71L375.81 304.426ZM330.971 258.99V257.49L333.355 257.553L335.707 257.734L338.027 258.034L340.307 258.446L342.549 258.97L344.748 259.601L346.904 260.342L349.007 261.18L351.061 262.12L353.059 263.157L355 264.29L356.88 265.509L358.697 266.82L360.448 268.212L362.129 269.687L363.739 271.242L365.272 272.873L366.729 274.575L368.106 276.349L369.398 278.188L370.601 280.092L371.717 282.058L372.741 284.082L373.669 286.16L374.498 288.292L375.226 290.471L375.853 292.701L376.368 294.971L376.777 297.28L377.07 299.63L377.25 302.014L377.312 304.426H375.81L375.754 302.084L375.581 299.777L375.293 297.503L374.901 295.264L374.397 293.065L373.795 290.911L373.09 288.797L372.285 286.735L371.386 284.721L370.397 282.762L369.317 280.86L368.148 279.015L366.897 277.234L365.567 275.518L364.157 273.869L362.672 272.291L361.114 270.789L359.486 269.36L357.793 268.009L356.035 266.746L354.214 265.562L352.338 264.471L350.404 263.468L348.42 262.558L346.382 261.742L344.302 261.031L342.174 260.418L340.007 259.911L337.797 259.511L335.554 259.223L333.278 259.047L330.971 258.99ZM286.107 304.426H284.605L284.668 302.014L284.847 299.63L285.14 297.28L285.55 294.971L286.065 292.701L286.691 290.471L287.42 288.292L288.248 286.16L289.176 284.082L290.201 282.058L291.317 280.092L292.524 278.185L293.816 276.349L295.191 274.575L296.647 272.873L298.182 271.242L299.792 269.687L301.473 268.212L303.226 266.817L305.043 265.509L306.924 264.287L308.866 263.157L310.865 262.12L312.921 261.18L315.025 260.339L317.183 259.601L319.383 258.97L321.627 258.446L323.909 258.034L326.231 257.734L328.585 257.553L330.971 257.49V258.99L328.662 259.047L326.383 259.223L324.138 259.511L321.927 259.911L319.758 260.418L317.628 261.031L315.547 261.745L313.507 262.558L311.522 263.468L309.588 264.471L307.709 265.565L305.889 266.746L304.129 268.012L302.435 269.36L300.807 270.789L299.249 272.291L297.762 273.869L296.352 275.518L295.019 277.234L293.768 279.018L292.602 280.86L291.521 282.762L290.531 284.721L289.633 286.735L288.828 288.797L288.122 290.911L287.52 293.065L287.016 295.264L286.624 297.503L286.337 299.777L286.164 302.084L286.107 304.426ZM286.21 312.63V314.124L285.474 313.521L285.421 313.243L285.37 312.968L285.318 312.689L285.271 312.413L285.224 312.133L285.18 311.853L285.135 311.575L285.094 311.293L285.055 311.014L285.017 310.732L284.981 310.452L284.944 310.168L284.912 309.887L284.881 309.603L284.852 309.318L284.824 309.036L284.795 308.749L284.771 308.466L284.749 308.179L284.728 307.895L284.709 307.607L284.692 307.319L284.676 307.033L284.662 306.743L284.65 306.456L284.639 306.166L284.63 305.878L284.623 305.587L284.618 305.298L284.615 305.006L284.613 304.716L284.609 304.426H286.111L286.109 304.71L286.111 304.994L286.115 305.274L286.12 305.557L286.127 305.837L286.136 306.119L286.146 306.397L286.158 306.679L286.172 306.956L286.188 307.236L286.206 307.513L286.224 307.789L286.245 308.068L286.268 308.343L286.292 308.62L286.315 308.895L286.343 309.172L286.371 309.445L286.403 309.718L286.435 309.993L286.466 310.264L286.502 310.538L286.539 310.809L286.579 311.082L286.619 311.352L286.659 311.624L286.703 311.893L286.749 312.161L286.797 312.431L286.843 312.698L286.894 312.968L286.947 313.233L286.21 312.63ZM286.21 314.124H285.593L285.474 313.521L286.21 314.124Z" fill="white"/>
<path fill-rule="evenodd" clip-rule="evenodd" d="M266.336 334.376C266.25 334.613 266.19 334.849 266.19 334.986C266.19 335.214 266.336 335.279 266.958 335.279H269.931C270.461 335.279 270.607 335.214 270.639 335.051C270.639 334.986 270.657 335.051 270.461 334.489L268.264 329.1L266.336 334.376ZM264.415 340.53C264.241 341.113 264.118 341.638 264.118 341.899C264.118 342.455 264.528 342.683 265.615 342.715C266.494 342.743 266.808 342.889 266.808 343.245C266.808 343.527 266.548 343.673 266.023 343.673H265.698L264.822 343.619H264.415C263.776 343.596 263.164 343.567 262.689 343.567C261.972 343.567 261.264 343.596 260.566 343.619C260.328 343.646 260.269 343.646 259.985 343.646C259.661 343.646 259.488 343.509 259.488 343.181C259.488 342.862 259.712 342.743 260.392 342.683C261.679 342.578 261.881 342.401 262.552 340.963C263.101 339.772 263.624 338.512 264.799 335.483C265.671 333.239 265.786 332.978 266.932 329.886L267.506 328.316L268.123 326.732C268.452 325.838 268.712 325.2 268.739 325.053C269.187 323.799 269.233 323.703 269.579 323.703C269.899 323.703 270.017 323.881 270.493 325.249C270.776 326.071 271.068 326.855 271.392 327.618L276.264 339.452C277.52 342.455 277.607 342.578 279.273 342.816C279.534 342.834 279.708 343.039 279.708 343.245C279.708 343.527 279.48 343.673 279.037 343.673C278.927 343.673 278.653 343.646 278.428 343.646C277.73 343.596 276.42 343.527 275.366 343.527C274.305 343.527 274.223 343.527 272.114 343.673C272.032 343.71 271.799 343.71 271.648 343.71C271.218 343.71 271.009 343.596 271.009 343.304C271.009 342.953 271.297 342.816 272.15 342.715C272.945 342.657 273.283 342.455 273.259 342.049C273.227 341.82 273.177 341.498 273.022 341.088L271.694 337.35C271.328 336.446 271.297 336.415 270.397 336.415H266.639C265.735 336.415 265.735 336.415 265.47 337.204L264.415 340.53Z" fill="white"/>
<path fill-rule="evenodd" clip-rule="evenodd" d="M287.388 332.244C287.388 333.39 287.415 333.39 288.976 333.39C291.803 333.39 293.172 332.102 293.172 329.457C293.172 326.71 291.516 324.99 288.875 324.99C287.661 324.99 287.388 325.342 287.388 326.997V332.244ZM282.195 324.091C282.429 324.091 282.228 324.091 283.364 324.146C284.214 324.196 284.735 324.196 285.557 324.196C286.457 324.196 287.361 324.174 288.388 324.146C289.342 324.118 290.366 324.091 290.657 324.091C294.425 324.091 296.708 325.958 296.708 328.977C296.708 331.524 295.306 333.038 292.416 333.682C293.027 334.061 293.374 334.457 293.931 335.428L296.932 340.767C297.987 342.656 298.018 342.657 299.716 342.862C299.94 342.889 300.151 343.103 300.151 343.304C300.151 343.567 299.972 343.71 299.716 343.71C299.533 343.71 299.415 343.71 299.242 343.673C299.151 343.673 298.515 343.646 297.576 343.619C297.283 343.596 297.109 343.596 297.027 343.596L295.046 343.646C294.566 343.646 294.397 343.51 293.996 342.743L290.255 335.658C289.529 334.312 289.342 334.205 288.036 334.205C287.484 334.205 287.388 334.293 287.388 334.904V340.53C287.388 342.278 287.661 342.657 288.976 342.743C289.835 342.816 290.078 342.916 290.078 343.267C290.078 343.596 289.895 343.71 289.433 343.71H289.26C289.054 343.71 289.228 343.71 288.087 343.646C287.127 343.619 286.31 343.596 285.671 343.596C284.936 343.596 284.47 343.619 282.552 343.673C282.429 343.71 282.347 343.71 282.195 343.71H282.022C281.557 343.71 281.383 343.596 281.383 343.267C281.383 342.916 281.616 342.816 282.492 342.743C283.772 342.657 284.037 342.278 284.037 340.53V327.257C284.037 325.505 283.772 325.14 282.492 325.053C281.616 324.99 281.383 324.871 281.383 324.516C281.383 324.196 281.557 324.091 282.022 324.091H282.195Z" fill="white"/>
<path fill-rule="evenodd" clip-rule="evenodd" d="M327.59 333.206C327.59 338.694 330.791 343.124 334.762 343.124C338.515 343.124 341.396 339.101 341.396 333.822C341.396 328.607 338.323 324.669 334.204 324.669C330.263 324.669 327.59 328.136 327.59 333.206ZM345.13 333.621C345.13 339.209 340.292 343.91 334.525 343.91C328.639 343.91 323.844 339.416 323.844 333.904C323.844 328.224 328.512 323.88 334.579 323.88C340.428 323.88 345.13 328.196 345.13 333.621Z" fill="white"/>
<path fill-rule="evenodd" clip-rule="evenodd" d="M224.911 332.65C225.998 332.65 226.053 332.596 226.053 331.693V327.257C226.053 325.505 225.793 325.14 224.506 325.053C223.629 324.99 223.392 324.871 223.392 324.516C223.392 324.196 223.578 324.091 224.045 324.091C224.186 324.091 224.646 324.118 225.373 324.146C226.406 324.196 226.807 324.196 227.92 324.196C228.561 324.196 229.199 324.174 230.109 324.146C230.811 324.118 231.278 324.091 231.446 324.091C231.917 324.091 232.09 324.196 232.09 324.516C232.09 324.871 231.862 324.99 230.981 325.053C229.67 325.14 229.401 325.505 229.401 327.257V340.53C229.401 342.278 229.67 342.657 230.981 342.743C231.862 342.816 232.09 342.916 232.09 343.267C232.09 343.596 231.917 343.71 231.446 343.71H231.278C231.04 343.71 231.25 343.71 230.109 343.646C229.113 343.619 228.478 343.596 227.716 343.596C226.756 343.596 226.574 343.596 224.538 343.673C224.438 343.71 224.336 343.71 224.213 343.71H224.045C223.578 343.71 223.392 343.596 223.392 343.267C223.392 342.916 223.629 342.816 224.506 342.743C225.793 342.657 226.053 342.278 226.053 340.53V334.489C226.053 333.759 225.963 333.704 225.031 333.704H218.433C217.264 333.704 217.236 333.732 217.236 334.435V340.53C217.236 342.278 217.505 342.657 218.775 342.743C219.656 342.816 219.889 342.916 219.889 343.267C219.889 343.596 219.72 343.71 219.258 343.71C219.109 343.71 218.633 343.673 217.934 343.646C216.911 343.596 216.478 343.596 215.428 343.596C214.724 343.596 214.118 343.619 213.21 343.646C212.506 343.673 212.041 343.71 211.871 343.71C211.396 343.71 211.227 343.596 211.227 343.267C211.227 342.916 211.456 342.816 212.341 342.743C213.615 342.657 213.879 342.278 213.879 340.53V327.257C213.879 325.505 213.615 325.14 212.341 325.053C211.456 324.99 211.227 324.871 211.227 324.516C211.227 324.196 211.396 324.091 211.871 324.091H212.041C212.278 324.091 212.08 324.091 213.21 324.146C213.968 324.174 214.958 324.196 215.487 324.196C216.569 324.196 216.693 324.196 218.762 324.118C218.844 324.091 218.967 324.091 219.081 324.091H219.258C219.72 324.091 219.889 324.196 219.889 324.516C219.889 324.871 219.656 324.99 218.775 325.053C217.505 325.14 217.236 325.505 217.236 327.257V331.693C217.236 332.65 217.236 332.65 218.263 332.65H224.911Z" fill="white"/>
<path fill-rule="evenodd" clip-rule="evenodd" d="M236.789 327.257C236.789 325.505 236.529 325.109 235.241 325.053C234.36 324.99 234.137 324.871 234.137 324.516C234.137 324.196 234.305 324.091 234.776 324.091C234.832 324.091 235.095 324.091 235.274 324.118C235.584 324.118 235.876 324.118 236.114 324.146C236.434 324.174 236.666 324.174 236.789 324.174H245.635C246.328 324.174 246.968 324.146 247.553 324.118C247.816 324.091 248.11 324.091 248.233 324.091C248.575 324.091 248.635 324.196 248.635 324.99V327.878C248.635 328.252 248.52 328.431 248.283 328.431C248.072 328.431 247.908 328.252 247.731 327.878C246.945 326.24 246.652 325.926 245.589 325.505C244.753 325.2 243.346 325.008 241.867 325.008C240.283 325.008 240.147 325.2 240.147 326.947V331.633C240.147 332.737 240.283 332.864 241.753 332.864C244.936 332.864 245.544 332.545 246.246 330.496C246.328 330.177 246.479 330.032 246.679 330.032C246.945 330.032 247.032 330.145 247.032 330.47C247.032 330.496 247.004 330.849 246.968 331.285L246.945 331.929L246.886 332.596L246.849 333.239C246.818 333.704 246.793 334.061 246.793 334.092L246.918 336.446C246.945 336.766 246.767 337.003 246.533 337.003C246.246 337.003 246.059 336.766 245.927 336.236C245.355 334.12 244.786 333.732 242.062 333.732C240.201 333.732 240.147 333.759 240.147 334.663V340.15C240.147 342.278 240.689 342.715 243.269 342.715C246.132 342.715 246.918 342.2 248.489 339.156C248.635 338.919 248.786 338.778 248.985 338.778C249.197 338.778 249.328 338.993 249.328 339.21C249.328 339.453 249.278 339.914 249.159 340.379C249.068 340.832 249.014 341.405 248.954 342.104C248.836 343.674 248.922 343.619 247.434 343.619H236.789C236.666 343.619 236.434 343.619 236.114 343.646C235.876 343.673 235.584 343.673 235.274 343.673C235.095 343.71 234.832 343.71 234.776 343.71C234.305 343.71 234.137 343.596 234.137 343.267C234.137 342.916 234.36 342.816 235.241 342.743C236.529 342.657 236.789 342.278 236.789 340.53V327.257Z" fill="white"/>
<path fill-rule="evenodd" clip-rule="evenodd" d="M309.534 340.53C309.534 342.278 309.794 342.657 311.109 342.743C311.986 342.816 312.215 342.916 312.215 343.267C312.215 343.596 312.04 343.71 311.544 343.71C311.374 343.71 311.083 343.71 310.233 343.646C309.265 343.596 308.424 343.567 307.689 343.567C307.283 343.567 306.319 343.596 305.506 343.646C304.662 343.71 304.361 343.71 304.201 343.71C303.699 343.71 303.521 343.596 303.521 343.267C303.521 342.916 303.753 342.816 304.631 342.743C305.914 342.657 306.173 342.278 306.173 340.53V325.926C306.173 325.249 306.004 325.077 305.415 325.077C303.465 325.077 302.584 325.217 301.913 325.665C301.247 326.094 300.187 327.257 299.758 328.079C299.493 328.575 299.342 328.699 299.077 328.722C298.845 328.74 298.648 328.554 298.648 328.348C298.648 328.197 298.675 328.052 298.731 327.837L300.023 323.42C300.141 322.982 300.246 322.859 300.488 322.859C300.689 322.859 300.782 322.949 300.863 323.293C301.014 323.967 301.306 324.174 302.238 324.174H312.338C313.525 324.174 314.776 324.059 315.251 323.945C315.576 323.822 315.804 323.589 315.955 323.187C316.073 322.859 316.196 322.741 316.383 322.741C316.712 322.741 316.859 323.092 316.831 323.644L316.803 324.023L316.598 327.837C316.571 328.554 316.415 328.813 316.086 328.813C315.804 328.813 315.693 328.635 315.603 328.137C315.16 325.748 314.351 325.109 311.749 325.109C309.447 325.109 309.534 325.053 309.534 326.213V340.53Z" fill="white"/>
<path fill-rule="evenodd" clip-rule="evenodd" d="M371.696 343.619C371.577 343.619 371.367 343.619 371.038 343.646C370.81 343.673 370.509 343.673 370.18 343.673C370.016 343.71 369.741 343.71 369.678 343.71C369.23 343.71 369.039 343.596 369.039 343.267C369.039 342.916 369.284 342.816 370.162 342.743C371.431 342.657 371.696 342.278 371.696 340.53V327.257C371.696 325.505 371.431 325.14 370.162 325.053C369.284 324.99 369.039 324.871 369.039 324.516C369.039 324.196 369.23 324.091 369.678 324.091C369.888 324.091 370.244 324.118 371.038 324.146C372.117 324.196 372.883 324.223 373.577 324.223C373.952 324.223 374.855 324.196 375.76 324.146C376.545 324.118 376.901 324.091 377.103 324.091C377.569 324.091 377.742 324.196 377.742 324.516C377.742 324.871 377.514 324.99 376.636 325.053C375.312 325.14 375.047 325.505 375.047 327.257V339.718C375.047 341.989 375.695 342.743 377.596 342.743C380.015 342.743 381.705 341.661 382.965 339.308C383.111 339.02 383.23 338.919 383.44 338.919C383.669 338.919 383.815 339.102 383.815 339.417C383.815 339.576 383.787 339.863 383.723 340.15C383.532 341.169 383.468 341.638 383.385 342.953C383.322 343.509 383.175 343.673 382.609 343.673C382.536 343.673 382.326 343.673 382.125 343.646C381.916 343.619 381.677 343.619 381.422 343.619H371.696Z" fill="white"/>
<path fill-rule="evenodd" clip-rule="evenodd" d="M391.152 340.53C391.152 342.278 391.425 342.657 392.75 342.743C393.616 342.816 393.854 342.916 393.854 343.267C393.854 343.596 393.672 343.71 393.206 343.71H393.032C392.804 343.71 392.996 343.71 391.854 343.646C391.041 343.619 390.102 343.596 389.444 343.596C388.621 343.596 388.101 343.619 386.32 343.673C386.191 343.71 386.102 343.71 385.973 343.71H385.799C385.334 343.71 385.133 343.596 385.133 343.267C385.133 342.916 385.379 342.816 386.266 342.743C387.543 342.657 387.818 342.278 387.818 340.53V327.257C387.818 325.505 387.543 325.14 386.266 325.053C385.379 324.99 385.133 324.871 385.133 324.516C385.133 324.196 385.334 324.091 385.799 324.091H385.973C386.191 324.091 386.01 324.091 387.124 324.146C388.147 324.174 388.749 324.196 389.616 324.196C390.43 324.196 390.722 324.196 392.685 324.118C392.804 324.091 392.887 324.091 393.032 324.091H393.206C393.672 324.091 393.854 324.196 393.854 324.516C393.854 324.871 393.616 324.99 392.75 325.053C391.425 325.14 391.152 325.505 391.152 327.257V340.53Z" fill="white"/>
<path fill-rule="evenodd" clip-rule="evenodd" d="M410.388 327.703C410.644 327.065 410.827 326.39 410.827 326.042C410.827 325.394 410.37 325.051 409.531 325.006C408.471 324.988 408.206 324.906 408.206 324.554C408.206 324.221 408.425 324.089 408.918 324.089C409.047 324.089 409.485 324.116 409.86 324.145C410.535 324.172 411.147 324.195 411.73 324.195C412.343 324.195 412.9 324.172 413.421 324.116C413.859 324.089 414.205 324.057 414.534 324.057C414.846 324.057 415.029 324.195 415.029 324.46C415.029 324.842 414.983 324.842 413.696 325.051C412.9 325.167 412.516 325.714 411.64 327.876L405.366 343.476C405.22 343.827 405.019 344.064 404.809 344.064C404.608 344.064 404.434 343.855 404.26 343.406L397.393 327.065C396.727 325.394 396.399 325.075 395.356 324.988C394.553 324.906 394.352 324.81 394.352 324.491C394.352 324.221 394.553 324.089 394.837 324.089H395.119C396.399 324.145 394.818 324.089 400.023 324.249C400.087 324.249 400.581 324.221 401.248 324.172C401.731 324.116 402.298 324.089 402.507 324.089C402.981 324.089 403.183 324.221 403.183 324.491C403.183 324.87 403.183 324.87 401.887 324.988C401.192 325.075 400.736 325.34 400.763 325.714C400.763 325.924 400.9 326.325 401.164 326.918L406.152 338.543L410.388 327.703Z" fill="white"/>
<path fill-rule="evenodd" clip-rule="evenodd" d="M421.581 340.53C421.581 342.278 421.856 342.657 423.162 342.743C424.047 342.816 424.275 342.916 424.275 343.267C424.275 343.596 424.101 343.71 423.645 343.71H423.455C423.226 343.71 423.426 343.71 422.285 343.646C421.471 343.619 420.532 343.596 419.873 343.596C419.042 343.596 418.53 343.619 416.75 343.673C416.641 343.71 416.532 343.71 416.403 343.71H416.23C415.764 343.71 415.562 343.596 415.562 343.267C415.562 342.916 415.81 342.816 416.687 342.743C417.974 342.657 418.248 342.278 418.248 340.53V327.257C418.248 325.505 417.974 325.14 416.687 325.053C415.81 324.99 415.562 324.871 415.562 324.516C415.562 324.196 415.764 324.091 416.23 324.091H416.403C416.641 324.091 416.431 324.091 417.554 324.146C418.595 324.174 419.17 324.196 420.046 324.196C420.861 324.196 421.161 324.196 423.098 324.118C423.226 324.091 423.298 324.091 423.455 324.091H423.645C424.101 324.091 424.275 324.196 424.275 324.516C424.275 324.871 424.047 324.99 423.162 325.053C421.856 325.14 421.581 325.505 421.581 327.257V340.53Z" fill="white"/>
<path fill-rule="evenodd" clip-rule="evenodd" d="M443.432 328.951C443.377 325.603 443.213 325.17 441.807 325.111C440.664 325.055 440.373 324.936 440.373 324.586C440.373 324.289 440.638 324.148 441.112 324.148C441.195 324.148 441.505 324.175 441.807 324.175C442.427 324.225 443.148 324.252 444.026 324.252C444.821 324.252 445.542 324.225 446.098 324.198C446.446 324.175 446.838 324.148 446.965 324.148C447.35 324.148 447.56 324.289 447.56 324.586C447.56 324.959 447.296 325.079 446.326 325.17C444.957 325.274 444.728 325.547 444.728 327.085L444.821 343.41C444.821 344.067 444.664 344.332 444.253 344.332C443.98 344.332 443.706 344.09 443.268 343.569L429.989 326.948L430.107 337.762C430.163 342.489 430.226 342.612 432.783 342.817C433.158 342.817 433.34 342.981 433.34 343.246C433.34 343.528 433.103 343.675 432.646 343.675C432.527 343.675 432.1 343.648 431.705 343.621C431.066 343.597 430.455 343.569 429.861 343.569C429.121 343.569 428.391 343.597 427.66 343.675C427.194 343.739 426.675 343.771 426.473 343.771C426.144 343.771 425.934 343.621 425.934 343.365C425.934 343.014 426.017 342.954 427.358 342.772C428.811 342.612 428.874 342.402 428.874 338.109V327.733C428.874 325.398 428.673 325.055 427.276 325.01C426.372 325.01 426.099 324.909 426.099 324.558C426.099 324.225 426.346 324.12 426.985 324.12L429.752 324.198L431.769 324.148C432.299 324.148 432.299 324.148 432.938 325.01L443.559 338.611L443.432 328.951Z" fill="white"/>
<path fill-rule="evenodd" clip-rule="evenodd" d="M463.741 336.856C463.741 335.455 463.302 335.022 461.785 334.985C460.79 334.958 460.552 334.848 460.552 334.456C460.552 334.204 460.727 334.091 461.174 334.091C461.229 334.091 461.658 334.119 461.959 334.119C463.493 334.178 464.699 334.204 466.013 334.204C466.799 334.204 467.593 334.178 468.17 334.119C468.699 334.091 469.229 334.06 469.402 334.06C469.722 334.06 469.886 334.178 469.886 334.4C469.924 334.757 469.668 334.876 468.754 334.93C467.53 335.022 467.182 335.338 467.182 336.386C467.182 336.564 467.21 337.44 467.265 338.403C467.265 338.899 467.292 339.603 467.292 340.095C467.292 341.752 467.292 341.752 466.837 342.075C465.257 343.157 462.379 343.91 459.768 343.91C456.498 343.91 453.85 342.952 451.922 341.058C450.141 339.307 449 336.564 449 334.027C449 330.988 450.643 327.982 453.284 326.121C455.412 324.641 458.069 323.88 461.255 323.88C463.156 323.88 465.667 324.369 466.132 324.843C466.342 325.052 466.342 325.076 466.543 326.261C466.708 327.321 466.771 327.75 466.771 328.051C466.771 328.347 466.626 328.553 466.388 328.574C466.151 328.607 465.931 328.364 465.667 327.836C464.461 325.664 462.891 324.669 460.498 324.669C456.416 324.669 452.937 329.004 452.937 334.119C452.937 339.269 456.188 343.124 460.515 343.124C461.785 343.124 462.837 342.815 463.238 342.313C463.529 341.898 463.741 340.856 463.741 339.538V336.856Z" fill="white"/>
<path fill-rule="evenodd" clip-rule="evenodd" d="M348.358 327.257C348.358 325.505 348.092 325.14 346.813 325.053C345.938 324.99 345.699 324.871 345.699 324.516C345.699 324.196 345.863 324.091 346.339 324.091C346.394 324.091 346.659 324.091 346.851 324.118C347.151 324.118 347.452 324.118 347.691 324.146C348.001 324.174 348.238 324.174 348.358 324.174H357.07C357.49 324.174 357.946 324.174 358.43 324.146C358.887 324.118 359.417 324.091 359.535 324.091C359.992 324.091 360.084 324.174 360.084 324.642V327.96C360.084 328.348 359.965 328.575 359.728 328.575C359.389 328.575 359.353 328.512 358.713 327.066C358.129 325.665 356.494 325.077 353.279 325.077C352 325.077 351.708 325.365 351.708 326.71V330.935C351.708 332.892 351.553 332.774 354.33 332.774C356.229 332.774 356.96 332.244 357.49 330.47C357.608 330.123 357.754 329.972 357.983 329.972C358.239 329.972 358.366 330.123 358.366 330.47L358.239 333.823C358.239 334.312 358.239 334.521 358.303 335.078C358.366 335.749 358.43 336.415 358.43 336.596C358.43 336.943 358.274 337.122 358.037 337.122C357.835 337.122 357.681 336.971 357.572 336.744C357.535 336.652 357.608 336.829 357.425 336.209L357.352 335.839L357.225 335.428C356.906 334.271 355.946 333.759 353.929 333.759C351.708 333.759 351.708 333.759 351.708 335.196V340.53C351.708 342.278 352 342.683 353.279 342.743C354.239 342.816 354.457 342.889 354.457 343.267C354.457 343.596 354.265 343.71 353.79 343.71H353.636C353.398 343.71 353.608 343.71 352.457 343.646C351.645 343.619 350.722 343.596 350.037 343.596C349.161 343.596 348.668 343.619 346.859 343.673C346.74 343.71 346.659 343.71 346.503 343.71H346.339C345.863 343.71 345.699 343.596 345.699 343.267C345.699 342.916 345.938 342.816 346.813 342.743C348.092 342.657 348.358 342.278 348.358 340.53V327.257Z" fill="white"/>
<path fill-rule="evenodd" clip-rule="evenodd" d="M202.673 340.568C202.673 342.324 202.929 342.703 204.244 342.775C205.116 342.845 205.359 342.968 205.359 343.315C205.359 343.634 205.176 343.748 204.689 343.748C204.506 343.748 204.212 343.748 203.368 343.694C202.409 343.634 201.555 343.606 200.834 343.606C200.427 343.606 199.46 343.634 198.646 343.694C197.801 343.748 197.51 343.748 197.327 343.748C196.838 343.748 196.66 343.634 196.66 343.315C196.66 342.968 196.902 342.845 197.766 342.775C199.048 342.703 199.322 342.324 199.322 340.568V325.963C199.322 325.297 199.139 325.114 198.56 325.114C196.604 325.114 195.724 325.265 195.053 325.698C194.386 326.141 193.331 327.299 192.897 328.111C192.637 328.618 192.486 328.732 192.217 328.765C191.993 328.792 191.793 328.581 191.793 328.377C191.793 328.24 191.81 328.09 191.879 327.883L193.162 323.457C193.272 323.011 193.396 322.91 193.633 322.91C193.824 322.91 193.92 322.983 194.003 323.339C194.152 324.009 194.442 324.211 195.38 324.211H205.464C206.67 324.211 207.924 324.097 208.386 323.974C208.706 323.854 208.943 323.617 209.094 323.221C209.204 322.91 209.327 322.793 209.532 322.793C209.846 322.793 209.992 323.129 209.961 323.686L209.934 324.065L209.733 327.883C209.706 328.581 209.565 328.855 209.236 328.855C208.943 328.855 208.834 328.674 208.742 328.18C208.299 325.79 207.476 325.146 204.892 325.146C202.582 325.146 202.673 325.088 202.673 326.256V340.568Z" fill="white"/>
<path fill-rule="evenodd" clip-rule="evenodd" d="M470.166 354.93H191.539V353.43H470.166V354.93Z" fill="white"/>
<path d="M301.725 268.973L288.766 252.73L289.939 251.799L302.898 268.042L301.725 268.973Z" fill="white"/>
<path d="M294.663 276.466L278.297 263.413L279.229 262.241L295.596 275.294L294.663 276.466Z" fill="white"/>
<path d="M289.443 285.284L270.484 276.159L271.135 274.811L290.094 283.936L289.443 285.284Z" fill="white"/>
<path d="M286.287 295.012L265.68 290.312L266.008 288.853L286.616 293.553L286.287 295.012Z" fill="white"/>
<path d="M264.156 303.683H285.32V305.178H264.156V303.683Z" fill="white"/>
<path d="M376.559 303.678H397.719V305.178H376.559V303.678Z" fill="white"/>
<path d="M375.25 293.553L395.834 288.853L396.168 290.312L375.584 295.012L375.25 293.553Z" fill="white"/>
<path d="M371.812 283.936L390.772 274.815L391.422 276.163L372.463 285.284L371.812 283.936Z" fill="white"/>
<path d="M366.324 275.294L382.699 262.241L383.631 263.413L367.257 276.466L366.324 275.294Z" fill="white"/>
<path d="M359.02 268.042L371.969 251.807L373.143 252.739L360.193 268.973L359.02 268.042Z" fill="white"/>
<path d="M285.718 310.272L274.379 311.544L274.215 310.055L285.553 308.783L285.718 310.272Z" fill="white"/>
<path d="M376.188 298.581L387.51 297.308L387.675 298.797L376.352 300.07L376.188 298.581Z" fill="white"/>
<path d="M373.824 288.649L384.528 284.908L385.021 286.321L374.317 290.061L373.824 288.649Z" fill="white"/>
<path d="M369.312 279.457L378.829 273.48L379.627 274.745L370.11 280.723L369.312 279.457Z" fill="white"/>
<path d="M362.887 271.465L370.731 263.613L371.793 264.668L363.948 272.52L362.887 271.465Z" fill="white"/>
<path d="M354.781 265.076L360.617 255.8L361.884 256.597L356.048 265.873L354.781 265.076Z" fill="white"/>
<path d="M305.831 265.873L299.996 256.593L301.263 255.796L307.098 265.076L305.831 265.873Z" fill="white"/>
<path d="M297.966 272.527L290.113 264.671L291.175 263.617L299.027 271.472L297.966 272.527Z" fill="white"/>
<path d="M291.777 280.729L282.262 274.748L283.059 273.482L292.574 279.463L291.777 280.729Z" fill="white"/>
<path d="M287.58 290.065L276.871 286.319L277.364 284.907L288.073 288.652L287.58 290.065Z" fill="white"/>
<path d="M376.352 308.792L387.675 310.07L387.51 311.559L376.188 310.281L376.352 308.792Z" fill="white"/>
<path d="M285.553 300.07L274.215 298.797L274.379 297.308L285.718 298.581L285.553 300.07Z" fill="white"/>
<path fill-rule="evenodd" clip-rule="evenodd" d="M249.446 285.116C249.702 285.165 250.656 284.34 250.811 283.769C250.981 283.166 250.785 282.601 250.524 282.155C250.268 281.713 249.506 280.735 249.341 280.434C249.168 280.123 248.954 279.627 249.009 279.554C249.058 279.49 251.99 278.746 247.798 274.717C246.592 273.559 244.172 271.614 241.519 270.707C238.999 269.84 237.141 269.886 236.46 269.909C236.168 269.912 236.241 270.287 236.355 270.278C236.387 270.278 241 270.72 244.533 273.477C247.944 276.114 248.103 277.186 247.913 277.536C247.771 277.78 247.219 277.757 246.792 277.568C246.228 277.332 245.734 277.067 245.821 276.934C245.876 276.852 246.177 276.402 245.98 275.948C245.79 275.51 245.355 275.347 244.977 275.424C244.441 275.539 244.264 275.99 244.273 276.264C244.299 277.007 244.99 277.003 244.99 277.158C244.977 277.263 244.766 278.687 243.995 278.71C242.592 278.724 240.336 276.775 239.875 276.387C237.483 274.398 233.794 274.17 231.862 275.954C229.77 277.874 230.085 280.571 231.223 282.114C232.13 283.381 232.797 283.984 233.126 284.189C233.236 284.252 233.423 284.317 233.315 284.103C233.227 283.929 231.743 282.228 231.807 280.015C231.843 278.933 232.287 277.966 232.949 277.388C233.447 276.961 234.656 275.967 236.812 276.402C237.903 276.624 239.113 277.24 240.386 278.262C242.031 279.591 244.555 280.091 246.277 281.713C246.99 282.383 247.798 283.067 247.986 283.291C248.173 283.5 249.296 284.5 249.42 284.736L249.446 285.116Z" fill="white"/>
<path fill-rule="evenodd" clip-rule="evenodd" d="M204.289 294.805C205.003 295.316 206.764 297.049 206.829 297.105C206.888 297.164 208.641 296.598 209.263 296.449C210.062 296.27 212.915 295.759 212.957 295.8C213.002 295.84 212.628 296.366 212.428 296.686C212.226 296.995 212.03 297.397 211.948 297.566C211.87 297.744 211.87 297.689 211.528 297.758C211.193 297.826 210.997 297.889 210.212 298.027C209.395 298.191 207.171 298.975 207.061 298.994C206.953 299.017 206.783 298.753 205.824 298.15C204.861 297.548 204.368 297.451 204.172 297.42C203.998 297.387 204.404 301.12 204.7 302.608C204.988 304.099 205.326 305.346 206.312 308.014C207.307 310.673 208.738 313.284 208.738 313.284H245.999C245.999 313.284 251.564 305.929 252.395 301.535C253.108 297.772 247.455 293.875 246.651 293.332C246.391 293.172 246.532 293.049 246.688 293.14C246.715 293.166 254.3 296.48 254.053 301.877C253.492 307.978 248.454 314.165 248.454 314.165H207.167C207.107 314.127 206.911 313.685 206.628 313.129C206.359 312.581 205.318 310.669 204.71 309.31C204.093 307.964 203.199 305.719 202.751 304.547C202.308 303.386 201.587 300.778 201.231 299.19C200.888 297.602 200.687 295.436 200.596 294.277C200.523 293.109 200.587 292.797 200.627 292.757C200.719 292.684 201.335 292.972 201.952 293.309C201.952 293.309 203.418 294.163 204.289 294.805Z" fill="white"/>
<path fill-rule="evenodd" clip-rule="evenodd" d="M204.407 277.722C204.649 276.644 204.973 276.112 204.973 276.112C204.973 276.112 213.49 276.015 222.161 283.347C230.836 290.652 233.362 296.354 233.097 296.483C232.835 296.625 230.613 291.573 221.178 284.669C211.745 277.777 204.156 279.556 204.156 279.556C204.156 279.556 204.165 278.743 204.407 277.722Z" fill="white"/>
<path fill-rule="evenodd" clip-rule="evenodd" d="M203.982 284.821C203.919 283.871 204.018 283.402 204.018 283.402C204.018 283.402 207.232 283.168 210.406 283.721C214.881 284.506 220.009 287.85 220.009 287.85L219.106 288.662C219.106 288.662 213.48 286.814 210.046 286.454C206.598 286.099 204.219 286.359 204.219 286.359C204.219 286.359 204.05 285.797 203.982 284.821Z" fill="white"/>
<path fill-rule="evenodd" clip-rule="evenodd" d="M205.456 292.176C205.091 291.062 205.035 290.497 205.035 290.497C205.035 290.497 207.926 290.26 210.337 290.429C212.748 290.61 216.313 291.323 216.313 291.323L215.51 292.277C215.51 292.277 212.315 292.504 210.41 292.815C208.501 293.13 206.091 293.928 206.091 293.928C206.091 293.928 205.848 293.331 205.456 292.176Z" fill="white"/>
<path fill-rule="evenodd" clip-rule="evenodd" d="M247.089 279.388C247.089 279.388 246.697 279.422 246.286 279.535C245.862 279.644 245.445 279.823 245.445 279.823C245.445 279.823 246.788 280.885 247.199 281.295C247.61 281.717 248.769 282.851 248.815 282.911C248.829 282.929 249.272 282.605 249.025 282.249C248.769 281.88 248.258 281.186 247.825 280.634C247.551 280.26 247.089 279.388 247.089 279.388Z" fill="white" stroke="white" stroke-width="1.14141" stroke-miterlimit="2.61313"/>
<path fill-rule="evenodd" clip-rule="evenodd" d="M241.48 295.527C238.161 293.405 236.123 292.028 230.731 288.177C223.548 283.053 225.722 276.533 226.224 275.412L226.233 275.407C226.375 275.215 226.698 275.425 226.625 275.635C226.204 276.789 224.7 282.744 232.037 287.42C239.389 292.12 240.827 292.983 243.123 294.401C246.529 296.5 246.566 298.54 246.352 300.194C246.133 301.719 245.306 303.083 245.182 303.285C245.069 303.439 243.776 302.112 241.804 300.875C239.69 299.529 236.926 298.435 236.83 298.397C236.48 298.239 236.613 298.156 236.771 298.142C236.932 298.133 239.169 298.22 241.024 298.713C242.945 299.251 244.078 299.954 244.123 299.891C244.123 299.891 245.435 298.014 241.48 295.527Z" fill="white"/>
<path fill-rule="evenodd" clip-rule="evenodd" d="M412.463 285.036C412.207 285.078 411.257 284.252 411.101 283.691C410.919 283.089 411.12 282.518 411.386 282.08C411.65 281.633 412.407 280.653 412.581 280.36C412.736 280.046 412.956 279.548 412.909 279.481C412.855 279.416 409.914 278.668 414.125 274.648C415.304 273.486 417.75 271.541 420.398 270.62C422.91 269.761 424.764 269.798 425.449 269.834C425.75 269.843 425.669 270.203 425.559 270.199C425.523 270.199 420.929 270.642 417.376 273.398C413.979 276.031 413.804 277.117 414.006 277.463C414.152 277.701 414.673 277.673 415.12 277.49C415.677 277.249 416.17 276.993 416.097 276.861C416.051 276.769 415.741 276.318 415.933 275.875C416.125 275.428 416.545 275.273 416.919 275.351C417.466 275.465 417.659 275.911 417.649 276.182C417.623 276.93 416.919 276.921 416.919 277.085C416.919 277.18 417.147 278.604 417.915 278.626C419.321 278.645 421.577 276.692 422.043 276.309C424.436 274.316 428.115 274.101 430.061 275.879C432.134 277.792 431.814 280.492 430.699 282.034C429.787 283.295 429.102 283.9 428.783 284.111C428.683 284.174 428.49 284.248 428.6 284.019C428.691 283.846 430.162 282.144 430.107 279.931C430.07 278.864 429.613 277.883 428.956 277.299C428.471 276.88 427.258 275.885 425.093 276.318C424.007 276.537 422.8 277.158 421.532 278.184C419.887 279.502 417.34 280.018 415.64 281.633C414.919 282.301 414.125 282.998 413.914 283.212C413.741 283.417 412.618 284.417 412.49 284.654L412.463 285.036Z" fill="white"/>
<path fill-rule="evenodd" clip-rule="evenodd" d="M457.636 294.718C456.914 295.246 455.151 296.967 455.106 297.026C455.024 297.084 453.28 296.515 452.65 296.369C451.864 296.19 449.005 295.681 448.96 295.72C448.906 295.758 449.298 296.287 449.499 296.601C449.7 296.912 449.883 297.322 449.974 297.478C450.047 297.664 450.047 297.605 450.385 297.678C450.723 297.751 450.905 297.806 451.719 297.951C452.521 298.103 454.75 298.901 454.86 298.914C454.977 298.928 455.143 298.672 456.101 298.07C457.052 297.468 457.554 297.376 457.736 297.34C457.918 297.308 457.517 301.036 457.215 302.533C456.923 304.019 456.595 305.27 455.618 307.935C454.604 310.6 453.179 313.205 453.179 313.205H415.928C415.928 313.205 410.357 305.845 409.526 301.461C408.804 297.687 414.458 293.794 415.27 293.257C415.526 293.088 415.389 292.969 415.242 293.061C415.207 293.079 407.627 296.4 407.873 301.793C408.42 307.898 413.462 314.076 413.462 314.076C413.462 314.076 454.75 314.076 454.76 314.076C454.806 314.053 455.015 313.611 455.289 313.049C455.562 312.497 456.604 310.59 457.215 309.235C457.828 307.888 458.722 305.645 459.17 304.471C459.609 303.312 460.33 300.698 460.687 299.11C461.033 297.528 461.233 295.347 461.316 294.191C461.408 293.029 461.325 292.719 461.288 292.682C461.207 292.609 460.585 292.896 459.973 293.234C459.973 293.234 458.513 294.083 457.636 294.718Z" fill="white"/>
<path fill-rule="evenodd" clip-rule="evenodd" d="M457.48 277.64C457.242 276.565 456.914 276.029 456.914 276.029C456.914 276.029 448.402 275.925 439.736 283.262C431.059 290.581 428.539 296.274 428.804 296.402C429.06 296.543 431.288 291.488 440.713 284.589C450.145 277.692 457.736 279.48 457.736 279.48C457.736 279.48 457.727 278.659 457.48 277.64Z" fill="white"/>
<path fill-rule="evenodd" clip-rule="evenodd" d="M457.908 284.746C457.991 283.797 457.882 283.319 457.882 283.319C457.882 283.319 454.657 283.09 451.488 283.638C447.005 284.427 441.891 287.775 441.891 287.775L442.785 288.583C442.785 288.583 448.411 286.732 451.854 286.375C455.288 286.015 457.672 286.274 457.672 286.274C457.672 286.274 457.845 285.723 457.908 284.746Z" fill="white"/>
<path fill-rule="evenodd" clip-rule="evenodd" d="M456.432 292.09C456.797 290.981 456.851 290.42 456.851 290.42C456.851 290.42 453.965 290.183 451.546 290.345C449.143 290.519 445.582 291.241 445.582 291.241L446.368 292.194C446.368 292.194 449.582 292.422 451.481 292.728C453.38 293.043 455.783 293.842 455.783 293.842C455.783 293.842 456.039 293.252 456.432 292.09Z" fill="white"/>
<path fill-rule="evenodd" clip-rule="evenodd" d="M414.81 279.3C414.81 279.3 415.213 279.345 415.632 279.459C416.043 279.56 416.464 279.743 416.464 279.743C416.464 279.743 415.13 280.8 414.711 281.225C414.3 281.635 413.148 282.772 413.093 282.835C413.085 282.849 412.636 282.521 412.882 282.17C413.147 281.801 413.66 281.107 414.061 280.545C414.354 280.185 414.81 279.3 414.81 279.3Z" fill="white"/>
<path fill-rule="evenodd" clip-rule="evenodd" d="M420.442 295.452C423.766 293.331 425.793 291.957 431.199 288.111C438.378 282.993 436.204 276.467 435.693 275.34V275.337C435.547 275.136 435.218 275.355 435.3 275.56C435.721 276.724 437.228 282.665 429.903 287.354C422.542 292.036 421.09 292.902 418.788 294.331C415.4 296.421 415.356 298.468 415.583 300.125C415.802 301.645 416.624 303.017 416.752 303.2C416.835 303.365 418.149 302.033 420.123 300.791C422.241 299.459 424.999 298.354 425.091 298.314C425.445 298.164 425.309 298.076 425.163 298.064C424.999 298.055 422.762 298.149 420.917 298.647C418.98 299.172 417.839 299.883 417.793 299.809C417.793 299.809 416.496 297.943 420.442 295.452Z" fill="white"/>
<path fill-rule="evenodd" clip-rule="evenodd" d="M470.175 314.315H191.539V312.814H470.175V314.315Z" fill="white"/>
</g>
<path d="M68.9846 653.933C68.0957 652.644 66.8957 651.711 65.3846 651.133C63.918 650.511 62.3624 650.2 60.718 650.2C59.7402 650.2 58.7846 650.311 57.8513 650.533C56.9624 650.756 56.1402 651.111 55.3846 651.6C54.6735 652.089 54.0957 652.733 53.6513 653.533C53.2068 654.289 52.9846 655.2 52.9846 656.267C52.9846 657.867 53.5402 659.089 54.6513 659.933C55.7624 660.778 57.1402 661.511 58.7846 662.133C60.4291 662.756 62.2291 663.356 64.1846 663.933C66.1402 664.511 67.9402 665.311 69.5846 666.333C71.2291 667.356 72.6069 668.711 73.718 670.4C74.8291 672.089 75.3846 674.333 75.3846 677.133C75.3846 679.667 74.918 681.889 73.9846 683.8C73.0513 685.667 71.7846 687.222 70.1846 688.467C68.6291 689.711 66.8069 690.644 64.718 691.267C62.6291 691.889 60.4291 692.2 58.118 692.2C55.1846 692.2 52.3624 691.711 49.6513 690.733C46.9402 689.756 44.6068 688.111 42.6513 685.8L48.9846 679.667C50.0068 681.222 51.3402 682.444 52.9846 683.333C54.6735 684.178 56.4513 684.6 58.318 684.6C59.2957 684.6 60.2735 684.467 61.2513 684.2C62.2291 683.933 63.118 683.533 63.918 683C64.718 682.467 65.3624 681.8 65.8513 681C66.3402 680.156 66.5846 679.2 66.5846 678.133C66.5846 676.4 66.0291 675.067 64.918 674.133C63.8068 673.2 62.4291 672.422 60.7846 671.8C59.1402 671.133 57.3402 670.511 55.3846 669.933C53.4291 669.356 51.6291 668.578 49.9846 667.6C48.3402 666.578 46.9624 665.244 45.8513 663.6C44.7402 661.911 44.1846 659.667 44.1846 656.867C44.1846 654.422 44.6735 652.311 45.6513 650.533C46.6735 648.756 47.9846 647.289 49.5846 646.133C51.2291 644.933 53.0957 644.044 55.1846 643.467C57.2735 642.889 59.4068 642.6 61.5846 642.6C64.0735 642.6 66.4735 642.978 68.7846 643.733C71.1402 644.489 73.2513 645.733 75.118 647.467L68.9846 653.933ZM105.266 653.933C104.377 652.644 103.177 651.711 101.666 651.133C100.199 650.511 98.6437 650.2 96.9992 650.2C96.0214 650.2 95.0659 650.311 94.1325 650.533C93.2437 650.756 92.4214 651.111 91.6659 651.6C90.9548 652.089 90.377 652.733 89.9325 653.533C89.4881 654.289 89.2659 655.2 89.2659 656.267C89.2659 657.867 89.8214 659.089 90.9325 659.933C92.0437 660.778 93.4214 661.511 95.0659 662.133C96.7103 662.756 98.5103 663.356 100.466 663.933C102.421 664.511 104.221 665.311 105.866 666.333C107.51 667.356 108.888 668.711 109.999 670.4C111.11 672.089 111.666 674.333 111.666 677.133C111.666 679.667 111.199 681.889 110.266 683.8C109.333 685.667 108.066 687.222 106.466 688.467C104.91 689.711 103.088 690.644 100.999 691.267C98.9103 691.889 96.7103 692.2 94.3992 692.2C91.4659 692.2 88.6437 691.711 85.9325 690.733C83.2214 689.756 80.8881 688.111 78.9325 685.8L85.2659 679.667C86.2881 681.222 87.6214 682.444 89.2659 683.333C90.9548 684.178 92.7325 684.6 94.5992 684.6C95.577 684.6 96.5548 684.467 97.5325 684.2C98.5103 683.933 99.3992 683.533 100.199 683C100.999 682.467 101.644 681.8 102.133 681C102.621 680.156 102.866 679.2 102.866 678.133C102.866 676.4 102.31 675.067 101.199 674.133C100.088 673.2 98.7103 672.422 97.0659 671.8C95.4214 671.133 93.6214 670.511 91.6659 669.933C89.7103 669.356 87.9103 668.578 86.2659 667.6C84.6214 666.578 83.2437 665.244 82.1325 663.6C81.0214 661.911 80.4659 659.667 80.4659 656.867C80.4659 654.422 80.9548 652.311 81.9325 650.533C82.9548 648.756 84.2659 647.289 85.8659 646.133C87.5103 644.933 89.377 644.044 91.4659 643.467C93.5548 642.889 95.6881 642.6 97.8659 642.6C100.355 642.6 102.755 642.978 105.066 643.733C107.421 644.489 109.533 645.733 111.399 647.467L105.266 653.933ZM118.414 643.8H134.814C137.08 643.8 139.258 644.022 141.347 644.467C143.48 644.867 145.369 645.578 147.014 646.6C148.658 647.622 149.969 649 150.947 650.733C151.925 652.467 152.414 654.667 152.414 657.333C152.414 660.756 151.458 663.622 149.547 665.933C147.68 668.244 144.992 669.644 141.48 670.133L154.014 691H143.88L132.947 671H126.814V691H118.414V643.8ZM133.347 663.8C134.547 663.8 135.747 663.756 136.947 663.667C138.147 663.533 139.236 663.267 140.214 662.867C141.236 662.422 142.058 661.778 142.68 660.933C143.303 660.044 143.614 658.822 143.614 657.267C143.614 655.889 143.325 654.778 142.747 653.933C142.169 653.089 141.414 652.467 140.48 652.067C139.547 651.622 138.503 651.333 137.347 651.2C136.236 651.067 135.147 651 134.08 651H126.814V663.8H133.347ZM158.406 643.8H176.806C178.584 643.8 180.339 644.022 182.073 644.467C183.806 644.867 185.339 645.556 186.673 646.533C188.05 647.467 189.162 648.689 190.006 650.2C190.85 651.711 191.273 653.533 191.273 655.667C191.273 658.333 190.517 660.533 189.006 662.267C187.495 664 185.517 665.244 183.073 666V666.133C184.539 666.311 185.895 666.733 187.139 667.4C188.428 668.022 189.517 668.844 190.406 669.867C191.295 670.844 191.984 672 192.473 673.333C193.006 674.622 193.273 676.022 193.273 677.533C193.273 680.111 192.762 682.267 191.739 684C190.717 685.689 189.362 687.067 187.673 688.133C186.028 689.156 184.117 689.889 181.939 690.333C179.806 690.778 177.628 691 175.406 691H158.406V643.8ZM166.806 663H174.473C177.273 663 179.362 662.467 180.739 661.4C182.162 660.289 182.873 658.844 182.873 657.067C182.873 655.022 182.139 653.511 180.673 652.533C179.25 651.511 176.939 651 173.739 651H166.806V663ZM166.806 683.8H174.539C175.606 683.8 176.739 683.733 177.939 683.6C179.184 683.467 180.317 683.156 181.339 682.667C182.362 682.178 183.206 681.489 183.873 680.6C184.539 679.667 184.873 678.422 184.873 676.867C184.873 674.378 184.05 672.644 182.406 671.667C180.806 670.689 178.295 670.2 174.873 670.2H166.806V683.8ZM199.835 643.8H212.635L225.235 676.867L237.969 643.8H250.635V691H242.635V651.8H242.502L228.169 691H222.302L207.969 651.8H207.835V691H199.835V643.8ZM261.287 681.8H269.421L263.754 699.4H256.621L261.287 681.8ZM294.807 643.8H311.207C313.474 643.8 315.651 644.022 317.74 644.467C319.874 644.867 321.763 645.578 323.407 646.6C325.051 647.622 326.363 649 327.34 650.733C328.318 652.467 328.807 654.667 328.807 657.333C328.807 660.756 327.851 663.622 325.94 665.933C324.074 668.244 321.385 669.644 317.874 670.133L330.407 691H320.274L309.34 671H303.207V691H294.807V643.8ZM309.74 663.8C310.94 663.8 312.14 663.756 313.34 663.667C314.54 663.533 315.629 663.267 316.607 662.867C317.629 662.422 318.451 661.778 319.074 660.933C319.696 660.044 320.007 658.822 320.007 657.267C320.007 655.889 319.718 654.778 319.14 653.933C318.563 653.089 317.807 652.467 316.874 652.067C315.94 651.622 314.896 651.333 313.74 651.2C312.629 651.067 311.54 651 310.474 651H303.207V663.8H309.74ZM334.799 643.8H351.199C353.466 643.8 355.644 644.022 357.733 644.467C359.866 644.867 361.755 645.578 363.399 646.6C365.044 647.622 366.355 649 367.333 650.733C368.31 652.467 368.799 654.667 368.799 657.333C368.799 660.756 367.844 663.622 365.933 665.933C364.066 668.244 361.377 669.644 357.866 670.133L370.399 691H360.266L349.333 671H343.199V691H334.799V643.8ZM349.733 663.8C350.933 663.8 352.133 663.756 353.333 663.667C354.533 663.533 355.621 663.267 356.599 662.867C357.621 662.422 358.444 661.778 359.066 660.933C359.688 660.044 359.999 658.822 359.999 657.267C359.999 655.889 359.71 654.778 359.133 653.933C358.555 653.089 357.799 652.467 356.866 652.067C355.933 651.622 354.888 651.333 353.733 651.2C352.621 651.067 351.533 651 350.466 651H343.199V663.8H349.733ZM392.518 643.8H403.651L426.518 678.867H426.651V643.8H435.051V691H424.385L401.051 654.8H400.918V691H392.518V643.8ZM458.845 643.8H466.111L486.445 691H476.845L472.445 680.2H451.978L447.711 691H438.311L458.845 643.8ZM469.511 673L462.245 653.8L454.845 673H469.511ZM531.623 687.533C525.801 690.644 519.29 692.2 512.09 692.2C508.445 692.2 505.09 691.622 502.023 690.467C499.001 689.267 496.379 687.6 494.157 685.467C491.979 683.289 490.268 680.689 489.023 677.667C487.779 674.644 487.157 671.289 487.157 667.6C487.157 663.822 487.779 660.4 489.023 657.333C490.268 654.222 491.979 651.578 494.157 649.4C496.379 647.222 499.001 645.556 502.023 644.4C505.09 643.2 508.445 642.6 512.09 642.6C515.69 642.6 519.068 643.044 522.223 643.933C525.379 644.778 528.201 646.311 530.69 648.533L524.49 654.8C522.979 653.333 521.134 652.2 518.957 651.4C516.823 650.6 514.557 650.2 512.157 650.2C509.712 650.2 507.49 650.644 505.49 651.533C503.534 652.378 501.845 653.578 500.423 655.133C499.001 656.644 497.89 658.422 497.09 660.467C496.334 662.511 495.957 664.711 495.957 667.067C495.957 669.6 496.334 671.933 497.09 674.067C497.89 676.2 499.001 678.044 500.423 679.6C501.845 681.156 503.534 682.378 505.49 683.267C507.49 684.156 509.712 684.6 512.157 684.6C514.29 684.6 516.29 684.4 518.157 684C520.068 683.6 521.757 682.978 523.223 682.133V671H513.557V663.4H531.623V687.533ZM554.845 643.8H562.111L582.445 691H572.845L568.445 680.2H547.978L543.711 691H534.311L554.845 643.8ZM565.511 673L558.245 653.8L550.845 673H565.511ZM585.69 643.8H602.09C604.357 643.8 606.534 644.022 608.623 644.467C610.757 644.867 612.645 645.578 614.29 646.6C615.934 647.622 617.245 649 618.223 650.733C619.201 652.467 619.69 654.667 619.69 657.333C619.69 660.756 618.734 663.622 616.823 665.933C614.957 668.244 612.268 669.644 608.757 670.133L621.29 691H611.157L600.223 671H594.09V691H585.69V643.8ZM600.623 663.8C601.823 663.8 603.023 663.756 604.223 663.667C605.423 663.533 606.512 663.267 607.49 662.867C608.512 662.422 609.334 661.778 609.957 660.933C610.579 660.044 610.89 658.822 610.89 657.267C610.89 655.889 610.601 654.778 610.023 653.933C609.445 653.089 608.69 652.467 607.757 652.067C606.823 651.622 605.779 651.333 604.623 651.2C603.512 651.067 602.423 651 601.357 651H594.09V663.8H600.623Z" fill="#17436D"/>
<defs>
<radialGradient id="paint0_radial_1041_692" cx="0" cy="0" r="1" gradientUnits="userSpaceOnUse" gradientTransform="translate(331.881 315.624) scale(73.8759 73.8167)">
<stop stop-color="#FFF200"/>
<stop offset="0.1" stop-color="#FFF200"/>
<stop offset="1" stop-color="#F68712"/>
</radialGradient>
</defs>
</svg>
