<svg width="195" height="25" viewBox="0 0 195 25" fill="none" xmlns="http://www.w3.org/2000/svg">
<rect width="194.3" height="24.3" rx="4" fill="#252525"/>
<g filter="url(#filter0_d_1403_1407)">
<rect x="4.20312" y="4.20767" width="15.8844" height="15.8844" rx="3.294" fill="url(#paint0_radial_1403_1407)" fill-opacity="0.2" shape-rendering="crispEdges"/>
<rect x="4.20312" y="4.20767" width="15.8844" height="15.8844" rx="3.294" fill="url(#paint1_linear_1403_1407)" fill-opacity="0.6" shape-rendering="crispEdges"/>
<rect x="4.14384" y="4.14839" width="16.003" height="16.003" rx="3.35328" stroke="#9891F8" stroke-opacity="0.78" stroke-width="0.118561" shape-rendering="crispEdges"/>
</g>
<g filter="url(#filter1_d_1403_1407)">
<rect x="4.57031" y="4.5737" width="15.1524" height="15.1524" rx="3.294" fill="white" shape-rendering="crispEdges"/>
<rect x="4.52456" y="4.52795" width="15.2439" height="15.2439" rx="3.33975" stroke="url(#paint2_linear_1403_1407)" stroke-opacity="0.8" stroke-width="0.0915" shape-rendering="crispEdges"/>
</g>
<mask id="mask0_1403_1407" style="mask-type:alpha" maskUnits="userSpaceOnUse" x="4" y="4" width="16" height="16">
<rect x="4.57422" y="4.57393" width="15.1524" height="15.1524" rx="3.294" fill="white"/>
</mask>
<g mask="url(#mask0_1403_1407)">
<g filter="url(#filter2_f_1403_1407)">
<circle cx="2.24969" cy="20.7694" r="7.32" fill="#DAF7BC"/>
</g>
</g>
<mask id="mask1_1403_1407" style="mask-type:alpha" maskUnits="userSpaceOnUse" x="4" y="4" width="16" height="16">
<rect x="4.57422" y="4.57393" width="15.1524" height="15.1524" rx="3.294" fill="white"/>
</mask>
<g mask="url(#mask1_1403_1407)">
<g filter="url(#filter3_f_1403_1407)">
<circle cx="22.527" cy="3.27483" r="7.32" fill="#ACA7F4"/>
</g>
</g>
<circle opacity="0.6" cx="12.1115" cy="11.9973" r="3.881" fill="#272542"/>
<circle opacity="0.6" cx="12.1115" cy="13.5859" r="3.881" fill="#272542"/>
<circle cx="12.1115" cy="10.4087" r="3.881" fill="#272542"/>
<path d="M27.6935 16.65H26.1115V7.26999H29.9475C31.9215 7.26999 33.4615 8.27799 33.4615 10.518C33.4615 12.66 31.9355 13.682 29.9475 13.682H27.6935V16.65ZM29.7935 8.66999H27.6935V12.282H29.7935C30.8715 12.282 31.8235 11.876 31.8235 10.518C31.8235 9.06199 30.8715 8.66999 29.7935 8.66999ZM37.3601 16.79C35.4001 16.79 34.0561 15.362 34.0561 13.248C34.0561 11.12 35.4001 9.69199 37.3601 9.69199C39.3481 9.69199 40.6921 11.12 40.6921 13.248C40.6921 15.362 39.3481 16.79 37.3601 16.79ZM37.3741 15.488C38.3961 15.488 39.0961 14.816 39.0961 13.248C39.0961 11.666 38.3961 10.994 37.3741 10.994C36.3661 10.994 35.6661 11.666 35.6661 13.248C35.6661 14.816 36.3661 15.488 37.3741 15.488ZM44.7471 16.65H42.7311L40.9951 9.83199H42.7451L43.4451 13.668L43.7391 15.586L44.1731 13.668L45.2091 9.83199H47.0711L48.1211 13.668L48.5411 15.586L48.8351 13.668L49.5491 9.83199H51.2991L49.5491 16.65H47.5471L46.5811 13.108L46.1471 10.994L45.6991 13.108L44.7471 16.65ZM54.891 16.79C52.861 16.79 51.531 15.376 51.531 13.248C51.531 11.106 52.861 9.69199 54.779 9.69199C56.823 9.69199 57.957 11.05 57.957 12.94C57.957 13.192 57.929 13.486 57.901 13.626H53.029C53.113 14.844 53.827 15.502 54.905 15.502C56.095 15.502 56.627 14.886 56.879 14.312L57.845 15.32C57.327 16.104 56.403 16.79 54.891 16.79ZM54.779 10.952C53.813 10.952 53.169 11.512 53.043 12.618H56.543C56.431 11.54 55.815 10.952 54.779 10.952ZM60.8999 16.65H59.3319V9.83199H60.8999V11.764C61.1519 10.672 61.8379 9.69199 63.0559 9.69199C63.9099 9.69199 64.5399 10.252 64.5399 11.26C64.5399 11.918 64.3579 12.408 64.2319 12.618H62.6219C62.8459 12.394 63.0559 11.946 63.0559 11.554C63.0559 11.176 62.8739 10.868 62.4119 10.868C61.6279 10.868 60.8999 11.764 60.8999 12.898V16.65ZM68.4398 16.79C66.4098 16.79 65.0798 15.376 65.0798 13.248C65.0798 11.106 66.4098 9.69199 68.3278 9.69199C70.3718 9.69199 71.5058 11.05 71.5058 12.94C71.5058 13.192 71.4778 13.486 71.4498 13.626H66.5778C66.6618 14.844 67.3758 15.502 68.4538 15.502C69.6438 15.502 70.1758 14.886 70.4278 14.312L71.3938 15.32C70.8758 16.104 69.9518 16.79 68.4398 16.79ZM68.3278 10.952C67.3618 10.952 66.7178 11.512 66.5918 12.618H70.0918C69.9798 11.54 69.3638 10.952 68.3278 10.952ZM75.3834 16.804C73.7034 16.804 72.6394 15.446 72.6394 13.248C72.6394 11.05 73.7034 9.69199 75.3554 9.69199C76.7134 9.69199 77.3154 10.602 77.5394 11.666V7.26999H79.1074V16.65H77.5394V14.844C77.3154 15.894 76.7414 16.804 75.3834 16.804ZM74.2494 13.248C74.2494 14.788 74.9914 15.53 75.9854 15.53C77.0774 15.53 77.5394 14.802 77.5394 13.682V12.828C77.5394 11.708 77.0774 10.966 75.9714 10.966C74.9914 10.966 74.2494 11.722 74.2494 13.248ZM85.2358 16.65H83.6678V7.26999H85.2358V11.666C85.4598 10.602 86.0618 9.69199 87.4198 9.69199C89.0858 9.69199 90.1498 11.05 90.1498 13.248C90.1498 15.446 89.0858 16.804 87.3918 16.804C86.0338 16.804 85.4598 15.894 85.2358 14.844V16.65ZM85.2358 13.682C85.2358 14.802 85.6978 15.53 86.8038 15.53C87.7978 15.53 88.5398 14.788 88.5398 13.248C88.5398 11.722 87.7978 10.966 86.8038 10.966C85.6978 10.966 85.2358 11.708 85.2358 12.828V13.682ZM92.5583 18.988C91.5783 18.988 90.7803 18.484 90.4023 17.952L91.1443 16.692C91.5083 17.21 91.9283 17.602 92.5583 17.602C93.0903 17.602 93.4263 17.364 93.6783 16.608L93.8043 16.23H92.8383L90.5843 9.83199H92.3063L93.5383 13.696L94.0283 15.516L94.5183 13.696L95.7363 9.83199H97.4723L94.9523 17.126C94.4623 18.498 93.6643 18.988 92.5583 18.988Z" fill="white"/>
<path d="M105.155 16.65H103.573V8.66999H100.703V7.26999H108.039V8.66999H105.155V16.65ZM110.665 16.65H109.097V7.26999H110.665V11.694C110.917 10.616 111.617 9.69199 112.975 9.69199C114.305 9.69199 115.117 10.49 115.117 11.904V16.65H113.535V12.38C113.535 11.54 113.255 10.966 112.205 10.966C111.057 10.966 110.665 11.708 110.665 12.828V16.65ZM119.723 16.79C117.693 16.79 116.363 15.376 116.363 13.248C116.363 11.106 117.693 9.69199 119.611 9.69199C121.655 9.69199 122.789 11.05 122.789 12.94C122.789 13.192 122.761 13.486 122.733 13.626H117.861C117.945 14.844 118.659 15.502 119.737 15.502C120.927 15.502 121.459 14.886 121.711 14.312L122.677 15.32C122.159 16.104 121.235 16.79 119.723 16.79ZM119.611 10.952C118.645 10.952 118.001 11.512 117.875 12.618H121.375C121.263 11.54 120.647 10.952 119.611 10.952ZM130.743 16.65H127.201V7.26999H130.743C133.641 7.26999 135.209 9.06199 135.209 11.96C135.209 14.858 133.655 16.65 130.743 16.65ZM130.547 8.66999H128.783V15.25H130.561C132.493 15.25 133.557 14.312 133.557 11.96C133.557 9.60799 132.493 8.66999 130.547 8.66999ZM139.571 16.79C137.611 16.79 136.267 15.362 136.267 13.248C136.267 11.12 137.611 9.69199 139.571 9.69199C141.559 9.69199 142.903 11.12 142.903 13.248C142.903 15.362 141.559 16.79 139.571 16.79ZM139.585 15.488C140.607 15.488 141.307 14.816 141.307 13.248C141.307 11.666 140.607 10.994 139.585 10.994C138.577 10.994 137.877 11.666 137.877 13.248C137.877 14.816 138.577 15.488 139.585 15.488ZM146.589 16.804C145.301 16.804 144.559 15.992 144.559 14.788V11.05H143.495V9.83199H144.559V9.00599L146.127 8.01199V9.83199H148.213V11.05H146.127V14.41C146.127 15.152 146.477 15.334 146.939 15.334C147.471 15.334 147.863 14.9 148.059 14.508L148.549 15.908C148.255 16.342 147.583 16.804 146.589 16.804ZM156.371 16.79C154.579 16.79 152.941 16.146 152.213 14.564L153.333 13.43C153.837 14.802 155.251 15.334 156.399 15.334C157.337 15.334 158.093 14.998 158.093 14.144C158.093 13.234 157.337 12.982 156.119 12.716L155.237 12.52C153.907 12.24 152.493 11.638 152.493 9.85999C152.493 8.09599 154.019 7.14399 155.783 7.14399C157.505 7.14399 158.877 7.85799 159.549 9.14599L158.359 10.28C157.841 9.11799 156.833 8.61399 155.685 8.61399C154.789 8.61399 154.145 9.03399 154.145 9.74799C154.145 10.574 154.789 10.868 155.811 11.12L156.861 11.372C158.359 11.736 159.703 12.324 159.703 14.116C159.703 15.81 158.275 16.79 156.371 16.79ZM163.269 16.804C161.981 16.804 161.239 15.992 161.239 14.788V11.05H160.175V9.83199H161.239V9.00599L162.807 8.01199V9.83199H164.893V11.05H162.807V14.41C162.807 15.152 163.157 15.334 163.619 15.334C164.151 15.334 164.543 14.9 164.739 14.508L165.229 15.908C164.935 16.342 164.263 16.804 163.269 16.804ZM168.072 16.79C166.756 16.79 165.944 15.992 165.944 14.578V9.83199H167.512V14.102C167.512 14.942 167.792 15.516 168.842 15.516C169.99 15.516 170.382 14.774 170.382 13.654V9.83199H171.964V16.65H170.382V14.788C170.13 15.866 169.43 16.79 168.072 16.79ZM175.954 16.804C174.274 16.804 173.21 15.446 173.21 13.248C173.21 11.05 174.274 9.69199 175.926 9.69199C177.284 9.69199 177.886 10.602 178.11 11.666V7.26999H179.678V16.65H178.11V14.844C177.886 15.894 177.312 16.804 175.954 16.804ZM174.82 13.248C174.82 14.788 175.562 15.53 176.556 15.53C177.648 15.53 178.11 14.802 178.11 13.682V12.828C178.11 11.708 177.648 10.966 176.542 10.966C175.562 10.966 174.82 11.722 174.82 13.248ZM182.894 8.86599H181.326V7.26999H182.894V8.86599ZM182.894 16.65H181.326V9.83199H182.894V16.65ZM187.423 16.79C185.463 16.79 184.119 15.362 184.119 13.248C184.119 11.12 185.463 9.69199 187.423 9.69199C189.411 9.69199 190.755 11.12 190.755 13.248C190.755 15.362 189.411 16.79 187.423 16.79ZM187.437 15.488C188.459 15.488 189.159 14.816 189.159 13.248C189.159 11.666 188.459 10.994 187.437 10.994C186.429 10.994 185.729 11.666 185.729 13.248C185.729 14.816 186.429 15.488 187.437 15.488Z" fill="url(#paint3_radial_1403_1407)"/>
<defs>
<filter id="filter0_d_1403_1407" x="2.90033" y="3.49631" width="18.4923" height="18.4927" filterUnits="userSpaceOnUse" color-interpolation-filters="sRGB">
<feFlood flood-opacity="0" result="BackgroundImageFix"/>
<feColorMatrix in="SourceAlpha" type="matrix" values="0 0 0 0 0 0 0 0 0 0 0 0 0 0 0 0 0 0 127 0" result="hardAlpha"/>
<feOffset dy="0.592804"/>
<feGaussianBlur stdDeviation="0.592804"/>
<feComposite in2="hardAlpha" operator="out"/>
<feColorMatrix type="matrix" values="0 0 0 0 0.039822 0 0 0 0 0.02875 0 0 0 0 0.191667 0 0 0 1 0"/>
<feBlend mode="normal" in2="BackgroundImageFix" result="effect1_dropShadow_1403_1407"/>
<feBlend mode="normal" in="SourceGraphic" in2="effect1_dropShadow_1403_1407" result="shape"/>
</filter>
<filter id="filter1_d_1403_1407" x="3.29486" y="3.88939" width="17.7032" height="17.7066" filterUnits="userSpaceOnUse" color-interpolation-filters="sRGB">
<feFlood flood-opacity="0" result="BackgroundImageFix"/>
<feColorMatrix in="SourceAlpha" type="matrix" values="0 0 0 0 0 0 0 0 0 0 0 0 0 0 0 0 0 0 127 0" result="hardAlpha"/>
<feOffset dy="0.592804"/>
<feGaussianBlur stdDeviation="0.592804"/>
<feComposite in2="hardAlpha" operator="out"/>
<feColorMatrix type="matrix" values="0 0 0 0 0.039822 0 0 0 0 0.02875 0 0 0 0 0.191667 0 0 0 1 0"/>
<feBlend mode="normal" in2="BackgroundImageFix" result="effect1_dropShadow_1403_1407"/>
<feBlend mode="normal" in="SourceGraphic" in2="effect1_dropShadow_1403_1407" result="shape"/>
</filter>
<filter id="filter2_f_1403_1407" x="-7.81531" y="10.7044" width="20.1306" height="20.13" filterUnits="userSpaceOnUse" color-interpolation-filters="sRGB">
<feFlood flood-opacity="0" result="BackgroundImageFix"/>
<feBlend mode="normal" in="SourceGraphic" in2="BackgroundImageFix" result="shape"/>
<feGaussianBlur stdDeviation="1.3725" result="effect1_foregroundBlur_1403_1407"/>
</filter>
<filter id="filter3_f_1403_1407" x="11.547" y="-7.70517" width="21.9606" height="21.96" filterUnits="userSpaceOnUse" color-interpolation-filters="sRGB">
<feFlood flood-opacity="0" result="BackgroundImageFix"/>
<feBlend mode="normal" in="SourceGraphic" in2="BackgroundImageFix" result="shape"/>
<feGaussianBlur stdDeviation="1.83" result="effect1_foregroundBlur_1403_1407"/>
</filter>
<radialGradient id="paint0_radial_1403_1407" cx="0" cy="0" r="1" gradientUnits="userSpaceOnUse" gradientTransform="translate(12.1453 12.1499) rotate(90) scale(32.235 32.2765)">
<stop stop-color="#9891F8" stop-opacity="0"/>
<stop offset="1" stop-color="#9891F8"/>
</radialGradient>
<linearGradient id="paint1_linear_1403_1407" x1="5.27368" y1="19.3143" x2="19.5843" y2="5.35142" gradientUnits="userSpaceOnUse">
<stop stop-color="#DAF7BC"/>
<stop offset="1" stop-color="#ACA7F4"/>
</linearGradient>
<linearGradient id="paint2_linear_1403_1407" x1="19.1097" y1="4.5737" x2="5.43956" y2="19.7261" gradientUnits="userSpaceOnUse">
<stop stop-color="#9891F8"/>
<stop offset="1" stop-color="#DAF7BC"/>
</linearGradient>
<radialGradient id="paint3_radial_1403_1407" cx="0" cy="0" r="1" gradientUnits="userSpaceOnUse" gradientTransform="translate(191.301 11.9812) rotate(-179.061) scale(91.5123 898.974)">
<stop stop-color="#DAF7BC"/>
<stop offset="1" stop-color="#9891F8"/>
</radialGradient>
</defs>
</svg>
